<svg xmlns="http://www.w3.org/2000/svg" width="50" height="50" viewBox="0 0 50 50">
  <g id="alarm-clock" transform="translate(-0.578 -1.157)">
    <circle id="Ellipse_56" data-name="Ellipse 56" cx="23" cy="23" r="23" transform="translate(2.578 3.157)" fill="#e0e1e2"/>
    <circle id="Ellipse_57" data-name="Ellipse 57" cx="12" cy="12" r="12" transform="translate(13.578 14.157)" fill="#fff"/>
    <path id="Path_4602" data-name="Path 4602" d="M25.578,51.157a25,25,0,1,1,25-25A25.029,25.029,0,0,1,25.578,51.157Zm0-46.429A21.429,21.429,0,1,0,47.007,26.157,21.453,21.453,0,0,0,25.578,4.728Z" transform="translate(0)" fill="#26b99a"/>
    <g id="Group_383" data-name="Group 383" transform="translate(5.578 6.036)">
      <path id="Path_4603" data-name="Path 4603" d="M28.578,6.036a1,1,0,0,0-1,1v1a1,1,0,1,0,2,0v-1A1,1,0,0,0,28.578,6.036Z" transform="translate(-8.578 -6.036)" fill="#26b99a"/>
      <path id="Path_4604" data-name="Path 4604" d="M28.578,49.036a1,1,0,0,0-1,1v1a1,1,0,0,0,2,0v-1A1,1,0,0,0,28.578,49.036Z" transform="translate(-8.578 -12.036)" fill="#26b99a"/>
      <path id="Path_4605" data-name="Path 4605" d="M50.578,28.036h-1a1,1,0,0,0,0,2h1a1,1,0,0,0,0-2Z" transform="translate(-11.578 -9.036)" fill="#26b99a"/>
      <path id="Path_4606" data-name="Path 4606" d="M7.578,28.036h-1a1,1,0,0,0,0,2h1a1,1,0,1,0,0-2Z" transform="translate(-5.578 -9.036)" fill="#26b99a"/>
      <path id="Path_4607" data-name="Path 4607" d="M43.427,12.772l-.707.707a1,1,0,1,0,1.414,1.414l.707-.707a1,1,0,1,0-1.414-1.414Z" transform="translate(-11.578 -6.036)" fill="#26b99a"/>
      <path id="Path_4608" data-name="Path 4608" d="M13.022,43.178l-.707.707A1,1,0,1,0,13.729,45.3l.707-.707a1,1,0,0,0-1.414-1.414Z" transform="translate(-5.578 -12.036)" fill="#26b99a"/>
      <path id="Path_4609" data-name="Path 4609" d="M44.134,43.178a1,1,0,0,0-1.414,1.414l.707.707a1,1,0,0,0,1.414-1.414Z" transform="translate(-11.578 -12.036)" fill="#26b99a"/>
      <path id="Path_4610" data-name="Path 4610" d="M13.729,12.772a1,1,0,0,0-1.414,1.414l.707.707a1,1,0,1,0,1.414-1.414Z" transform="translate(-5.578 -6.036)" fill="#26b99a"/>
    </g>
    <path id="Path_4611" data-name="Path 4611" d="M39.578,30.157h-8a1,1,0,0,1,0-2h8a1,1,0,0,1,0,2Z" transform="translate(-3.913 -3)" fill="#424a60"/>
    <path id="Path_4612" data-name="Path 4612" d="M28.578,27.157a1,1,0,0,1-1-1v-11a1,1,0,1,1,2,0v11A1,1,0,0,1,28.578,27.157Z" transform="translate(-3 -1.814)" fill="#424a60"/>
    <path id="Path_4613" data-name="Path 4613" d="M28.578,33.157a4,4,0,1,1,4-4A4,4,0,0,1,28.578,33.157Zm0-6a2,2,0,1,0,2,2A2,2,0,0,0,28.578,27.157Z" transform="translate(-3 -3)" fill="#424a60"/>
  </g>
</svg>
