<svg id="Group_113" data-name="Group 113" xmlns="http://www.w3.org/2000/svg" width="49.951" height="49.951" viewBox="0 0 49.951 49.951">
  <g id="Group_112" data-name="Group 112">
    <path id="Path_189" data-name="Path 189" d="M192.179,108.936a3.918,3.918,0,0,0,.215.395c.072.108.179.215.251.323a3.236,3.236,0,0,0,.359.323,1.208,1.208,0,0,0,.43.215,1.777,1.777,0,0,0,.466.143,2.207,2.207,0,0,0,.466.036,2.046,2.046,0,0,0,.466-.036,1.286,1.286,0,0,0,.395-.143h.036a2.675,2.675,0,0,0,.43-.251,2.323,2.323,0,0,0,.323-.287l.036-.036a1.971,1.971,0,0,0,.251-.323,1.123,1.123,0,0,0,.179-.359c0-.036,0-.036.036-.072a2.317,2.317,0,0,0,.143-.466,3.05,3.05,0,0,0,0-.933,3.326,3.326,0,0,0-.143-.466,2.036,2.036,0,0,0-.43-.646l-.072-.072a3.138,3.138,0,0,0-.359-.287c-.143-.072-.251-.143-.395-.215a2.022,2.022,0,0,0-.43-.143,2.207,2.207,0,0,0-.466-.036,2.045,2.045,0,0,0-.466.036,2.022,2.022,0,0,0-.43.143h-.036a3.918,3.918,0,0,0-.395.215,3.138,3.138,0,0,0-.359.287,2.325,2.325,0,0,0-.287.323,3.919,3.919,0,0,0-.215.395,2.021,2.021,0,0,0-.143.43,2.205,2.205,0,0,0-.036.466,2.045,2.045,0,0,0,.036.466A3.256,3.256,0,0,0,192.179,108.936Z" transform="translate(-169.444 -93.188)" fill="#838383"/>
    <path id="Path_190" data-name="Path 190" d="M184.057,190.521h-.825v-8.789a.926.926,0,0,0-.933-.933h-3.767a.926.926,0,0,0-.933.933v1.937a.926.926,0,0,0,.933.933h.753v5.955h-.753a.926.926,0,0,0-.933.933v1.937a.926.926,0,0,0,.933.933h5.524a.926.926,0,0,0,.933-.933V191.49A.957.957,0,0,0,184.057,190.521Z" transform="translate(-156.319 -157.826)" fill="#838383"/>
    <path id="Path_191" data-name="Path 191" d="M24.976,0A24.976,24.976,0,1,0,49.951,24.976,24.982,24.982,0,0,0,24.976,0Zm0,46.664A21.688,21.688,0,1,1,46.664,24.976,21.708,21.708,0,0,1,24.976,46.664Z" fill="#838383"/>
  </g>
</svg>
