<svg xmlns="http://www.w3.org/2000/svg" width="72.542" height="103" viewBox="0 0 72.542 103">
  <g id="idea_On" data-name="idea On" transform="translate(-2.016 -2.003)">
    <g id="Path_174" data-name="Path 174" transform="translate(-119.7 -117.45)" fill="#fff" stroke-miterlimit="10">
      <path d="M 144.9740142822266 195.1037292480469 L 143.8631134033203 195.1037292480469 L 143.5391845703125 194.0411071777344 C 142.1199951171875 189.3853607177734 139.3723297119141 185.3031768798828 135.59326171875 182.2358703613281 L 135.5843353271484 182.2286224365234 L 135.5755310058594 182.2212524414062 C 133.5720977783203 180.5435638427734 131.7587585449219 178.6363983154297 130.1858825683594 176.5526885986328 C 128.6322174072266 174.4944610595703 127.3081893920898 172.2576599121094 126.2505493164062 169.9044189453125 C 125.1929168701172 167.5511627197266 124.3992156982422 165.0760040283203 123.8915023803711 162.5476989746094 C 123.3775024414062 159.9880676269531 123.155143737793 157.3658294677734 123.2306213378906 154.7538299560547 C 123.3534774780273 150.373779296875 124.3137664794922 146.0931091308594 126.0847778320312 142.0319519042969 C 127.7972946166992 138.1049652099609 130.1932525634766 134.5457305908203 133.2060852050781 131.4531097412109 C 136.2260437011719 128.3531646728516 139.7194976806641 125.8725662231445 143.5894165039062 124.0802383422852 C 147.6053161621094 122.2202987670898 151.8601379394531 121.1830139160156 156.2359771728516 120.9971694946289 C 156.8287811279297 120.9676055908203 157.4287872314453 120.9526214599609 158.0195159912109 120.9526214599609 C 162.7377624511719 120.9526214599609 167.3085174560547 121.880989074707 171.6047668457031 123.7119369506836 C 175.7413177490234 125.4748229980469 179.4542846679688 127.9974822998047 182.6404876708984 131.2098541259766 C 185.8152160644531 134.4106292724609 188.3077850341797 138.135009765625 190.0489654541016 142.2795104980469 C 191.8468322753906 146.5589752197266 192.7584381103516 151.0943908691406 192.7584381103516 155.7598114013672 C 192.7620544433594 158.2849578857422 192.4859008789062 160.8162536621094 191.9376525878906 163.2812652587891 C 191.395751953125 165.7178192138672 190.5856628417969 168.1006774902344 189.5299072265625 170.3636474609375 C 188.4741668701172 172.6266174316406 187.1687164306641 174.7783508300781 185.6498107910156 176.7591094970703 C 184.1157073974609 178.7597045898438 182.356689453125 180.5949554443359 180.4215240478516 182.2140197753906 C 176.7806549072266 185.3585205078125 174.1061859130859 189.4496765136719 172.6863555908203 194.04638671875 L 172.3597869873047 195.1037139892578 L 171.253173828125 195.1037139892578 L 144.9740142822266 195.1037292480469 Z" stroke="none"/>
      <path d="M 144.9740142822266 193.6037292480469 L 171.253173828125 193.6037139892578 C 172.7554931640625 188.7399291992188 175.595947265625 184.3969573974609 179.4498596191406 181.0712127685547 C 186.9463653564453 174.8038635253906 191.2724151611328 165.5310363769531 191.2584381103516 155.7598114013672 C 191.2584381103516 137.5196685791016 176.5169219970703 122.4526214599609 158.0195159912109 122.4526214599609 C 157.4504547119141 122.4526214599609 156.8809509277344 122.4667739868164 156.3050842285156 122.4955825805664 C 139.1929473876953 123.2194976806641 125.2100448608398 137.6824340820312 124.7299880981445 154.7971496582031 C 124.4380416870117 164.9007873535156 128.7890472412109 174.5817565917969 136.5385589599609 181.0712127685547 C 140.5356597900391 184.3154907226562 143.4729309082031 188.6794128417969 144.9740142822266 193.6037292480469 M 144.9740142822266 196.6037292480469 L 142.7522125244141 196.6037292480469 L 142.1043701171875 194.4784851074219 C 140.7725982666016 190.1095428466797 138.1942138671875 186.2788543701172 134.6479644775391 183.4005126953125 L 134.6301116943359 183.3860321044922 L 134.6124877929688 183.3712615966797 C 132.5220642089844 181.6207427978516 130.6299285888672 179.6306915283203 128.9886779785156 177.4563903808594 C 127.3675079345703 175.3087310791016 125.985954284668 172.9747619628906 124.8823928833008 170.5193176269531 C 123.77880859375 168.0638580322266 122.9506378173828 165.4811859130859 122.4208602905273 162.843017578125 C 121.8845062255859 160.1721343994141 121.6524887084961 157.4359436035156 121.7312393188477 154.7104949951172 C 121.8594741821289 150.1387329101562 122.8616409301758 145.6704864501953 124.7098236083984 141.4323577880859 C 126.4949722290039 137.3388366699219 128.9920196533203 133.6291656494141 132.1316375732422 130.4064025878906 C 135.2797088623047 127.1749649047852 138.9225616455078 124.5886001586914 142.9590301513672 122.7191314697266 C 147.1523742675781 120.7770080566406 151.5959777832031 119.6935272216797 156.1671295166016 119.4987411499023 C 156.7830047607422 119.468132019043 157.4061737060547 119.4526138305664 158.0195007324219 119.4526138305664 C 162.9410247802734 119.4526138305664 167.7096252441406 120.4213790893555 172.1928558349609 122.3320159912109 C 176.5086517333984 124.1712951660156 180.3820648193359 126.8028335571289 183.7054748535156 130.1535339355469 C 187.0163116455078 133.4915313720703 189.6158447265625 137.3758239746094 191.431884765625 141.6985321044922 C 193.3074645996094 146.1629180908203 194.2584381103516 150.8938140869141 194.2584381103516 155.7598114013672 C 194.26220703125 158.3928833007812 193.9740295410156 161.0344696044922 193.4018707275391 163.6069183349609 C 192.8363647460938 166.1496276855469 191.9909973144531 168.6362915039062 190.8892517089844 170.9978179931641 C 189.7875366210938 173.3593444824219 188.4252014160156 175.6048278808594 186.8401184082031 177.671875 C 185.2415008544922 179.7566070556641 183.4089813232422 181.669189453125 181.3930511474609 183.35693359375 C 177.9700622558594 186.3163452148438 175.4550476074219 190.1653747558594 174.1195526123047 194.4890747070312 L 173.4663848876953 196.6037139892578 L 171.253173828125 196.6037139892578 L 144.9740142822266 196.6037292480469 Z" stroke="none" fill="#eee"/>
    </g>
    <path id="Path_175" data-name="Path 175" d="M216.979,257.22h2.1l-9.344-32.029h.7a4.818,4.818,0,0,0,3.27-1.284,2.4,2.4,0,0,1,3.27,0,4.22,4.22,0,0,0,6.074,0,2.215,2.215,0,0,1,1.635-.644,2.647,2.647,0,0,1,1.635.644,4.423,4.423,0,0,0,3.27,1.284h.7l-9.111,32.029h2.1l9.578-33.536c0-.429,0-.86-.467-1.073a1.094,1.094,0,0,0-1.168.213,2.087,2.087,0,0,1-1.4.647,3.266,3.266,0,0,1-1.869-.647,4.234,4.234,0,0,0-6.074,0,2.4,2.4,0,0,1-3.27,0,3.9,3.9,0,0,0-3.037-1.284h0a3.918,3.918,0,0,0-3.037,1.284,2.783,2.783,0,0,1-1.869.647,1.714,1.714,0,0,1-1.4-.647,1.094,1.094,0,0,0-1.168-.213.762.762,0,0,0-.467,1.073Z" transform="translate(-181.265 -183.101)" fill="#847886"/>
    <path id="Path_177" data-name="Path 177" d="M222.93,489.6a9.142,9.142,0,0,0,16.979,0Z" transform="translate(-192.702 -390.348)" fill="#514455"/>
    <path id="Path_178" data-name="Path 178" d="M224.306,416.124H203.524a5.208,5.208,0,0,1-3.63-1.438A4.814,4.814,0,0,1,198.4,411.2V390.547h31.03V411.2a4.817,4.817,0,0,1-1.5,3.491,5.211,5.211,0,0,1-3.629,1.438Z" transform="translate(-175.521 -316.597)" fill="#847886"/>
    <path id="Path_183" data-name="Path 183" d="M219.254,413.492H189.681a3.037,3.037,0,0,1-3.011-3.011h0a3.037,3.037,0,0,1,3.011-3.011h29.573a3.037,3.037,0,0,1,3.011,3.011h0A3.037,3.037,0,0,1,219.254,413.492Z" transform="translate(-166.948 -329.301)" fill="#c6bcc5"/>
    <path id="Path_184" data-name="Path 184" d="M219.254,450.825H189.681a3.039,3.039,0,0,1-3.011-3.014h0a3.037,3.037,0,0,1,3.011-3.011h29.573a3.037,3.037,0,0,1,3.011,3.011h0a3.039,3.039,0,0,1-3.011,3.014Z" transform="translate(-166.948 -357.048)" fill="#c6bcc5"/>
  </g>
</svg>
