<svg xmlns="http://www.w3.org/2000/svg" width="33.679" height="48.889" viewBox="0 0 33.679 48.889">
  <g id="location_gray" transform="translate(-303.333 -332.556)">
    <path id="Facebook_Places" d="M48.439,12.168a15.23,15.23,0,0,0-.789-1.956A16.433,16.433,0,0,0,32.167,0,16.457,16.457,0,0,0,15.555,15.166v2.086c0,.087.03.869.073,1.26.609,4.867,4.449,10.039,7.317,14.906,3.086,5.214,6.287,10.343,9.459,15.471,1.956-3.346,3.9-6.736,5.816-9.995.521-.956,1.126-1.912,1.647-2.825.348-.608,1.012-1.216,1.315-1.781,3.085-5.649,8.052-11.342,8.052-16.948v-2.3A17.346,17.346,0,0,0,48.439,12.168ZM32.3,22.641a5.977,5.977,0,0,1-5.722-4.085,5.667,5.667,0,0,1-.161-1.522V15.687c0-3.823,3.246-5.562,6.07-5.562a6.155,6.155,0,0,1,6.166,6.258A6.313,6.313,0,0,1,32.3,22.641Z" transform="translate(287.778 332.556)" fill="#a5a5a5"/>
  </g>
</svg>
