<svg xmlns="http://www.w3.org/2000/svg" width="27" height="27" viewBox="0 0 27 27">
  <path id="path" d="M14.167,14.273l4.655-4.655a1.227,1.227,0,0,0-1.736-1.736l-6.75,6.75a1.227,1.227,0,0,0,0,1.736l6.75,6.75a1.227,1.227,0,0,0,1.736-1.736l-4.655-4.655H27.778a1.227,1.227,0,0,0,0-2.455Zm2.56-9.818a1.227,1.227,0,1,0,0-2.455H5.074A3.071,3.071,0,0,0,2,5.072V25.928A3.072,3.072,0,0,0,5.074,29H16.727a1.227,1.227,0,1,0,0-2.455H5.074a.618.618,0,0,1-.619-.618V5.072a.617.617,0,0,1,.619-.618Z" transform="translate(-2 -2)"/>
</svg>
