<svg xmlns="http://www.w3.org/2000/svg" width="27.2" height="27.2" viewBox="0 0 27.2 27.2">
  <path id="path" d="M15.6,15.6a6.8,6.8,0,1,1,6.8-6.8A6.8,6.8,0,0,1,15.6,15.6Zm0-2.473A4.327,4.327,0,1,0,11.273,8.8,4.327,4.327,0,0,0,15.6,13.127Zm12.869,8.756a7.963,7.963,0,0,1,.5,2.051q.138.947.213,1.9l.014.185,0,.088A3.091,3.091,0,0,1,26.113,29.2H5.087A3.091,3.091,0,0,1,2,26.109l0-.088.014-.185q.079-.954.213-1.9a7.962,7.962,0,0,1,.5-2.051c.95-2.063,7.945-5.047,12.869-5.047S27.519,19.82,28.469,21.883Zm-2.372.942a6.363,6.363,0,0,0-.726-.53,17.969,17.969,0,0,0-2.59-1.338A19.073,19.073,0,0,0,15.6,19.309a19.075,19.075,0,0,0-7.181,1.648A17.969,17.969,0,0,0,5.83,22.3a6.419,6.419,0,0,0-.726.53,1.877,1.877,0,0,0-.147.142,7.723,7.723,0,0,0-.279,1.327c-.061.414-.113.862-.156,1.311-.022.231-.038.418-.048.538a.618.618,0,0,0,.614.585H26.113a.618.618,0,0,0,.614-.585c-.009-.121-.025-.307-.048-.538q-.062-.657-.156-1.311a7.724,7.724,0,0,0-.279-1.327A1.758,1.758,0,0,0,26.1,22.825Z" transform="translate(-2 -2)" fill="#040605"/>
</svg>
