<svg xmlns="http://www.w3.org/2000/svg" width="36.5" height="24.5" viewBox="0 0 36.5 24.5">
  <g id="dashboard" transform="translate(1.25 -90.083)">
    <g id="Group_315" data-name="Group 315" transform="translate(-1 90.333)">
      <g id="Group_314" data-name="Group 314">
        <path id="Path_4571" data-name="Path 4571" d="M243.922,213.526l-8.78,7.72c-.012.01-.023.021-.034.032a1.5,1.5,0,0,0,1.059,2.562,1.521,1.521,0,0,0,1.094-.475l7.72-8.78a.75.75,0,0,0-1.059-1.058Z" transform="translate(-218.167 -204.339)" stroke="#040605" stroke-width="0.5"/>
        <path id="Path_4572" data-name="Path 4572" d="M18,85.333A18,18,0,0,0,.855,108.812a.751.751,0,0,0,.715.522H34.43a.751.751,0,0,0,.715-.522A18,18,0,0,0,18,85.333Zm14.25,18.75h2.2a16.427,16.427,0,0,1-.575,3.75H2.127a16.428,16.428,0,0,1-.575-3.75h2.2a.75.75,0,1,0,0-1.5H1.538a16.372,16.372,0,0,1,1.824-6.835l1.921,1.11a.75.75,0,0,0,.75-1.3L4.117,94.451a16.609,16.609,0,0,1,5-5l1.107,1.918a.749.749,0,1,0,1.3-.75L10.415,88.7a16.372,16.372,0,0,1,6.835-1.825v2.212a.75.75,0,1,0,1.5,0V86.871A16.372,16.372,0,0,1,25.586,88.7l-1.109,1.922a.749.749,0,1,0,1.3.75l1.107-1.918a16.609,16.609,0,0,1,5,5l-1.917,1.107a.75.75,0,0,0,.75,1.3l1.921-1.11a16.372,16.372,0,0,1,1.824,6.835H32.25a.75.75,0,1,0,0,1.5Z" transform="translate(0 -85.333)" stroke="#040605" stroke-width="0.5"/>
      </g>
    </g>
  </g>
</svg>
