<svg xmlns="http://www.w3.org/2000/svg" width="30.905" height="28.8" viewBox="0 0 30.905 28.8">
  <path id="Forma_1" data-name="Forma 1" d="M92.7,329.552a1.683,1.683,0,0,1-2.367,0L79.27,318.563a.992.992,0,0,0-1.354,0l-11.06,10.988a1.681,1.681,0,0,1-2.367,0,1.655,1.655,0,0,1,0-2.35l11.061-10.987a4.721,4.721,0,0,1,6.318,0l3.294,3.272v-1.752a1.511,1.511,0,0,1,1.478-1.662,1.483,1.483,0,0,1,1.441,1.662v5.076L92.5,327.2A1.667,1.667,0,0,1,92.7,329.552Zm-14.686-7.833a.825.825,0,0,1,1.162,0l9.394,9.662a.812.812,0,0,1,.241.578v7.047A3,3,0,0,1,85.8,342H81.514v-7.3H75.676V342H70.464a2.84,2.84,0,0,1-2.815-2.994v-7.047a.815.815,0,0,1,.241-.578Z" transform="translate(-63.1 -314.1)" fill="none" stroke="#000" stroke-width="1.8"/>
</svg>
