<svg xmlns="http://www.w3.org/2000/svg" width="80" height="80" viewBox="0 0 80 80">
  <g id="Group_400" data-name="Group 400" transform="translate(-704 -331)">
    <circle id="Ellipse_36" data-name="Ellipse 36" cx="40" cy="40" r="40" transform="translate(704 331)" fill="#f4f4f6"/>
    <path id="users" d="M3147.84-610.268c-4-1.473-4.84-3.61-4.84-5.143a14.224,14.224,0,0,1,6.457-11.911,11.126,11.126,0,0,0,1.74,1.767,11.808,11.808,0,0,0-5.774,10.143c0,1.455,2.039,2.423,3.254,2.87a26.133,26.133,0,0,0,8.549,1.276,26.133,26.133,0,0,0,8.549-1.276c1.215-.447,3.254-1.416,3.254-2.87a11.808,11.808,0,0,0-5.774-10.143,11.128,11.128,0,0,0,1.74-1.767,14.225,14.225,0,0,1,6.456,11.911c0,1.533-.84,3.67-4.84,5.143a28.186,28.186,0,0,1-9.385,1.425A28.187,28.187,0,0,1,3147.84-610.268Zm1.45-25.117c0-5.125,3.452-9.458,7.935-9.458s7.936,4.334,7.936,9.458-3.452,9.458-7.936,9.458S3149.29-630.261,3149.29-635.386Zm2.422,0c0,3.879,2.473,7.036,5.513,7.036s5.513-3.156,5.513-7.036-2.473-7.036-5.513-7.036S3151.712-639.265,3151.712-635.386Z" transform="translate(-2413.5 998.344)" stroke="#f4f4f6" stroke-width="0.5"/>
  </g>
</svg>
