<svg xmlns="http://www.w3.org/2000/svg" width="80" height="80" viewBox="0 0 80 80">
  <g id="Group_343" data-name="Group 343" transform="translate(-723 -470)">
    <g id="Group_239" data-name="Group 239" transform="translate(254 178)">
      <circle id="Ellipse_36" data-name="Ellipse 36" cx="40" cy="40" r="40" transform="translate(469 292)" fill="#f4f4f6"/>
    </g>
    <g id="trello" transform="translate(745 492)">
      <path id="Path_192" data-name="Path 192" d="M32.087,0H3.913A3.918,3.918,0,0,0,0,3.913V32.087A3.918,3.918,0,0,0,3.913,36H32.087A3.918,3.918,0,0,0,36,32.087V3.913A3.918,3.918,0,0,0,32.087,0Zm2.348,32.087a2.351,2.351,0,0,1-2.348,2.348H3.913a2.351,2.351,0,0,1-2.348-2.348V3.913A2.351,2.351,0,0,1,3.913,1.565H32.087a2.351,2.351,0,0,1,2.348,2.348Zm0,0"/>
      <path id="Path_194" data-name="Path 194" d="M216.609,64h-7.826a.782.782,0,0,0-.783.783V80.435a.782.782,0,0,0,.783.783h7.826a.782.782,0,0,0,.783-.783V64.783A.782.782,0,0,0,216.609,64Zm-.783,15.652h-6.261V65.565h6.261Zm0,0" transform="translate(-199.758 -55.049)"/>
    </g>
  </g>
</svg>
