<svg xmlns="http://www.w3.org/2000/svg" width="80" height="80" viewBox="0 0 80 80">
  <g id="Group_417" data-name="Group 417" transform="translate(-1005 -726)">
    <circle id="Ellipse_36" data-name="Ellipse 36" cx="40" cy="40" r="40" transform="translate(1005 726)" fill="#f4f4f6"/>
    <path id="Path_4614" data-name="Path 4614" d="M35.2,44H3.2A3.045,3.045,0,0,1,0,40.8c0-1.841,0-5.273,0-6.057,0-3.2,4.328-9.829,10.629-9.829l8.457,8.571h.229s6.266-6.381,8.457-8.571c6.752,0,10.629,7.23,10.629,9.829V40.8A2.948,2.948,0,0,1,35.2,44Zm-16-21.829A11.089,11.089,0,0,1,8.579,14.264a8.229,8.229,0,0,1-5.836,2.307A7.623,7.623,0,0,1,6.286,9.714,8.238,8.238,0,0,1,2.743,2.857c4.557,0,5.9,2.633,6.573,3.21a11.085,11.085,0,1,1,9.884,16.1ZM23.314,8.343H15.086a2.72,2.72,0,0,0-2.743,2.743H26.057A2.788,2.788,0,0,0,23.314,8.343Z" transform="translate(1026 744)" fill="#212529" fill-rule="evenodd"/>
  </g>
</svg>
