<svg xmlns="http://www.w3.org/2000/svg" width="156" height="156" viewBox="0 0 156 156">
  <g id="Group_416" data-name="Group 416" transform="translate(-845 -395)">
    <circle id="Ellipse_36" data-name="Ellipse 36" cx="78" cy="78" r="78" transform="translate(845 395)" fill="#f4f4f6"/>
    <path id="organisations" d="M0,82V74.2l5.857-.01V3.9A3.9,3.9,0,0,1,9.762,0H64.429a3.9,3.9,0,0,1,3.9,3.9V74.19H74.19V82ZM60.524,7.81H13.667V74.19H31.238V60.524H42.952V74.19H60.524ZM41,44.9H52.714V56.619H41Zm0-15.619H52.714V41H41Zm0-15.619H52.714V25.381H41ZM21.476,44.9H33.19V56.619H21.476Zm0-15.619H33.19V41H21.476Zm0-15.619H33.19V25.381H21.476Z" transform="translate(886 432)" fill="#212529" fill-rule="evenodd"/>
  </g>
</svg>
