<svg xmlns="http://www.w3.org/2000/svg" width="80" height="80" viewBox="0 0 80 80">
  <g id="Group_403" data-name="Group 403" transform="translate(-704 -807)">
    <g id="Group_402" data-name="Group 402">
      <circle id="Ellipse_36" data-name="Ellipse 36" cx="40" cy="40" r="40" transform="translate(704 807)" fill="#f4f4f6"/>
    </g>
    <g id="location" transform="translate(725.048 827.78)">
      <path id="Path_4333" data-name="Path 4333" d="M37.922,17.793a.611.611,0,0,0,.037-.185.635.635,0,0,0-.032-.2l-.049-.139A18.979,18.979,0,0,0,30.968,4.495c-.279-.227-.571-.433-.863-.644-.015-.012-.022-.029-.038-.041s-.029-.01-.042-.019A19.073,19.073,0,0,0,18.948.221c-.164,0-.328,0-.451.013a18.6,18.6,0,0,0-6.2,1.193A5.7,5.7,0,0,0,3.084,5.932a6.027,6.027,0,0,0,.5,2.1,19.077,19.077,0,0,0-1.7,2.808c-.01.015-.015.032-.024.047a19.037,19.037,0,0,0,33.853,17.4,18.741,18.741,0,0,0,2.251-8.1c.02-.306.027-.618.027-.93,0-.492-.025-.979-.064-1.465Zm-1.844-3.257c-.081-.072-.155-.154-.239-.22a8.363,8.363,0,0,0-2.771-1.384,5.965,5.965,0,0,0-2.782-.029,5.486,5.486,0,0,1-2.37.012c-1.517-.331-2.716-.592-3.352-1.608a3.458,3.458,0,0,1,.477-4.233,1.448,1.448,0,0,1,1.086-.232,4.057,4.057,0,0,0,1.967-.331,5.1,5.1,0,0,0,1.713-1.3c.12.093.247.176.364.272a17.744,17.744,0,0,1,5.907,9.058ZM8.8,1.49a4.449,4.449,0,0,1,4.442,4.442c0,1.9-2.851,6.244-4.442,8.447a39.88,39.88,0,0,1-3.915-6.5,5.289,5.289,0,0,1-.527-1.942A4.447,4.447,0,0,1,8.8,1.49ZM1.18,19.258a17.968,17.968,0,0,1,.356-3.521c.068.882.183,1.667.286,2.348.393,2.6.765,5.055,2.682,7.3.8.945,2.145,2.525,4.221,2.759s4.676-.961,5.427-1.333l.288-.145a2.791,2.791,0,0,1,1.326-.424,3.13,3.13,0,0,1,2.076,1.06,3.754,3.754,0,0,1,.588,4.283,1.949,1.949,0,0,1-.975.677,2.965,2.965,0,0,0-1.591,1.269,3.919,3.919,0,0,0-.274,3.173A17.8,17.8,0,0,1,1.18,19.258ZM18.948,37.026a17.9,17.9,0,0,1-1.836-.095,2.247,2.247,0,0,1-.145-.208,2.7,2.7,0,0,1-.012-2.546,1.751,1.751,0,0,1,1-.75,3.162,3.162,0,0,0,1.513-1.111c1.1-1.552.791-4.241-.679-5.867a4.358,4.358,0,0,0-3.006-1.48h-.028a3.846,3.846,0,0,0-1.89.563l-.271.137a9.973,9.973,0,0,1-4.725,1.206c-1.576-.176-2.67-1.466-3.4-2.32-1.683-1.967-2.012-4.144-2.393-6.663a18.246,18.246,0,0,1-.048-6.527,17.8,17.8,0,0,1,1.15-1.993c.021.042.044.085.064.127.041.081.082.161.127.241l.191.361q.066.122.133.244.1.181.2.362c.046.08.091.16.138.24l.213.36c.047.079.093.157.141.235.075.127.151.245.226.368.043.069.086.14.127.208.094.151.187.3.28.444l.074.116q.174.27.345.527c.043.064.085.127.127.191.07.1.139.209.207.31l.151.22.163.238.152.219.139.2c.045.064.1.137.143.2l.116.164.127.175.1.143.1.139.082.112.077.105.046.064.112.15a.634.634,0,0,0,1.015,0c.533-.706,5.2-6.97,5.2-9.9,0-.185-.011-.369-.029-.552-.006-.056-.015-.113-.022-.169-.016-.127-.036-.254-.063-.381-.012-.064-.025-.123-.039-.184q-.044-.191-.1-.381c-.016-.051-.029-.1-.046-.152-.057-.17-.121-.338-.194-.5-.014-.031-.031-.064-.045-.092-.064-.132-.127-.263-.2-.39-.032-.057-.067-.112-.1-.168q-.092-.15-.191-.3c-.039-.056-.079-.113-.121-.168-.022-.028-.04-.058-.064-.085a17.329,17.329,0,0,1,4.078-.845,7.318,7.318,0,0,0-.943,5.14,6.616,6.616,0,0,0,1.523,2.776,3.113,3.113,0,0,1,1,2.142c-.055,1.84-2.133,3.372-2.919,3.951a10.927,10.927,0,0,1-3.407,1.646c-1.153.376-2.147.7-2.527,1.836a3.618,3.618,0,0,0,1.537,3.913,3.206,3.206,0,0,0,2.529.223,7.805,7.805,0,0,1,2.8-.134c1.206.171,2.245.317,2.738,1.008a2.281,2.281,0,0,1,.22,1.621,7.688,7.688,0,0,0,.329,3.289c.289.868.727,2.179,1.777,2.33a1.314,1.314,0,0,0,.206.016c.743,0,1.2-.656,1.677-1.347.211-.305.444-.635.723-.965,1.306,2.11,2.633,3.871,2.694,3.955a.635.635,0,0,0,1.015,0A52.754,52.754,0,0,0,32.1,27.183a8.338,8.338,0,0,1,2.2,1,17.739,17.739,0,0,1-15.352,8.838ZM30.793,19.757a4.431,4.431,0,0,1,1.482,3.308,7.565,7.565,0,0,1-1.065,3.08,47.3,47.3,0,0,1-3.377,5.365c-.6-.832-1.625-2.309-2.544-3.861a23.464,23.464,0,0,1-1.371-2.642,5.289,5.289,0,0,1-.527-1.942,4.447,4.447,0,0,1,4.442-4.442q.206,0,.409.019a4.4,4.4,0,0,1,2.552,1.115Zm5.9.366a17.482,17.482,0,0,1-1.787,6.945,9.651,9.651,0,0,0-2.228-1.038,7.518,7.518,0,0,0,.865-2.965,5.735,5.735,0,0,0-3.2-5.129l-.04-.018c-.142-.068-.286-.133-.433-.19-.1-.039-.206-.07-.309-.1-.064-.019-.121-.043-.182-.064-.164-.046-.33-.084-.5-.116h-.008c-.1-.019-.2-.029-.307-.042a5.671,5.671,0,0,0-6.449,5.661A6.533,6.533,0,0,0,22.75,25.5a23.411,23.411,0,0,0,1.2,2.364,11.7,11.7,0,0,0-1.087,1.386,3.3,3.3,0,0,1-.653.8c-.127-.019-.362-.29-.762-1.477a6.51,6.51,0,0,1-.267-2.8,3.394,3.394,0,0,0-.453-2.449C19.92,22.2,18.506,22,17.129,21.8a8.941,8.941,0,0,0-3.21.144c-.812.155-1.189.213-1.62-.055a2.4,2.4,0,0,1-1-2.432c.169-.508.677-.691,1.713-1.031a12.182,12.182,0,0,0,3.77-1.832c.925-.678,3.363-2.478,3.437-4.934a4.267,4.267,0,0,0-1.281-2.974A5.488,5.488,0,0,1,17.662,6.42a6.671,6.671,0,0,1,1.213-4.93h.073a17.81,17.81,0,0,1,9.82,2.969,3.812,3.812,0,0,1-1.2.9,2.841,2.841,0,0,1-1.406.22,2.661,2.661,0,0,0-1.886.485,4.7,4.7,0,0,0-.79,5.92c.921,1.47,2.493,1.813,4.21,2.187a6.644,6.644,0,0,0,2.8-.012,4.787,4.787,0,0,1,2.252.007,7.07,7.07,0,0,1,2.3,1.153,5.2,5.2,0,0,1,1.576,2.25c.052.561.084,1.123.084,1.694,0,.284-.006.571-.025.865Zm0,0" transform="translate(0 0)"/>
      <path id="Path_4334" data-name="Path 4334" d="M81.976,37.307a2.538,2.538,0,1,0-2.538-2.538A2.538,2.538,0,0,0,81.976,37.307Zm0-3.807a1.269,1.269,0,1,1-1.269,1.269A1.269,1.269,0,0,1,81.976,33.5Zm0,0" transform="translate(-73.181 -29.472)"/>
      <path id="Path_4335" data-name="Path 4335" d="M319.438,250.768a2.538,2.538,0,1,0,2.538-2.538A2.538,2.538,0,0,0,319.438,250.768Zm3.807,0a1.269,1.269,0,1,1-1.269-1.269A1.269,1.269,0,0,1,323.245,250.768Zm0,0" transform="translate(-294.144 -228.338)"/>
    </g>
  </g>
</svg>
