<svg xmlns="http://www.w3.org/2000/svg" width="80" height="80" viewBox="0 0 80 80">
  <g id="Group_401" data-name="Group 401" transform="translate(-704 -648)">
    <circle id="Ellipse_36" data-name="Ellipse 36" cx="40" cy="40" r="40" transform="translate(704 648)" fill="#f4f4f6"/>
    <path id="users" d="M3147.794-614.264c-3.962-1.459-4.795-3.576-4.795-5.1a14.092,14.092,0,0,1,6.4-11.8,11.1,11.1,0,0,0,1.724,1.751,11.7,11.7,0,0,0-5.72,10.048c0,1.441,2.02,2.4,3.224,2.843a25.881,25.881,0,0,0,8.469,1.264,25.88,25.88,0,0,0,8.469-1.264c1.2-.443,3.224-1.4,3.224-2.843a11.7,11.7,0,0,0-5.72-10.048,11.005,11.005,0,0,0,1.724-1.751,14.092,14.092,0,0,1,6.4,11.8c0,1.519-.831,3.636-4.794,5.1a27.927,27.927,0,0,1-9.3,1.411A27.931,27.931,0,0,1,3147.794-614.264Zm25.905-5.1q0-.647-.049-1.282a16.03,16.03,0,0,0,2.7-.7c1-.368,2.677-1.156,2.677-2.3a9.942,9.942,0,0,0-4.61-8.386,9.953,9.953,0,0,0,1.771-1.839,12.449,12.449,0,0,1,5.354,10.225c0,1.4-.75,3.344-4.323,4.659a19.184,19.184,0,0,1-3.644.9A6.586,6.586,0,0,0,3173.7-619.36Zm-24.469-19.787c0-5.077,3.42-9.369,7.862-9.369s7.861,4.293,7.861,9.369-3.42,9.369-7.861,9.369S3149.231-634.07,3149.231-639.147Zm2.4,0c0,3.843,2.45,6.97,5.462,6.97s5.461-3.127,5.461-6.97-2.45-6.97-5.461-6.97S3151.631-642.99,3151.631-639.147Zm14.559,5.736a12.742,12.742,0,0,0,.8-2.143,3.74,3.74,0,0,0,2.094.66c2.511,0,4.553-2.627,4.553-5.857s-2.042-5.857-4.553-5.857a4.024,4.024,0,0,0-3.016,1.475,11.852,11.852,0,0,0-1.234-1.948,6.1,6.1,0,0,1,4.25-1.772c3.841,0,6.8,3.712,6.8,8.1s-2.957,8.1-6.8,8.1A5.9,5.9,0,0,1,3166.19-633.411Z" transform="translate(-2418.5 1319.353)" stroke="#f4f4f6" stroke-width="0.5"/>
  </g>
</svg>
