<?xml version="1.0" standalone="no"?>
<!DOCTYPE svg PUBLIC "-//W3C//DTD SVG 1.1//EN" "http://www.w3.org/Graphics/SVG/1.1/DTD/svg11.dtd" >
<svg>
<metadata>
Created by FontForge 20090914 at Wed Apr 10 11:04:25 2019
 By www-data
&#194;&#169; 2017 Microsoft Corporation. All rights reserved.
</metadata>
<defs>
<font id="Bahnschrift" horiz-adv-x="0" >
  <font-face 
    font-family="Bahnschrift"
    font-weight="400"
    font-stretch="normal"
    units-per-em="2048"
    panose-1="2 11 5 2 4 2 4 2 2 3"
    ascent="1626"
    descent="-422"
    x-height="1038"
    cap-height="1454"
    bbox="-780 -432.999 1943 2014"
    underline-thickness="50"
    underline-position="-75"
    unicode-range="U+0020-U+2122"
  />
<missing-glyph horiz-adv-x="1024" 
d="M102 0v1084h820v-1084h-820zM204 102h616v880h-616v-880z" />
    <glyph glyph-name=".notdef" horiz-adv-x="1024" 
d="M102 0v1084h820v-1084h-820zM204 102h616v880h-616v-880z" />
    <glyph glyph-name="space" unicode=" " horiz-adv-x="350" 
 />
    <glyph glyph-name="exclam" unicode="!" horiz-adv-x="464" 
d="M130 373v1081h204v-1081h-204zM130 0v204h204v-204h-204z" />
    <glyph glyph-name="quotedbl" unicode="&#x22;" horiz-adv-x="775" 
d="M130 944v510h204v-510h-204zM441 944v510h204v-510h-204z" />
    <glyph glyph-name="numbersign" unicode="#" horiz-adv-x="1278" 
d="M646 0l248 1454h163l-248 -1454h-163zM222 0l248 1454h163l-248 -1454h-163zM149 1101h1059v-169h-1059v169zM90 522h1059v-169h-1059v169z" />
    <glyph glyph-name="dollar" unicode="$" horiz-adv-x="1181" 
d="M577 -15c-64.667 0 -125.832 7.83301 -183.499 23.5s-111.667 39 -162 70s-97.5 69.833 -141.5 116.5v0l137 166v0c96 -116 212.667 -174 350 -174c94.667 0 165.334 18.5 212.001 55.5s70 93.167 70 168.5v1c0 52 -12.5 92 -37.5 120s-58.167 48.667 -99.5 62
s-86 24.666 -134 33.999c-50 10 -100.833 21.167 -152.5 33.5s-99.167 31.5 -142.5 57.5s-78.166 63.667 -104.499 113s-39.5 116 -39.5 200v1c0 145.333 39.5 254.333 118.5 327s198.167 109 357.5 109c70 0 138.833 -11 206.5 -33s134.5 -55 200.5 -99v0l-123 -169v0
c-98 66 -192.667 99 -284 99c-88.667 0 -154.834 -18.167 -198.501 -54.5s-65.5 -90.833 -65.5 -163.5v-1c0 -54.667 14.5 -96.167 43.5 -124.5s67 -49.333 114 -63s97.167 -26.5 150.5 -38.5c48 -10.667 95.667 -23.5 143 -38.5s90.666 -36.833 129.999 -65.5
s70.666 -67.667 93.999 -117s35 -113.666 35 -192.999v-2c0 -140.667 -41.167 -246 -123.5 -316s-205.833 -105 -370.5 -105zM494.002 -177v241h204v-241h-204zM494.002 1403v228h204v-228h-204z" />
    <glyph glyph-name="percent" unicode="%" horiz-adv-x="1407" 
d="M213 0l790 1454h179l-790 -1454h-179zM1065 -15c-77.333 0 -137 22.499 -179 67.499s-63 107.833 -63 188.5v125c0 80.667 21 143.5 63 188.5s101.667 67.5 179 67.5s137 -22.667 179 -68s63 -108.666 63 -189.999v-123c0 -80.667 -21.167 -143.5 -63.5 -188.5
s-101.833 -67.5 -178.5 -67.5zM1064 143.999c50.667 0 76 29 76 87v147c0 56 -25.333 84 -76 84c-49.333 0 -74 -28.333 -74 -85v-146c0 -58 24.667 -87 74 -87zM342 830.999c-77.333 0 -137 22.499 -179 67.499s-63 107.833 -63 188.5v125c0 80.667 21 143.5 63 188.5
s101.667 67.5 179 67.5s137 -22.667 179 -68s63 -108.666 63 -189.999v-123c0 -80.667 -21 -143.5 -63 -188.5s-101.667 -67.5 -179 -67.5zM341 989.998c50.667 0 76 29 76 87v147c0 56 -25.333 84 -76 84c-49.333 0 -74 -28.333 -74 -85v-146c0 -58 24.667 -87 74 -87z" />
    <glyph glyph-name="ampersand" unicode="&#x26;" horiz-adv-x="1335" 
d="M1046 0l-553.999 578c-70 70.667 -124.167 147.334 -162.5 230.001s-57.5 168.667 -57.5 258c0 126.667 34 225 102 295s164 105 288 105c123.333 0 218.833 -33.5 286.5 -100.5s101.5 -161.833 101.5 -284.5v0h-204v0c0 59.333 -16 105.166 -48 137.499
s-77.333 48.5 -136 48.5s-104.334 -17.5 -137.001 -52.5s-49 -84.5 -49 -148.5c0 -58.667 14.333 -119.167 43 -181.5s69 -121.5 121 -177.5l665 -707h-259zM589.001 639c-83.333 0 -147.665 -20.668 -192.998 -62.001s-68 -99.666 -68 -174.999
c0 -74 24.167 -131.5 72.5 -172.5s116.5 -61.5 204.5 -61.5c126 0 223.667 49.667 293 149s104 239.333 104 420h194c0 -159.333 -25 -295 -75 -407s-122.333 -197.5 -217 -256.5s-209.334 -88.5 -344.001 -88.5c-136.667 0 -242.5 36.333 -317.5 109
s-112.5 175.334 -112.5 308.001c0 118.667 32.667 213.667 98 285s157.666 112.666 276.999 123.999z" />
    <glyph glyph-name="quotesingle" unicode="'" horiz-adv-x="364" 
d="M80 944v510h204v-510h-204z" />
    <glyph glyph-name="parenleft" unicode="(" horiz-adv-x="695" 
d="M675 1482c-200.667 -223.333 -301 -501.331 -301 -833.998c0 -166.667 25 -319.334 75 -458.001s125.333 -264.334 226 -377.001l-140 -126c-236.667 256.667 -355 577 -355 961s118.333 704.333 355 961z" />
    <glyph glyph-name="parenright" unicode=")" horiz-adv-x="695" 
d="M20 1482l140 126.998c236.667 -256.667 355 -577 355 -961s-118.333 -704.333 -355 -961l-140 126c100.667 112.667 176 238.334 226 377.001s75 291.334 75 458.001c0 332.667 -100.333 610.667 -301 834z" />
    <glyph glyph-name="asterisk" unicode="*" horiz-adv-x="881" 
d="M601 827l-225 310l129 94l225 -310zM280 827l-129 94l225 310l129 -94zM416 1108l-364 119l49 151l364 -118zM361 1184v383h159v-383h-159zM465 1108l-49 152l364 118l49 -151z" />
    <glyph glyph-name="plus" unicode="+" horiz-adv-x="1082" 
d="M140 767h812v-194h-812v194zM648 1076v-812h-204v812h204z" />
    <glyph glyph-name="comma" unicode="," horiz-adv-x="464" 
d="M130 -202v406h204v-204z" />
    <glyph glyph-name="hyphen" unicode="-" horiz-adv-x="982" 
d="M160 618h672v-194h-672v194z" />
    <glyph glyph-name="period" unicode="." horiz-adv-x="464" 
d="M130 0v204h204v-204h-204z" />
    <glyph glyph-name="slash" unicode="/" horiz-adv-x="775" 
d="M860 1626l-675 -1902h-195l675 1902h195z" />
    <glyph glyph-name="zero" unicode="0" horiz-adv-x="1130" 
d="M565 -18c-138.667 0 -242.5 37 -311.5 111s-103.5 174.667 -103.5 302v664c0 128.667 35 229.667 105 303s173.333 110 310 110c137.333 0 240.833 -36.5 310.5 -109.5s104.5 -174.167 104.5 -303.5v-664c0 -128.667 -35 -229.667 -105 -303s-173.333 -110 -310 -110z
M565 176c74.667 0 128.5 19.5 161.5 58.5s49.5 92.5 49.5 160.5v664c0 68.667 -16.5 122.334 -49.5 161.001s-86.833 58 -161.5 58s-128.5 -19.333 -161.5 -58s-49.5 -92.334 -49.5 -161.001v-664c0 -68 16.5 -121.5 49.5 -160.5s86.833 -58.5 161.5 -58.5z" />
    <glyph glyph-name="one" unicode="1" horiz-adv-x="681" 
d="M501 1454v-1454h-204v1232l-207 -127v211l207 138h204z" />
    <glyph glyph-name="two" unicode="2" horiz-adv-x="1058" 
d="M128 0v176.996l507 676c28.667 38.667 51.334 78.667 68.001 120s25 80.333 25 117v2c0 58.667 -17 104.334 -51 137.001s-82.333 49 -145 49c-58.667 0 -106.5 -17.667 -143.5 -53s-59.5 -85.666 -67.5 -150.999v-1h-211v1c18 126.667 63.667 224.667 137 294
s167.666 104 282.999 104c130.667 0 231.667 -33.333 303 -100s107 -160.667 107 -282v-1c0 -51.333 -10.667 -105.166 -32 -161.499s-51 -110.166 -89 -161.499l-421 -572h550v-194h-820z" />
    <glyph glyph-name="three" unicode="3" horiz-adv-x="1083" 
d="M526 -18c-122.667 0 -222.167 32.001 -298.5 96.001s-122.166 154.333 -137.499 271v1h208v-1c9.33301 -54.667 34 -96.834 74 -126.501s91.333 -44.5 154 -44.5c67.333 0 119.666 18 156.999 54s56 86.667 56 152v47c0 72.667 -17.667 128.834 -53 168.501
s-85.333 59.5 -150 59.5h-103v194h103c57.333 0 101.5 17 132.5 51s46.5 82 46.5 144v48c0 57.333 -16.5 101.666 -49.5 132.999s-79.833 47 -140.5 47c-51.333 0 -94.833 -14 -130.5 -42s-60.167 -67.667 -73.5 -119v-1h-207v1
c20.667 113.333 66.834 201.166 138.501 263.499s162.5 93.5 272.5 93.5c124.667 0 221.5 -33 290.5 -99s103.5 -159 103.5 -279v-47c0 -68 -19.667 -127.167 -59 -177.5s-95 -87.166 -167 -110.499c79.333 -16 140.833 -52.667 184.5 -110s65.5 -130.333 65.5 -219v-47
c0 -127.333 -36.333 -226 -109 -296s-175.334 -105 -308.001 -105z" />
    <glyph glyph-name="four" unicode="4" horiz-adv-x="1165" 
d="M130 223v177l488 1053h210l-476 -1041h713v-189h-935zM757 -1v856h199v-856h-199z" />
    <glyph glyph-name="five" unicode="5" horiz-adv-x="1115" 
d="M556 -18c-110.667 0 -201.497 31.834 -272.497 95.501s-115.5 153.5 -133.5 269.5v1h204v-1c6.66699 -53.333 27.667 -94.833 63 -124.5s81.666 -44.5 138.999 -44.5c65.333 0 115.833 21.833 151.5 65.5s53.5 105.167 53.5 184.5v125
c0 79.333 -17.833 140.666 -53.5 183.999s-86.167 65 -151.5 65c-35.333 0 -69.333 -10 -102 -30s-61.334 -48 -86.001 -84h-186v766h741v-194h-537v-327c25.333 20.667 53.666 36.667 84.999 48s63.333 17 96 17c126.667 0 224.667 -38.833 294 -116.5
s104 -187.167 104 -328.5v-125c0 -142 -35.667 -251.833 -107 -329.5s-172 -116.5 -302 -116.5z" />
    <glyph glyph-name="six" unicode="6" horiz-adv-x="1051" 
d="M515 -18c-125.333 0 -222.501 38.5 -291.501 115.5s-103.5 185.833 -103.5 326.5v1c0 62.667 8.83301 129 26.5 199s42.5 138 74.5 204l316 626h220l-371 -725l1 36c34.667 66 96.334 99 185.001 99c114 0 202.333 -37.833 265 -113.5s94 -182.5 94 -320.5v-1
c0 -142 -36.333 -252 -109 -330s-175 -117 -307 -117zM514.999 178c68 0 120.333 20.333 157 61s55 98.334 55 173.001v1c0 81.333 -18.333 144.166 -55 188.499s-89 66.5 -157 66.5c-60.667 0 -107.667 -22.333 -141 -67s-50 -107.667 -50 -189v-1
c0 -75.333 16.667 -133 50 -173s80.333 -60 141 -60z" />
    <glyph glyph-name="seven" unicode="7" horiz-adv-x="1031" 
d="M901 1454v-182l-376 -1272h-217l376 1260h-370v-209h-204v403h791z" />
    <glyph glyph-name="eight" unicode="8" horiz-adv-x="1152" 
d="M576 -18c-88.667 0 -166 16.667 -232 50s-117.333 80.333 -154 141s-55 131.667 -55 213v27c0 72.667 18.167 141 54.5 205s84.833 112.333 145.5 145c-51.333 28 -92.5 68.5 -123.5 121.5s-46.5 108.833 -46.5 167.5v38c0 114.667 37.5 207 112.5 277
s174.5 105 298.5 105s223.5 -35 298.5 -105s112.5 -162.333 112.5 -277v-38c0 -60 -15.833 -116.333 -47.5 -169s-73.5 -92.667 -125.5 -120c61.333 -32.667 110.5 -81 147.5 -145s55.5 -132.333 55.5 -205v-27c0 -81.333 -18.333 -152.333 -55 -213s-88 -107.667 -154 -141
s-143.333 -50 -232 -50zM576 178c71.333 0 128.833 20.333 172.5 61s65.5 94.667 65.5 162v17c0 67.333 -21.833 121.5 -65.5 162.5s-101.167 61.5 -172.5 61.5s-128.833 -20.5 -172.5 -61.5s-65.5 -95.5 -65.5 -163.5v-18c0 -66.667 21.833 -120.167 65.5 -160.5
s101.167 -60.5 172.5 -60.5zM576 838c62 0 112 19.668 150 59.001s57 91.333 57 156v17c0 62 -19 111.833 -57 149.5s-88 56.5 -150 56.5s-112 -18.833 -150 -56.5s-57 -87.834 -57 -150.501v-18c0 -64 19 -115.5 57 -154.5s88 -58.5 150 -58.5z" />
    <glyph glyph-name="nine" unicode="9" horiz-adv-x="1051" 
d="M526 1472c128.667 0 228.334 -39.501 299.001 -118.501s106 -190.5 106 -334.5v-1c0 -59.333 -8.83301 -123.5 -26.5 -192.5s-42.834 -136.5 -75.501 -202.5l-310 -626h-220l366 725l-1 -36c-17.333 -31.333 -43 -54 -77 -68s-73.333 -21 -118 -21
c-104.667 0 -189 38.833 -253 116.5s-96 180.834 -96 309.501v1c0 142.667 35.333 253 106 331s170.667 117 300 117zM526 1276c-64.667 0 -114.5 -21.333 -149.5 -64s-52.5 -103 -52.5 -181v-1c0 -78.667 17.5 -139.5 52.5 -182.5s84.833 -64.5 149.5 -64.5
c64 0 113.5 21.5 148.5 64.5s52.5 104.167 52.5 183.5v1c0 77.333 -17.5 137.333 -52.5 180s-84.5 64 -148.5 64z" />
    <glyph glyph-name="colon" unicode=":" horiz-adv-x="464" 
d="M130 0v204h204v-204h-204zM130 834v204h204v-204h-204z" />
    <glyph glyph-name="semicolon" unicode=";" horiz-adv-x="464" 
d="M130 -202v406h204v-204zM130 834v204h204v-204h-204z" />
    <glyph glyph-name="less" unicode="&#x3c;" horiz-adv-x="869" 
d="M739 842l-305 -176h-364l669 409v-233zM739 491v-235l-669 410h364z" />
    <glyph glyph-name="equal" unicode="=" horiz-adv-x="940" 
d="M140 732v194h670v-194h-670zM140 406v194h670v-194h-670z" />
    <glyph glyph-name="greater" unicode="&#x3e;" horiz-adv-x="879" 
d="M140 842v233l669 -409h-364zM140 491l305 175h364l-669 -410v235z" />
    <glyph glyph-name="question" unicode="?" horiz-adv-x="884" 
d="M300 373c0 81.333 9.66895 150.834 29.002 208.501s43.333 108.167 72 151.5s57.167 83.333 85.5 120s52.166 74.167 71.499 112.5s29 81.833 29 130.5v1c0 58 -14.833 103 -44.5 135s-71.167 48 -124.5 48c-54 0 -95.833 -19.833 -125.5 -59.5
s-44.834 -95.834 -45.501 -168.501v-1h-207v1c4.66699 132.667 39.834 235.334 105.501 308.001s155.834 109 270.501 109c120 0 213 -32.5 279 -97.5s99 -156.833 99 -275.5v-1c0 -63.333 -9.83301 -117.333 -29.5 -162s-43.834 -85.334 -72.501 -122.001l-86 -113.5
c-28.667 -39 -52.834 -84.167 -72.501 -135.5s-29.5 -114.333 -29.5 -189h-204zM291.002 0.000976562v204h204v-204h-204z" />
    <glyph glyph-name="at" unicode="@" horiz-adv-x="1823" 
d="M864 -15c-234 0 -351 149.333 -351 448v172c0 298.667 133 448 399 448c265.333 0 398 -149.667 398 -449v-323l-146 -58c-26 -158.667 -126 -238 -300 -238zM910 169c137.333 0 206 85.333 206 256v191c0 168.667 -68.667 253 -206 253
c-135.333 0 -203 -84.667 -203 -254v-190c0 -170.667 67.667 -256 203 -256zM915 -382c-510 0 -764.999 248 -764.999 744v136v136c4 537.333 259 806 765 806c249.333 0 438 -67.167 566 -201.5s192 -335.833 192 -604.5v-157v-155c0 -118.667 -24.667 -204.5 -74 -257.5
s-118.333 -79.5 -207 -79.5c-193.333 0 -290 104.667 -290 314l208 6c0 -97.333 29.667 -146 89 -146c31.333 0 54.166 11.333 68.499 34s21.5 59 21.5 109v165v167c0 210.667 -48.667 368.667 -146 474s-240 158 -428 158c-383.333 0 -577 -210.667 -581 -632v-135v-137
c0 -376.667 193.667 -565 581 -565h298v-179h-298z" />
    <glyph glyph-name="A" unicode="A" horiz-adv-x="1326" 
d="M40 0l536 1454h174l536 -1454h-220l-403 1173l-403 -1173h-220zM287 319v194h765v-194h-765z" />
    <glyph glyph-name="B" unicode="B" horiz-adv-x="1307" 
d="M300 0v189.001h394c108 0 184.5 20.667 229.5 62s67.5 95.666 67.5 162.999v3c0 72 -19.167 129.5 -57.5 172.5s-101.5 64.5 -189.5 64.5h-444v184h444c152 0 228 70 228 210c0 144.667 -85.333 217 -256 217h-416v189h453c143.333 0 250 -35.667 320 -107
s105 -167 105 -287c0 -70.667 -21 -136.667 -63 -198s-109.333 -100.333 -202 -117c90 -13.333 159.833 -53.166 209.5 -119.499s74.5 -141.833 74.5 -226.5v-3c0 -118.667 -38.5 -214.334 -115.5 -287.001s-180.833 -109 -311.5 -109h-470zM180 0.000976562v1454h203v-1454
h-203z" />
    <glyph glyph-name="C" unicode="C" horiz-adv-x="1267" 
d="M656 -15c-101.333 0 -190 22.502 -266 67.502s-135 108.167 -177 189.5s-63 176.333 -63 285v399c0 109.333 21 204.666 63 285.999s101 144.5 177 189.5s164.667 67.5 266 67.5c84 0 160.833 -18 230.5 -54s128 -86.333 175 -151s78.833 -140.334 95.5 -227.001v0h-209
v0c-12.667 46.667 -33.834 87.5 -63.501 122.5s-64.5 62.167 -104.5 81.5s-81.333 29 -124 29c-89.333 0 -161.166 -31.5 -215.499 -94.5s-81.5 -146.167 -81.5 -249.5v-399c0 -103.333 27.167 -186.333 81.5 -249s126.166 -94 215.499 -94c63.333 0 123 18.333 179 55
s93.667 89.334 113 158.001v0h209v0c-16.667 -82.667 -48.667 -154.834 -96 -216.501s-105.666 -109.667 -174.999 -144s-146 -51.5 -230 -51.5z" />
    <glyph glyph-name="D" unicode="D" horiz-adv-x="1344" 
d="M318 0v194h329c107.333 0 190.5 27.833 249.5 83.5s88.5 134.167 88.5 235.5v428c0 101.333 -29.5 179.833 -88.5 235.5s-142.167 83.5 -249.5 83.5h-329v194h323c176 0 312.167 -45.5 408.5 -136.5s144.5 -219.167 144.5 -384.5v-412
c0 -165.333 -48.333 -293.5 -145 -384.5s-233 -136.5 -409 -136.5h-322zM180 0v1454h204v-1454h-204z" />
    <glyph glyph-name="E" unicode="E" horiz-adv-x="1224" 
d="M180 0v1454h204v-1454h-204zM279 0v194h835v-194h-835zM279 625v194h725v-194h-725zM279 1260v194h835v-194h-835z" />
    <glyph glyph-name="F" unicode="F" horiz-adv-x="1145" 
d="M180 0v1454h204v-1454h-204zM280 612v194l705 1v-194zM280 1260v194h815v-194h-815z" />
    <glyph glyph-name="G" unicode="G" horiz-adv-x="1324" 
d="M670 783l503.997 0.00195312v-254c0 -109.333 -21.167 -204.833 -63.5 -286.5s-101.666 -145 -177.999 -190s-165.5 -67.5 -267.5 -67.5c-103.333 0 -193.666 21.167 -270.999 63.5s-137.333 101.833 -180 178.5s-64 166.667 -64 270v429
c0 109.333 21.167 204.666 63.5 285.999s101.5 144.5 177.5 189.5s165.333 67.5 268 67.5c84.667 0 161.834 -18 231.501 -54s128.167 -86.333 175.5 -151s79.333 -140.334 96 -227.001h-221c-18.667 75.333 -55 133 -109 173s-111.667 60 -173 60
c-90.667 0 -163.334 -31.5 -218.001 -94.5s-82 -146.167 -82 -249.5v-429c0 -94.667 28 -170.5 84 -227.5s130 -85.5 222 -85.5c90.667 0 163.334 30 218.001 90s82 143.667 82 251v63l-295 1v194z" />
    <glyph glyph-name="H" unicode="H" horiz-adv-x="1390" 
d="M1006 0v1454h204v-1454h-204zM180 0v1454h204v-1454h-204zM307 619v194h807v-194h-807z" />
    <glyph glyph-name="I" unicode="I" horiz-adv-x="564" 
d="M384 1454v-1454h-204v1454h204z" />
    <glyph glyph-name="J" unicode="J" horiz-adv-x="1035" 
d="M371 -15c-67.333 0 -132.168 15.501 -194.501 46.501s-111.166 71.833 -146.499 122.5l167 120c15.333 -28 39 -50.5 71 -67.5s66.333 -25.5 103 -25.5c84.667 0 152.5 23.167 203.5 69.5s76.5 117.166 76.5 212.499v991h204v-992c0 -96 -20 -179.667 -60 -251
s-96.333 -126.833 -169 -166.5s-157.667 -59.5 -255 -59.5z" />
    <glyph glyph-name="K" unicode="K" horiz-adv-x="1314" 
d="M310 332l30 301l647 821h246zM180 0v1454h204v-1454h-204zM1044 0l-462 776l161 149l551 -925h-250z" />
    <glyph glyph-name="L" unicode="L" horiz-adv-x="1174" 
d="M180 0v1454h204v-1454h-204zM282 0v194h832v-194h-832z" />
    <glyph glyph-name="M" unicode="M" horiz-adv-x="1596" 
d="M798 494l427 960h191v-1454h-199v1089l10 -64l-358 -823h-142l-358 803l10 84v-1089h-199v1454h191z" />
    <glyph glyph-name="N" unicode="N" horiz-adv-x="1434" 
d="M180 1v1453h185l711 -1114l-24 -26v1140h202v-1453h-187l-709 1097l24 26v-1123h-202z" />
    <glyph glyph-name="O" unicode="O" horiz-adv-x="1322" 
d="M661 -15c-102.667 0 -192.334 22.167 -269.001 66.5s-136.167 106.833 -178.5 187.5s-63.5 174.667 -63.5 282v412c0 107.333 21.167 201.333 63.5 282s101.833 143.167 178.5 187.5s166.334 66.5 269.001 66.5s192.334 -22.167 269.001 -66.5
s136.167 -106.833 178.5 -187.5s63.5 -174.667 63.5 -282v-412c0 -107.333 -21.167 -201.333 -63.5 -282s-101.833 -143.167 -178.5 -187.5s-166.334 -66.5 -269.001 -66.5zM661 186c91.333 0 164.5 30 219.5 90s82.5 139.333 82.5 238v426c0 98.667 -27.5 178 -82.5 238
s-128.167 90 -219.5 90s-164.5 -30 -219.5 -90s-82.5 -139.333 -82.5 -238v-426c0 -98.667 27.5 -178 82.5 -238s128.167 -90 219.5 -90z" />
    <glyph glyph-name="P" unicode="P" horiz-adv-x="1260" 
d="M285 564v194.001h465c66.667 0 120.167 23 160.5 69s60.5 106.333 60.5 181c0 76 -20.167 137 -60.5 183s-93.833 69 -160.5 69h-465v194h458c87.333 0 163.833 -18.5 229.5 -55.5s116.667 -89 153 -156s54.5 -145.167 54.5 -234.5s-18.167 -167.333 -54.5 -234
s-87.333 -118.334 -153 -155.001s-142.167 -55 -229.5 -55h-458zM180 0.000976562v1454h204v-1454h-204z" />
    <glyph glyph-name="Q" unicode="Q" horiz-adv-x="1346" 
d="M1200 -24l-542 427l106 135l542 -426zM661 -15c-102.667 0 -192.334 22.167 -269.001 66.5s-136.167 106.833 -178.5 187.5s-63.5 174.667 -63.5 282v412c0 107.333 21.167 201.333 63.5 282s101.833 143.167 178.5 187.5s166.334 66.5 269.001 66.5
s192.334 -22.167 269.001 -66.5s136.167 -106.833 178.5 -187.5s63.5 -174.667 63.5 -282v-412c0 -107.333 -21.167 -201.333 -63.5 -282s-101.833 -143.167 -178.5 -187.5s-166.334 -66.5 -269.001 -66.5zM661 186c91.333 0 164.5 30 219.5 90s82.5 139.333 82.5 238v426
c0 98.667 -27.5 178 -82.5 238s-128.167 90 -219.5 90s-164.5 -30 -219.5 -90s-82.5 -139.333 -82.5 -238v-426c0 -98.667 27.5 -178 82.5 -238s128.167 -90 219.5 -90z" />
    <glyph glyph-name="R" unicode="R" horiz-adv-x="1320" 
d="M269 615v194.002h536c47.333 0 85.333 20.667 114 62s43 96 43 164s-14.333 122.667 -43 164s-66.667 62 -114 62h-536v194h528c76.667 0 143.667 -17.5 201 -52.5s101.833 -83.833 133.5 -146.5s47.5 -136.334 47.5 -221.001s-15.833 -158.334 -47.5 -221.001
s-76.167 -111.5 -133.5 -146.5s-124.333 -52.5 -201 -52.5h-528zM180 0.00195312v1455h204v-1455h-204zM998 0.00195312l-333 660l203 46l372 -706h-242z" />
    <glyph glyph-name="S" unicode="S" horiz-adv-x="1261" 
d="M617 -15c-105.333 0 -201.83 15.0029 -289.497 45.0029s-166.834 75 -237.501 135v0l127 156v0c55.333 -48 116.333 -84 183 -108s139 -36 217 -36c105.333 0 187 19.5 245 58.5s87 94.167 87 165.5v1c0 55.333 -14.667 97.666 -44 126.999s-67.833 51.166 -115.5 65.499
s-99.834 26.166 -156.501 35.499c-54 10 -108.833 21.333 -164.5 34s-106.834 32.334 -153.501 59.001s-84.334 65.167 -113.001 115.5s-43 118.166 -43 203.499v1c0 135.333 45 240.166 135 314.499s217 111.5 381 111.5c78 0 154.333 -12.5 229 -37.5
s147.334 -63.167 218.001 -114.5v0l-116 -162v0c-110 81.333 -220.333 122 -331 122c-99.333 0 -176.5 -19.833 -231.5 -59.5s-82.5 -95.834 -82.5 -168.501v-1c0 -54.667 16 -96.167 48 -124.5s73.833 -49.5 125.5 -63.5s107.167 -27 166.5 -39
c53.333 -10.667 106.666 -23.5 159.999 -38.5s101.833 -36.667 145.5 -65s78.667 -67.166 105 -116.499s39.5 -113.666 39.5 -192.999v-2c0 -134 -46.667 -237.667 -140 -311s-224.666 -110 -393.999 -110z" />
    <glyph glyph-name="T" unicode="T" horiz-adv-x="986" 
d="M391 0v1335h204v-1335h-204zM-20 1260v194h1026v-194h-1026z" />
    <glyph glyph-name="U" unicode="U" horiz-adv-x="1342" 
d="M670 -15c-162 0 -287.499 47.167 -376.499 141.5s-133.5 227.5 -133.5 399.5v928h204v-935c0 -106 26.667 -188 80 -246s128.666 -87 225.999 -87c98 0 173.833 29 227.5 87s80.5 140 80.5 246v935h204v-928c0 -172 -44.667 -305.167 -134 -399.5
s-215.333 -141.5 -378 -141.5z" />
    <glyph glyph-name="V" unicode="V" horiz-adv-x="1202" 
d="M504 0l-474 1454h222l349 -1140l349 1140h222l-474 -1454h-194z" />
    <glyph glyph-name="W" unicode="W" horiz-adv-x="1734" 
d="M499 314l298 1140h140l298 -1140l257 1140h212l-355 -1454h-208l-268 1016l-280 -1016h-208l-355 1454h212z" />
    <glyph glyph-name="X" unicode="X" horiz-adv-x="1162" 
d="M913 0l-378 639l-31 50l-472 765h229l351 -592l33 -54l497 -808h-229zM20 0l506 831l365 623h229l-481 -787l-390 -667h-229z" />
    <glyph glyph-name="Y" unicode="Y" horiz-adv-x="1030" 
d="M1060 1454l-443 -863v-591h-204v591l-443 863h227l318 -656l318 656h227z" />
    <glyph glyph-name="Z" unicode="Z" horiz-adv-x="1114" 
d="M1004 1454v-176l-633 -1084h653v-194h-904v176l638 1084h-620v194h866z" />
    <glyph glyph-name="bracketleft" unicode="[" horiz-adv-x="602" 
d="M190 -326v1952h194v-1952h-194zM290 -326v184h282v-184h-282zM290 1442v184h282v-184h-282z" />
    <glyph glyph-name="backslash" unicode="\" horiz-adv-x="775" 
d="M-85 1626h195l675 -1902h-195z" />
    <glyph glyph-name="bracketright" unicode="]" horiz-adv-x="602" 
d="M218 -326v1952h194v-1952h-194zM30 -326v184h282v-184h-282zM30 1442v184h282v-184h-282z" />
    <glyph glyph-name="asciicircum" unicode="^" horiz-adv-x="1030" 
d="M686 1000l-166 254v305l400 -559h-234zM355 1000h-235l400 559v-305z" />
    <glyph glyph-name="underscore" unicode="_" horiz-adv-x="892" 
d="M30 0h832v-194h-832v194z" />
    <glyph glyph-name="grave" unicode="`" horiz-adv-x="603" 
d="M385 1188l-305 336l157 132l286 -355z" />
    <glyph glyph-name="a" unicode="a" horiz-adv-x="1090" 
d="M746 0l0.00195312 658.001c0 68 -18.167 120.833 -54.5 158.5s-87.833 56.5 -154.5 56.5c-86.667 0 -162.334 -24 -227.001 -72l-149 102c39.333 47.333 91.166 84.166 155.499 110.499s135.833 39.5 214.5 39.5c130 0 230.667 -33.667 302 -101s107 -162.333 107 -285
v-667h-194zM492.002 -14.999c-127.333 0 -222.83 26.333 -286.497 79s-95.5 133.334 -95.5 242.001c0 102.667 29 179.667 87 231s145.667 77 263 77h295l14 -164h-308c-52.667 0 -92.334 -11.833 -119.001 -35.5s-40 -59.834 -40 -108.501
c0 -53.333 17.667 -92.5 53 -117.5s88.333 -37.5 159 -37.5c77.333 0 135.333 8.33301 174 25s58 42.667 58 78l21 -146c-18 -28 -40.333 -51 -67 -69s-57.334 -31.5 -92.001 -40.5s-73.334 -13.5 -116.001 -13.5z" />
    <glyph glyph-name="b" unicode="b" horiz-adv-x="1114" 
d="M625 -15c-64.667 0 -121 15.501 -169 46.501s-83.333 74.833 -106 131.5l14 217c0 -44.667 8 -82.667 24 -114s39.167 -55.333 69.5 -72s67.166 -25 110.499 -25c67.333 0 119.5 20.5 156.5 61.5s55.5 98.833 55.5 173.5v225c0 76 -18.5 135 -55.5 177
s-89.167 63 -156.5 63c-43.333 0 -80.166 -8 -110.499 -24s-53.5 -39.5 -69.5 -70.5s-24 -68.167 -24 -111.5l-21 200c31.333 60.667 72.333 107.5 123 140.5s107 49.5 169 49.5c111.333 0 197.333 -36.833 258 -110.5s91 -177.834 91 -312.501v-226
c0 -133.333 -31.333 -236.5 -94 -309.5s-151 -109.5 -265 -109.5zM160 0.000976562v1454h204v-1454h-204z" />
    <glyph glyph-name="c" unicode="c" horiz-adv-x="995" 
d="M579 -15c-142.667 0 -253.169 39.332 -331.502 117.999s-117.5 189.667 -117.5 333v171c0 142 39.167 251.833 117.5 329.5s188.833 116.5 331.5 116.5c80.667 0 153.834 -14.5 219.501 -43.5s117.834 -69.833 156.501 -122.5l-147 -132
c-60.667 69.333 -136 104 -226 104c-78.667 0 -139.667 -22 -183 -66s-65 -106 -65 -186v-171c0 -85.333 21.667 -151.166 65 -197.499s104.333 -69.5 183 -69.5c91.333 0 166.666 37 225.999 111l147 -132c-39.333 -52 -91.666 -92.167 -156.999 -120.5
s-138.333 -42.5 -219 -42.5z" />
    <glyph glyph-name="d" unicode="d" horiz-adv-x="1114" 
d="M750 0v1454h204v-1454h-204zM489 -18c-114.667 0 -203.166 36.832 -265.499 110.499s-93.5 177.5 -93.5 311.5v229c0 134.667 30.333 238.834 91 312.501s146.667 110.5 258 110.5c61.333 0 117.5 -16 168.5 -48s92.167 -77 123.5 -135l-21 -212c0 44 -8 81.5 -24 112.5
s-39.167 54.833 -69.5 71.5s-67.166 25 -110.499 25c-67.333 0 -119.5 -21 -156.5 -63s-55.5 -101 -55.5 -177v-226c0 -75.333 18.5 -133.5 55.5 -174.5s89.167 -61.5 156.5 -61.5c43.333 0 80.166 8.5 110.499 25.5s53.5 41.333 69.5 73s24 70.167 24 115.5l14 -219
c-18.667 -46.667 -50.834 -88.5 -96.501 -125.5s-105.167 -55.5 -178.5 -55.5z" />
    <glyph glyph-name="e" unicode="e" horiz-adv-x="1108" 
d="M595 -15c-144.667 0 -256.665 40.168 -335.998 120.501s-119 195.166 -119 344.499v117c0 154.667 38.167 274.334 114.5 359.001s183.833 127 322.5 127c130.667 0 231.834 -48.167 303.501 -144.5s107.5 -230.833 107.5 -403.5v-68h-700v164h506v0
c-6 84 -27.833 149.667 -65.5 197s-88.167 71 -151.5 71c-76.667 0 -136.334 -25.333 -179.001 -76s-64 -122.334 -64 -215.001v-132c0 -86 22.667 -152 68 -198s109.666 -69 192.999 -69c87.333 0 164.666 31.667 231.999 95v0l134 -134v0
c-51.333 -49.333 -109 -87.5 -173 -114.5s-128.333 -40.5 -193 -40.5z" />
    <glyph glyph-name="f" unicode="f" horiz-adv-x="649" 
d="M190 0v1179c0 91.333 19.333 160 58 206s99 69 181 69h170v-194h-146c-20.667 0 -35.667 -7.83301 -45 -23.5s-14 -34.167 -14 -55.5v-1181h-204zM80 864v174h519v-174h-519z" />
    <glyph glyph-name="g" unicode="g" horiz-adv-x="1104" 
d="M508 -422c-78 0 -147.833 14.333 -209.5 43s-109.5 69.667 -143.5 123l138 125c55.333 -76.667 126 -115 212 -115c78 0 138.333 21.5 181 64.5s64 103.833 64 182.5v1037h204v-1007c0 -144 -38.833 -255.5 -116.5 -334.5s-187.5 -118.5 -329.5 -118.5zM489 -18
c-114.667 0 -203.166 36.832 -265.499 110.499s-93.5 177.5 -93.5 311.5v229c0 134.667 30.333 238.834 91 312.501s146.667 110.5 258 110.5c61.333 0 117.5 -16 168.5 -48s92.167 -77 123.5 -135l-21 -212c0 44 -8 81.5 -24 112.5s-39.167 54.833 -69.5 71.5
s-67.166 25 -110.499 25c-67.333 0 -119.5 -21 -156.5 -63s-55.5 -101 -55.5 -177v-226c0 -75.333 18.5 -133.5 55.5 -174.5s89.167 -61.5 156.5 -61.5c43.333 0 80.166 8.5 110.499 25.5s53.5 41.333 69.5 73s24 70.167 24 115.5l14 -219
c-18.667 -46.667 -50.834 -88.5 -96.501 -125.5s-105.167 -55.5 -178.5 -55.5z" />
    <glyph glyph-name="h" unicode="h" horiz-adv-x="1144" 
d="M160 0v1454h204v-1454h-204zM790 0l-0.00195312 632.001c0 73.333 -19 130 -57 170s-91.333 60 -160 60c-66.667 0 -118.167 -17.333 -154.5 -52s-54.5 -83.667 -54.5 -147l-21 200c32 61.333 73.833 108.833 125.5 142.5s108.834 50.5 171.501 50.5
c112.667 0 199.834 -36.833 261.501 -110.5s92.5 -177.834 92.5 -312.501v-633h-204z" />
    <glyph glyph-name="i" unicode="i" horiz-adv-x="514" 
d="M160 1250v204h204v-204h-204zM160 0v1038h204v-1038h-204z" />
    <glyph glyph-name="j" unicode="j" horiz-adv-x="549" 
d="M20 -422l-0.000976562 194h114c18.667 0 33.167 7 43.5 21s15.5 33.333 15.5 58v1187h204v-1185c0 -87.333 -21.167 -155 -63.5 -203s-102.166 -72 -179.499 -72h-134zM190.999 1250v204h208v-204h-208z" />
    <glyph glyph-name="k" unicode="k" horiz-adv-x="1083" 
d="M235 152l13 242l534 644h240zM160 0v1454h204v-1454h-204zM851 0l-362 599l131 136l453 -735h-222z" />
    <glyph glyph-name="l" unicode="l" horiz-adv-x="593" 
d="M364 1454l0.000976562 -1181c0 -24.667 5.5 -44 16.5 -58s26.5 -21 46.5 -21h96v-194h-120c-76.667 0 -136.334 24 -179.001 72s-64 115.667 -64 203v1179h204z" />
    <glyph glyph-name="m" unicode="m" horiz-adv-x="1754" 
d="M160 0v1038h204v-1038h-204zM780 0l-0.000976562 629.001c0 72.667 -18 129.167 -54 169.5s-87 60.5 -153 60.5c-66.667 0 -118.167 -17.667 -154.5 -53s-54.5 -85 -54.5 -149l-21 200c32 62.667 73.833 111 125.5 145s108.834 51 171.501 51
c109.333 0 194 -36.833 254 -110.5s90 -177.834 90 -312.501v-630h-204zM1400 0.000976562l-0.00292969 629.001c0 72.667 -19 129.167 -57 169.5s-91.333 60.5 -160 60.5c-63.333 0 -112.333 -19.333 -147 -58s-52 -93.334 -52 -164.001l-41 200
c32.667 68.667 75.834 121.834 129.501 159.501s112.834 56.5 177.501 56.5c112.667 0 199.834 -36.833 261.501 -110.5s92.5 -177.834 92.5 -312.501v-630h-204z" />
    <glyph glyph-name="n" unicode="n" horiz-adv-x="1144" 
d="M160 0v1038h204v-1038h-204zM790 0l-0.00195312 629.001c0 72.667 -19 129.167 -57 169.5s-91.333 60.5 -160 60.5c-66.667 0 -118.167 -17.667 -154.5 -53s-54.5 -85 -54.5 -149l-21 200c32 62.667 73.833 111 125.5 145s108.834 51 171.501 51
c112.667 0 199.834 -36.833 261.501 -110.5s92.5 -177.834 92.5 -312.501v-630h-204z" />
    <glyph glyph-name="o" unicode="o" horiz-adv-x="1116" 
d="M558 -15c-136 0 -241.333 39.5 -316 118.5s-112 190.167 -112 333.5v169c0 142 37.333 252 112 330s180 117 316 117s241.333 -39 316 -117s112 -188 112 -330v-172c0 -142.667 -37.333 -253.167 -112 -331.5s-180 -117.5 -316 -117.5zM557 179
c71.333 0 126.666 22.167 165.999 66.5s59 107.166 59 188.499v172c0 80.667 -19.667 143 -59 187s-94.666 66 -165.999 66s-126.333 -22 -165 -66s-58 -106.333 -58 -187v-172c0 -81.333 19.333 -144.166 58 -188.499s93.667 -66.5 165 -66.5z" />
    <glyph glyph-name="p" unicode="p" horiz-adv-x="1114" 
d="M160 -422v1460h204v-1460h-204zM625 -15c-64.667 0 -121 15.501 -169 46.501s-83.333 74.833 -106 131.5l14 217c0 -44.667 8 -82.667 24 -114s39.167 -55.333 69.5 -72s67.166 -25 110.499 -25c67.333 0 119.5 20.5 156.5 61.5s55.5 98.833 55.5 173.5v225
c0 76 -18.5 135 -55.5 177s-89.167 63 -156.5 63c-43.333 0 -80.166 -8 -110.499 -24s-53.5 -39.5 -69.5 -70.5s-24 -68.167 -24 -111.5l-21 200c31.333 60.667 72.333 107.5 123 140.5s107 49.5 169 49.5c111.333 0 197.333 -36.833 258 -110.5s91 -177.834 91 -312.501
v-226c0 -133.333 -31.333 -236.5 -94 -309.5s-151 -109.5 -265 -109.5z" />
    <glyph glyph-name="q" unicode="q" horiz-adv-x="1104" 
d="M750 -422v1460h204v-1460h-204zM489 -18c-114.667 0 -203.166 36.832 -265.499 110.499s-93.5 177.5 -93.5 311.5v229c0 134.667 30.333 238.834 91 312.501s146.667 110.5 258 110.5c61.333 0 117.5 -16 168.5 -48s92.167 -77 123.5 -135l-21 -212
c0 44 -8 81.5 -24 112.5s-39.167 54.833 -69.5 71.5s-67.166 25 -110.499 25c-67.333 0 -119.5 -21 -156.5 -63s-55.5 -101 -55.5 -177v-226c0 -75.333 18.5 -133.5 55.5 -174.5s89.167 -61.5 156.5 -61.5c43.333 0 80.166 8.5 110.499 25.5s53.5 41.333 69.5 73
s24 70.167 24 115.5l14 -219c-18.667 -46.667 -50.834 -88.5 -96.501 -125.5s-105.167 -55.5 -178.5 -55.5z" />
    <glyph glyph-name="r" unicode="r" horiz-adv-x="874" 
d="M160 0v1038h204v-1038h-204zM731 792c-36.667 44.667 -91.001 67 -163.001 67c-65.333 0 -115.666 -17.833 -150.999 -53.5s-53 -85.167 -53 -148.5l-21 200c31.333 61.333 72.5 109.333 123.5 144s107.167 52 168.5 52c94.667 0 171 -27 229 -81z" />
    <glyph glyph-name="s" unicode="s" horiz-adv-x="992" 
d="M477 -15c-88 0 -167.828 13.5 -239.495 40.5s-135.834 67.5 -192.501 121.5l121 149c109.333 -85.333 216.333 -128 321 -128c84 0 147 12.5 189 37.5s63 62.5 63 112.5c0 38.667 -13.5 66 -40.5 82s-62.5 26.333 -106.5 31s-90.667 9 -140 13
c-42 2.66699 -83.667 7.66699 -125 15s-79 20.166 -113 38.499s-61.167 45.5 -81.5 81.5s-30.5 84.333 -30.5 145c0 110 34.5 192.333 103.5 247s172.833 82 311.5 82c77.333 0 150.166 -11.167 218.499 -33.5s132.5 -55.833 192.5 -100.5l-123 -149
c-96.667 66.667 -191.334 100 -284.001 100c-75.333 0 -131.666 -11.833 -168.999 -35.5s-56 -59.167 -56 -106.5c0 -32 12 -54.833 36 -68.5s55.667 -22.5 95 -26.5s81.666 -7.33301 126.999 -10c43.333 -2.66699 87.166 -7.5 131.499 -14.5s85.166 -20.5 122.499 -40.5
s67.333 -49.667 90 -89s34 -93 34 -161c0 -111.333 -37.833 -194.666 -113.5 -249.999s-189.5 -83 -341.5 -83z" />
    <glyph glyph-name="t" unicode="t" horiz-adv-x="668" 
d="M430 0c-85.333 0 -147.167 23.667 -185.5 71s-57.5 115.333 -57.5 204v1065h204v-1067c0 -24.667 5 -44 15 -58s24.667 -21 44 -21h98v-194h-118zM79.999 854v184h468v-184h-468z" />
    <glyph glyph-name="u" unicode="u" horiz-adv-x="1139" 
d="M786 0v1038h203v-1038h-203zM364 1038v-631c0 -72.667 18.5 -128.834 55.5 -168.501s89.167 -59.5 156.5 -59.5c66.667 0 118.334 17.833 155.001 53.5s55 85.834 55 150.501l14 -217c-18.667 -46.667 -51.334 -88.5 -98.001 -125.5s-107.667 -55.5 -183 -55.5
c-114.667 0 -203.167 36.833 -265.5 110.5s-93.5 177.5 -93.5 311.5v631h204z" />
    <glyph glyph-name="v" unicode="v" horiz-adv-x="1024" 
d="M518 297l253 741h213l-389 -1038h-154l-391 1038h213z" />
    <glyph glyph-name="w" unicode="w" horiz-adv-x="1584" 
d="M548 0h-160l-318 1038h206l201 -741l276 741h109l266 -741l190 741h206l-318 -1038h-160l-246 714z" />
    <glyph glyph-name="x" unicode="x" horiz-adv-x="999" 
d="M743 0l-310 472l-382 566h227l298 -465l393 -573h-226zM35 0l392 573l98 -188l-264 -385h-226zM585 478l-86 192l227 368h227z" />
    <glyph glyph-name="y" unicode="y" horiz-adv-x="989" 
d="M761 1038l208.001 0.000976562l-442 -1281c-28.667 -70 -65.334 -119.167 -110.001 -147.5s-107.667 -42.5 -189 -42.5h-41v196h41c38 0 68.167 7.66699 90.5 23s41.833 41.666 58.5 78.999zM464.001 -84.999l-414 1123h208l319 -902z" />
    <glyph glyph-name="z" unicode="z" horiz-adv-x="1013" 
d="M876 1038v-172l-499 -677h526v-189h-773v176l512 673h-498v189h732z" />
    <glyph glyph-name="braceleft" unicode="{" horiz-adv-x="738" 
d="M140 745c118.667 0 210.667 -31.167 276 -93.5s98 -150.5 98 -264.5v-420c0 -52.667 16 -93.5 48 -122.5s77.333 -43.5 136 -43.5v-194c-123.333 0 -218.833 33.167 -286.5 99.5s-101.5 160.166 -101.5 281.499v410c0 48.667 -14.833 86.334 -44.5 113.001
s-71.5 40 -125.5 40v194zM140 551v194c54 0 95.833 13.333 125.5 40s44.5 64.334 44.5 113.001v409c0 121.333 33.833 215.333 101.5 282s163.167 100 286.5 100v-194c-58.667 0 -104 -14.333 -136 -43s-48 -69.334 -48 -122.001v-433c0 -110 -32.667 -195.167 -98 -255.5
s-157.333 -90.5 -276 -90.5z" />
    <glyph glyph-name="bar" unicode="|" horiz-adv-x="564" 
d="M384 1626v-1798h-204v1798h204z" />
    <glyph glyph-name="braceright" unicode="}" horiz-adv-x="738" 
d="M598 745v-194c-54 0 -95.833 -13.333 -125.5 -40s-44.5 -64.334 -44.5 -113.001v-410c0 -121.333 -33.833 -215.166 -101.5 -281.499s-163.167 -99.5 -286.5 -99.5v194c58.667 0 104 14.5 136 43.5s48 69.833 48 122.5v420c0 114 32.667 202.167 98 264.5
s157.333 93.5 276 93.5zM598 551c-118.667 0 -210.667 30.167 -276 90.5s-98 145.5 -98 255.5v433c0 52.667 -16 93.334 -48 122.001s-77.333 43 -136 43v194c123.333 0 218.833 -33.333 286.5 -100s101.5 -160.667 101.5 -282v-409c0 -48.667 14.833 -86.334 44.5 -113.001
s71.5 -40 125.5 -40v-194z" />
    <glyph glyph-name="asciitilde" unicode="~" horiz-adv-x="1052" 
d="M719 520c-39.333 0 -74 6 -104 18s-57.667 25.333 -83 40l-75 44.5c-23.333 13.667 -46.333 20.5 -69 20.5c-46.667 0 -70 -36.333 -70 -109v-11h-178v25c0 192 68 288 204 288c47.333 0 88.333 -8.33301 123 -25s65.667 -33.667 93 -51
c20.667 -12.667 40.167 -23.667 58.5 -33s36.833 -14 55.5 -14c46.667 0 70 39 70 117v10h178v-24c0 -197.333 -67.667 -296 -203 -296z" />
    <glyph glyph-name="exclamdown" unicode="&#xa1;" horiz-adv-x="464" 
d="M130 665h204v-1081h-204v1081zM130 1038v-204h204v204h-204z" />
    <glyph glyph-name="cent" unicode="&#xa2;" horiz-adv-x="955" 
d="M443 -177v235h206v-235h-206zM443 948v267h206v-267h-206zM559 -15c-136 0 -241.5 39.332 -316.5 117.999s-112.5 189.667 -112.5 333v171c0 142 37.5 251.833 112.5 329.5s180.5 116.5 316.5 116.5c76.667 0 146 -14.5 208 -43.5s111.333 -69.833 148 -122.5l-147 -132
c-26.667 32.667 -58 58.167 -94 76.5s-73.333 27.5 -112 27.5c-72.667 0 -128.834 -22 -168.501 -66s-59.5 -106 -59.5 -186v-171c0 -85.333 19.833 -151.166 59.5 -197.499s95.834 -69.5 168.501 -69.5c83.333 0 152 37 206 111l147 -132
c-36.667 -52 -86.167 -92.167 -148.5 -120.5s-131.5 -42.5 -207.5 -42.5z" />
    <glyph glyph-name="sterling" unicode="&#xa3;" horiz-adv-x="1272" 
d="M157 194c49.333 0 86.5 14.3311 111.5 42.998s37.5 72.334 37.5 131.001v671c0 136.667 39.5 242.5 118.5 317.5s190.167 112.5 333.5 112.5c137.333 0 244 -37.667 320 -113s114 -181.666 114 -318.999v-13h-204v13c0 75.333 -21 133.833 -63 175.5s-101 62.5 -177 62.5
s-134.667 -20.667 -176 -62s-62 -99.333 -62 -174v-671c0 -80 -29.5 -140 -88.5 -180s-147.167 -60 -264.5 -60v66zM1192 193.998v-194h-1042v194h1042zM172 702.998h773v-154h-773v154z" />
    <glyph glyph-name="currency" unicode="&#xa4;" horiz-adv-x="1178" 
d="M589 290c-129.333 -2 -229.5 33.832 -300.5 107.499s-106.5 176.5 -106.5 308.5s35.5 234.333 106.5 307s171.167 109 300.5 109s229.5 -36.167 300.5 -108.5s106.5 -175.5 106.5 -309.5c0 -131.333 -35 -232.666 -105 -303.999s-170.667 -108 -302 -110zM588 465.999
c70 0 124.167 20.833 162.5 62.5s57.5 100.167 57.5 175.5c0 77.333 -19.333 137 -58 179s-92.667 63 -162 63s-123 -21 -161 -63s-57 -101.667 -57 -179c0 -75.333 19 -133.833 57 -175.5s91.667 -62.5 161 -62.5zM252 213.999l-152 152l185 185l149 -155zM277 862.999
l-177 177l152 152l190 -190zM926 213.999l-203 203l160 143l195 -194zM878 839.999l-134 170l182 182l152 -152z" />
    <glyph glyph-name="yen" unicode="&#xa5;" horiz-adv-x="1030" 
d="M173 388v120h684v-120h-684zM173 148v120h684v-120h-684zM1060 1454l-443 -863v-591h-204v591l-443 863h227l318 -656l318 656h227z" />
    <glyph glyph-name="brokenbar" unicode="&#xa6;" horiz-adv-x="564" 
d="M384 517v-689h-204v689h204zM180 915v711h204v-711h-204z" />
    <glyph glyph-name="section" unicode="&#xa7;" horiz-adv-x="1180" 
d="M807 270l-155.003 154.999c70.667 2 125.667 15 165 39s59 57.333 59 100c0 48 -11.167 85 -33.5 111s-52.166 45.333 -89.499 58s-78.333 23 -123 31l-154 28c-52.667 10 -101.334 26.5 -146.001 49.5s-80.834 58 -108.501 105s-41.5 111.5 -41.5 193.5
c0 104.667 36.167 185.667 108.5 243s174.5 86 306.5 86c73.333 0 145.833 -11.667 217.5 -35s136.167 -56.333 193.5 -99l-136 -156c-45.333 30.667 -91.666 54.334 -138.999 71.001s-91.333 25 -132 25c-68.667 0 -121.667 -11.5 -159 -34.5s-56 -55.167 -56 -96.5
c0 -50.667 16.167 -87.5 48.5 -110.5s74 -39.667 125 -50l161.5 -32.5c44.667 -8.66699 88.334 -20.5 131.001 -35.5s81.334 -36.333 116.001 -64s62.334 -64.5 83.001 -110.5s31 -105 31 -177c0 -76 -23.5 -139 -70.5 -189s-114.5 -85 -202.5 -105zM554.997 -206.001
c-83.333 0 -162.836 12.3389 -238.503 37.0059s-140.167 59.667 -193.5 105l123 157c51.333 -33.333 104.833 -59.166 160.5 -77.499s108.5 -27.5 158.5 -27.5c76.667 0 136 12.167 178 36.5s63 58.5 63 102.5c0 42.667 -15.833 74.167 -47.5 94.5
s-72.667 35.166 -123 44.499s-103.833 18.666 -160.5 27.999c-46 8 -91.167 18.167 -135.5 30.5s-84.666 30.166 -120.999 53.499s-65.166 54.666 -86.499 93.999s-32 89.666 -32 150.999c0 98.667 30.333 175.5 91 230.5s147 86.833 259 95.5l126 -177c-20 4 -39 6 -57 6
c-68.667 0 -121.667 -12.333 -159 -37s-56 -62.667 -56 -114c0 -36 10.333 -64.167 31 -84.5s48.334 -35.833 83.001 -46.5s73 -19.334 115 -26.001l160.5 -26c55.667 -9.33301 107.5 -24.5 155.5 -45.5s86.833 -52.833 116.5 -95.5s44.5 -101.334 44.5 -176.001
c0 -106 -39.667 -188 -119 -246s-191.333 -87 -336 -87z" />
    <glyph glyph-name="dieresis" unicode="&#xa8;" horiz-adv-x="794" 
d="M80 1429h214v-214h-214v214zM500 1429h214v-214h-214v214z" />
    <glyph glyph-name="copyright" unicode="&#xa9;" horiz-adv-x="1430" 
d="M715 339c-192.667 0 -341.667 53.833 -447 161.5s-158 259.834 -158 456.501c0 196 52.667 347.833 158 455.5s254.333 161.5 447 161.5s341.667 -53.833 447 -161.5s158 -259.5 158 -455.5c0 -196.667 -52.667 -348.834 -158 -456.501s-254.333 -161.5 -447 -161.5z
M715 503c140 0 248.5 39.5 325.5 118.5s115.5 190.833 115.5 335.5c0 147.333 -38.5 261.333 -115.5 342s-185.5 121 -325.5 121s-248.5 -40.333 -325.5 -121s-115.5 -194.667 -115.5 -342c0 -144.667 38.5 -256.5 115.5 -335.5s185.5 -118.5 325.5 -118.5zM737 631
c-96.667 0 -171.502 27.5 -224.502 82.5s-79.5 132.167 -79.5 231.5v36c0 98.667 26.5 175.167 79.5 229.5s127.833 81.5 224.5 81.5s174.334 -34 233.001 -102l-93 -124c-22.667 20 -45 35.167 -67 45.5s-46 15.5 -72 15.5c-42.667 0 -75.5 -12.833 -98.5 -38.5
s-34.5 -61.5 -34.5 -107.5v-36c0 -49.333 11.5 -87.5 34.5 -114.5s55.833 -40.5 98.5 -40.5c28 0 53.167 6.16699 75.5 18.5s46.5 30.833 72.5 55.5l94 -123c-30 -35.333 -65.167 -62.5 -105.5 -81.5s-86.166 -28.5 -137.499 -28.5z" />
    <glyph glyph-name="ordfeminine" unicode="&#xaa;" horiz-adv-x="705" 
d="M465 831l0.00390625 396c0 30 -9.33301 53 -28 69s-43.334 24 -74.001 24c-28.667 0 -50.834 -3.5 -66.501 -10.5s-33.167 -19.833 -52.5 -38.5l-116 81c29.333 38.667 62.666 66.5 99.999 83.5s83.333 25.5 138 25.5c77.333 0 138.166 -18.5 182.499 -55.5
s66.5 -93.167 66.5 -168.5v-406h-150zM316.004 824c-68.667 0 -121.831 16.667 -159.498 50s-56.5 80.666 -56.5 141.999c0 58.667 18.667 104.334 56 137.001s89.666 49 156.999 49h169l6 -126h-159c-49.333 0 -74 -22.333 -74 -67c0 -41.333 31 -62 93 -62
c37.333 0 66.166 7.16699 86.499 21.5s30.5 34.833 30.5 61.5l23 -125c-32 -54 -89.333 -81 -172 -81z" />
    <glyph glyph-name="guillemotleft" unicode="&#xab;" horiz-adv-x="1169" 
d="M505 520l319 358h235l-319 -358h-235zM419 163l-319 357h235l319 -357h-235zM100 520l319 358h235l-319 -358h-235zM824 163l-319 357h235l319 -357h-235z" />
    <glyph glyph-name="logicalnot" unicode="&#xac;" horiz-adv-x="1070" 
d="M140 666v194h800v-194h-800zM940 792v-387h-204v387h204z" />
    <glyph glyph-name="uni00AD" unicode="&#xad;" horiz-adv-x="982" 
d="M160 618h672v-194h-672v194z" />
    <glyph glyph-name="registered" unicode="&#xae;" horiz-adv-x="1430" 
d="M715 339c-192.667 0 -341.667 53.833 -447 161.5s-158 259.834 -158 456.501c0 196 52.667 347.833 158 455.5s254.333 161.5 447 161.5s341.667 -53.833 447 -161.5s158 -259.5 158 -455.5c0 -196.667 -52.667 -348.834 -158 -456.501s-254.333 -161.5 -447 -161.5z
M475 648v623h151v-623h-151zM831 649l-118 243l127 66l159 -309h-168zM715 503c140 0 248.5 39.5 325.5 118.5s115.5 190.833 115.5 335.5c0 147.333 -38.5 261.333 -115.5 342s-185.5 121 -325.5 121s-248.5 -40.333 -325.5 -121s-115.5 -194.667 -115.5 -342
c0 -144.667 38.5 -256.5 115.5 -335.5s185.5 -118.5 325.5 -118.5zM569 836v134h189c22 0 39.833 7 53.5 21s20.5 34.667 20.5 62s-7 47.833 -21 61.5s-31.667 20.5 -53 20.5h-189v136h185c76 0 133.167 -20.5 171.5 -61.5s57.5 -93.167 57.5 -156.5
s-19.5 -115.333 -58.5 -156s-95.833 -61 -170.5 -61h-185z" />
    <glyph glyph-name="macron" unicode="&#xaf;" horiz-adv-x="890" 
d="M80 1415h730v-200h-730v200z" />
    <glyph glyph-name="degree" unicode="&#xb0;" horiz-adv-x="746" 
d="M373 873c-94 0 -166.333 26.332 -217 78.999s-76 125.667 -76 219c0 94 25.333 167.167 76 219.5s123 78.5 217 78.5s166.333 -26.167 217 -78.5s76 -125.833 76 -220.5c0 -93.333 -25.667 -166.166 -77 -218.499s-123.333 -78.5 -216 -78.5zM372 1032
c39.333 0 69.999 12.1689 91.999 36.502s33 59.166 33 104.499c0 43.333 -11 76.833 -33 100.5s-52.667 35.5 -92 35.5s-69.666 -11.833 -90.999 -35.5s-32 -57.834 -32 -102.501c0 -92.667 41 -139 123 -139z" />
    <glyph glyph-name="plusminus" unicode="&#xb1;" horiz-adv-x="1082" 
d="M140 817h812v-184h-812v184zM648 1076v-732h-204v732h204zM140 448h812v-184h-812v184z" />
    <glyph glyph-name="uni00B2" unicode="&#xb2;" horiz-adv-x="640" 
d="M121 831l-0.000976562 140.999l135 117c53.333 45.333 87.666 79.5 102.999 102.5s23 48.5 23 76.5v0c0 34.667 -17 52 -51 52c-37.333 0 -59.666 -23.333 -66.999 -70v0h-164v0c4.66699 70.667 26.834 123.5 66.501 158.5s92.167 52.5 157.5 52.5
c75.333 0 131.833 -16 169.5 -48s56.5 -79.667 56.5 -143v-1c0 -35.333 -10.333 -68.166 -31 -98.499s-54.667 -68.833 -102 -115.5l-77 -75h210v-149h-429z" />
    <glyph glyph-name="uni00B3" unicode="&#xb3;" horiz-adv-x="688" 
d="M350 824c-82.667 0 -144.999 17.5 -186.999 52.5s-63 87.833 -63 158.5v0h160v0c0 -25.333 7.33301 -44.333 22 -57s36.667 -19 66 -19c50.667 0 76 21.333 76 64v-1c0 45.333 -33.333 68 -100 68h-28v116h28c60 0 90 23.333 90 70v-3c0 34.667 -21.667 52 -65 52
c-51.333 0 -77 -23.333 -77 -70v0h-162v0c0 68.667 20.167 120.167 60.5 154.5s100.166 51.5 179.499 51.5s138.833 -14.167 178.5 -42.5s59.5 -71.166 59.5 -128.499v-2c0 -69.333 -42 -116 -126 -140c90.667 -12.667 136 -60.334 136 -143.001v0
c0 -60.667 -20.667 -106 -62 -136s-103.333 -45 -186 -45z" />
    <glyph glyph-name="acute" unicode="&#xb4;" horiz-adv-x="603" 
d="M218 1188l-138 113l286 355l157 -132z" />
    <glyph glyph-name="paragraph" unicode="&#xb6;" horiz-adv-x="1412" 
d="M528 469c-89.333 0 -167.668 21.333 -235.001 64s-119.666 101 -156.999 175s-56 158.333 -56 253c0 95.333 18.5 180 55.5 254s89 132.333 156 175s145.833 64 236.5 64h265v-985h-265zM637.998 -236v1690h204v-1690h-204zM1006 -236v1690h204v-1690h-204zM705.998 1260
v194h646v-194h-646z" />
    <glyph glyph-name="periodcentered" unicode="&#xb7;" horiz-adv-x="424" 
d="M110 425v204h204v-204h-204z" />
    <glyph glyph-name="cedilla" unicode="&#xb8;" horiz-adv-x="582" 
d="M245 -422c-66.667 0 -121.667 6 -165 18l42 140c32 -9.33301 63.667 -14 95 -14c72.667 0 109 17 109 51c0 16.667 -12.167 29 -36.5 37s-60.833 12 -109.5 12l87 116c78.667 0 137.5 -14.833 176.5 -44.5s58.5 -74.5 58.5 -134.5c0 -60.667 -21.333 -106 -64 -136
s-107 -45 -193 -45zM164 61h166v-241l-166 2v239z" />
    <glyph glyph-name="uni00B9" unicode="&#xb9;" horiz-adv-x="497" 
d="M407 1454v-623h-167v439l-140 -84v183l152 85h155z" />
    <glyph glyph-name="ordmasculine" unicode="&#xba;" horiz-adv-x="700" 
d="M355 824c-82 0 -145.001 23.001 -189.001 69.001s-66 109.667 -66 191v117c0 82 22 145.833 66 191.5s107 68.5 189 68.5s145 -22.833 189 -68.5s66 -109.834 66 -192.501v-116c0 -82 -22.167 -145.833 -66.5 -191.5s-107.166 -68.5 -188.499 -68.5zM353.999 983.001
c28.667 0 50.667 9.33301 66 28s23 44.667 23 78v110c0 32.667 -7.66699 58 -23 76s-37.333 27 -66 27c-58 0 -87 -35 -87 -105v-108c0 -70.667 29 -106 87 -106z" />
    <glyph glyph-name="guillemotright" unicode="&#xbb;" horiz-adv-x="1169" 
d="M834 520l-319 358h235l319 -358h-235zM110 163l319 357h235l-319 -357h-235zM429 520l-319 358h235l319 -358h-235zM515 163l319 357h235l-319 -357h-235z" />
    <glyph glyph-name="onequarter" unicode="&#xbc;" horiz-adv-x="1501" 
d="M220 0l790 1454h179l-790 -1454h-179zM873 82v134l167 407h165l-160 -407h306v-134h-478zM1161 0v329h140v-329h-140zM457 1454v-623h-167v439l-140 -84v183l152 85h155z" />
    <glyph glyph-name="onehalf" unicode="&#xbd;" horiz-adv-x="1489" 
d="M220 0l790 1454h179l-790 -1454h-179zM457 1454v-623h-167v439l-140 -84v183l152 85h155zM910 0l-0.00195312 141.002l135 117c52.667 45.333 86.834 79.5 102.501 102.5s23.5 48.5 23.5 76.5v0c0 34.667 -17 52 -51 52c-37.333 0 -59.666 -23.333 -66.999 -70v0h-164v0
c4.66699 70.667 27 123.5 67 158.5s92.333 52.5 157 52.5c75.333 0 131.833 -16 169.5 -48s56.5 -79.667 56.5 -143v-1c0 -34.667 -10.333 -67.334 -31 -98.001s-54.667 -69.334 -102 -116.001l-77 -75h210v-149h-429z" />
    <glyph glyph-name="threequarters" unicode="&#xbe;" horiz-adv-x="1541" 
d="M321 0l790 1454h179l-790 -1454h-179zM913 82v134l167 407h165l-160 -407h306v-134h-478zM1201 0v329h140v-329h-140zM400 824c-82.667 0 -144.999 17.5 -186.999 52.5s-63 87.833 -63 158.5v0h160v0c0 -25.333 7.33301 -44.333 22 -57s36.667 -19 66 -19
c50.667 0 76 21.333 76 64v-1c0 45.333 -33.333 68 -100 68h-28v116h28c60 0 90 23.333 90 70v-3c0 34.667 -21.667 52 -65 52c-51.333 0 -77 -23.333 -77 -70v0h-162v0c0 68.667 20.167 120.167 60.5 154.5s100.166 51.5 179.499 51.5s138.833 -14.167 178.5 -42.5
s59.5 -71.166 59.5 -128.499v-2c0 -69.333 -42 -116 -126 -140c90.667 -12.667 136 -60.334 136 -143.001v0c0 -60.667 -20.667 -106 -62 -136s-103.333 -45 -186 -45z" />
    <glyph glyph-name="questiondown" unicode="&#xbf;" horiz-adv-x="884" 
d="M468 -422c-120 0 -213.002 32.499 -279.002 97.499s-99 156.833 -99 275.5v1c0 63.333 9.83301 117.333 29.5 162s43.834 85.334 72.501 122.001l86 113.5c28.667 39 52.834 84.167 72.501 135.5s29.5 114.333 29.5 189h204c0 -81.333 -9.66699 -150.833 -29 -208.5
s-43.333 -108.167 -72 -151.5s-57.167 -83.333 -85.5 -120s-52.166 -74.167 -71.499 -112.5s-29 -81.833 -29 -130.5v-1c0 -58 14.833 -103 44.5 -135s71.167 -48 124.5 -48c54 0 95.833 19.833 125.5 59.5s44.834 95.834 45.501 168.501v1h207v-1
c-4.66699 -132.667 -39.834 -235.334 -105.501 -308.001s-155.834 -109 -270.501 -109zM592.998 1047v-204h-204v204h204z" />
    <glyph glyph-name="Agrave" unicode="&#xc0;" horiz-adv-x="1326" 
d="M40 0l536 1454h174l536 -1454h-220l-403 1173l-403 -1173h-220zM287 319v194h765v-194h-765zM639 1544l-305 226l152 147l286 -245z" />
    <glyph glyph-name="Aacute" unicode="&#xc1;" horiz-adv-x="1326" 
d="M40 0l536 1454h174l536 -1454h-220l-403 1173l-403 -1173h-220zM287 319v194h765v-194h-765zM682 1544l-133 128l286 245l152 -147z" />
    <glyph glyph-name="Acircumflex" unicode="&#xc2;" horiz-adv-x="1326" 
d="M40 0l536 1454h174l536 -1454h-220l-403 1173l-403 -1173h-220zM287 319v194h765v-194h-765zM660 1916l324 -244l-129 -120l-195 150l-195 -150l-129 120z" />
    <glyph glyph-name="Atilde" unicode="&#xc3;" horiz-adv-x="1326" 
d="M40 0l536 1454h174l536 -1454h-220l-403 1173l-403 -1173h-220zM287 319v194h765v-194h-765zM847 1558c-34.667 0 -65.832 4 -93.499 12s-53.167 17.333 -76.5 28c-31.333 14.667 -59.833 29 -85.5 43s-51.5 21 -77.5 21c-46.667 0 -70 -26.667 -70 -80v-21h-168v25
c0 172.667 68 259 204 259c43.333 0 81.166 -6 113.499 -18s61.833 -24.667 88.5 -38l66.5 -33c21 -10 42.167 -15 63.5 -15c46.667 0 70 29 70 87v20h168v-24c0 -177.333 -67.667 -266 -203 -266z" />
    <glyph glyph-name="Adieresis" unicode="&#xc4;" horiz-adv-x="1326" 
d="M40 0l536 1454h174l536 -1454h-220l-403 1173l-403 -1173h-220zM287 319v194h765v-194h-765zM346 1787h214v-214h-214v214zM766 1787h214v-214h-214v214z" />
    <glyph glyph-name="Aring" unicode="&#xc5;" horiz-adv-x="1208" 
d="M663 1422c-78.667 0 -139.167 20 -181.5 60s-63.5 97 -63.5 171c0 76.667 21.167 136 63.5 178s102.833 63 181.5 63s139.167 -21.333 181.5 -64s63.5 -101.667 63.5 -177c0 -74 -21.333 -131 -64 -171s-103 -60 -181 -60zM663 1562c29.333 0 52.167 8.5 68.5 25.5
s24.5 40.167 24.5 69.5c0 30.667 -8 54.667 -24 72s-39 26 -69 26s-53 -8.5 -69 -25.5s-24 -41.167 -24 -72.5c0 -29.333 8 -52.5 24 -69.5s39 -25.5 69 -25.5zM40.001 0l536 1454h174l536 -1454h-220l-403 1173l-403 -1173h-220zM287.001 319v194h765v-194h-765z" />
    <glyph glyph-name="AE" unicode="&#xc6;" horiz-adv-x="2000" 
d="M0 0l776 1454h221l-770 -1454h-227zM355 317v194h705v-194h-705zM956 0v1454h204v-1454h-204zM1055 0v194h835v-194h-835zM1055 625v194h725v-194h-725zM1055 1260v194h835v-194h-835z" />
    <glyph glyph-name="Ccedilla" unicode="&#xc7;" horiz-adv-x="1267" 
d="M656 -15c-101.333 0 -190 22.502 -266 67.502s-135 108.167 -177 189.5s-63 176.333 -63 285v399c0 109.333 21 204.666 63 285.999s101 144.5 177 189.5s164.667 67.5 266 67.5c84 0 160.833 -18 230.5 -54s128 -86.333 175 -151s78.833 -140.334 95.5 -227.001v0h-209
v0c-12.667 46.667 -33.834 87.5 -63.501 122.5s-64.5 62.167 -104.5 81.5s-81.333 29 -124 29c-89.333 0 -161.166 -31.5 -215.499 -94.5s-81.5 -146.167 -81.5 -249.5v-399c0 -103.333 27.167 -186.333 81.5 -249s126.166 -94 215.499 -94c63.333 0 123 18.333 179 55
s93.667 89.334 113 158.001v0h209v0c-16.667 -82.667 -48.667 -154.834 -96 -216.501s-105.666 -109.667 -174.999 -144s-146 -51.5 -230 -51.5zM656 -421.998c-66.667 0 -121.667 6 -165 18l42 140c32 -9.33301 63.667 -14 95 -14c72.667 0 109 17 109 51
c0 16.667 -12.167 29 -36.5 37s-60.833 12 -109.5 12l87 116c78.667 0 137.5 -14.833 176.5 -44.5s58.5 -74.5 58.5 -134.5c0 -60.667 -21.333 -106 -64 -136s-107 -45 -193 -45zM575 61.002h166v-241l-166 2v239z" />
    <glyph glyph-name="Egrave" unicode="&#xc8;" horiz-adv-x="1224" 
d="M180 0v1454h204v-1454h-204zM279 0v194h835v-194h-835zM279 625v194h725v-194h-725zM279 1260v194h835v-194h-835zM641 1544l-305 226l152 147l286 -245z" />
    <glyph glyph-name="Eacute" unicode="&#xc9;" horiz-adv-x="1224" 
d="M180 0v1454h204v-1454h-204zM279 0v194h835v-194h-835zM279 625v194h725v-194h-725zM279 1260v194h835v-194h-835zM684 1544l-133 128l286 245l152 -147z" />
    <glyph glyph-name="Ecircumflex" unicode="&#xca;" horiz-adv-x="1224" 
d="M180 0v1454h204v-1454h-204zM279 0v194h835v-194h-835zM279 625v194h725v-194h-725zM279 1260v194h835v-194h-835zM662 1916l324 -244l-129 -120l-195 150l-195 -150l-129 120z" />
    <glyph glyph-name="Edieresis" unicode="&#xcb;" horiz-adv-x="1224" 
d="M180 0v1454h204v-1454h-204zM279 0v194h835v-194h-835zM279 625v194h725v-194h-725zM279 1260v194h835v-194h-835zM348 1787h214v-214h-214v214zM768 1787h214v-214h-214v214z" />
    <glyph glyph-name="Igrave" unicode="&#xcc;" horiz-adv-x="564" 
d="M384 1454v-1454h-204v1454h204zM253 1544l-305 226l152 147l286 -245z" />
    <glyph glyph-name="Iacute" unicode="&#xcd;" horiz-adv-x="564" 
d="M384 1454v-1454h-204v1454h204zM296 1544l-133 128l286 245l152 -147z" />
    <glyph glyph-name="Icircumflex" unicode="&#xce;" horiz-adv-x="564" 
d="M384 1454v-1454h-204v1454h204zM274 1916l324 -244l-129 -120l-195 150l-195 -150l-129 120z" />
    <glyph glyph-name="Idieresis" unicode="&#xcf;" horiz-adv-x="564" 
d="M384 1454v-1454h-204v1454h204zM-40 1787h214v-214h-214v214zM380 1787h214v-214h-214v214z" />
    <glyph glyph-name="Eth" unicode="&#xd0;" horiz-adv-x="1344" 
d="M318 0v194h329c107.333 0 190.5 27.833 249.5 83.5s88.5 134.167 88.5 235.5v428c0 101.333 -29.5 179.833 -88.5 235.5s-142.167 83.5 -249.5 83.5h-329v194h323c176 0 312.167 -45.5 408.5 -136.5s144.5 -219.167 144.5 -384.5v-412
c0 -165.333 -48.333 -293.5 -145 -384.5s-233 -136.5 -409 -136.5h-322zM180 0v1454h204v-1454h-204zM31 814h670v-174h-670v174z" />
    <glyph glyph-name="Ntilde" unicode="&#xd1;" horiz-adv-x="1434" 
d="M180 1v1453h185l711 -1114l-24 -26v1140h202v-1453h-187l-709 1097l24 26v-1123h-202zM916 1558c-34.667 0 -65.832 4 -93.499 12s-53.167 17.333 -76.5 28c-31.333 14.667 -59.833 29 -85.5 43s-51.5 21 -77.5 21c-46.667 0 -70 -26.667 -70 -80v-21h-168v25
c0 172.667 68 259 204 259c43.333 0 81.166 -6 113.499 -18s61.833 -24.667 88.5 -38l66.5 -33c21 -10 42.167 -15 63.5 -15c46.667 0 70 29 70 87v20h168v-24c0 -177.333 -67.667 -266 -203 -266z" />
    <glyph glyph-name="Ograve" unicode="&#xd2;" horiz-adv-x="1322" 
d="M661 -15c-102.667 0 -192.334 22.167 -269.001 66.5s-136.167 106.833 -178.5 187.5s-63.5 174.667 -63.5 282v412c0 107.333 21.167 201.333 63.5 282s101.833 143.167 178.5 187.5s166.334 66.5 269.001 66.5s192.334 -22.167 269.001 -66.5
s136.167 -106.833 178.5 -187.5s63.5 -174.667 63.5 -282v-412c0 -107.333 -21.167 -201.333 -63.5 -282s-101.833 -143.167 -178.5 -187.5s-166.334 -66.5 -269.001 -66.5zM661 186c91.333 0 164.5 30 219.5 90s82.5 139.333 82.5 238v426c0 98.667 -27.5 178 -82.5 238
s-128.167 90 -219.5 90s-164.5 -30 -219.5 -90s-82.5 -139.333 -82.5 -238v-426c0 -98.667 27.5 -178 82.5 -238s128.167 -90 219.5 -90zM637 1544l-305 226l152 147l286 -245z" />
    <glyph glyph-name="Oacute" unicode="&#xd3;" horiz-adv-x="1322" 
d="M661 -15c-102.667 0 -192.334 22.167 -269.001 66.5s-136.167 106.833 -178.5 187.5s-63.5 174.667 -63.5 282v412c0 107.333 21.167 201.333 63.5 282s101.833 143.167 178.5 187.5s166.334 66.5 269.001 66.5s192.334 -22.167 269.001 -66.5
s136.167 -106.833 178.5 -187.5s63.5 -174.667 63.5 -282v-412c0 -107.333 -21.167 -201.333 -63.5 -282s-101.833 -143.167 -178.5 -187.5s-166.334 -66.5 -269.001 -66.5zM661 186c91.333 0 164.5 30 219.5 90s82.5 139.333 82.5 238v426c0 98.667 -27.5 178 -82.5 238
s-128.167 90 -219.5 90s-164.5 -30 -219.5 -90s-82.5 -139.333 -82.5 -238v-426c0 -98.667 27.5 -178 82.5 -238s128.167 -90 219.5 -90zM680 1544l-133 128l286 245l152 -147z" />
    <glyph glyph-name="Ocircumflex" unicode="&#xd4;" horiz-adv-x="1322" 
d="M661 -15c-102.667 0 -192.334 22.167 -269.001 66.5s-136.167 106.833 -178.5 187.5s-63.5 174.667 -63.5 282v412c0 107.333 21.167 201.333 63.5 282s101.833 143.167 178.5 187.5s166.334 66.5 269.001 66.5s192.334 -22.167 269.001 -66.5
s136.167 -106.833 178.5 -187.5s63.5 -174.667 63.5 -282v-412c0 -107.333 -21.167 -201.333 -63.5 -282s-101.833 -143.167 -178.5 -187.5s-166.334 -66.5 -269.001 -66.5zM661 186c91.333 0 164.5 30 219.5 90s82.5 139.333 82.5 238v426c0 98.667 -27.5 178 -82.5 238
s-128.167 90 -219.5 90s-164.5 -30 -219.5 -90s-82.5 -139.333 -82.5 -238v-426c0 -98.667 27.5 -178 82.5 -238s128.167 -90 219.5 -90zM658 1916l324 -244l-129 -120l-195 150l-195 -150l-129 120z" />
    <glyph glyph-name="Otilde" unicode="&#xd5;" horiz-adv-x="1322" 
d="M661 -15c-102.667 0 -192.334 22.167 -269.001 66.5s-136.167 106.833 -178.5 187.5s-63.5 174.667 -63.5 282v412c0 107.333 21.167 201.333 63.5 282s101.833 143.167 178.5 187.5s166.334 66.5 269.001 66.5s192.334 -22.167 269.001 -66.5
s136.167 -106.833 178.5 -187.5s63.5 -174.667 63.5 -282v-412c0 -107.333 -21.167 -201.333 -63.5 -282s-101.833 -143.167 -178.5 -187.5s-166.334 -66.5 -269.001 -66.5zM661 186c91.333 0 164.5 30 219.5 90s82.5 139.333 82.5 238v426c0 98.667 -27.5 178 -82.5 238
s-128.167 90 -219.5 90s-164.5 -30 -219.5 -90s-82.5 -139.333 -82.5 -238v-426c0 -98.667 27.5 -178 82.5 -238s128.167 -90 219.5 -90zM845 1558c-34.667 0 -65.832 4 -93.499 12s-53.167 17.333 -76.5 28c-31.333 14.667 -59.833 29 -85.5 43s-51.5 21 -77.5 21
c-46.667 0 -70 -26.667 -70 -80v-21h-168v25c0 172.667 68 259 204 259c43.333 0 81.166 -6 113.499 -18s61.833 -24.667 88.5 -38l66.5 -33c21 -10 42.167 -15 63.5 -15c46.667 0 70 29 70 87v20h168v-24c0 -177.333 -67.667 -266 -203 -266z" />
    <glyph glyph-name="Odieresis" unicode="&#xd6;" horiz-adv-x="1322" 
d="M661 -15c-102.667 0 -192.334 22.167 -269.001 66.5s-136.167 106.833 -178.5 187.5s-63.5 174.667 -63.5 282v412c0 107.333 21.167 201.333 63.5 282s101.833 143.167 178.5 187.5s166.334 66.5 269.001 66.5s192.334 -22.167 269.001 -66.5
s136.167 -106.833 178.5 -187.5s63.5 -174.667 63.5 -282v-412c0 -107.333 -21.167 -201.333 -63.5 -282s-101.833 -143.167 -178.5 -187.5s-166.334 -66.5 -269.001 -66.5zM661 186c91.333 0 164.5 30 219.5 90s82.5 139.333 82.5 238v426c0 98.667 -27.5 178 -82.5 238
s-128.167 90 -219.5 90s-164.5 -30 -219.5 -90s-82.5 -139.333 -82.5 -238v-426c0 -98.667 27.5 -178 82.5 -238s128.167 -90 219.5 -90zM344 1787h214v-214h-214v214zM764 1787h214v-214h-214v214z" />
    <glyph glyph-name="multiply" unicode="&#xd7;" horiz-adv-x="1031" 
d="M283 273l-142 142l618 642l142 -136zM769 283l-629 638l132 132l629 -638z" />
    <glyph glyph-name="Oslash" unicode="&#xd8;" horiz-adv-x="1322" 
d="M188 -131l809 1728h154l-808 -1728h-155zM661 -15c-102.667 0 -192.334 22.167 -269.001 66.5s-136.167 106.833 -178.5 187.5s-63.5 174.667 -63.5 282v412c0 107.333 21.167 201.333 63.5 282s101.833 143.167 178.5 187.5s166.334 66.5 269.001 66.5
s192.334 -22.167 269.001 -66.5s136.167 -106.833 178.5 -187.5s63.5 -174.667 63.5 -282v-412c0 -107.333 -21.167 -201.333 -63.5 -282s-101.833 -143.167 -178.5 -187.5s-166.334 -66.5 -269.001 -66.5zM661 186c91.333 0 164.5 30 219.5 90s82.5 139.333 82.5 238v426
c0 98.667 -27.5 178 -82.5 238s-128.167 90 -219.5 90s-164.5 -30 -219.5 -90s-82.5 -139.333 -82.5 -238v-426c0 -98.667 27.5 -178 82.5 -238s128.167 -90 219.5 -90z" />
    <glyph glyph-name="Ugrave" unicode="&#xd9;" horiz-adv-x="1342" 
d="M670 -15c-162 0 -287.499 47.167 -376.499 141.5s-133.5 227.5 -133.5 399.5v928h204v-935c0 -106 26.667 -188 80 -246s128.666 -87 225.999 -87c98 0 173.833 29 227.5 87s80.5 140 80.5 246v935h204v-928c0 -172 -44.667 -305.167 -134 -399.5
s-215.333 -141.5 -378 -141.5zM646.001 1544l-305 226l152 147l286 -245z" />
    <glyph glyph-name="Uacute" unicode="&#xda;" horiz-adv-x="1342" 
d="M670 -15c-162 0 -287.499 47.167 -376.499 141.5s-133.5 227.5 -133.5 399.5v928h204v-935c0 -106 26.667 -188 80 -246s128.666 -87 225.999 -87c98 0 173.833 29 227.5 87s80.5 140 80.5 246v935h204v-928c0 -172 -44.667 -305.167 -134 -399.5
s-215.333 -141.5 -378 -141.5zM689.001 1544l-133 128l286 245l152 -147z" />
    <glyph glyph-name="Ucircumflex" unicode="&#xdb;" horiz-adv-x="1342" 
d="M670 -15c-162 0 -287.499 47.167 -376.499 141.5s-133.5 227.5 -133.5 399.5v928h204v-935c0 -106 26.667 -188 80 -246s128.666 -87 225.999 -87c98 0 173.833 29 227.5 87s80.5 140 80.5 246v935h204v-928c0 -172 -44.667 -305.167 -134 -399.5
s-215.333 -141.5 -378 -141.5zM667.001 1916l324 -244l-129 -120l-195 150l-195 -150l-129 120z" />
    <glyph glyph-name="Udieresis" unicode="&#xdc;" horiz-adv-x="1342" 
d="M670 -15c-162 0 -287.499 47.167 -376.499 141.5s-133.5 227.5 -133.5 399.5v928h204v-935c0 -106 26.667 -188 80 -246s128.666 -87 225.999 -87c98 0 173.833 29 227.5 87s80.5 140 80.5 246v935h204v-928c0 -172 -44.667 -305.167 -134 -399.5
s-215.333 -141.5 -378 -141.5zM353.001 1787h214v-214h-214v214zM773.001 1787h214v-214h-214v214z" />
    <glyph glyph-name="Yacute" unicode="&#xdd;" horiz-adv-x="1030" 
d="M1060 1454l-443 -863v-591h-204v591l-443 863h227l318 -656l318 656h227zM534 1544l-133 128l286 245l152 -147z" />
    <glyph glyph-name="Thorn" unicode="&#xde;" horiz-adv-x="1260" 
d="M285 304v193h465c70.667 0 125.167 21.833 163.5 65.5s57.5 105.5 57.5 185.5s-19.167 142 -57.5 186s-92.833 66 -163.5 66h-465v194h458c92.667 0 171.5 -17.5 236.5 -52.5s114.667 -85.667 149 -152s51.5 -146.833 51.5 -241.5c0 -94 -17.167 -174.167 -51.5 -240.5
s-84 -116.833 -149 -151.5s-143.833 -52 -236.5 -52h-458zM180 0v1454h204v-1454h-204z" />
    <glyph glyph-name="germandbls" unicode="&#xdf;" horiz-adv-x="1147" 
d="M160 0l-0.00292969 1030c0 139.333 36.833 247.333 110.5 324s177.834 115 312.501 115c128.667 0 228.167 -31.167 298.5 -93.5s105.5 -149.833 105.5 -262.5v-1c0 -61.333 -15.833 -111.833 -47.5 -151.5s-76.167 -65.5 -133.5 -77.5
c57.333 -11.333 101.833 -36.333 133.5 -75s47.5 -87.334 47.5 -146.001v-430c0 -78.667 -26.667 -139.5 -80 -182.5s-128.666 -64.5 -225.999 -64.5h-96v194h96c32.667 0 57.834 8.33301 75.501 25s26.5 40 26.5 70v413c0 30 -8.83301 53.333 -26.5 70
s-42.834 25 -75.501 25h-96v194h96c32.667 0 57.834 11.333 75.501 34s26.5 54.667 26.5 96v1c0 53.333 -16.833 94.666 -50.5 123.999s-81.167 44 -142.5 44c-72 0 -127.667 -22 -167 -66s-59 -106.333 -59 -187v-1022h-204z" />
    <glyph glyph-name="agrave" unicode="&#xe0;" horiz-adv-x="1090" 
d="M746 0l0.00195312 658.001c0 68 -18.167 120.833 -54.5 158.5s-87.833 56.5 -154.5 56.5c-86.667 0 -162.334 -24 -227.001 -72l-149 102c39.333 47.333 91.166 84.166 155.499 110.499s135.833 39.5 214.5 39.5c130 0 230.667 -33.667 302 -101s107 -162.333 107 -285
v-667h-194zM492.002 -14.999c-127.333 0 -222.83 26.333 -286.497 79s-95.5 133.334 -95.5 242.001c0 102.667 29 179.667 87 231s145.667 77 263 77h295l14 -164h-308c-52.667 0 -92.334 -11.833 -119.001 -35.5s-40 -59.834 -40 -108.501
c0 -53.333 17.667 -92.5 53 -117.5s88.333 -37.5 159 -37.5c77.333 0 135.333 8.33301 174 25s58 42.667 58 78l21 -146c-18 -28 -40.333 -51 -67 -69s-57.334 -31.5 -92.001 -40.5s-73.334 -13.5 -116.001 -13.5zM516.005 1188l-305 336l157 132l286 -355z" />
    <glyph glyph-name="aacute" unicode="&#xe1;" horiz-adv-x="1090" 
d="M746 0l0.00195312 658.001c0 68 -18.167 120.833 -54.5 158.5s-87.833 56.5 -154.5 56.5c-86.667 0 -162.334 -24 -227.001 -72l-149 102c39.333 47.333 91.166 84.166 155.499 110.499s135.833 39.5 214.5 39.5c130 0 230.667 -33.667 302 -101s107 -162.333 107 -285
v-667h-194zM492.002 -14.999c-127.333 0 -222.83 26.333 -286.497 79s-95.5 133.334 -95.5 242.001c0 102.667 29 179.667 87 231s145.667 77 263 77h295l14 -164h-308c-52.667 0 -92.334 -11.833 -119.001 -35.5s-40 -59.834 -40 -108.501
c0 -53.333 17.667 -92.5 53 -117.5s88.333 -37.5 159 -37.5c77.333 0 135.333 8.33301 174 25s58 42.667 58 78l21 -146c-18 -28 -40.333 -51 -67 -69s-57.334 -31.5 -92.001 -40.5s-73.334 -13.5 -116.001 -13.5zM559.005 1188l-138 113l286 355l157 -132z" />
    <glyph glyph-name="acircumflex" unicode="&#xe2;" horiz-adv-x="1090" 
d="M746 0l0.00195312 658.001c0 68 -18.167 120.833 -54.5 158.5s-87.833 56.5 -154.5 56.5c-86.667 0 -162.334 -24 -227.001 -72l-149 102c39.333 47.333 91.166 84.166 155.499 110.499s135.833 39.5 214.5 39.5c130 0 230.667 -33.667 302 -101s107 -162.333 107 -285
v-667h-194zM492.002 -14.999c-127.333 0 -222.83 26.333 -286.497 79s-95.5 133.334 -95.5 242.001c0 102.667 29 179.667 87 231s145.667 77 263 77h295l14 -164h-308c-52.667 0 -92.334 -11.833 -119.001 -35.5s-40 -59.834 -40 -108.501
c0 -53.333 17.667 -92.5 53 -117.5s88.333 -37.5 159 -37.5c77.333 0 135.333 8.33301 174 25s58 42.667 58 78l21 -146c-18 -28 -40.333 -51 -67 -69s-57.334 -31.5 -92.001 -40.5s-73.334 -13.5 -116.001 -13.5zM540.005 1607l324 -304l-124 -115l-200 190l-200 -190
l-124 115z" />
    <glyph glyph-name="atilde" unicode="&#xe3;" horiz-adv-x="1090" 
d="M746 0l0.00195312 658.001c0 68 -18.167 120.833 -54.5 158.5s-87.833 56.5 -154.5 56.5c-86.667 0 -162.334 -24 -227.001 -72l-149 102c39.333 47.333 91.166 84.166 155.499 110.499s135.833 39.5 214.5 39.5c130 0 230.667 -33.667 302 -101s107 -162.333 107 -285
v-667h-194zM492.002 -14.999c-127.333 0 -222.83 26.333 -286.497 79s-95.5 133.334 -95.5 242.001c0 102.667 29 179.667 87 231s145.667 77 263 77h295l14 -164h-308c-52.667 0 -92.334 -11.833 -119.001 -35.5s-40 -59.834 -40 -108.501
c0 -53.333 17.667 -92.5 53 -117.5s88.333 -37.5 159 -37.5c77.333 0 135.333 8.33301 174 25s58 42.667 58 78l21 -146c-18 -28 -40.333 -51 -67 -69s-57.334 -31.5 -92.001 -40.5s-73.334 -13.5 -116.001 -13.5zM684.005 1202c-32.667 0 -61.168 6.33301 -85.501 19
s-46.833 26.667 -67.5 42l-52 35.5c-16 11 -32 16.5 -48 16.5c-46.667 0 -70 -29.667 -70 -89v-21h-168v25c0 178.667 68 268 204 268c35.333 0 65.833 -7.33301 91.5 -22s49.167 -29.667 70.5 -45c16 -12 31.333 -22.667 46 -32s29.334 -14 44.001 -14
c46.667 0 70 32.333 70 97v20h168v-24c0 -184 -67.667 -276 -203 -276z" />
    <glyph glyph-name="adieresis" unicode="&#xe4;" horiz-adv-x="1090" 
d="M746 0l0.00195312 658.001c0 68 -18.167 120.833 -54.5 158.5s-87.833 56.5 -154.5 56.5c-86.667 0 -162.334 -24 -227.001 -72l-149 102c39.333 47.333 91.166 84.166 155.499 110.499s135.833 39.5 214.5 39.5c130 0 230.667 -33.667 302 -101s107 -162.333 107 -285
v-667h-194zM492.002 -14.999c-127.333 0 -222.83 26.333 -286.497 79s-95.5 133.334 -95.5 242.001c0 102.667 29 179.667 87 231s145.667 77 263 77h295l14 -164h-308c-52.667 0 -92.334 -11.833 -119.001 -35.5s-40 -59.834 -40 -108.501
c0 -53.333 17.667 -92.5 53 -117.5s88.333 -37.5 159 -37.5c77.333 0 135.333 8.33301 174 25s58 42.667 58 78l21 -146c-18 -28 -40.333 -51 -67 -69s-57.334 -31.5 -92.001 -40.5s-73.334 -13.5 -116.001 -13.5zM223.005 1429h214v-214h-214v214zM643.005 1429h214v-214
h-214v214z" />
    <glyph glyph-name="aring" unicode="&#xe5;" horiz-adv-x="1090" 
d="M746 0l0.00195312 658.001c0 68 -18.167 120.833 -54.5 158.5s-87.833 56.5 -154.5 56.5c-86.667 0 -162.334 -24 -227.001 -72l-149 102c39.333 47.333 91.166 84.166 155.499 110.499s135.833 39.5 214.5 39.5c130 0 230.667 -33.667 302 -101s107 -162.333 107 -285
v-667h-194zM492.002 -14.999c-127.333 0 -222.83 26.333 -286.497 79s-95.5 133.334 -95.5 242.001c0 102.667 29 179.667 87 231s145.667 77 263 77h295l14 -164h-308c-52.667 0 -92.334 -11.833 -119.001 -35.5s-40 -59.834 -40 -108.501
c0 -53.333 17.667 -92.5 53 -117.5s88.333 -37.5 159 -37.5c77.333 0 135.333 8.33301 174 25s58 42.667 58 78l21 -146c-18 -28 -40.333 -51 -67 -69s-57.334 -31.5 -92.001 -40.5s-73.334 -13.5 -116.001 -13.5zM540.005 1201c-78.667 0 -139.167 20 -181.5 60
s-63.5 97 -63.5 171c0 77.333 21.167 136.833 63.5 178.5s102.833 62.5 181.5 62.5s139.167 -21.333 181.5 -64s63.5 -101.667 63.5 -177c0 -74 -21.333 -131 -64 -171s-103 -60 -181 -60zM540.005 1341c29.333 0 52.167 8.5 68.5 25.5s24.5 40.167 24.5 69.5
c0 30.667 -8 54.667 -24 72s-39 26 -69 26s-53 -8.66699 -69 -26s-24 -41.333 -24 -72c0 -29.333 8 -52.5 24 -69.5s39 -25.5 69 -25.5z" />
    <glyph glyph-name="ae" unicode="&#xe6;" horiz-adv-x="1708" 
d="M756 485l0.000976562 173.002c0 68 -19.167 120.833 -57.5 158.5s-92.166 56.5 -161.499 56.5c-84.667 0 -159.334 -24 -224.001 -72l-152 102c39.333 47.333 91.166 84.166 155.499 110.499s135.833 39.5 214.5 39.5c104.667 0 185.667 -29.333 243 -88
s86 -141.334 86 -248.001v-232h-104zM462.001 -14.998c-234.667 0 -352 107.001 -352 321.001c0 202 116.667 303 350 303h365l14 -159h-378c-52.667 0 -92.334 -11.833 -119.001 -35.5s-40 -59.834 -40 -108.501c0 -96.667 60.667 -145 182 -145
c62.667 0 113.667 14.833 153 44.5s68.166 67.167 86.499 112.5s27.5 92.333 27.5 141h104l-1 -251c-39.333 -76 -91.666 -132.167 -156.999 -168.5s-143.666 -54.5 -234.999 -54.5zM1195 -14.9971c-119.333 0 -211.668 38.167 -277.001 114.5s-98 184.833 -98 325.5v187
c0 140 31.333 248.5 94 325.5s150.334 115.5 263.001 115.5c130.667 0 231.834 -48.5 303.501 -145.5s107.5 -232.833 107.5 -407.5v-50h-710v159h516v0c-6 83.333 -27.833 148.166 -65.5 194.499s-88.167 69.5 -151.5 69.5c-80 0 -142.167 -26.167 -186.5 -78.5
s-66.5 -126.166 -66.5 -221.499v-132c0 -90 23.667 -159.167 71 -207.5s114 -72.5 200 -72.5c91.333 0 172.666 32.667 243.999 98v0l122 -119v0c-51.333 -49.333 -109 -87.5 -173 -114.5s-128.333 -40.5 -193 -40.5z" />
    <glyph glyph-name="ccedilla" unicode="&#xe7;" horiz-adv-x="995" 
d="M579 -15c-142.667 0 -253.169 39.332 -331.502 117.999s-117.5 189.667 -117.5 333v171c0 142 39.167 251.833 117.5 329.5s188.833 116.5 331.5 116.5c80.667 0 153.834 -14.5 219.501 -43.5s117.834 -69.833 156.501 -122.5l-147 -132
c-60.667 69.333 -136 104 -226 104c-78.667 0 -139.667 -22 -183 -66s-65 -106 -65 -186v-171c0 -85.333 21.667 -151.166 65 -197.499s104.333 -69.5 183 -69.5c91.333 0 166.666 37 225.999 111l147 -132c-39.333 -52 -91.666 -92.167 -156.999 -120.5
s-138.333 -42.5 -219 -42.5zM526.998 -422.001c-66.667 0 -121.667 6 -165 18l42 140c32 -9.33301 63.667 -14 95 -14c72.667 0 109 17 109 51c0 16.667 -12.167 29 -36.5 37s-60.833 12 -109.5 12l87 116c78.667 0 137.5 -14.833 176.5 -44.5s58.5 -74.5 58.5 -134.5
c0 -60.667 -21.333 -106 -64 -136s-107 -45 -193 -45zM445.998 60.999h166v-241l-166 2v239z" />
    <glyph glyph-name="egrave" unicode="&#xe8;" horiz-adv-x="1108" 
d="M595 -15c-144.667 0 -256.665 40.168 -335.998 120.501s-119 195.166 -119 344.499v117c0 154.667 38.167 274.334 114.5 359.001s183.833 127 322.5 127c130.667 0 231.834 -48.167 303.501 -144.5s107.5 -230.833 107.5 -403.5v-68h-700v164h506v0
c-6 84 -27.833 149.667 -65.5 197s-88.167 71 -151.5 71c-76.667 0 -136.334 -25.333 -179.001 -76s-64 -122.334 -64 -215.001v-132c0 -86 22.667 -152 68 -198s109.666 -69 192.999 -69c87.333 0 164.666 31.667 231.999 95v0l134 -134v0
c-51.333 -49.333 -109 -87.5 -173 -114.5s-128.333 -40.5 -193 -40.5zM546.002 1188l-305 336l157 132l286 -355z" />
    <glyph glyph-name="eacute" unicode="&#xe9;" horiz-adv-x="1108" 
d="M595 -15c-144.667 0 -256.665 40.168 -335.998 120.501s-119 195.166 -119 344.499v117c0 154.667 38.167 274.334 114.5 359.001s183.833 127 322.5 127c130.667 0 231.834 -48.167 303.501 -144.5s107.5 -230.833 107.5 -403.5v-68h-700v164h506v0
c-6 84 -27.833 149.667 -65.5 197s-88.167 71 -151.5 71c-76.667 0 -136.334 -25.333 -179.001 -76s-64 -122.334 -64 -215.001v-132c0 -86 22.667 -152 68 -198s109.666 -69 192.999 -69c87.333 0 164.666 31.667 231.999 95v0l134 -134v0
c-51.333 -49.333 -109 -87.5 -173 -114.5s-128.333 -40.5 -193 -40.5zM589.002 1188l-138 113l286 355l157 -132z" />
    <glyph glyph-name="ecircumflex" unicode="&#xea;" horiz-adv-x="1108" 
d="M595 -15c-144.667 0 -256.665 40.168 -335.998 120.501s-119 195.166 -119 344.499v117c0 154.667 38.167 274.334 114.5 359.001s183.833 127 322.5 127c130.667 0 231.834 -48.167 303.501 -144.5s107.5 -230.833 107.5 -403.5v-68h-700v164h506v0
c-6 84 -27.833 149.667 -65.5 197s-88.167 71 -151.5 71c-76.667 0 -136.334 -25.333 -179.001 -76s-64 -122.334 -64 -215.001v-132c0 -86 22.667 -152 68 -198s109.666 -69 192.999 -69c87.333 0 164.666 31.667 231.999 95v0l134 -134v0
c-51.333 -49.333 -109 -87.5 -173 -114.5s-128.333 -40.5 -193 -40.5zM570.002 1607l324 -304l-124 -115l-200 190l-200 -190l-124 115z" />
    <glyph glyph-name="edieresis" unicode="&#xeb;" horiz-adv-x="1108" 
d="M595 -15c-144.667 0 -256.665 40.168 -335.998 120.501s-119 195.166 -119 344.499v117c0 154.667 38.167 274.334 114.5 359.001s183.833 127 322.5 127c130.667 0 231.834 -48.167 303.501 -144.5s107.5 -230.833 107.5 -403.5v-68h-700v164h506v0
c-6 84 -27.833 149.667 -65.5 197s-88.167 71 -151.5 71c-76.667 0 -136.334 -25.333 -179.001 -76s-64 -122.334 -64 -215.001v-132c0 -86 22.667 -152 68 -198s109.666 -69 192.999 -69c87.333 0 164.666 31.667 231.999 95v0l134 -134v0
c-51.333 -49.333 -109 -87.5 -173 -114.5s-128.333 -40.5 -193 -40.5zM253.002 1429h214v-214h-214v214zM673.002 1429h214v-214h-214v214z" />
    <glyph glyph-name="igrave" unicode="&#xec;" horiz-adv-x="514" 
d="M160 0v1038h204v-1038h-204zM238 1188l-305 336l157 132l286 -355z" />
    <glyph glyph-name="iacute" unicode="&#xed;" horiz-adv-x="514" 
d="M160 0v1038h204v-1038h-204zM281 1188l-138 113l286 355l157 -132z" />
    <glyph glyph-name="icircumflex" unicode="&#xee;" horiz-adv-x="514" 
d="M160 0v1038h204v-1038h-204zM262 1607l324 -304l-124 -115l-200 190l-200 -190l-124 115z" />
    <glyph glyph-name="idieresis" unicode="&#xef;" horiz-adv-x="514" 
d="M160 0v1038h204v-1038h-204zM-55 1429h214v-214h-214v214zM365 1429h214v-214h-214v214z" />
    <glyph glyph-name="eth" unicode="&#xf0;" horiz-adv-x="1102" 
d="M952 610l-167 78c1.33301 83.333 -17 171.333 -55 264s-96 190.334 -174 293.001l-159 209h228l117 -164c70 -98.667 122.5 -204.334 157.5 -317.001s52.5 -233.667 52.5 -363zM810 781l142 -171v-180c0 -139.333 -36 -248.333 -108 -327s-173.667 -118 -305 -118
c-129.333 0 -229.833 38.833 -301.5 116.5s-107.5 187.167 -107.5 328.5v183c0 137.333 30.333 245 91 323s146 117 256 117c76.667 0 140.5 -23.333 191.5 -70s98.167 -114 141.5 -202zM758 430l0.000976562 180c0 172.667 -73 259 -219 259
c-143.333 0 -215 -85.333 -215 -256v-183c0 -174 71.667 -261 215 -261c75.333 0 130.666 22 165.999 66s53 109 53 195zM245.001 1328l659 122l29 -154l-659 -122z" />
    <glyph glyph-name="ntilde" unicode="&#xf1;" horiz-adv-x="1144" 
d="M160 0v1038h204v-1038h-204zM790 0l-0.00195312 629.001c0 72.667 -19 129.167 -57 169.5s-91.333 60.5 -160 60.5c-66.667 0 -118.167 -17.667 -154.5 -53s-54.5 -85 -54.5 -149l-21 200c32 62.667 73.833 111 125.5 145s108.834 51 171.501 51
c112.667 0 199.834 -36.833 261.501 -110.5s92.5 -177.834 92.5 -312.501v-630h-204zM715.998 1202c-32.667 0 -61.168 6.33301 -85.501 19s-46.833 26.667 -67.5 42l-52 35.5c-16 11 -32 16.5 -48 16.5c-46.667 0 -70 -29.667 -70 -89v-21h-168v25
c0 178.667 68 268 204 268c35.333 0 65.833 -7.33301 91.5 -22s49.167 -29.667 70.5 -45c16 -12 31.333 -22.667 46 -32s29.334 -14 44.001 -14c46.667 0 70 32.333 70 97v20h168v-24c0 -184 -67.667 -276 -203 -276z" />
    <glyph glyph-name="ograve" unicode="&#xf2;" horiz-adv-x="1116" 
d="M558 -15c-136 0 -241.333 39.5 -316 118.5s-112 190.167 -112 333.5v169c0 142 37.333 252 112 330s180 117 316 117s241.333 -39 316 -117s112 -188 112 -330v-172c0 -142.667 -37.333 -253.167 -112 -331.5s-180 -117.5 -316 -117.5zM557 179
c71.333 0 126.666 22.167 165.999 66.5s59 107.166 59 188.499v172c0 80.667 -19.667 143 -59 187s-94.666 66 -165.999 66s-126.333 -22 -165 -66s-58 -106.333 -58 -187v-172c0 -81.333 19.333 -144.166 58 -188.499s93.667 -66.5 165 -66.5zM534 1188l-305 336l157 132
l286 -355z" />
    <glyph glyph-name="oacute" unicode="&#xf3;" horiz-adv-x="1116" 
d="M558 -15c-136 0 -241.333 39.5 -316 118.5s-112 190.167 -112 333.5v169c0 142 37.333 252 112 330s180 117 316 117s241.333 -39 316 -117s112 -188 112 -330v-172c0 -142.667 -37.333 -253.167 -112 -331.5s-180 -117.5 -316 -117.5zM557 179
c71.333 0 126.666 22.167 165.999 66.5s59 107.166 59 188.499v172c0 80.667 -19.667 143 -59 187s-94.666 66 -165.999 66s-126.333 -22 -165 -66s-58 -106.333 -58 -187v-172c0 -81.333 19.333 -144.166 58 -188.499s93.667 -66.5 165 -66.5zM577 1188l-138 113l286 355
l157 -132z" />
    <glyph glyph-name="ocircumflex" unicode="&#xf4;" horiz-adv-x="1116" 
d="M558 -15c-136 0 -241.333 39.5 -316 118.5s-112 190.167 -112 333.5v169c0 142 37.333 252 112 330s180 117 316 117s241.333 -39 316 -117s112 -188 112 -330v-172c0 -142.667 -37.333 -253.167 -112 -331.5s-180 -117.5 -316 -117.5zM557 179
c71.333 0 126.666 22.167 165.999 66.5s59 107.166 59 188.499v172c0 80.667 -19.667 143 -59 187s-94.666 66 -165.999 66s-126.333 -22 -165 -66s-58 -106.333 -58 -187v-172c0 -81.333 19.333 -144.166 58 -188.499s93.667 -66.5 165 -66.5zM558 1607l324 -304l-124 -115
l-200 190l-200 -190l-124 115z" />
    <glyph glyph-name="otilde" unicode="&#xf5;" horiz-adv-x="1116" 
d="M558 -15c-136 0 -241.333 39.5 -316 118.5s-112 190.167 -112 333.5v169c0 142 37.333 252 112 330s180 117 316 117s241.333 -39 316 -117s112 -188 112 -330v-172c0 -142.667 -37.333 -253.167 -112 -331.5s-180 -117.5 -316 -117.5zM557 179
c71.333 0 126.666 22.167 165.999 66.5s59 107.166 59 188.499v172c0 80.667 -19.667 143 -59 187s-94.666 66 -165.999 66s-126.333 -22 -165 -66s-58 -106.333 -58 -187v-172c0 -81.333 19.333 -144.166 58 -188.499s93.667 -66.5 165 -66.5zM702 1202
c-32.667 0 -61.168 6.33301 -85.501 19s-46.833 26.667 -67.5 42l-52 35.5c-16 11 -32 16.5 -48 16.5c-46.667 0 -70 -29.667 -70 -89v-21h-168v25c0 178.667 68 268 204 268c35.333 0 65.833 -7.33301 91.5 -22s49.167 -29.667 70.5 -45c16 -12 31.333 -22.667 46 -32
s29.334 -14 44.001 -14c46.667 0 70 32.333 70 97v20h168v-24c0 -184 -67.667 -276 -203 -276z" />
    <glyph glyph-name="odieresis" unicode="&#xf6;" horiz-adv-x="1116" 
d="M558 -15c-136 0 -241.333 39.5 -316 118.5s-112 190.167 -112 333.5v169c0 142 37.333 252 112 330s180 117 316 117s241.333 -39 316 -117s112 -188 112 -330v-172c0 -142.667 -37.333 -253.167 -112 -331.5s-180 -117.5 -316 -117.5zM557 179
c71.333 0 126.666 22.167 165.999 66.5s59 107.166 59 188.499v172c0 80.667 -19.667 143 -59 187s-94.666 66 -165.999 66s-126.333 -22 -165 -66s-58 -106.333 -58 -187v-172c0 -81.333 19.333 -144.166 58 -188.499s93.667 -66.5 165 -66.5zM241 1429h214v-214h-214v214z
M661 1429h214v-214h-214v214z" />
    <glyph glyph-name="divide" unicode="&#xf7;" horiz-adv-x="988" 
d="M140 572v194h718v-194h-718zM405 864v204h204v-204h-204zM405 270v204h204v-204h-204z" />
    <glyph glyph-name="oslash" unicode="&#xf8;" horiz-adv-x="1116" 
d="M211 -142l576 1322h139l-576 -1322h-139zM558 -15c-136 0 -241.333 39.5 -316 118.5s-112 190.167 -112 333.5v169c0 142 37.333 252 112 330s180 117 316 117s241.333 -39 316 -117s112 -188 112 -330v-172c0 -142.667 -37.333 -253.167 -112 -331.5
s-180 -117.5 -316 -117.5zM557 179c71.333 0 126.666 22.167 165.999 66.5s59 107.166 59 188.499v172c0 80.667 -19.667 143 -59 187s-94.666 66 -165.999 66s-126.333 -22 -165 -66s-58 -106.333 -58 -187v-172c0 -81.333 19.333 -144.166 58 -188.499
s93.667 -66.5 165 -66.5z" />
    <glyph glyph-name="ugrave" unicode="&#xf9;" horiz-adv-x="1139" 
d="M786 0v1038h203v-1038h-203zM364 1038v-631c0 -72.667 18.5 -128.834 55.5 -168.501s89.167 -59.5 156.5 -59.5c66.667 0 118.334 17.833 155.001 53.5s55 85.834 55 150.501l14 -217c-18.667 -46.667 -51.334 -88.5 -98.001 -125.5s-107.667 -55.5 -183 -55.5
c-114.667 0 -203.167 36.833 -265.5 110.5s-93.5 177.5 -93.5 311.5v631h204zM546 1188l-305 336l157 132l286 -355z" />
    <glyph glyph-name="uacute" unicode="&#xfa;" horiz-adv-x="1139" 
d="M786 0v1038h203v-1038h-203zM364 1038v-631c0 -72.667 18.5 -128.834 55.5 -168.501s89.167 -59.5 156.5 -59.5c66.667 0 118.334 17.833 155.001 53.5s55 85.834 55 150.501l14 -217c-18.667 -46.667 -51.334 -88.5 -98.001 -125.5s-107.667 -55.5 -183 -55.5
c-114.667 0 -203.167 36.833 -265.5 110.5s-93.5 177.5 -93.5 311.5v631h204zM589 1188l-138 113l286 355l157 -132z" />
    <glyph glyph-name="ucircumflex" unicode="&#xfb;" horiz-adv-x="1139" 
d="M786 0v1038h203v-1038h-203zM364 1038v-631c0 -72.667 18.5 -128.834 55.5 -168.501s89.167 -59.5 156.5 -59.5c66.667 0 118.334 17.833 155.001 53.5s55 85.834 55 150.501l14 -217c-18.667 -46.667 -51.334 -88.5 -98.001 -125.5s-107.667 -55.5 -183 -55.5
c-114.667 0 -203.167 36.833 -265.5 110.5s-93.5 177.5 -93.5 311.5v631h204zM570 1607l324 -304l-124 -115l-200 190l-200 -190l-124 115z" />
    <glyph glyph-name="udieresis" unicode="&#xfc;" horiz-adv-x="1139" 
d="M786 0v1038h203v-1038h-203zM364 1038v-631c0 -72.667 18.5 -128.834 55.5 -168.501s89.167 -59.5 156.5 -59.5c66.667 0 118.334 17.833 155.001 53.5s55 85.834 55 150.501l14 -217c-18.667 -46.667 -51.334 -88.5 -98.001 -125.5s-107.667 -55.5 -183 -55.5
c-114.667 0 -203.167 36.833 -265.5 110.5s-93.5 177.5 -93.5 311.5v631h204zM253 1429h214v-214h-214v214zM673 1429h214v-214h-214v214z" />
    <glyph glyph-name="yacute" unicode="&#xfd;" horiz-adv-x="989" 
d="M761 1038l208.001 0.000976562l-442 -1281c-28.667 -70 -65.334 -119.167 -110.001 -147.5s-107.667 -42.5 -189 -42.5h-41v196h41c38 0 68.167 7.66699 90.5 23s41.833 41.666 58.5 78.999zM464.001 -84.999l-414 1123h208l319 -902zM539.001 1188l-138 113l286 355
l157 -132z" />
    <glyph glyph-name="thorn" unicode="&#xfe;" horiz-adv-x="1114" 
d="M160 -422v1876h204v-1876h-204zM625 -15c-64.667 0 -121 15.501 -169 46.501s-83.333 74.833 -106 131.5l14 217c0 -44.667 8 -82.667 24 -114s39.167 -55.333 69.5 -72s67.166 -25 110.499 -25c67.333 0 119.5 20.5 156.5 61.5s55.5 98.833 55.5 173.5v225
c0 76 -18.5 135 -55.5 177s-89.167 63 -156.5 63c-43.333 0 -80.166 -8 -110.499 -24s-53.5 -39.5 -69.5 -70.5s-24 -68.167 -24 -111.5l-21 200c31.333 60.667 72.333 107.5 123 140.5s107 49.5 169 49.5c111.333 0 197.333 -36.833 258 -110.5s91 -177.834 91 -312.501
v-226c0 -133.333 -31.333 -236.5 -94 -309.5s-151 -109.5 -265 -109.5z" />
    <glyph glyph-name="ydieresis" unicode="&#xff;" horiz-adv-x="989" 
d="M761 1038l208.001 0.000976562l-442 -1281c-28.667 -70 -65.334 -119.167 -110.001 -147.5s-107.667 -42.5 -189 -42.5h-41v196h41c38 0 68.167 7.66699 90.5 23s41.833 41.666 58.5 78.999zM464.001 -84.999l-414 1123h208l319 -902zM203.001 1429h214v-214h-214v214z
M623.001 1429h214v-214h-214v214z" />
    <glyph glyph-name="dotlessi" unicode="&#x131;" horiz-adv-x="514" 
d="M160 0v1038h204v-1038h-204z" />
    <glyph glyph-name="OE" unicode="&#x152;" horiz-adv-x="2053" 
d="M691 -15c-108.667 0 -203.5 22.167 -284.5 66.5s-144 106.833 -189 187.5s-67.5 174.667 -67.5 282v412c0 107.333 22.5 201.333 67.5 282s108 143.167 189 187.5s175.833 66.5 284.5 66.5c98 0 179.167 -22.167 243.5 -66.5s112.333 -106.833 144 -187.5
s47.5 -174.667 47.5 -282v-412c0 -107.333 -15.833 -201.333 -47.5 -282s-79.667 -143.167 -144 -187.5s-145.5 -66.5 -243.5 -66.5zM691 186c95.333 0 172 30 230 90s87 139.333 87 238v426c0 98.667 -29 178 -87 238s-134.667 90 -230 90
c-101.333 0 -182.833 -30 -244.5 -90s-92.5 -139.333 -92.5 -238v-426c0 -98.667 30.833 -178 92.5 -238s143.167 -90 244.5 -90zM1009 0v1454h204v-1454h-204zM1108 0v194h835v-194h-835zM1108 625v194h725v-194h-725zM1108 1260v194h835v-194h-835z" />
    <glyph glyph-name="oe" unicode="&#x153;" horiz-adv-x="1740" 
d="M558 -15c-136 0 -241.333 39.5 -316 118.5s-112 190.167 -112 333.5v169c0 142 37.333 252 112 330s180 117 316 117c123.333 0 218.833 -39 286.5 -117s101.5 -188 101.5 -330v-172c0 -142.667 -33.833 -253.167 -101.5 -331.5s-163.167 -117.5 -286.5 -117.5zM557 169
c71.333 0 126.666 23.167 165.999 69.5s59 111.5 59 195.5v172c0 83.333 -19.667 148 -59 194s-94.666 69 -165.999 69c-74 0 -131.333 -23 -172 -69s-61 -110.667 -61 -194v-172c0 -84 20.333 -149.167 61 -195.5s98 -69.5 172 -69.5zM1227 -15
c-132 0 -234.168 40.167 -306.501 120.5s-108.5 195.166 -108.5 344.499v117c0 154.667 34.667 274.334 104 359.001s167 127 293 127c130.667 0 231.834 -48.167 303.501 -144.5s107.5 -230.833 107.5 -403.5v-68h-690v159h506v0
c-6.66699 89.333 -29.5 158.833 -68.5 208.5s-91.833 74.5 -158.5 74.5c-80 0 -142.167 -26.333 -186.5 -79s-66.5 -126.667 -66.5 -222v-132c0 -89.333 23.667 -157.833 71 -205.5s114 -71.5 200 -71.5c88.667 0 167.667 31.667 237 95v0l129 -124v0
c-51.333 -49.333 -109 -87.5 -173 -114.5s-128.333 -40.5 -193 -40.5z" />
    <glyph glyph-name="Scaron" unicode="&#x160;" horiz-adv-x="1261" 
d="M617 -15c-105.333 0 -201.83 15.0029 -289.497 45.0029s-166.834 75 -237.501 135v0l127 156v0c55.333 -48 116.333 -84 183 -108s139 -36 217 -36c105.333 0 187 19.5 245 58.5s87 94.167 87 165.5v1c0 55.333 -14.667 97.666 -44 126.999s-67.833 51.166 -115.5 65.499
s-99.834 26.166 -156.501 35.499c-54 10 -108.833 21.333 -164.5 34s-106.834 32.334 -153.501 59.001s-84.334 65.167 -113.001 115.5s-43 118.166 -43 203.499v1c0 135.333 45 240.166 135 314.499s217 111.5 381 111.5c78 0 154.333 -12.5 229 -37.5
s147.334 -63.167 218.001 -114.5v0l-116 -162v0c-110 81.333 -220.333 122 -331 122c-99.333 0 -176.5 -19.833 -231.5 -59.5s-82.5 -95.834 -82.5 -168.501v-1c0 -54.667 16 -96.167 48 -124.5s73.833 -49.5 125.5 -63.5s107.167 -27 166.5 -39
c53.333 -10.667 106.666 -23.5 159.999 -38.5s101.833 -36.667 145.5 -65s78.667 -67.166 105 -116.499s39.5 -113.666 39.5 -192.999v-2c0 -134 -46.667 -237.667 -140 -311s-224.666 -110 -393.999 -110zM638.003 1552l-314 244l129 120l185 -150l185 150l129 -120z" />
    <glyph glyph-name="scaron" unicode="&#x161;" horiz-adv-x="992" 
d="M477 -15c-88 0 -167.828 13.5 -239.495 40.5s-135.834 67.5 -192.501 121.5l121 149c109.333 -85.333 216.333 -128 321 -128c84 0 147 12.5 189 37.5s63 62.5 63 112.5c0 38.667 -13.5 66 -40.5 82s-62.5 26.333 -106.5 31s-90.667 9 -140 13
c-42 2.66699 -83.667 7.66699 -125 15s-79 20.166 -113 38.499s-61.167 45.5 -81.5 81.5s-30.5 84.333 -30.5 145c0 110 34.5 192.333 103.5 247s172.833 82 311.5 82c77.333 0 150.166 -11.167 218.499 -33.5s132.5 -55.833 192.5 -100.5l-123 -149
c-96.667 66.667 -191.334 100 -284.001 100c-75.333 0 -131.666 -11.833 -168.999 -35.5s-56 -59.167 -56 -106.5c0 -32 12 -54.833 36 -68.5s55.667 -22.5 95 -26.5s81.666 -7.33301 126.999 -10c43.333 -2.66699 87.166 -7.5 131.499 -14.5s85.166 -20.5 122.499 -40.5
s67.333 -49.667 90 -89s34 -93 34 -161c0 -111.333 -37.833 -194.666 -113.5 -249.999s-189.5 -83 -341.5 -83zM506.005 1188l-324 304l124 115l200 -190l200 190l124 -115z" />
    <glyph glyph-name="Ydieresis" unicode="&#x178;" horiz-adv-x="1030" 
d="M1060 1454l-443 -863v-591h-204v591l-443 863h227l318 -656l318 656h227zM198 1787h214v-214h-214v214zM618 1787h214v-214h-214v214z" />
    <glyph glyph-name="Zcaron" unicode="&#x17d;" horiz-adv-x="1114" 
d="M1004 1454v-176l-633 -1084h653v-194h-904v176l638 1084h-620v194h866zM574 1552l-314 244l129 120l185 -150l185 150l129 -120z" />
    <glyph glyph-name="zcaron" unicode="&#x17e;" horiz-adv-x="1013" 
d="M876 1038v-172l-499 -677h526v-189h-773v176l512 673h-498v189h732zM518 1188l-324 304l124 115l200 -190l200 190l124 -115z" />
    <glyph glyph-name="circumflex" unicode="&#x2c6;" horiz-adv-x="808" 
d="M404 1607l324 -304l-124 -115l-200 190l-200 -190l-124 115z" />
    <glyph glyph-name="caron" unicode="&#x2c7;" horiz-adv-x="808" 
d="M404 1188l-324 304l124 115l200 -190l200 190l124 -115z" />
    <glyph glyph-name="tilde" unicode="&#x2dc;" horiz-adv-x="854" 
d="M571 1202c-32.667 0 -61.168 6.33301 -85.501 19s-46.833 26.667 -67.5 42l-52 35.5c-16 11 -32 16.5 -48 16.5c-46.667 0 -70 -29.667 -70 -89v-21h-168v25c0 178.667 68 268 204 268c35.333 0 65.833 -7.33301 91.5 -22s49.167 -29.667 70.5 -45
c16 -12 31.333 -22.667 46 -32s29.334 -14 44.001 -14c46.667 0 70 32.333 70 97v20h168v-24c0 -184 -67.667 -276 -203 -276z" />
    <glyph glyph-name="gravecomb" unicode="&#x300;" 
d="M-48 1188l-305 336l157 132l286 -355z" />
    <glyph glyph-name="acutecomb" unicode="&#x301;" 
d="M-320 1188l-138 113l286 355l157 -132z" />
    <glyph glyph-name="uni0302" unicode="&#x302;" 
d="M-324 1607l324 -304l-124 -115l-200 190l-200 -190l-124 115z" />
    <glyph glyph-name="tildecomb" unicode="&#x303;" 
d="M-223 1202c-32.667 0 -61.168 6.33301 -85.501 19s-46.833 26.667 -67.5 42l-52 35.5c-16 11 -32 16.5 -48 16.5c-46.667 0 -70 -29.667 -70 -89v-21h-168v25c0 178.667 68 268 204 268c35.333 0 65.833 -7.33301 91.5 -22s49.167 -29.667 70.5 -45
c16 -12 31.333 -22.667 46 -32s29.334 -14 44.001 -14c46.667 0 70 32.333 70 97v20h168v-24c0 -184 -67.667 -276 -203 -276z" />
    <glyph glyph-name="uni0304" unicode="&#x304;" 
d="M-780 1415h730v-200h-730v200z" />
    <glyph glyph-name="uni0308" unicode="&#x308;" 
d="M-674 1429h214v-214h-214v214zM-254 1429h214v-214h-214v214z" />
    <glyph glyph-name="uni030A" unicode="&#x30a;" 
d="M-295 1201c-78.667 0 -139.167 20 -181.5 60s-63.5 97 -63.5 171c0 77.333 21.167 136.833 63.5 178.5s102.833 62.5 181.5 62.5s139.167 -21.333 181.5 -64s63.5 -101.667 63.5 -177c0 -74 -21.333 -131 -64 -171s-103 -60 -181 -60zM-295 1341
c29.333 0 52.167 8.5 68.5 25.5s24.5 40.167 24.5 69.5c0 30.667 -8 54.667 -24 72s-39 26 -69 26s-53 -8.66699 -69 -26s-24 -41.333 -24 -72c0 -29.333 8 -52.5 24 -69.5s39 -25.5 69 -25.5z" />
    <glyph glyph-name="uni030C" unicode="&#x30c;" 
d="M-324 1188l-324 304l124 115l200 -190l200 190l124 -115z" />
    <glyph glyph-name="uni0327" unicode="&#x327;" 
d="M-258 -422c-66.667 0 -121.667 6 -165 18l42 140c32 -9.33301 63.667 -14 95 -14c72.667 0 109 17 109 51c0 16.667 -12.167 29 -36.5 37s-60.833 12 -109.5 12l87 116c78.667 0 137.5 -14.833 176.5 -44.5s58.5 -74.5 58.5 -134.5c0 -60.667 -21.333 -106 -64 -136
s-107 -45 -193 -45zM-339 61h166v-241l-166 2v239z" />
    <glyph glyph-name="uni0335" unicode="&#x335;" 
d="M-720 824h670v-194h-670v194z" />
    <glyph glyph-name="uni03BC" unicode="&#x3bc;" horiz-adv-x="1149" 
d="M160 445h184l20 -725h-204v725zM786 0v1038h203v-1038h-203zM364 1038v-631c0 -72.667 18.5 -128.834 55.5 -168.501s89.167 -59.5 156.5 -59.5c66.667 0 118.334 17.833 155.001 53.5s55 85.834 55 150.501l14 -217c-18.667 -46.667 -51.334 -88.5 -98.001 -125.5
s-107.667 -55.5 -183 -55.5c-114.667 0 -203.167 36.833 -265.5 110.5s-93.5 177.5 -93.5 311.5v631h204z" />
    <glyph glyph-name="endash" unicode="&#x2013;" horiz-adv-x="1142" 
d="M160 618h832v-194h-832v194z" />
    <glyph glyph-name="emdash" unicode="&#x2014;" horiz-adv-x="1753" 
d="M160 618h1443v-194h-1443v194z" />
    <glyph glyph-name="quoteleft" unicode="&#x2018;" horiz-adv-x="364" 
d="M284 1444v-406h-204v204z" />
    <glyph glyph-name="quoteright" unicode="&#x2019;" horiz-adv-x="364" 
d="M80 1048v406h204v-204z" />
    <glyph glyph-name="quotesinglbase" unicode="&#x201a;" horiz-adv-x="464" 
d="M130 -202v406h204v-204z" />
    <glyph glyph-name="quotedblleft" unicode="&#x201c;" horiz-adv-x="652" 
d="M358 1038v204l214 202v-406h-214zM80 1038v204l204 202v-406h-204z" />
    <glyph glyph-name="quotedblright" unicode="&#x201d;" horiz-adv-x="654" 
d="M370 1048v406h204v-204zM80 1048v406h204v-204z" />
    <glyph glyph-name="quotedblbase" unicode="&#x201e;" horiz-adv-x="755" 
d="M421 -202v406h204v-204zM130 -202v406h204v-204z" />
    <glyph glyph-name="dagger" unicode="&#x2020;" horiz-adv-x="754" 
d="M474 1454v-937h-194v937h194zM100 1218h554v-184h-554v184z" />
    <glyph glyph-name="daggerdbl" unicode="&#x2021;" horiz-adv-x="754" 
d="M100 885h554v-181h-554v181zM473 1454v-937h-192v937h192zM100 1268h554v-181h-554v181z" />
    <glyph glyph-name="bullet" unicode="&#x2022;" horiz-adv-x="567" 
d="M110 361v347h347v-347h-347z" />
    <glyph glyph-name="ellipsis" unicode="&#x2026;" horiz-adv-x="1194" 
d="M130 0v204h204v-204h-204zM502 0v204h204v-204h-204zM860 0v204h204v-204h-204z" />
    <glyph glyph-name="perthousand" unicode="&#x2030;" horiz-adv-x="1958" 
d="M213 0l790 1454h179l-790 -1454h-179zM1065 -15c-77.333 0 -137 22.499 -179 67.499s-63 107.833 -63 188.5v125c0 80.667 21 143.5 63 188.5s101.667 67.5 179 67.5s137 -22.667 179 -68s63 -108.666 63 -189.999v-123c0 -80.667 -21.167 -143.5 -63.5 -188.5
s-101.833 -67.5 -178.5 -67.5zM1064 143.999c50.667 0 76 29 76 87v147c0 56 -25.333 84 -76 84c-49.333 0 -74 -28.333 -74 -85v-146c0 -58 24.667 -87 74 -87zM342 830.999c-77.333 0 -137 22.499 -179 67.499s-63 107.833 -63 188.5v125c0 80.667 21 143.5 63 188.5
s101.667 67.5 179 67.5s137 -22.667 179 -68s63 -108.666 63 -189.999v-123c0 -80.667 -21 -143.5 -63 -188.5s-101.667 -67.5 -179 -67.5zM341 989.998c50.667 0 76 29 76 87v147c0 56 -25.333 84 -76 84c-49.333 0 -74 -28.333 -74 -85v-146c0 -58 24.667 -87 74 -87z
M1616 -9.00195c-77.333 0 -137 22.499 -179 67.499s-63 107.833 -63 188.5v125c0 80.667 21 143.5 63 188.5s101.667 67.5 179 67.5s137 -22.667 179 -68s63 -108.666 63 -189.999v-123c0 -81.333 -21 -144.333 -63 -189s-101.667 -67 -179 -67zM1615 149.997
c50.667 0 76 29 76 87v147c0 56 -25.333 84 -76 84c-49.333 0 -74 -28.333 -74 -85v-146c0 -58 24.667 -87 74 -87z" />
    <glyph glyph-name="guilsinglleft" unicode="&#x2039;" horiz-adv-x="774" 
d="M100 520l319 358h245l-319 -358h-245zM419 163l-319 357h245l319 -357h-245z" />
    <glyph glyph-name="guilsinglright" unicode="&#x203a;" horiz-adv-x="774" 
d="M429 520l-319 358h245l319 -358h-245zM110 163l319 357h245l-319 -357h-245z" />
    <glyph glyph-name="uni2070" unicode="&#x2070;" horiz-adv-x="674" 
d="M342 824c-77.333 0 -137 22.499 -179 67.499s-63 107.833 -63 188.5v125c0 80.667 21 143.5 63 188.5s101.667 67.5 179 67.5s137 -22.667 179 -68s63 -108.666 63 -189.999v-123c0 -81.333 -21 -144.333 -63 -189s-101.667 -67 -179 -67zM341 982.999
c50.667 0 76 29 76 87v147c0 56 -25.333 84 -76 84c-49.333 0 -74 -28.333 -74 -85v-146c0 -58 24.667 -87 74 -87z" />
    <glyph glyph-name="uni2074" unicode="&#x2074;" horiz-adv-x="668" 
d="M100 913v134l167 407h165l-160 -407h306v-134h-478zM388 831v329h140v-329h-140z" />
    <glyph glyph-name="Euro" unicode="&#x20ac;" horiz-adv-x="1290" 
d="M110 527v140h690v-140h-690zM110 785v140h690v-140h-690zM707 -15c-94 0 -175.834 22.5059 -245.501 67.5059s-123.834 108.167 -162.501 189.5s-58 176.333 -58 285v399c0 109.333 19.333 204.666 58 285.999s92.834 144.5 162.501 189.5s151.5 67.5 245.5 67.5
c79.333 0 151.833 -16.333 217.5 -49s120.667 -78.334 165 -137.001s74.5 -127.334 90.5 -206.001v0h-216v0c-21.333 59.333 -55.5 107.166 -102.5 143.499s-98.5 54.5 -154.5 54.5c-79.333 0 -142.833 -31.833 -190.5 -95.5s-71.5 -148.167 -71.5 -253.5v-399
c0 -104.667 23.833 -188.834 71.5 -252.501s111.167 -95.5 190.5 -95.5c56 0 107.5 16.333 154.5 49s81.167 75.667 102.5 129v0h216v0c-16 -74.667 -46.333 -139.834 -91 -195.501s-99.667 -99 -165 -130s-137.666 -46.5 -216.999 -46.5z" />
    <glyph glyph-name="trademark" unicode="&#x2122;" horiz-adv-x="1357" 
d="M181 944v509h160v-509h-160zM-10 1410v157h542v-157h-542zM928 1262l169 305h150v-623h-150v374l35 46l-183 -343h-41l-182 343l34 -46v-374h-151v623h150z" />
    <glyph glyph-name="strokeshortcomb" horiz-adv-x="1468" 
d="M1288 0h-1108v1454h1108v-1454zM355 1279v-1104h758v1104h-758z" />
    <glyph glyph-name="dieresiscomb.case" 
d="M-674 1787h214v-214h-214v214zM-254 1787h214v-214h-214v214z" />
    <glyph glyph-name="gravecomb.case" 
d="M-43 1544l-305 226l152 147l286 -245z" />
    <glyph glyph-name="acutecomb.case" 
d="M-325 1544l-133 128l286 245l152 -147z" />
    <glyph glyph-name="circumflexcomb.case" 
d="M-324 1916l324 -244l-129 -120l-195 150l-195 -150l-129 120z" />
    <glyph glyph-name="caroncomb.case" 
d="M-324 1552l-314 244l129 120l185 -150l185 150l129 -120z" />
    <glyph glyph-name="ringcomb.case" 
d="M-295 1542c-78.667 0 -139.167 20 -181.5 60s-63.5 97 -63.5 171c0 76.667 21.167 136 63.5 178s102.833 63 181.5 63s139.167 -21.333 181.5 -64s63.5 -101.667 63.5 -177c0 -74 -21.333 -131 -64 -171s-103 -60 -181 -60zM-295 1682c29.333 0 52.167 8.5 68.5 25.5
s24.5 40.167 24.5 69.5c0 30.667 -8 54.667 -24 72s-39 26 -69 26s-53 -8.5 -69 -25.5s-24 -41.167 -24 -72.5c0 -29.333 8 -52.5 24 -69.5s39 -25.5 69 -25.5z" />
    <glyph glyph-name="tildecomb.case" 
d="M-183 1558c-34.667 0 -65.832 4 -93.499 12s-53.167 17.333 -76.5 28c-31.333 14.667 -59.833 29 -85.5 43s-51.5 21 -77.5 21c-46.667 0 -70 -26.667 -70 -80v-21h-168v25c0 172.667 68 259 204 259c43.333 0 81.166 -6 113.499 -18s61.833 -24.667 88.5 -38l66.5 -33
c21 -10 42.167 -15 63.5 -15c46.667 0 70 29 70 87v20h168v-24c0 -177.333 -67.667 -266 -203 -266z" />
    <glyph glyph-name="macroncomb.case" 
d="M-780 1774h730v-200h-730v200z" />
    <glyph glyph-name="cedillacomb.case" 
d="M-258 -422c-66.667 0 -121.667 6 -165 18l42 140c32 -9.33301 63.667 -14 95 -14c72.667 0 109 17 109 51c0 16.667 -12.167 29 -36.5 37s-60.833 12 -109.5 12l87 116c78.667 0 137.5 -14.833 176.5 -44.5s58.5 -74.5 58.5 -134.5c0 -60.667 -21.333 -106 -64 -136
s-107 -45 -193 -45zM-339 61h166v-241l-166 2v239z" />
    <glyph glyph-name="strokeshortcomb.case" 
d="M-720 814h670v-174h-670v174z" />
    <glyph glyph-name="Oslash.var01" horiz-adv-x="1322" 
d="M509 133l-116 -264h-205l158 359zM837 1346l110 251h204l-158 -360zM661 -15c-102.667 0 -192.334 22.167 -269.001 66.5s-136.167 106.833 -178.5 187.5s-63.5 174.667 -63.5 282v412c0 107.333 21.167 201.333 63.5 282s101.833 143.167 178.5 187.5
s166.334 66.5 269.001 66.5s192.334 -22.167 269.001 -66.5s136.167 -106.833 178.5 -187.5s63.5 -174.667 63.5 -282v-412c0 -107.333 -21.167 -201.333 -63.5 -282s-101.833 -143.167 -178.5 -187.5s-166.334 -66.5 -269.001 -66.5zM661 186c91.333 0 164.5 30 219.5 90
s82.5 139.333 82.5 238v426c0 98.667 -27.5 178 -82.5 238s-128.167 90 -219.5 90s-164.5 -30 -219.5 -90s-82.5 -139.333 -82.5 -238v-426c0 -98.667 27.5 -178 82.5 -238s128.167 -90 219.5 -90z" />
    <glyph glyph-name="oslash.var01" horiz-adv-x="1116" 
d="M462 106l-112 -248h-159l135 299zM683 949l104 231h159l-133 -294zM558 -15c-136 0 -241.333 39.5 -316 118.5s-112 190.167 -112 333.5v169c0 142 37.333 252 112 330s180 117 316 117s241.333 -39 316 -117s112 -188 112 -330v-172
c0 -142.667 -37.333 -253.167 -112 -331.5s-180 -117.5 -316 -117.5zM557 179c71.333 0 126.666 22.167 165.999 66.5s59 107.166 59 188.499v172c0 80.667 -19.667 143 -59 187s-94.666 66 -165.999 66s-126.333 -22 -165 -66s-58 -106.333 -58 -187v-172
c0 -81.333 19.333 -144.166 58 -188.499s93.667 -66.5 165 -66.5z" />
    </font>
</defs>
</svg>
