<svg xmlns="http://www.w3.org/2000/svg" viewBox="0 0 225 55.85"><defs><style>.cls-1{fill:#45bdaa;}.cls-2{fill:#5089c8;}.cls-3{fill:#21396f;}.cls-4{fill:#1acfb3;}.cls-5{fill:#2794ff;}.cls-6{fill:#39a6ff;}.cls-7{fill:#1adcb3;}.cls-8{fill:#1aeeb3;}</style></defs><title>Asset 7</title><g id="Layer_2" data-name="Layer 2"><g id="Layer_1-2" data-name="Layer 1"><path class="cls-1" d="M34.62,21.36S40.51,14,36.89,5.73c0,0,9,4.16,12,10.32s3.59,7.82,2.89,13-4.75,18-12,19.36L27.66,31.73l8-7.16Z"/><path class="cls-2" d="M31,15.4l.1.58-.15.39-4.7,1s-8.48,2.21-9,9.18,7.12,11.92,7.79,11.93l2.23,3.06L20.54,40s-6-6.52-6-9.87,1.39-11.33,4.29-12.76S28.07,13.59,31,15.4Z"/><path class="cls-2" d="M28.38,4.47l1.71,1.66s-6.29-2-10.34,2.19S5.75,16,6.13,26.65c0,0,1.67,13.72,7.51,17.31s13.44,5,19.07,5l1.77,2.43-16-.67L8.71,43.11,4.54,34.42l-.65-9.81L5.07,19.9l4.56-7.34,4-3.75s6.59-3.45,6.81-3.42,4.83-.92,4.83-.92Z"/><path class="cls-3" d="M71.75,28.3a4.29,4.29,0,0,1-4.36-4.55,4.3,4.3,0,0,1,4.36-4.56,4.12,4.12,0,0,1,3.7,2.06l3.51-2a8.43,8.43,0,0,0-7.21-3.89A8.42,8.42,0,1,0,79,28.24l-3.51-2A4.13,4.13,0,0,1,71.75,28.3Z"/><path class="cls-3" d="M88.51,15.33A8.42,8.42,0,1,0,97,23.75,8.31,8.31,0,0,0,88.51,15.33Zm0,13a4.29,4.29,0,0,1-4.33-4.55,4.35,4.35,0,1,1,8.7,0A4.3,4.3,0,0,1,88.51,28.3Z"/><path class="cls-3" d="M106.45,22.17c-1.27-.29-3.42-.38-3.42-1.81,0-1.2,1.2-1.64,2.38-1.64a2.31,2.31,0,0,1,2.49,1.64l3.64-.88c-.66-2.78-3.38-4.15-6.13-4.15-3.77,0-6.3,2-6.3,5,0,2.75,1.58,4.24,4.68,4.87,1.9.42,4.21.35,4.21,1.87,0,1.08-1,1.68-2.63,1.68-2.34,0-3-1.08-3.1-1.74l-3.85,1.2c.72,2.69,3.82,3.92,6.89,3.92,4.49,0,6.8-2.18,6.8-5.35C112.11,24.1,110.37,23,106.45,22.17Z"/><path class="cls-3" d="M122.93,19.38V15.71h-3.42V12.36h-4v3.35h-2.27v3.67h2.27V25.9c0,3.32,1.65,6.07,5.76,6.07a5.09,5.09,0,0,0,1.68-.22V28.08c-.29,0-.67.07-1,.07-2.21,0-2.47-1.08-2.47-2.92V19.38Z"/><path class="cls-3" d="M132.58,15.71v16h4v-16Zm2-6.6a2.13,2.13,0,0,0,0,4.26,2.13,2.13,0,1,0,0-4.26Z"/><path class="cls-3" d="M148.83,19.38V15.71h-3.41V12.36h-4v3.35h-2.28v3.67h2.28V25.9c0,3.32,1.65,6.07,5.76,6.07a5.06,5.06,0,0,0,1.67-.22V28.08c-.28,0-.66.07-.94.07-2.22,0-2.47-1.08-2.47-2.92V19.38Z"/><path class="cls-3" d="M162.5,18.34V15.71h-4v16h4V25.14c0-3,.6-6,5.34-5.44V15.33A6.37,6.37,0,0,0,162.5,18.34Z"/><path class="cls-3" d="M170.69,15.71v16h4v-16Zm2-6.6a2.13,2.13,0,0,0,0,4.26,2.13,2.13,0,1,0,0-4.26Z"/><path class="cls-3" d="M190.39,15.71V17.8a5.81,5.81,0,0,0-5.06-2.47,7.6,7.6,0,0,0-7.78,7.85A7.59,7.59,0,0,0,185.33,31a5.79,5.79,0,0,0,5.06-2.47v1.18c0,3.13-1.7,4.83-4.8,4.83h-.36v3.58h.48c5.7,0,8.7-3.64,8.7-8.13V15.71Zm-4.46,11.74a4.1,4.1,0,0,1-4.26-4.27,4.27,4.27,0,1,1,8.54,0A4.09,4.09,0,0,1,185.93,27.45Z"/><path class="cls-3" d="M206.88,15.33a5.37,5.37,0,0,0-4.69,2.34V9.61h-4V31.75h4V22.83a3.32,3.32,0,0,1,3.42-3.61c2.27,0,3.13,1.55,3.13,3.61v8.92h4V22C212.76,18.62,210.92,15.33,206.88,15.33Z"/><path class="cls-3" d="M225,19.38V15.71h-3.42V12.36h-4v3.35h-2.28v3.67h2.28V25.9c0,3.32,1.64,6.07,5.75,6.07a5.09,5.09,0,0,0,1.68-.22V28.08c-.29,0-.67.07-.95.07-2.21,0-2.47-1.08-2.47-2.92V19.38Z"/><path class="cls-3" d="M68.78,44.42a4.34,4.34,0,0,1-1.79.33,3.17,3.17,0,0,1-3.35-3.44,3.37,3.37,0,0,1,3.54-3.56,3.67,3.67,0,0,1,1.61.3l-.21.71a3.34,3.34,0,0,0-1.37-.28,2.52,2.52,0,0,0-2.64,2.8A2.46,2.46,0,0,0,67.17,44a3.51,3.51,0,0,0,1.43-.27Z"/><path class="cls-3" d="M74,42.16a2.39,2.39,0,0,1-2.43,2.59,2.32,2.32,0,0,1-2.34-2.51,2.39,2.39,0,0,1,2.42-2.58A2.31,2.31,0,0,1,74,42.16Zm-3.86.06c0,1.07.61,1.87,1.47,1.87S73,43.3,73,42.19c0-.82-.41-1.86-1.46-1.86S70.09,41.29,70.09,42.22Z"/><path class="cls-3" d="M74.74,43.74a2.38,2.38,0,0,0,1.17.35c.65,0,1-.32,1-.73s-.26-.65-.91-.89c-.87-.32-1.29-.8-1.29-1.38a1.51,1.51,0,0,1,1.69-1.43,2.42,2.42,0,0,1,1.19.3l-.22.65a1.92,1.92,0,0,0-1-.29c-.52,0-.81.3-.81.67s.29.58.93.83c.84.31,1.27.73,1.27,1.46s-.67,1.47-1.82,1.47a2.76,2.76,0,0,1-1.36-.34Z"/><path class="cls-3" d="M79.71,38.37v1.4H81v.67H79.71v2.63c0,.6.18,1,.67,1A1.66,1.66,0,0,0,80.9,44l0,.68a2.52,2.52,0,0,1-.79.12,1.25,1.25,0,0,1-1-.38,1.89,1.89,0,0,1-.34-1.27V40.44h-.76v-.67h.76V38.6Z"/><path class="cls-3" d="M82.77,38.4a.55.55,0,1,1-.55-.55A.52.52,0,0,1,82.77,38.4Zm-1,6.24V39.77h.88v4.87Z"/><path class="cls-3" d="M83.94,41.09c0-.51,0-.91,0-1.32h.78l0,.8h0a1.82,1.82,0,0,1,1.61-.91c.67,0,1.72.4,1.72,2.08v2.9H87.2V41.83c0-.78-.3-1.44-1.13-1.44a1.3,1.3,0,0,0-1.25,1.32v2.93h-.88Z"/><path class="cls-3" d="M93.53,39.77c0,.35,0,.74,0,1.34v2.82a2.86,2.86,0,0,1-.69,2.23,2.62,2.62,0,0,1-1.77.59,3.11,3.11,0,0,1-1.63-.41l.22-.68a2.7,2.7,0,0,0,1.43.39c.91,0,1.57-.47,1.57-1.7V43.8h0a1.71,1.71,0,0,1-1.54.83A2.19,2.19,0,0,1,89,42.24a2.33,2.33,0,0,1,2.2-2.58,1.64,1.64,0,0,1,1.52.84h0l0-.73Zm-.93,1.92a1.25,1.25,0,0,0,0-.4,1.28,1.28,0,0,0-1.24-.94c-.84,0-1.45.71-1.45,1.85,0,.95.49,1.75,1.44,1.75A1.3,1.3,0,0,0,92.53,43a1.53,1.53,0,0,0,.07-.47Z"/><path class="cls-3" d="M99.38,44.64,99.31,44h0a1.81,1.81,0,0,1-1.49.72,1.39,1.39,0,0,1-1.49-1.39c0-1.18,1-1.83,2.93-1.82v-.1a1,1,0,0,0-1.11-1.12,2.36,2.36,0,0,0-1.27.36l-.2-.59a3.05,3.05,0,0,1,1.61-.43c1.49,0,1.85,1,1.85,2v1.82a8.22,8.22,0,0,0,.07,1.16Zm-.13-2.48c-1,0-2.06.15-2.06,1.09a.78.78,0,0,0,.83.85,1.22,1.22,0,0,0,1.18-.82.92.92,0,0,0,0-.28Z"/><path class="cls-3" d="M105.41,43.31c0,.51,0,.95,0,1.33h-.79l0-.79h0a1.81,1.81,0,0,1-1.61.9c-.76,0-1.68-.42-1.68-2.13V39.77h.89v2.69c0,.93.28,1.56,1.08,1.56a1.29,1.29,0,0,0,1.18-.81,1.57,1.57,0,0,0,.08-.45v-3h.88Z"/><path class="cls-3" d="M107.74,38.37v1.4H109v.67h-1.28v2.63c0,.6.18,1,.67,1a1.66,1.66,0,0,0,.52-.07l0,.68a2.47,2.47,0,0,1-.79.12,1.25,1.25,0,0,1-1-.38,1.89,1.89,0,0,1-.34-1.27V40.44h-.76v-.67h.76V38.6Z"/><path class="cls-3" d="M114.16,42.16a2.38,2.38,0,0,1-2.42,2.59,2.32,2.32,0,0,1-2.34-2.51,2.38,2.38,0,0,1,2.42-2.58A2.3,2.3,0,0,1,114.16,42.16Zm-3.86.06c0,1.07.61,1.87,1.48,1.87s1.48-.79,1.48-1.9c0-.82-.42-1.86-1.47-1.86S110.3,41.29,110.3,42.22Z"/><path class="cls-3" d="M115.08,41.09c0-.51,0-.91,0-1.32h.77l0,.79h0a1.67,1.67,0,0,1,1.54-.9,1.43,1.43,0,0,1,1.37,1h0a2.08,2.08,0,0,1,.55-.64,1.65,1.65,0,0,1,1.07-.34c.65,0,1.61.42,1.61,2.11v2.87h-.87V41.89c0-.94-.34-1.5-1-1.5a1.17,1.17,0,0,0-1.06.79,1.57,1.57,0,0,0-.07.45v3h-.86V41.72c0-.78-.35-1.33-1-1.33a1.23,1.23,0,0,0-1.1.88,1.56,1.56,0,0,0-.07.44v2.93h-.86Z"/><path class="cls-3" d="M126,44.64,125.9,44h0a1.81,1.81,0,0,1-1.49.72,1.39,1.39,0,0,1-1.49-1.39c0-1.18,1-1.83,2.93-1.82v-.1a1,1,0,0,0-1.11-1.12,2.36,2.36,0,0,0-1.27.36l-.2-.59a3.08,3.08,0,0,1,1.61-.43c1.49,0,1.85,1,1.85,2v1.82a8.22,8.22,0,0,0,.07,1.16Zm-.13-2.48c-1,0-2.06.15-2.06,1.09a.78.78,0,0,0,.83.85,1.24,1.24,0,0,0,1.19-.82.9.9,0,0,0,0-.28Z"/><path class="cls-3" d="M129,38.37v1.4h1.27v.67H129v2.63c0,.6.17,1,.67,1a1.55,1.55,0,0,0,.51-.07l0,.68a2.42,2.42,0,0,1-.79.12,1.22,1.22,0,0,1-.95-.38,1.84,1.84,0,0,1-.35-1.27V40.44h-.75v-.67h.75V38.6Z"/><path class="cls-3" d="M132,38.4a.54.54,0,0,1-.57.55.53.53,0,0,1-.53-.55.54.54,0,0,1,.55-.55A.53.53,0,0,1,132,38.4Zm-1,6.24V39.77h.88v4.87Z"/><path class="cls-3" d="M137.58,42.16a2.38,2.38,0,0,1-2.42,2.59,2.32,2.32,0,0,1-2.34-2.51,2.38,2.38,0,0,1,2.42-2.58A2.3,2.3,0,0,1,137.58,42.16Zm-3.86.06c0,1.07.61,1.87,1.48,1.87s1.48-.79,1.48-1.9c0-.82-.42-1.86-1.47-1.86S133.72,41.29,133.72,42.22Z"/><path class="cls-3" d="M138.5,41.09c0-.51,0-.91,0-1.32h.78l0,.8h0a1.82,1.82,0,0,1,1.61-.91c.67,0,1.72.4,1.72,2.08v2.9h-.88V41.83c0-.78-.3-1.44-1.13-1.44a1.3,1.3,0,0,0-1.25,1.32v2.93h-.88Z"/><path class="cls-3" d="M150.1,44.64c-.2-.19-.37-.38-.64-.66a2.78,2.78,0,0,1-2,.77,1.92,1.92,0,0,1-2.08-1.9,2.22,2.22,0,0,1,1.32-2v0a2.34,2.34,0,0,1-.56-1.42,1.65,1.65,0,0,1,1.72-1.67,1.41,1.41,0,0,1,1.5,1.44c0,.71-.41,1.27-1.49,1.81v0l1.65,1.89a4.89,4.89,0,0,0,.66-2h.8a5.07,5.07,0,0,1-1,2.5l1.13,1.2ZM149,43.47c-.41-.44-1.16-1.27-1.91-2.13a1.64,1.64,0,0,0-.88,1.37,1.34,1.34,0,0,0,1.39,1.38A1.88,1.88,0,0,0,149,43.47ZM147,39.34a1.93,1.93,0,0,0,.52,1.22c.69-.4,1.13-.76,1.13-1.33a.8.8,0,0,0-.79-.88A.89.89,0,0,0,147,39.34Z"/><path class="cls-3" d="M157.11,44.47a3.4,3.4,0,0,1-1.39.28,2.32,2.32,0,0,1-2.43-2.49,2.48,2.48,0,0,1,2.61-2.6,2.9,2.9,0,0,1,1.23.26l-.19.68a2.25,2.25,0,0,0-1-.23,1.84,1.84,0,0,0,0,3.67A2.5,2.5,0,0,0,157,43.8Z"/><path class="cls-3" d="M162.3,42.16a2.38,2.38,0,0,1-2.42,2.59,2.32,2.32,0,0,1-2.34-2.51A2.38,2.38,0,0,1,160,39.66,2.31,2.31,0,0,1,162.3,42.16Zm-3.86.06c0,1.07.61,1.87,1.47,1.87s1.49-.79,1.49-1.9c0-.82-.42-1.86-1.47-1.86S158.44,41.29,158.44,42.22Z"/><path class="cls-3" d="M163.22,41.09c0-.51,0-.91,0-1.32H164l0,.8h0a1.82,1.82,0,0,1,1.61-.91c.67,0,1.72.4,1.72,2.08v2.9h-.88V41.83c0-.78-.3-1.44-1.13-1.44a1.3,1.3,0,0,0-1.25,1.32v2.93h-.88Z"/><path class="cls-3" d="M169.63,38.37v1.4h1.27v.67h-1.27v2.63c0,.6.17,1,.67,1a1.59,1.59,0,0,0,.51-.07l0,.68a2.47,2.47,0,0,1-.79.12,1.25,1.25,0,0,1-1-.38,1.89,1.89,0,0,1-.34-1.27V40.44H168v-.67h.75V38.6Z"/><path class="cls-3" d="M171.69,41.29c0-.58,0-1.07,0-1.52h.78l0,1h0a1.5,1.5,0,0,1,1.36-1.07,1,1,0,0,1,.25,0v.83a1.32,1.32,0,0,0-.3,0,1.25,1.25,0,0,0-1.19,1.14,2.59,2.59,0,0,0,0,.41v2.6h-.88Z"/><path class="cls-3" d="M179.09,42.16a2.38,2.38,0,0,1-2.42,2.59,2.32,2.32,0,0,1-2.34-2.51,2.38,2.38,0,0,1,2.42-2.58A2.3,2.3,0,0,1,179.09,42.16Zm-3.86.06c0,1.07.61,1.87,1.48,1.87s1.48-.79,1.48-1.9c0-.82-.41-1.86-1.47-1.86S175.23,41.29,175.23,42.22Z"/><path class="cls-3" d="M180,37.49h.88v7.15H180Z"/><path class="cls-4" d="M53.24,28.77c0,.55-.07,1.09-.12,1.63v0a25.39,25.39,0,0,1-2.22,8l0,0a25.33,25.33,0,0,1-4.1,6.19l0,0a25.62,25.62,0,0,1-6.4,5.13l-.06-.08-.09-.13L38.8,47.67A22.68,22.68,0,0,0,36.87,6.91a15.73,15.73,0,0,0-1.15-3.06.91.91,0,0,0-.07-.14,24.14,24.14,0,0,1,2.61,1h0a25.07,25.07,0,0,1,6.93,4.6h0c.45.43.89.86,1.31,1.32a25.29,25.29,0,0,1,3.33,4.5v0A24.79,24.79,0,0,1,52.79,23v0A25.93,25.93,0,0,1,53.24,28.77Z"/><path class="cls-5" d="M33.25,52.49l.13,3-8.31.37-.13-3h0a25.22,25.22,0,0,1-7.17-2h0l-1.65,2.5L9.14,48.77l1.66-2.51h0l0,0a25.48,25.48,0,0,1-4.62-5.81l0,0-2.8,1.05L.41,33.67l2.8-1h0v0a25.26,25.26,0,0,1-.44-5.8c0-.54,0-1.09.11-1.62v0L0,24.34l2.22-8,2.87.8h0a0,0,0,0,0,0,0,25,25,0,0,1,4.14-6.21h0L7.37,8.54l6.51-5.17L15.74,5.7a24.67,24.67,0,0,1,7-2.62l-.14-3L24.75,0a19.14,19.14,0,0,1,3.39,2.52,0,0,0,0,1,0,0l.15.15a13.24,13.24,0,0,1,2.06,2.53A21.14,21.14,0,0,0,28,5.09,22.67,22.67,0,1,0,33.66,49.7L35.31,52c-.67.21-1.35.38-2,.53Z"/><path class="cls-5" d="M31.91,13.29c-.05.27-.1.53-.16.78a12.89,12.89,0,0,1-.56,1.86,12.26,12.26,0,1,0-4.65,24l2.09,2.86H28a15,15,0,0,1,0-30A14.87,14.87,0,0,1,31.91,13.29Z"/><path class="cls-6" d="M33.66,49.7A22.67,22.67,0,1,1,28,5.09a21.14,21.14,0,0,1,2.39.13A11.41,11.41,0,0,1,31.73,8.4a20.62,20.62,0,0,0-3-.33l-.78,0a19.74,19.74,0,0,0-.75,39.46,19.33,19.33,0,0,0,4.57-.35Z"/><path class="cls-7" d="M50.63,27.75A22.72,22.72,0,0,1,38.8,47.67l-1.71-2.35-2.83-3.88-1.69-2.33a12.25,12.25,0,0,0,4.06-20c-.22-.22-.45-.43-.68-.63a21.54,21.54,0,0,0,.92-2.78c0-.14.07-.28.1-.42a18,18,0,0,0,.45-4.82,16.75,16.75,0,0,0-.55-3.53A22.69,22.69,0,0,1,50.63,27.75Z"/><path class="cls-6" d="M31.19,15.93a14.47,14.47,0,0,1-1.25,2.56,9.5,9.5,0,0,0-11.32,7.8,9.29,9.29,0,0,0-.12,1.5A9.54,9.54,0,0,0,24,36.38l2.58,3.55a12.26,12.26,0,1,1,4.65-24Z"/><path class="cls-8" d="M40.22,27.75a12.25,12.25,0,0,1-7.65,11.36l-1.66-2.28-5.84-8a13.56,13.56,0,0,0,6.75-4.05A19.62,19.62,0,0,0,34.66,21,21.28,21.28,0,0,0,36,18.46c.23.2.46.41.68.63A12.21,12.21,0,0,1,40.22,27.75Z"/></g></g></svg>