<svg xmlns="http://www.w3.org/2000/svg" width="359.795" height="83.043" viewBox="0 0 359.795 83.043">
  <g id="cir-logo" transform="translate(-305.125 -733.129)">
    <path id="Path_1" data-name="Path 1" d="M341.162,761.536s8.769-11.019,3.377-23.244c0,0,13.33,6.179,17.872,15.341s5.338,11.633,4.3,19.36-7.064,26.755-17.824,28.781l-18.075-24.822,11.82-10.652Z" transform="translate(15.639 3.143)" fill="#1acfb3"/>
    <path id="Path_2" data-name="Path 2" d="M343.192,747.6l.14.861-.217.586-6.984,1.5S323.515,753.84,322.8,764.2s10.589,17.726,11.588,17.734l3.322,4.561-10.077-2.36s-8.975-9.683-8.975-14.677,2.07-16.836,6.374-18.961S338.833,744.914,343.192,747.6Z" transform="translate(8.237 8.21)" fill="#2794ff"/>
    <path id="Path_3" data-name="Path 3" d="M345.26,737.122l2.55,2.469s-9.357-2.968-15.377,3.267S311.606,754.251,312.18,770.1c0,0,2.487,20.4,11.171,25.734s19.97,7.471,28.348,7.44l2.629,3.609L330.6,805.9l-14.58-11.323-6.213-12.922-.957-14.579,1.749-7.011,6.776-10.916,5.977-5.576s9.8-5.129,10.118-5.074,7.177-1.38,7.177-1.38Z" transform="translate(2.268 2.43)" fill="#2794ff"/>
    <g id="Group_2" data-name="Group 2" transform="translate(305.125 733.13)">
      <path id="Path_4" data-name="Path 4" d="M364.222,773.824c-.032.816-.092,1.623-.174,2.424l-.006.044a37.181,37.181,0,0,1-3.3,11.915l-.016.037a37.638,37.638,0,0,1-6.109,9.207l-.026.027a37.832,37.832,0,0,1-9.519,7.621l-.085-.117-.14-.19-2.091-2.873a33.716,33.716,0,0,0-2.862-60.6,24.176,24.176,0,0,0-1.712-4.548c-.034-.068-.068-.137-.1-.2a35.807,35.807,0,0,1,3.874,1.469l.037.018a37.2,37.2,0,0,1,10.3,6.832l.029.026q1,.939,1.947,1.958a37.8,37.8,0,0,1,4.949,6.689l.019.034a36.95,36.95,0,0,1,4.332,11.582l.008.037a37.834,37.834,0,0,1,.645,8.608Z" transform="translate(-285.064 -731.041)" fill="#1acfb3"/>
      <g id="Group_1" data-name="Group 1">
        <path id="Path_5" data-name="Path 5" d="M354.563,811.183l.2,4.445-12.357.544-.19-4.445a.08.08,0,0,1-.042-.008,37.426,37.426,0,0,1-10.652-2.947c-.018-.008-.026-.016-.034-.016h-.008l-2.453,3.711-10.307-6.824,2.461-3.721v-.008c-.008-.008-.024-.016-.032-.024a38.123,38.123,0,0,1-6.882-8.636.04.04,0,0,0-.018-.034l-4.173,1.564L305.735,783.2l4.165-1.556v-.008c0-.008-.008-.024-.008-.032a37.837,37.837,0,0,1-.65-8.62q.036-1.223.174-2.421v-.04l-4.291-1.194,3.3-11.913L312.7,758.6v-.008c.01-.008.01-.018.018-.034a37.064,37.064,0,0,1,6.141-9.236v-.01l-2.774-3.481,9.682-7.7,2.766,3.475a36.836,36.836,0,0,1,10.431-3.9l-.2-4.437,3.169-.14a28.1,28.1,0,0,1,5.031,3.753c.008,0,.016.008.024.018l.222.222a20.323,20.323,0,0,1,3.055,3.761,34.174,34.174,0,0,0-3.557-.188,33.7,33.7,0,1,0,8.464,66.33l2.453,3.367c-.989.3-2,.568-3.021.782a.083.083,0,0,1-.041.009Z" transform="translate(-305.125 -733.13)" fill="#2794ff"/>
      </g>
      <path id="Path_6" data-name="Path 6" d="M345.261,745.7c-.068.407-.145.79-.227,1.153a21.131,21.131,0,0,1-.837,2.769,18.224,18.224,0,1,0-6.915,35.683l3.1,4.258c-.306.014-.616.019-.928.019A22.325,22.325,0,1,1,345.26,745.7Z" transform="translate(-297.818 -725.942)" fill="#2794ff"/>
      <path id="Path_7" data-name="Path 7" d="M352.188,804.163a33.7,33.7,0,1,1-8.464-66.33,34.177,34.177,0,0,1,3.557.188,16.859,16.859,0,0,1,2.034,4.743,29.723,29.723,0,0,0-4.4-.5c-.386-.016-.774-.026-1.152-.026a29.35,29.35,0,1,0,5.671,58.156Z" transform="translate(-302.14 -730.267)" fill="#39a6ff"/>
      <path id="Path_8" data-name="Path 8" d="M362.082,770.51a33.736,33.736,0,0,1-17.592,29.609l-2.54-3.493-4.207-5.774L335.23,787.4a18.223,18.223,0,0,0,6.038-29.774c-.328-.327-.666-.644-1.018-.941a29.246,29.246,0,0,0,1.372-4.125c.051-.208.1-.417.151-.628a26.567,26.567,0,0,0,.66-7.161,24.645,24.645,0,0,0-.8-5.257,33.727,33.727,0,0,1,20.454,31Z" transform="translate(-286.798 -729.243)" fill="#1adcb3"/>
      <path id="Path_9" data-name="Path 9" d="M342.664,748.094a22.68,22.68,0,0,1-1.855,3.806,14.114,14.114,0,0,0-17.014,13.827,13.96,13.96,0,0,0,.113,1.789,14.149,14.149,0,0,0,8.009,10.993l3.834,5.267a18.223,18.223,0,1,1,6.915-35.683Z" transform="translate(-296.284 -724.409)" fill="#39a6ff"/>
      <path id="Path_10" data-name="Path 10" d="M350.825,764.012A18.24,18.24,0,0,1,339.449,780.9l-2.47-3.391L328.3,765.594a20.193,20.193,0,0,0,10.036-6.017,29.625,29.625,0,0,0,4.225-5.57,30.546,30.546,0,0,0,1.91-3.819c.352.3.69.615,1.018.941a18.153,18.153,0,0,1,5.336,12.883Z" transform="translate(-291.017 -722.745)" fill="#1aeeb3"/>
    </g>
    <g id="Group_5" data-name="Group 5" transform="translate(399.21 751.129)">
      <g id="Group_4" data-name="Group 4">
        <path id="Path_36" data-name="Path 36" d="M377.531,767.207c-4.416,0-7.167-3.378-7.167-7.484s2.751-7.482,7.167-7.482a6.769,6.769,0,0,1,6.08,3.378l5.769-3.328a13.844,13.844,0,1,0,0,14.808l-5.769-3.272a6.782,6.782,0,0,1-6.08,3.38Z" transform="translate(-363.607 -735.664)" fill="#003472"/>
        <path id="Path_37" data-name="Path 37" d="M394.632,745.9a13.822,13.822,0,1,0,13.93,13.824,13.638,13.638,0,0,0-13.93-13.824Zm0,21.308c-4.36,0-7.117-3.378-7.117-7.484s2.757-7.482,7.117-7.482c4.423,0,7.174,3.378,7.174,7.482s-2.751,7.483-7.174,7.483Z" transform="translate(-353.166 -735.664)" fill="#003472"/>
        <path id="Path_38" data-name="Path 38" d="M412.693,757.122c-2.08-.467-5.613-.621-5.613-2.962,0-1.975,1.974-2.7,3.9-2.7,2.49,0,3.794,1.354,4.1,2.7l5.975-1.454c-1.092-4.571-5.558-6.807-10.079-6.807-6.186,0-10.341,3.274-10.341,8.261,0,4.521,2.6,6.968,7.688,8,3.118.677,6.913.573,6.913,3.063,0,1.77-1.559,2.758-4.316,2.758-3.843,0-4.881-1.765-5.092-2.857L399.5,767.1c1.192,4.416,6.286,6.441,11.327,6.441,7.378,0,11.173-3.584,11.173-8.782C422,760.294,419.139,758.525,412.693,757.122Z" transform="translate(-341.758 -735.664)" fill="#003472"/>
        <path id="Path_39" data-name="Path 39" d="M430.567,754.4v-6.031h-5.615v-5.508h-6.6v5.508h-3.739V754.4h3.739v10.707c0,5.452,2.7,9.974,9.458,9.974a8.618,8.618,0,0,0,2.757-.362v-6.03c-.471.05-1.092.106-1.559.106-3.639,0-4.056-1.77-4.056-4.783V754.4Z" transform="translate(-332.556 -737.513)" fill="#003472"/>
        <path id="Path_40" data-name="Path 40" d="M434.461,750.393v26.35h6.6v-26.35Zm3.274-10.856a3.486,3.486,0,1,0,2.493,1,3.506,3.506,0,0,0-2.493-1Z" transform="translate(-320.601 -739.537)" fill="#003472"/>
        <path id="Path_41" data-name="Path 41" d="M457.021,754.4v-6.031h-5.613v-5.508h-6.6v5.508h-3.745V754.4h3.745v10.707c0,5.452,2.7,9.974,9.453,9.974a8.6,8.6,0,0,0,2.756-.362v-6.03c-.465.05-1.092.106-1.557.106-3.639,0-4.056-1.77-4.056-4.783V754.4Z" transform="translate(-316.451 -737.513)" fill="#003472"/>
        <path id="Path_42" data-name="Path 42" d="M467.437,750.836V746.52h-6.6v26.35h6.6V762.009c0-4.888.988-9.875,8.782-8.937V745.9a10.467,10.467,0,0,0-8.782,4.936Z" transform="translate(-304.416 -735.664)" fill="#003472"/>
        <path id="Path_43" data-name="Path 43" d="M473.383,750.393v26.35h6.6v-26.35Zm3.272-10.856a3.48,3.48,0,1,0,2.5,1,3.506,3.506,0,0,0-2.5-1Z" transform="translate(-296.903 -739.537)" fill="#003472"/>
        <path id="Path_44" data-name="Path 44" d="M501.411,746.52v3.43a9.568,9.568,0,0,0-8.311-4.05c-7.949,0-12.78,6.081-12.78,12.888s4.831,12.886,12.78,12.886a9.559,9.559,0,0,0,8.316-4.056v1.924c0,5.143-2.806,7.951-7.9,7.951-.2,0-.394-.006-.587-.016v5.874c.265.011.532.018.8.018,9.353,0,14.291-5.981,14.291-13.359V746.52Zm-7.328,19.28a7.017,7.017,0,1,1,7.018-7.017,6.736,6.736,0,0,1-7.018,7.017Z" transform="translate(-292.558 -735.664)" fill="#003472"/>
        <path id="Path_45" data-name="Path 45" d="M515.648,749.459a8.78,8.78,0,0,0-7.695,3.845V740.051h-6.546V776.43h6.546V761.774c0-3.012,1.715-5.923,5.615-5.923,3.739,0,5.142,2.545,5.142,5.923V776.43h6.6V760.421C525.312,754.863,522.3,749.459,515.648,749.459Z" transform="translate(-279.717 -739.224)" fill="#003472"/>
        <path id="Path_46" data-name="Path 46" d="M534.806,754.4v-6.031h-5.615v-5.508h-6.6v5.508h-3.739V754.4h3.739v10.707c0,5.452,2.7,9.974,9.458,9.974a8.612,8.612,0,0,0,2.758-.362v-6.03c-.471.05-1.092.106-1.564.106-3.634,0-4.051-1.77-4.051-4.783V754.4Z" transform="translate(-269.097 -737.513)" fill="#003472"/>
      </g>
    </g>
  </g>
</svg>
