<svg version="1.1" id="Ebene_1" xmlns="http://www.w3.org/2000/svg" x="0" y="0" viewBox="0 0 391.1 63.7" style="enable-background:new 0 0 391.1 63.7" xml:space="preserve"><style>.st0{fill:#004388}</style><path class="st0" d="M343 5.3c3.3 0 5.6.8 5.6 4.1 0 3.6-2.7 4.5-5.2 4.5h-3.1V5.3h2.7zm.8-4.8h-7.9c-1.3 0-1.8.9-1.8 2.1v27.3c0 .9 1.2 1.1 3.1 1.1 1.9 0 3.1-.1 3.1-1.1V18.4h1.9c3.2 0 4.2 2.6 5.2 4.8l2.8 6.7c.4 1 1.6 1.1 3.2 1.1 2.4 0 3.4-.1 3.4-.9 0-.3-.2-.9-.7-2.2l-2.4-5.7c-1.3-2.9-2-4.1-4.3-5.4 4.5-1.5 5.9-4.4 5.9-7.8-.2-5.1-3-8.5-11.5-8.5zm-86.9 29.4-.1-19.2-.1-3.4 1.3 2.9 1.4 2.6 7.6 14.3c.9 1.8 1.9 3.7 4.5 3.7h2.6c1.1 0 2.4-.6 2.4-2.3v-27c0-.9-1.2-1-2.8-1-1.6 0-2.8.1-2.8 1 0 15.2 0 16.5.1 17.6.1 3.2-.1.4.1 3.3h-.1l-.9-1.9-8.9-17C260 1.2 259.3.4 256.9.4h-3.3c-1.5 0-2.3 1-2.3 2.3v27.1c0 .9 1.2 1.1 2.8 1.1 1.5.1 2.8-.1 2.8-1zM190.7 1.5c0-.9-1.2-1-3.1-1-1.9 0-3.1.1-3.1 1v17.6c0 3.6-1.4 7.2-6.2 7.2-4.8 0-6.3-3.6-6.3-7.2V1.5c0-.9-1.2-1-3.1-1-1.9 0-3.1.1-3.1 1v18.2c0 8.7 5.7 11.7 12.4 11.7 6.8 0 12.4-2.9 12.4-11.7l.1-18.2zm136.7 24.6h-10.7v-8.6h8.9c1.2 0 1.3-.7 1.3-2.4s-.1-2.4-1.3-2.4h-8.9V5.4h10.6c1.2 0 1.3-.7 1.3-2.4s-.1-2.4-1.3-2.4h-15c-1.3 0-1.9.9-1.9 2.1V29c0 1.3.6 1.9 1.9 1.9h15.1c1.2 0 1.3-.7 1.3-2.4-.1-1.7-.2-2.4-1.3-2.4zm-82.6 0h-10.7v-8.6h8.9c1.2 0 1.3-.7 1.3-2.4s-.1-2.4-1.3-2.4h-8.9V5.4h10.6c1.2 0 1.3-.7 1.3-2.4s-.1-2.4-1.3-2.4h-15c-1.3 0-1.9.9-1.9 2.1V29c0 1.3.6 1.9 1.9 1.9h15.1c1.2 0 1.3-.7 1.3-2.4s-.2-2.4-1.3-2.4zm-85 0h-10.7v-8.6h8.9c1.2 0 1.3-.7 1.3-2.4s-.1-2.4-1.3-2.4h-8.9V5.4h10.6c1.2 0 1.3-.7 1.3-2.4s-.1-2.4-1.3-2.4h-15c-1.3 0-1.9.9-1.9 2.1V29c0 1.3.6 1.9 1.9 1.9h15.1c1.2 0 1.3-.7 1.3-2.4s-.1-2.4-1.3-2.4zm-51.1-7.4c1.2 0 1.3-.7 1.3-2.4 0-1.9-.1-2.5-1.3-2.5h-9V5.6h9.6c1.2 0 1.3-.7 1.3-2.5s-.1-2.5-1.3-2.5H95.6c-1.4 0-2.1.7-2.1 2.1V30c0 .9 1.2 1.1 3.1 1.1 1.9 0 3.1-.1 3.1-1.1V18.7h9zM375.6 0c-8.1 0-15.9 4.6-15.9 15.8 0 8.3 4.3 15.6 15.7 15.6 3.4 0 6-.7 7.9-1.4 1.9-.7 1.9-.9 1.9-2.4v-9.9c0-1.2-1-1.3-3-1.3-1.7 0-3.1 0-3.1 1.2v7.9c-.9.6-2.2.8-3.5.8-7.1 0-9.5-5.7-9.5-10.8 0-7 4.6-10.5 10-10.5 3.6 0 6.1 1.6 7.2 2.3.5.3.8.4 1 .4.6 0 .9-.9.9-2.6 0-1.1.1-1.8-.7-2.4-1.3-1.3-4.5-2.7-8.9-2.7zm-83 5.2c3.1 0 4.8.9 4.8 3.7 0 3.1-2 4-4.5 4h-3.2V5.2h2.9zm.3-4.7h-7.7c-1.2 0-1.8.7-1.8 2.1V29c0 1.3.6 1.9 1.8 1.9h8.1c8.7 0 12.2-4.1 12.2-9.1 0-4.7-3.1-6.9-6.1-7.3 2.2-.9 4.3-2.6 4.3-6.4-.1-4.8-3.8-7.6-10.8-7.6zm.2 17.1c4.4 0 5.9 1.5 5.9 4.2 0 3.6-2.5 4.4-5.1 4.4h-4.3v-8.6h3.5zM206.7.5h-7.8c-1.2 0-1.9.9-1.9 2.1V29c0 1.3.6 1.9 1.9 1.9h7.3c12.2 0 16.2-6.3 16.2-15.4 0-8.8-3.9-15-15.7-15zm-.3 4.9c5.9 0 9.6 2.8 9.6 10.4 0 7.3-3.4 10.4-9.5 10.4h-3.2V5.4h3.1zm-81.8-.1c3.3 0 5.6.8 5.6 4.1 0 3.6-2.7 4.5-5.2 4.5h-3.1V5.3h2.7zm.8-4.8h-7.9c-1.3 0-1.8.9-1.8 2.1v27.3c0 .9 1.2 1.1 3.1 1.1 1.9 0 3.1-.1 3.1-1.1V18.4h2c3.1 0 4.1 2.6 5.1 4.8l2.8 6.7c.4 1 1.5 1.1 3.2 1.1 2.4 0 3.4-.1 3.4-.9 0-.3-.2-.9-.7-2.2l-2.4-5.7c-1.3-2.9-2-4.1-4.3-5.4 4.5-1.5 5.9-4.4 5.9-7.8-.2-5.1-3.2-8.5-11.5-8.5z"/><linearGradient id="SVGID_1_" gradientUnits="userSpaceOnUse" x1="36.157" y1="795.537" x2="62.969" y2="822.348" gradientTransform="matrix(.98 0 0 .98 .137 -771.352)"><stop offset=".055" style="stop-color:#004388"/><stop offset=".638" style="stop-color:#00a6e2"/></linearGradient><path d="M38.8 9.9c-4.4 0-6.9 2-7.3 2.4v.1c1.6-.4 3-.6 4.2-.6 5.7 0 10 4 12.7 7.3l6.6 7.6c2.9 3.4 5.4 4.3 8.1 4.3 1.1 0 2.2-.1 2.5-.2v-.1c-.3-.1-2.6-.9-6-4.8L54.8 20c-4-5-8.8-10.1-16-10.1z" style="fill:url(#SVGID_1_)"/><linearGradient id="SVGID_00000005246502291144367190000015330649801014877880_" gradientUnits="userSpaceOnUse" x1="35.331" y1="799.374" x2="56.456" y2="820.499" gradientTransform="matrix(.98 0 0 .98 .137 -771.352)"><stop offset=".055" style="stop-color:#004388"/><stop offset=".638" style="stop-color:#00a6e2"/></linearGradient><path style="fill:url(#SVGID_00000005246502291144367190000015330649801014877880_)" d="M35.3 13.7c-1.1 0-2.3.2-2.6.5v.1c3.4.5 6.1 1.9 9.5 5.8l6.2 7.2c1.9 2.3 4.5 3.6 7.4 3.6.6 0 1.4-.1 1.9-.2v-.1c-1.7-.5-3.5-1.3-5.5-3.6l-6.6-7.3c-2.3-2.9-6.4-6-10.3-6z"/><linearGradient id="SVGID_00000044880290312039190970000009442386235274008471_" gradientUnits="userSpaceOnUse" x1="14.57" y1="776.649" x2="67.178" y2="829.256" gradientTransform="matrix(.98 0 0 .98 .137 -771.352)"><stop offset="0" style="stop-color:#cedff5"/><stop offset=".149" style="stop-color:#5dc0eb"/><stop offset=".276" style="stop-color:#00a6e2"/><stop offset=".299" style="stop-color:#009dda"/><stop offset=".479" style="stop-color:#005c9f"/><stop offset=".564" style="stop-color:#004388"/></linearGradient><path style="fill:url(#SVGID_00000044880290312039190970000009442386235274008471_)" d="M75 .4H5.4C3.4.4 2 1.5 2 3.9v23.5c0 2 1.4 3.4 3.3 3.4h2.3c5.1 0 8.7-5.3 13.6-11.1 5.3-6.3 11-12.1 18.9-12.1 7.8 0 13.7 5.7 19.1 12.2 5.2 6.1 8.4 11 13.3 11h2c2.5 0 3.9-1.6 3.9-3.4V3.9C78.4 1.4 77 .4 75 .4z"/><path class="st0" d="M98.9 63.6c-2.2 0-3.7-.7-4.7-1.4l1-1.7c.7.5 2 1.2 3.6 1.2 1.4 0 3.1-.7 3.1-2.3 0-2.7-4-3.3-6-5.5-.7-.8-1.2-1.7-1.2-3 0-2.4 1.8-4.2 5-4.2 1.8 0 3 .4 3.8.8v2.2c-1-.6-2.3-1.1-3.7-1.1-1.5 0-2.8.6-2.8 2.1 0 3.5 7.3 3.4 7.3 8.5 0 2.7-2.4 4.4-5.4 4.4zM107.3 63.4V46.8h8.5l-.7 2h-5.5v5.1h5.4v2h-5.4v5.5h6.3v2h-8.6zM129.3 63.4l-1.7-4.3h-6.4l-1.6 4.3h-2.2l6.3-16.6h1.4l6.4 16.6h-2.2zm-4.1-11.3c-.3-.8-.5-1.5-.6-2.1-.2.6-.4 1.2-.7 2l-1.8 5h4.9l-1.8-4.9zM134 63.4V46.8h2.2v14.6h6.1v2H134zM144.7 63.4V46.8h2.2v16.5h-2.2zM162.9 63.4l-8.1-10.7c-.9-1.2-1.4-1.8-1.7-2.5 0 .6.1 1.2.1 2.1v11.1H151V46.8h2.3l7.8 10.3c1 1.3 1.5 2 1.8 2.6h.1c0-.6-.1-1.3-.1-2.2V46.8h2.2v16.5h-2.2zM176.3 63.6c-5 0-8.3-3.5-8.3-8.3 0-5.1 3.5-8.6 8.8-8.6 2.1 0 3.7.5 4.7 1V50c-1.1-.6-2.7-1.3-4.6-1.3-4.2 0-6.5 2.7-6.5 6.4 0 4 2.4 6.6 6.4 6.6 1.4 0 2.4-.2 3-.6v-5.8h2.2v7c-1.1.6-3.2 1.3-5.7 1.3zM200.4 48.8h-4.6v14.6h-2.3V48.8h-4.7v-2h12.3l-.7 2zM203.2 63.4V46.8h8.5l-.7 2h-5.5v5.1h5.4v2h-5.4v5.5h6.3v2h-8.6zM222.1 63.6c-5 0-8.1-3.6-8.1-8.3 0-4.8 3.4-8.6 8.5-8.6 1.9 0 3.4.5 4.2 1v2.2c-1.3-.8-2.5-1.2-4.2-1.2-3.7 0-6 2.9-6 6.5 0 3.7 2.2 6.5 5.9 6.5 1.4 0 2.8-.4 3.9-1.1l.6 1.7c-1.5.9-3.2 1.3-4.8 1.3zM240.7 63.4V56H232v7.4h-2.2V46.8h2.2V54h8.7v-7.2h2.2v16.5h-2.2zM258.9 63.4l-8.1-10.7c-.9-1.2-1.4-1.8-1.7-2.5h-.1c.1.6.1 1.2.1 2.1v11.1H247V46.8h2.3l7.8 10.3c1 1.3 1.5 2 1.8 2.6V46.8h2.2v16.5h-2.2zM266.4 49.1c1.5-1.5 3.5-2.4 5.9-2.4 2.6 0 4.7 1 6.2 2.6 1.3 1.5 2.1 3.5 2.1 5.9 0 2.5-.9 4.7-2.4 6.2-1.5 1.4-3.5 2.2-5.8 2.2s-4.2-.7-5.7-2.1c-1.6-1.5-2.6-3.7-2.6-6.4 0-2.4.8-4.5 2.3-6zm5.9-.4c-3.6 0-5.9 2.5-5.9 6.5s2.3 6.5 5.9 6.5c3.6 0 5.9-2.5 5.9-6.5 0-3.8-2.1-6.5-5.9-6.5zM283.7 63.4V46.8h2.2v14.6h6.1v2h-8.3zM295.7 49.1c1.5-1.5 3.5-2.4 5.9-2.4 2.6 0 4.7 1 6.2 2.6 1.3 1.5 2.1 3.5 2.1 5.9 0 2.5-.9 4.7-2.4 6.2-1.5 1.4-3.5 2.2-5.8 2.2s-4.2-.7-5.7-2.1c-1.6-1.5-2.6-3.7-2.6-6.4 0-2.4.8-4.5 2.3-6zm6-.4c-3.6 0-5.9 2.5-5.9 6.5s2.3 6.5 5.9 6.5c3.6 0 5.9-2.5 5.9-6.5-.1-3.8-2.2-6.5-5.9-6.5zM320.3 63.6c-5 0-8.3-3.5-8.3-8.3 0-5.1 3.5-8.6 8.8-8.6 2.1 0 3.7.5 4.7 1V50c-1.1-.6-2.7-1.3-4.6-1.3-4.2 0-6.5 2.7-6.5 6.4 0 4 2.4 6.6 6.4 6.6 1.4 0 2.4-.2 3-.6v-5.8h2.2v7c-1.1.6-3.2 1.3-5.7 1.3zM329.8 63.4V46.8h2.2v16.5h-2.2zM336 63.4V46.8h8.5l-.7 2h-5.5v5.1h5.4v2h-5.4v5.5h6.3v2H336zM351.5 63.6c-2.2 0-3.7-.7-4.7-1.4l1-1.7c.7.5 2 1.2 3.6 1.2 1.4 0 3.1-.7 3.1-2.3 0-2.7-4-3.3-6-5.5-.7-.8-1.2-1.7-1.2-3 0-2.4 1.8-4.2 5-4.2 1.8 0 3 .4 3.8.8v2.2c-1-.6-2.3-1.1-3.7-1.1-1.5 0-2.8.6-2.8 2.1 0 3.5 7.3 3.4 7.3 8.5.1 2.7-2.3 4.4-5.4 4.4z"/></svg>
