<?xml version="1.0" encoding="UTF-8"?>
<svg id="Livello_2" data-name="Livello 2" xmlns="http://www.w3.org/2000/svg" viewBox="0 0 757.34 492.02">
  <defs>
    <style>
      .cls-1 {
        fill: #124484;
      }
    </style>
  </defs>
  <g id="Livello_1-2" data-name="Livello 1">
    <g>
      <g>
        <path class="cls-1" d="M0,371.28c5.11-.29,13.99-.58,23.44-.58,19,0,32.32,7.81,32.32,31.35,0,22.28-13.99,34.63-35.12,34.63-7.04,0-14.09-.19-20.65-.58v-64.83ZM17.94,420.87c.77.19,2.03.29,4.15.29,8.01,0,14.28-5.5,14.28-17.65,0-10.13-1.93-17.65-13.89-17.65-2.12,0-3.18,0-4.54.19v34.83Z"/>
        <path class="cls-1" d="M90.31,413.73v22.48h-17.94v-22.38l-20.35-42.74h19.49l6.08,14.08c1.64,3.76,2.89,7.04,3.86,9.94h.19c1.16-3.48,2.89-7.33,4.73-11.38l5.59-12.64h19l-20.64,42.64Z"/>
        <path class="cls-1" d="M151.06,436.21l-17.46-29.33c-2.41-4.15-4.05-8.2-4.63-10.32h-.19c.77,5.4,1.45,13.7,1.45,22.48v17.17h-17.27v-65.12h20.07l16.21,27.2c2.41,4.15,3.96,8.2,4.63,10.32h.19c-.67-5.4-1.45-13.7-1.45-22.48v-15.05h17.27v65.12h-18.81Z"/>
        <path class="cls-1" d="M215.92,436.21l-3.18-11.58h-19.97l-3.18,11.58h-17.75l19.49-65.12h24.21l19.97,65.12h-19.59ZM205.21,396.75c-.97-3.38-1.74-7.04-2.32-10.42h-.19c-.58,3.38-1.45,7.14-2.31,10.42l-3.76,13.8h12.35l-3.76-13.8Z"/>
        <path class="cls-1" d="M302.4,436.21l-2.12-23.25c-.67-6.85-1.25-16.59-1.16-24.7h-.29c-1.54,8.11-3.38,16.11-5.88,24.41l-7.14,23.54h-16.78l-7.14-23.54c-1.64-5.5-4.92-17.56-5.98-24.41h-.29c.1,6.95-.39,16.88-1.06,24.7l-2.03,23.25h-16.98l6.95-65.12h25.08l7.04,23.06c1.35,4.53,2.7,10.32,3.57,15.63h.19c.87-5.31,1.93-11.09,3.28-15.63l7.04-23.06h24.99l6.95,65.12h-18.23Z"/>
        <path class="cls-1" d="M325.35,436.21v-65.12h17.94v65.12h-17.94Z"/>
        <path class="cls-1" d="M394.98,434.47c-4.54,1.64-10.23,2.61-15.44,2.61-25.57,0-30.97-17.66-30.97-31.26,0-22.09,12.93-35.6,33.67-35.6,4.25,0,8.78.58,12.54,1.74l-2.51,16.78c-3.09-1.25-6.66-2.03-10.23-2.03-8.88,0-13.7,6.66-13.7,16.98,0,10.9,4.44,16.69,14.09,16.69,3.28,0,7.14-.87,10.13-2.03l2.41,16.11Z"/>
        <path class="cls-1" d="M455.46,386.91c-3.95-1.35-8.29-2.22-12.25-2.22-4.15,0-6.46,1.35-6.46,4.15,0,8.59,25.47,5.79,25.47,27.11,0,12.54-9.94,21.51-26.34,21.51-5.88,0-11.96-.87-16.78-1.93l1.73-17.08c4.34,1.83,10.61,3.38,15.73,3.38,4.15,0,6.46-1.35,6.46-4.15,0-8.39-25.18-5.69-25.18-27.11,0-12.06,9.84-20.74,25.95-20.74,4.44,0,8.78.48,13.31,1.35l-1.64,15.73Z"/>
        <path class="cls-1" d="M466.66,436.21v-65.12h40.04v15.24h-22.09v9.17h20.07v14.66h-20.07v10.52h22.09v15.53h-40.04Z"/>
        <path class="cls-1" d="M552.46,436.21l-3.18-11.58h-19.97l-3.18,11.58h-17.75l19.49-65.12h24.22l19.97,65.12h-19.58ZM541.75,396.75c-.96-3.38-1.73-7.04-2.31-10.42h-.19c-.58,3.38-1.45,7.14-2.31,10.42l-3.76,13.8h12.35l-3.76-13.8Z"/>
        <path class="cls-1" d="M573.9,436.21v-65.12h17.94v49.39h16.17v15.73h-34.12Z"/>
        <path class="cls-1" d="M612.57,436.21v-65.12h17.94v65.12h-17.94Z"/>
        <path class="cls-1" d="M676.4,436.21l-17.46-29.33c-2.41-4.15-4.05-8.2-4.63-10.32h-.19c.77,5.4,1.45,13.7,1.45,22.48v17.17h-17.27v-65.12h20.07l16.21,27.2c2.41,4.15,3.96,8.2,4.63,10.32h.19c-.67-5.4-1.45-13.7-1.45-22.48v-15.05h17.27v65.12h-18.81Z"/>
        <path class="cls-1" d="M757.34,432.83c-6.27,2.8-14.57,4.54-23.44,4.54-22.77,0-33.57-12.45-33.57-31.07,0-22.38,13.7-36.27,37.82-36.27,7.33,0,14.37,1.25,19.1,2.7l-3.47,16.4c-4.44-1.73-9.84-2.89-16.3-2.89-12.35,0-17.65,7.43-17.65,17.94s4.82,16.78,15.92,16.78c1.35,0,2.7-.19,3.67-.48v-19.78h17.94v32.12Z"/>
      </g>
      <g>
        <path class="cls-1" d="M422.78,120.97c.65.65,1.3,1.31,1.94,1.97,25.82,26.42,42.95,56.36,49.7,83.39,3.11,12.45,4.01,24.29,2.54,34.88-.86,6.19-2.53,11.95-5.04,17.17-2.31,4.81-5.34,9.14-9.11,12.91-3.77,3.77-8.1,6.8-12.91,9.11,2.49-5.16,4.15-10.87,5.02-17,.98-6.95.94-14.45-.08-22.3-.54-4.12-1.34-8.34-2.41-12.63-1.87-7.53-4.54-15.27-7.98-23.1h0c-8.94-20.36-23.07-41.3-41.74-60.41-.64-.66-1.29-1.32-1.94-1.97l22.02-22.02Z"/>
        <path class="cls-1" d="M444.85,98.9l-22.02,22.02c-.65-.65-1.31-1.3-1.97-1.94-26.42-25.81-56.36-42.95-83.39-49.69-12.45-3.11-24.29-4.01-34.88-2.54-6.19.86-11.95,2.53-17.17,5.05,2.31-4.81,5.34-9.14,9.11-12.91,3.81-3.81,8.19-6.86,13.04-9.18,30.18-14.44,78.69-.72,121.37,34.7.04.03.09.07.14.11,5.36,4.45,10.64,9.26,15.77,14.39Z"/>
        <path class="cls-1" d="M466.82,76.93c.65.65,1.3,1.31,1.94,1.97,25.82,26.42,42.95,56.36,49.7,83.39,3.11,12.45,4.01,24.29,2.54,34.88-.86,6.19-2.53,11.95-5.04,17.17-2.31,4.81-5.34,9.14-9.11,12.91-3.77,3.77-8.1,6.8-12.91,9.11,2.49-5.16,4.15-10.87,5.02-17,.98-6.95.94-14.45-.08-22.3-.54-4.12-1.34-8.34-2.41-12.63-1.87-7.53-4.54-15.27-7.98-23.1h0c-8.94-20.36-23.07-41.3-41.74-60.41-.64-.66-1.29-1.32-1.94-1.97l22.02-22.02Z"/>
        <path class="cls-1" d="M488.89,54.86l-22.02,22.02c-.65-.65-1.31-1.3-1.97-1.94-26.42-25.81-56.36-42.95-83.39-49.69-12.45-3.11-24.29-4.01-34.88-2.54-6.19.86-11.95,2.53-17.17,5.05,2.31-4.81,5.34-9.14,9.11-12.91,3.81-3.81,8.19-6.86,13.04-9.18,30.18-14.44,78.69-.72,121.37,34.7.04.03.09.07.14.11,5.36,4.45,10.64,9.26,15.77,14.39Z"/>
        <path class="cls-1" d="M432.84,263.35c-.54-4.19-1.35-8.48-2.44-12.86-1.41-5.69-3.29-11.51-5.61-17.4-.71-1.81-1.46-3.61-2.26-5.43-8.94-20.44-23.11-41.49-41.86-60.68-.64-.66-1.29-1.32-1.94-1.97l-22.02,22.02c1.66,1.66,3.28,3.34,4.85,5.05,16.22,17.5,28.36,37.45,34.23,56.25.49,1.57.94,3.15,1.34,4.71-20.44-8.93-41.49-23.11-60.68-41.86-.66-.64-1.32-1.29-1.97-1.94l-22.02,22.02c.65.65,1.31,1.3,1.97,1.94,26.46,25.86,56.45,43,83.51,49.73-1,2.98-2.43,5.45-4.29,7.31-6.36,6.36-19.86,7.77-36.13,3.76-21.52-5.3-45.12-19.38-65.11-38.77-.66-.64-1.32-1.29-1.97-1.94l-22.02,22.02c52.56,52.56,119.86,70.48,150.32,40.02,3.77-3.77,6.8-8.1,9.11-12.91,2.49-5.16,4.15-10.87,5.02-17,.97-6.88.94-14.3-.05-22.07Z"/>
        <path class="cls-1" d="M398.84,141.01c-19.1-18.67-40.04-32.79-60.4-41.74h0c-7.84-3.45-15.58-6.12-23.1-7.99-4.3-1.07-8.51-1.87-12.63-2.41-7.85-1.02-15.35-1.06-22.3-.08-6.13.87-11.84,2.53-17,5.02-4.81,2.31-9.14,5.34-12.91,9.11-3.77,3.77-6.8,8.1-9.11,12.91-16.14,33.5,2.53,89.73,47.19,135.44.64.66,1.29,1.32,1.94,1.97l22.02-22.02c-.65-.65-1.3-1.31-1.94-1.97-19.39-19.99-33.47-43.59-38.77-65.11-1.81-7.38-2.52-14.18-2.14-20.01.44-7.03,2.43-12.64,5.91-16.11,1.86-1.86,4.33-3.29,7.31-4.29,1.84,7.43,4.48,15.09,7.87,22.83,8.93,20.44,23.1,41.48,41.85,60.67.64.66,1.29,1.32,1.94,1.97l22.22-22.22c-5.22-5.22-10.09-10.57-14.6-16.03-12.5-15.07-22.27-30.87-29.07-46.33,1.46.37,2.92.8,4.39,1.26,19.91,6.22,41.12,19.47,59.33,37.15.66.64,1.32,1.29,1.97,1.94l22.02-22.02c-.65-.65-1.31-1.3-1.97-1.94Z"/>
      </g>
      <g>
        <path class="cls-1" d="M207.14,491.69h-3.38l-6.1-20.76c-.38-1.21-.71-2.55-.92-3.76h-.08c-.25,1.34-.5,2.55-.83,3.76l-5.93,20.76h-3.47l-7.86-28.2h2.88l5.64,20.35c.5,2.01.87,3.63,1.21,5.39h.04c.33-1.75.71-3.51,1.21-5.18l5.89-20.56h2.72l6.18,20.93c.46,1.5.88,3.22,1.17,4.8h.04c.29-1.46.54-2.76.92-4.18l5.85-21.56h2.63l-7.81,28.2Z"/>
        <path class="cls-1" d="M221.26,491.69v-28.2h14.37v2.17h-11.7v10.4h10.74v2.13h-10.74v11.28h11.7v2.21h-14.37Z"/>
        <path class="cls-1" d="M266.94,466.33c-1.8-.58-3.63-.96-5.39-.96-3.84,0-5.93,1.84-5.93,4.85,0,6.94,13.49,4.8,13.49,14.04,0,4.22-3.05,7.77-9.27,7.77-2.51,0-5.1-.5-6.89-1.09l.55-2.55c1.92.75,4.43,1.34,6.64,1.34,3.84,0,6.22-1.71,6.22-5.31,0-7.19-13.45-5.06-13.45-14.04,0-4.01,3.18-7.23,8.9-7.23,1.71,0,3.76.25,5.6.75l-.46,2.42Z"/>
        <path class="cls-1" d="M294.49,491.69v-13.54h-16.13v13.54h-2.67v-28.2h2.67v12.45h16.13v-12.45h2.67v28.2h-2.67Z"/>
        <path class="cls-1" d="M323.84,491.69l-2.55-7.23h-12.99l-2.59,7.23h-2.84l10.57-28.2h3.01l10.48,28.2h-3.09ZM316.07,470.09l-1.25-3.8h-.04c-.37,1.17-.79,2.42-1.25,3.72l-4.47,12.32h11.49l-4.47-12.24Z"/>
        <path class="cls-1" d="M332.64,491.69v-28.2s3.97-.12,6.89-.12c7.31,0,10.36,4.09,10.36,8.56,0,5.6-4.34,9.53-11.07,9.53-1.67,0-3.51-.08-3.51-.08v10.32h-2.67ZM335.32,479.07s1.96.21,3.8.21c5.39,0,8.02-3.01,8.02-6.89s-2.51-6.85-8.14-6.85c-1.76,0-3.68.08-3.68.08v13.45Z"/>
        <path class="cls-1" d="M356.07,491.69v-28.2h14.37v2.17h-11.7v10.4h10.74v2.13h-10.74v11.28h11.7v2.21h-14.37Z"/>
        <path class="cls-1" d="M389.3,491.69v-28.2s3.97-.12,6.89-.12c7.31,0,10.36,4.09,10.36,8.56,0,5.6-4.34,9.53-11.07,9.53-1.67,0-3.51-.08-3.51-.08v10.32h-2.67ZM391.97,479.07s1.96.21,3.8.21c5.39,0,8.02-3.01,8.02-6.89s-2.51-6.85-8.15-6.85c-1.75,0-3.67.08-3.67.08v13.45Z"/>
        <path class="cls-1" d="M427.43,491.69l-9.57-12.78h-2.46v12.78h-2.67v-28.16s3.55-.17,6.68-.17c5.52,0,9.48,2.21,9.48,7.35s-3.76,7.6-8.11,8.02c0,0,1.25,1.38,2.42,2.97l7.6,9.98h-3.38ZM415.4,476.81s1.88.04,3.51.04c4.72,0,7.23-2.21,7.23-5.76s-2.55-5.6-7.06-5.6c-1.8,0-3.67.13-3.67.13v11.2Z"/>
        <path class="cls-1" d="M446.97,492.02c-7.98,0-12.41-5.64-12.41-14.12,0-9.57,5.97-14.75,13.12-14.75,7.98,0,12.41,5.64,12.41,14.12,0,9.57-5.97,14.75-13.12,14.75ZM447.31,465.41c-5.52,0-9.94,4.18-9.94,11.91s3.34,12.45,9.94,12.45c5.52,0,9.98-4.18,9.98-11.95,0-7.31-3.34-12.41-9.98-12.41Z"/>
        <path class="cls-1" d="M488.41,490.48c-2.84,1.04-6.23,1.55-9.07,1.55-8.56,0-13.87-5.1-13.87-13.91s4.93-14.96,14.79-14.96c2.63,0,5.14.42,7.69,1.21l-.63,2.42c-2.38-.96-4.97-1.42-7.44-1.42-8.27,0-11.57,5.97-11.57,12.28,0,7.81,4.43,12.12,11.45,12.12,2.25,0,4.13-.33,5.97-.92v-11.24h2.67v12.87Z"/>
        <path class="cls-1" d="M511.38,491.69l-9.57-12.78h-2.46v12.78h-2.67v-28.16s3.55-.17,6.68-.17c5.52,0,9.48,2.21,9.48,7.35s-3.76,7.6-8.11,8.02c0,0,1.25,1.38,2.42,2.97l7.6,9.98h-3.38ZM499.35,476.81s1.88.04,3.51.04c4.72,0,7.23-2.21,7.23-5.76s-2.55-5.6-7.06-5.6c-1.8,0-3.67.13-3.67.13v11.2Z"/>
        <path class="cls-1" d="M520.81,491.69v-28.2h14.37v2.17h-11.7v10.4h10.74v2.13h-10.74v11.28h11.7v2.21h-14.37Z"/>
        <path class="cls-1" d="M555.32,466.33c-1.8-.58-3.63-.96-5.39-.96-3.84,0-5.93,1.84-5.93,4.85,0,6.94,13.49,4.8,13.49,14.04,0,4.22-3.05,7.77-9.27,7.77-2.51,0-5.1-.5-6.89-1.09l.55-2.55c1.92.75,4.43,1.34,6.64,1.34,3.84,0,6.22-1.71,6.22-5.31,0-7.19-13.45-5.06-13.45-14.04,0-4.01,3.18-7.23,8.9-7.23,1.71,0,3.76.25,5.6.75l-.46,2.42Z"/>
        <path class="cls-1" d="M576.6,466.33c-1.8-.58-3.63-.96-5.39-.96-3.84,0-5.93,1.84-5.93,4.85,0,6.94,13.49,4.8,13.49,14.04,0,4.22-3.05,7.77-9.27,7.77-2.51,0-5.1-.5-6.89-1.09l.55-2.55c1.92.75,4.43,1.34,6.64,1.34,3.84,0,6.22-1.71,6.22-5.31,0-7.19-13.45-5.06-13.45-14.04,0-4.01,3.18-7.23,8.9-7.23,1.71,0,3.76.25,5.6.75l-.46,2.42Z"/>
      </g>
    </g>
  </g>
</svg>