<svg xmlns="http://www.w3.org/2000/svg" width="25.25" height="22.249" viewBox="0 0 25.25 22.249">
  <g id="Group_12170" data-name="Group 12170" transform="translate(24033.25 14005.249)">
    <rect id="Rectangle_2274" data-name="Rectangle 2274" width="19" height="19" rx="5" transform="translate(-24032 -14004)" fill="#d2e1f8"/>
    <g id="Group_12169" data-name="Group 12169" transform="translate(-24346 -14071)">
      <g id="list" transform="translate(313 66.001)">
        <g id="Group_8744" data-name="Group 8744">
          <g id="Group_8743" data-name="Group 8743">
            <path id="Path_16186" data-name="Path 16186" d="M15.625,0H4.375A4.375,4.375,0,0,0,0,4.375v11.25A4.375,4.375,0,0,0,4.375,20h11.25A4.375,4.375,0,0,0,20,15.625V4.375A4.375,4.375,0,0,0,15.625,0ZM18.75,15.625a3.125,3.125,0,0,1-3.125,3.125H4.375A3.125,3.125,0,0,1,1.25,15.625V4.375A3.125,3.125,0,0,1,4.375,1.25h11.25A3.125,3.125,0,0,1,18.75,4.375Z" fill="#256bd1" stroke="#256bd1" stroke-width="0.5"/>
            <path id="Path_16187" data-name="Path 16187" d="M113.875,112h-1.25a.625.625,0,0,0-.625.625v1.25a.625.625,0,0,0,.625.625h1.25a.625.625,0,0,0,.625-.625v-1.25A.625.625,0,0,0,113.875,112Z" transform="translate(-107.625 -107.625)" fill="#256bd1" stroke="#256bd1" stroke-width="0.5"/>
            <path id="Path_16188" data-name="Path 16188" d="M113.875,224h-1.25a.625.625,0,0,0-.625.625v1.25a.625.625,0,0,0,.625.625h1.25a.625.625,0,0,0,.625-.625v-1.25A.625.625,0,0,0,113.875,224Z" transform="translate(-107.625 -215.25)" fill="#256bd1" stroke="#256bd1" stroke-width="0.5"/>
            <path id="Path_16189" data-name="Path 16189" d="M113.875,336h-1.25a.625.625,0,0,0-.625.625v1.25a.625.625,0,0,0,.625.625h1.25a.625.625,0,0,0,.625-.625v-1.25A.625.625,0,0,0,113.875,336Z" transform="translate(-107.625 -322.875)" fill="#256bd1" stroke="#256bd1" stroke-width="0.5"/>
            <rect id="Rectangle_1978" data-name="Rectangle 1978" width="7.5" height="1.25" transform="translate(8.125 5)" fill="#256bd1" stroke="#256bd1" stroke-width="0.5"/>
            <rect id="Rectangle_1979" data-name="Rectangle 1979" width="7.5" height="1.25" transform="translate(8.125 9.375)" fill="#256bd1" stroke="#256bd1" stroke-width="0.5"/>
            <rect id="Rectangle_1980" data-name="Rectangle 1980" width="7.5" height="1.25" transform="translate(8.125 13.75)" fill="#256bd1" stroke="#256bd1" stroke-width="0.5"/>
          </g>
        </g>
      </g>
      <g id="Ellipse_251" data-name="Ellipse 251" transform="translate(324 74)" fill="#256bd1" stroke="#fff" stroke-width="1">
        <circle cx="7" cy="7" r="7" stroke="none"/>
        <circle cx="7" cy="7" r="6.5" fill="none"/>
      </g>
      <path id="Path_16403" data-name="Path 16403" d="M4.357-9.559H1.125v-1.435H4.357v-3.29H5.819v3.29H9.06v1.435H5.819v3.274H4.357Z" transform="translate(325.875 91.285)" fill="#fff"/>
    </g>
  </g>
</svg>
