<svg xmlns="http://www.w3.org/2000/svg" width="32" height="32" viewBox="0 0 32 32"><g transform="translate(-1554 -795)"><g transform="translate(615.5 400.5)"><g transform="translate(938.5 394.5)" fill="#7959f6" stroke="#7959f6" stroke-width="1" opacity="0.2"><rect width="32" height="32" rx="4" stroke="none"/><rect x="0.5" y="0.5" width="31" height="31" rx="3.5" fill="none"/></g></g><path d="M13.17,3.7,9.8.33A1.125,1.125,0,0,0,9,0H1.125A1.125,1.125,0,0,0,0,1.125v15.75A1.125,1.125,0,0,0,1.125,18h11.25A1.125,1.125,0,0,0,13.5,16.875V4.5a1.125,1.125,0,0,0-.33-.8ZM10.125,11.25H7.875V13.5H5.625V11.25H3.375V9h2.25V6.75h2.25V9h2.25Zm0-6.75A1.125,1.125,0,0,1,9,3.375V1.125L12.375,4.5Z" transform="translate(1563 802)" fill="#7959f6"/></g></svg>