<svg xmlns="http://www.w3.org/2000/svg" width="32" height="32" viewBox="0 0 32 32">
  <g id="Approve" transform="translate(-1431 -198)">
    <rect id="Rectangle_2012" data-name="Rectangle 2012" width="32" height="32" rx="4" transform="translate(1431 198)" fill="#dbf4e2"/>
    <g id="Group_10230" data-name="Group 10230" transform="translate(1258 -289)">
      <path id="Subtraction_5" data-name="Subtraction 5" d="M8.508,18.846H1.2A1.2,1.2,0,0,1,0,17.65V3.292a1.2,1.2,0,0,1,.9-1.2H3.322a1.517,1.517,0,0,0-.031.308A1.489,1.489,0,0,0,4.778,3.889H8.684a1.5,1.5,0,0,0,1.487-1.506,1.462,1.462,0,0,0-.029-.289h1.824c.894,0,1.5.482,1.5,1.2V7.446a6.909,6.909,0,0,0-1.5.2V5.386H1.5V17.35h6a6.856,6.856,0,0,0,1.013,1.5ZM6.891,15.555h-4.2a.3.3,0,0,1-.3-.3v-.3a.3.3,0,0,1,.3-.3H6.785a6.852,6.852,0,0,0,.106.895Zm.033-2.691H2.693a.3.3,0,0,1-.3-.3v-.3a.3.3,0,0,1,.3-.3H7.18a6.869,6.869,0,0,0-.256.9ZM7.94,10.471H2.693a.3.3,0,0,1-.3-.3v-.3a.3.3,0,0,1,.3-.3H8.661a6.927,6.927,0,0,0-.721.9ZM10.47,7.778H2.693a.3.3,0,0,1-.3-.3v-.3a.3.3,0,0,1,.3-.3H10.47a.3.3,0,0,1,.3.3v.3A.3.3,0,0,1,10.47,7.778ZM8.684,3.292H4.778a.891.891,0,0,1-.89-.89V2.385a.891.891,0,0,1,.89-.89h.46a.445.445,0,0,0,.445-.445V1.035A1.036,1.036,0,0,1,6.718,0h.024A1.036,1.036,0,0,1,7.777,1.035V1.05a.446.446,0,0,0,.447.445h.46a.89.89,0,0,1,.888.89V2.4A.89.89,0,0,1,8.684,3.292ZM6.731.6a.448.448,0,1,0,.45.449A.449.449,0,0,0,6.731.6Z" transform="translate(181 493)" fill="#4dc771"/>
    </g>
    <path id="check-mark" d="M5.71,0a5.71,5.71,0,1,0,5.71,5.71A5.716,5.716,0,0,0,5.71,0ZM8.989,4.746,5.4,8.333a.808.808,0,0,1-1.142,0L2.431,6.5A.807.807,0,1,1,3.573,5.363L4.83,6.62,7.847,3.6A.808.808,0,0,1,8.989,4.746Z" transform="translate(1447.437 212.438)" fill="#4dc771"/>
  </g>
</svg>
