<svg xmlns="http://www.w3.org/2000/svg" width="21.873" height="20.533" viewBox="0 0 21.873 20.533">
  <g id="Group_12180" data-name="Group 12180" transform="translate(24269.25 22041.25)">
    <rect id="Rectangle_2276" data-name="Rectangle 2276" width="15" height="19" rx="2" transform="translate(-24268 -22040)" fill="#d2e1f8"/>
    <g id="Audit" transform="translate(-24279 -22081.699)">
      <path id="Path_16510" data-name="Path 16510" d="M440.179,408.286l-2.645-2.645a5.747,5.747,0,0,0,1.012-3.118,5.223,5.223,0,0,0-10.446,0c0,2.885,2.351,5.5,5.223,5.223a5.766,5.766,0,0,0,3.118-1.012l2.645,2.647a.785.785,0,0,0,1.093-1.1Zm-10.551-5.763a3.695,3.695,0,1,1,3.695,3.7A3.695,3.695,0,0,1,429.628,402.523Z" transform="translate(-408.997 -348.836)" fill="#256bd1" stroke="#256bd1" stroke-width="0.5"/>
      <path id="Path_16511" data-name="Path 16511" d="M26.242,42.459A1.76,1.76,0,0,0,24.483,40.7H11.759A1.76,1.76,0,0,0,10,42.459V58.941A1.76,1.76,0,0,0,11.759,60.7h1.282l.011-.013a.767.767,0,0,0,.144.013h6.32a.769.769,0,1,0,0-1.537h-7.1a.88.88,0,0,1-.88-.88V43.119a.88.88,0,0,1,.88-.88H23.825a.88.88,0,0,1,.88.88V46.23h0a.769.769,0,0,0,1.537,0h0Z" fill="#256bd1" stroke="#256bd1" stroke-width="0.5"/>
      <path id="Path_16512" data-name="Path 16512" d="M146.3,224.968a.768.768,0,0,0,.769.769h8.8a.768.768,0,0,0,.769-.769h0a.768.768,0,0,0-.769-.769h-8.8a.768.768,0,0,0-.769.769Z" transform="translate(-133.332 -179.504)" fill="#256bd1" stroke="#256bd1" stroke-width="0.5"/>
      <path id="Path_16513" data-name="Path 16513" d="M146.3,439.469a.768.768,0,0,0,.769.769h4.291a.768.768,0,0,0,.769-.769h0a.768.768,0,0,0-.769-.769h-4.289a.77.77,0,0,0-.771.769Z" transform="translate(-133.332 -389.335)" fill="#256bd1" stroke="#256bd1" stroke-width="0.5"/>
      <path id="Path_16514" data-name="Path 16514" d="M146.3,647.869a.768.768,0,0,0,.769.769h2.789a.768.768,0,0,0,.769-.769h0a.768.768,0,0,0-.769-.769h-2.787a.77.77,0,0,0-.771.769Z" transform="translate(-133.332 -593.197)" fill="#256bd1" stroke="#256bd1" stroke-width="0.5"/>
    </g>
  </g>
</svg>
