<svg xmlns="http://www.w3.org/2000/svg" width="32" height="32" viewBox="0 0 32 32">
  <g id="balance" transform="translate(-883 -390)">
    <g id="Rectangle_2012" data-name="Rectangle 2012" transform="translate(883 390)" fill="#f8a000" stroke="#f8a000" stroke-width="1" opacity="0.2">
      <rect width="32" height="32" rx="4" stroke="none"/>
      <rect x="0.5" y="0.5" width="31" height="31" rx="3.5" fill="none"/>
    </g>
    <path id="balance-2" data-name="balance" d="M144.457,136.649v.644c-.02.081-.042.162-.059.244a3.694,3.694,0,0,1-3.27,2.972,3.65,3.65,0,0,1-3.774-2.388,2.351,2.351,0,0,1-.063-1.85c.742-1.693,1.445-3.4,2.162-5.109.029-.069.053-.139.092-.241l-3.534.795a2.609,2.609,0,0,1-1.807,2.1v13.657h3.958a.734.734,0,0,1,.8.784c0,.515-.022,1.032.007,1.546a.914.914,0,0,1-.521.977h-9.966a.908.908,0,0,1-.522-.977c.03-.5.007-1,.006-1.5a.744.744,0,0,1,.818-.826H132.5c.075,0,.15-.006.226-.01V133.82a2.663,2.663,0,0,1-1.407-1.045l-4.152.935c.03.085.047.145.072.2q1.188,2.824,2.382,5.646a1.937,1.937,0,0,1,.159,1.017,3.668,3.668,0,0,1-7.2.463,1.883,1.883,0,0,1-.037-1.2q1.441-3.45,2.9-6.893a.8.8,0,0,1,.6-.5q1.85-.41,3.7-.826c.387-.087.773-.178,1.15-.265a2.594,2.594,0,0,1,4.926-1.108.157.157,0,0,0,.072-.01l4.679-1.057a.737.737,0,0,1,.941.491l2.154,5.114C143.917,135.41,144.189,136.029,144.457,136.649Zm-1.541.188-2.126-5.025-2.123,5.025Zm-14.665,3.294-2.122-5.03-2.123,5.03Z" transform="translate(765.543 266.214)" fill="#f8a000"/>
  </g>
</svg>
