<?xml version="1.0" standalone="no"?>
<!DOCTYPE svg PUBLIC "-//W3C//DTD SVG 20010904//EN"
 "http://www.w3.org/TR/2001/REC-SVG-20010904/DTD/svg10.dtd">
<svg version="1.0" xmlns="http://www.w3.org/2000/svg"
 width="32.000000pt" height="32.000000pt" viewBox="0 0 52.000000 52.000000"
 preserveAspectRatio="xMidYMid meet">

<g transform="translate(0.000000,52.000000) scale(0.100000,-0.100000)"
fill="#256bd1" stroke="none">
<path d="M21 496 l-22 -23 43 -29 c65 -44 66 -45 72 -36 4 7 -46 88 -67 108
-2 2 -13 -7 -26 -20z"/>
<path d="M345 501 c-22 -10 -61 -41 -88 -68 l-47 -49 25 -24 25 -24 58 57 c60
59 88 69 116 41 28 -28 18 -56 -41 -116 l-57 -58 25 -25 25 -26 56 59 c69 72
87 121 65 174 -28 66 -95 91 -162 59z"/>
<path d="M78 252 c-72 -75 -89 -123 -62 -179 13 -25 32 -44 57 -57 56 -27 104
-10 179 62 l59 56 -26 25 -25 25 -58 -57 c-60 -59 -88 -69 -116 -41 -28 27
-18 57 40 118 l55 60 -24 23 -23 24 -56 -59z"/>
<path d="M406 112 c-4 -7 46 -88 67 -108 2 -2 13 7 26 20 l22 23 -43 29 c-65
44 -66 45 -72 36z"/>
</g>
</svg>
