<svg xmlns="http://www.w3.org/2000/svg" width="32" height="32" viewBox="0 0 32 32">
  <g id="Comment_box_fill" data-name="Comment box fill" transform="translate(-1521 -3161)">
    <rect id="Rectangle_317" data-name="Rectangle 317" width="32" height="32" rx="4" transform="translate(1521 3161)" fill="#cef2fb"/>
    <g id="Group_9520" data-name="Group 9520" transform="translate(1 1)">
      <path id="Path_20343" data-name="Path 20343" d="M8.093.008c1.984,0,3.968.021,5.951-.007C15.5-.02,16.187.645,16.174,2.11c-.024,2.567-.031,5.135,0,7.7.02,1.582-.756,2.185-2.269,2.152-1.983-.044-3.969.027-5.951-.028a1.811,1.811,0,0,0-1.977,1,3.551,3.551,0,0,1-2.016,1.583c-.563.221-1.276.5-1.648.1-.508-.55.424-.771.617-1.2.413-.929.509-1.552-.853-1.466C.6,12.035-.016,11.242,0,9.8c.03-2.567.026-5.135,0-7.7C-.011.624.688-.022,2.142,0,4.125.03,6.11.008,8.093.008M3.739,13.678a2.074,2.074,0,0,0,1.73-1.316c.449-1.1,1.225-1.166,2.219-1.138,2.043.057,4.09,0,6.135.023,1.079.012,1.64-.439,1.636-1.552-.009-2.454-.016-4.908,0-7.362C15.47,1.245,15,.713,13.891.716Q8.107.731,2.322.714C1.231.71.71,1.194.716,2.3q.022,3.681,0,7.362A1.372,1.372,0,0,0,2.14,11.252c1.991.177,2.032.273,1.6,2.426" transform="translate(1528 3169)" fill="#0cbeeb"/>
      <path id="Path_20344" data-name="Path 20344" d="M15.335,25.5c.447-2.211.4-2.31-1.649-2.492a1.412,1.412,0,0,1-1.468-1.638q.019-3.782,0-7.563c-.007-1.132.531-1.63,1.656-1.626q5.967.022,11.935,0c1.14,0,1.629.544,1.62,1.661-.021,2.521-.013,5.042,0,7.563,0,1.143-.575,1.607-1.688,1.595-2.109-.023-4.22.035-6.328-.024-1.025-.029-1.826.044-2.289,1.169A2.139,2.139,0,0,1,15.335,25.5" transform="translate(1516.358 3157.404)" fill="#0cbeeb"/>
    </g>
  </g>
</svg>
