<svg xmlns="http://www.w3.org/2000/svg" width="72" height="83" viewBox="0 0 72 83">
  <g id="confirm" transform="translate(-3531 643)">
    <path id="Union_1" data-name="Union 1" d="M25.667,70H5a5,5,0,0,1-5-5V5A5,5,0,0,1,5,0H67a5,5,0,0,1,5,5V65a5,5,0,0,1-5,5H47.333L36.5,83Z" transform="translate(3531 -643)" fill="#d3e3fb"/>
    <path id="Path_16517" data-name="Path 16517" d="M-11.642-36.822a18.875,18.875,0,0,1,1.109-7.13,18.691,18.691,0,0,1,4.385-5.836A33.473,33.473,0,0,0-2-54.312,7.913,7.913,0,0,0-.654-58.74a6.77,6.77,0,0,0-1.563-4.815A6,6,0,0,0-6.8-65.215a6.6,6.6,0,0,0-4.654,1.624,5.691,5.691,0,0,0-1.764,4.4h-8.165a12.032,12.032,0,0,1,4.049-9.418Q-13.356-72.07-6.8-72.07q6.754,0,10.534,3.431t3.78,9.586q0,5.482-5.108,10.8l-4.133,4.07q-2.218,2.523-2.285,7.366Zm-.571,10.433a4.283,4.283,0,0,1,1.243-3.2,4.586,4.586,0,0,1,3.36-1.222,4.561,4.561,0,0,1,3.394,1.255,4.311,4.311,0,0,1,1.243,3.163,4.233,4.233,0,0,1-1.21,3.079A4.573,4.573,0,0,1-7.61-22.07a4.515,4.515,0,0,1-3.411-1.239A4.265,4.265,0,0,1-12.213-26.388Z" transform="translate(3574.387 -554.93)" fill="#256bd1"/>
  </g>
</svg>
