<svg xmlns="http://www.w3.org/2000/svg" xmlns:xlink="http://www.w3.org/1999/xlink" width="284.87" height="287.535" viewBox="0 0 284.87 287.535">
  <defs>
    <linearGradient id="linear-gradient" x1="0.587" y1="0.074" x2="0.587" y2="1.07" gradientUnits="objectBoundingBox">
      <stop offset="0" stop-color="#ffd302"/>
      <stop offset="1" stop-color="#f79c1a"/>
    </linearGradient>
  </defs>
  <g id="Group_1008" data-name="Group 1008" transform="translate(-188.46 -168)">
    <path id="Path_275" data-name="Path 275" d="M408.151,130.65a7.267,7.267,0,0,1,10.275-.5l.189.172a7.293,7.293,0,0,1,.5,10.292l-43.393,47.926a7.266,7.266,0,0,1-10.275.5l-.19-.172a7.293,7.293,0,0,1-.5-10.291L385.378,155.8l-7.329,8.094a7.266,7.266,0,0,1-10.275.5l-.19-.172a7.294,7.294,0,0,1-.5-10.292l43.393-47.926a7.267,7.267,0,0,1,10.276-.5l.189.172a7.294,7.294,0,0,1,.5,10.292Zm2.7-47.559a4.6,4.6,0,1,1,4.593-4.6A4.6,4.6,0,0,1,410.848,83.091Zm-30.512,40.962a3.4,3.4,0,1,1,3.4-3.4A3.4,3.4,0,0,1,380.336,124.053Zm-31.5,73.9a1.946,1.946,0,1,1,1.942-1.946A1.944,1.944,0,0,1,348.837,197.958ZM344.951,87.35a1.946,1.946,0,1,1,1.943-1.945A1.943,1.943,0,0,1,344.951,87.35Zm.193,53a2.717,2.717,0,1,1-3.84,0A2.721,2.721,0,0,1,345.144,140.353ZM331.49,154.028a2.718,2.718,0,1,1,3.841,0A2.723,2.723,0,0,1,331.49,154.028Zm0-19.658a2.718,2.718,0,1,1,3.841,0A2.723,2.723,0,0,1,331.49,134.37Zm-9.813-13.676a2.718,2.718,0,1,1,0,3.847A2.712,2.712,0,0,1,321.677,120.694Zm3.84,39.317a2.718,2.718,0,1,1-3.84,0A2.724,2.724,0,0,1,325.517,160.011Zm-3.841-19.658a2.718,2.718,0,1,1,0,3.846A2.714,2.714,0,0,1,321.676,140.353Zm-55.37-14.967a9.7,9.7,0,0,1-13.72.671l-.253-.23a9.739,9.739,0,0,1-.671-13.741L236.3,129.057a9.7,9.7,0,0,1-13.719.671l-.253-.23a9.739,9.739,0,0,1-.671-13.741l31.934-35.27a9.7,9.7,0,0,1-13.719.671l-.253-.23c-.1-.09-.186-.189-.28-.282L236.9,83.407a21.709,21.709,0,0,1-4.49-.156l4.874-5.532a9.77,9.77,0,0,1-.839-4.3l-7.877,8.941a21.9,21.9,0,0,1-3.377-1.418l28.174-31.981c.3.438.584.891.855,1.35L296.885,3.194A9.7,9.7,0,0,1,310.6,2.523l.253.23a9.739,9.739,0,0,1,.671,13.741L279.263,52.13l.331-.365a9.7,9.7,0,0,1,13.719-.672l.253.23a9.739,9.739,0,0,1,.671,13.741L309.6,48.094a9.7,9.7,0,0,1,13.72-.672l.253.23a9.741,9.741,0,0,1,.67,13.742ZM219.627,76.759l28.911-32.817a21.859,21.859,0,0,1,2.6,2.3L222.226,79.061A21.774,21.774,0,0,1,219.627,76.759Zm-4.062-5.892,26.627-30.225a22,22,0,0,1,3.377,1.418L217.4,74.041A22.033,22.033,0,0,1,215.565,70.867ZM213.5,62.711,233.86,39.6a21.779,21.779,0,0,1,4.49.156L214.2,67.161A21.849,21.849,0,0,1,213.5,62.711Zm.829-7.305a21.905,21.905,0,0,1,13.879-14.642L213.947,56.949C214.056,56.434,214.178,55.92,214.326,55.406ZM198.067,222.341a1.946,1.946,0,1,1,1.942-1.945A1.944,1.944,0,0,1,198.067,222.341Zm21.349-59.02-.253-.23a9.722,9.722,0,0,1,13.05-14.413l.253.23a9.722,9.722,0,0,1-13.05,14.413Zm37.216-.182a4.6,4.6,0,1,1,4.593-4.6A4.6,4.6,0,0,1,256.632,163.139Zm3.2,32.058.234.213a9.016,9.016,0,0,1,.621,12.721l-16.428,18.143a8.983,8.983,0,0,1,12.7-.62l.235.213c3.678,3.341-38.938,58.024-39.444,56.97-16.908,18.675-27.59-24.1-24.254-27.779l53.636-59.239A8.981,8.981,0,0,1,259.829,195.2ZM151.245,215.168c24.532-25.965,24.769-24.474,4.489.156A21.7,21.7,0,0,1,151.245,215.168Zm-12.787-6.492q44.763-48.174,2.6,2.3A21.773,21.773,0,0,1,138.458,208.676Zm8.944,5.6a21.938,21.938,0,0,1-3.377-1.418Zm13.988-.122ZM264.9,190.062l-.234-.212a9.016,9.016,0,0,1-.621-12.721l9.705-10.719a8.982,8.982,0,0,1,12.7-.622l.234.213a9.016,9.016,0,0,1,.62,12.721l-9.7,10.719A8.982,8.982,0,0,1,264.9,190.062Zm40.984-49.709a2.717,2.717,0,1,1-3.84,0A2.721,2.721,0,0,1,305.889,140.353Zm5.974-5.983a2.717,2.717,0,1,1,3.84,0A2.721,2.721,0,0,1,311.863,134.37Zm3.84,19.658a2.717,2.717,0,1,1,0-3.846A2.711,2.711,0,0,1,315.7,154.028Z" transform="translate(50.002 167.999)" fill="#efefef" fill-rule="evenodd" opacity="0.5"/>
    <path id="Path_237" data-name="Path 237" d="M228.037,47.737,208.131,73.469a4.949,4.949,0,0,1-3.911,1.923,4.888,4.888,0,0,1-1.7-.275L165.2,61.636a4.956,4.956,0,0,1-3.216-5.474l2.329-14.345c-.747-2.3-6.937-16.1-49.666-16.1-42.336,0-48.817,13.5-49.676,16.148l2.355,14.293a4.976,4.976,0,0,1-3.216,5.474L26.808,75.116a4.975,4.975,0,0,1-1.684.292,5.041,5.041,0,0,1-3.972-1.939L1.246,47.737a4.911,4.911,0,0,1-.758-4.53C1.056,41.4,15.772,0,114.651,0,213.5,0,228.254,41.4,228.82,43.206A4.82,4.82,0,0,1,228.037,47.737ZM35.423,98.188,62.757,84.529a7.7,7.7,0,0,0,1.985-1.991l1.488-2.977L78.392,55.279a16.765,16.765,0,0,1,14.244-8.786h44.01a16.071,16.071,0,0,1,8.639,2.711,15.91,15.91,0,0,1,5.605,6.075l12.154,24.265,1.514,3.02a7.666,7.666,0,0,0,1.994,1.982l27.309,13.642a16.421,16.421,0,0,1,8.8,14.209v30.752a26.413,26.413,0,0,1-26.408,26.358H149.85a8.789,8.789,0,0,0-8.8-8.787H88.235a8.79,8.79,0,0,0-8.8,8.787H53.026A26.411,26.411,0,0,1,26.62,143.149V112.4A16.419,16.419,0,0,1,35.423,98.188Zm79.237,32.794a31.92,31.92,0,1,0-31.979-31.92A31.95,31.95,0,0,0,114.66,130.982Zm.551-44.578a13.208,13.208,0,1,1-13.233,13.208A13.221,13.221,0,0,1,115.211,86.4Z" transform="translate(205.843 218.248)" fill-rule="evenodd" fill="url(#linear-gradient)"/>
  </g>
</svg>
