<svg xmlns="http://www.w3.org/2000/svg" width="32" height="32" viewBox="0 0 32 32"><g transform="translate(-1596 -795)"><rect width="32" height="32" rx="4" transform="translate(1596 795)" fill="#f8a000" opacity="0.2"/><g transform="translate(1604 803)"><path d="M5.833,116.335A2.837,2.837,0,0,1,3,113.5v-6.833H1.833A1.835,1.835,0,0,0,0,108.5v9a1.835,1.835,0,0,0,1.833,1.833h8.333A1.835,1.835,0,0,0,12,117.5v-1.167Zm0,0" transform="translate(0 -103.335)" fill="#f8a000"/><path d="M138.667,1.833A1.833,1.833,0,0,0,136.833,0h-7A1.833,1.833,0,0,0,128,1.833v8.333A1.833,1.833,0,0,0,129.833,12h7a1.833,1.833,0,0,0,1.833-1.833Zm0,0" transform="translate(-124)" fill="#f8a000"/></g></g></svg>