<svg xmlns="http://www.w3.org/2000/svg" width="20" height="20" viewBox="0 0 20 20">
  <g id="Group_12182" data-name="Group 12182" transform="translate(24086 21932)">
    <ellipse id="Ellipse_261" data-name="Ellipse 261" cx="8" cy="9" rx="8" ry="9" transform="translate(-24084 -21931)" fill="#d2e1f8"/>
    <g id="Group_12181" data-name="Group 12181" transform="translate(-25019 -21998)">
      <g id="refresh" transform="translate(933.001 66)">
        <path id="Path_16417" data-name="Path 16417" d="M2.4,10.922A7.913,7.913,0,0,1,2.343,10,7.624,7.624,0,0,1,15.136,4.363l-.676.688a.6.6,0,0,0-.152.586.613.613,0,0,0,.445.4c.118.024,3.993,1.272,3.746,1.223a.593.593,0,0,0,.692-.691c-.024-.118-.882-4.422-.832-4.176a.58.58,0,0,0-.984-.293L16.8,2.66A10.007,10.007,0,0,0,0,10v.023c0,.33.015.586.033.781a.586.586,0,0,0,.469.522l1.2.241a.586.586,0,0,0,.7-.645Zm0,0" fill="#256bd1"/>
        <path id="Path_16418" data-name="Path 16418" d="M39.148,215.679l-1.207-.246a.586.586,0,0,0-.7.645,7.976,7.976,0,0,1,.06.928,7.615,7.615,0,0,1-12.793,5.625l.676-.676a.6.6,0,0,0,.152-.586.613.613,0,0,0-.445-.4c-.118-.024-3.993-1.272-3.746-1.223a.574.574,0,0,0-.527.164.584.584,0,0,0-.164.527l.832,4.137a.587.587,0,0,0,.41.445.563.563,0,0,0,.574-.152l.563-.562a9.985,9.985,0,0,0,16.812-7.3v-.035c0-.26-.009-.515-.031-.768a.586.586,0,0,0-.467-.524Zm0,0" transform="translate(-19.647 -207.006)" fill="#256bd1"/>
      </g>
      <path id="Path_16419" data-name="Path 16419" d="M6.8-10.118h-1.5a2.867,2.867,0,0,1,.453,1.209H7.146L6.8-7.659H5.766a2.54,2.54,0,0,1-.907,1.734,3.905,3.905,0,0,1-2.136.718l3.2,3.743v.089H3.953L.457-5.448.45-6.5H2.188a2.07,2.07,0,0,0,1.219-.319,1.526,1.526,0,0,0,.6-.841H.313l.35-1.25H3.98Q3.644-9.974,2.16-9.974H.313l.371-1.4h6.47Z" transform="translate(939.688 83.375)" fill="#256bd1"/>
    </g>
  </g>
</svg>
