<svg xmlns="http://www.w3.org/2000/svg" width="32" height="32" viewBox="0 0 32 32">
  <g id="Group_36996" data-name="Group 36996" transform="translate(10672 11585)">
    <rect id="Rectangle_22268" data-name="Rectangle 22268" width="32" height="32" rx="2" transform="translate(-10672 -11585)" fill="#feeccc"/>
    <g id="Group_36995" data-name="Group 36995" transform="translate(5 42)">
      <path id="Path_33504" data-name="Path 33504" d="M5,6h7.048" transform="translate(-10670.181 -11622.477)" fill="none" stroke="#f8a000" stroke-linecap="round" stroke-width="1"/>
      <path id="Path_33505" data-name="Path 33505" d="M5,11h7.048" transform="translate(-10670.181 -11623.952)" fill="none" stroke="#f8a000" stroke-linecap="round" stroke-width="1"/>
      <path id="Path_33506" data-name="Path 33506" d="M5,16H9.933" transform="translate(-10670.181 -11625.429)" fill="none" stroke="#f8a000" stroke-linecap="round" stroke-width="1"/>
      <path id="Path_33509" data-name="Path 33509" d="M8.048,19.324H3.819A2.819,2.819,0,0,1,1,16.505V3.819A2.819,2.819,0,0,1,3.819,1h7.048a2.819,2.819,0,0,1,2.819,2.819V9.81" transform="translate(-10669 -11621)" fill="none" stroke="#f8a000" stroke-linecap="round" stroke-width="1"/>
      <g id="Icon_feather-plus-circle" data-name="Icon feather-plus-circle" transform="translate(-10660.247 -11609.024)">
        <path id="Path_33510" data-name="Path 33510" d="M10.349,6.674A3.674,3.674,0,1,1,6.674,3,3.674,3.674,0,0,1,10.349,6.674Z" transform="translate(-3 -3)" fill="none" stroke="#f8a000" stroke-linecap="round" stroke-linejoin="round" stroke-width="1"/>
        <path id="Path_33511" data-name="Path 33511" d="M18,12v2.939" transform="translate(-14.326 -9.795)" fill="none" stroke="#f8a000" stroke-linecap="round" stroke-linejoin="round" stroke-width="1"/>
        <path id="Path_33512" data-name="Path 33512" d="M12,18h2.939" transform="translate(-9.795 -14.326)" fill="none" stroke="#f8a000" stroke-linecap="round" stroke-linejoin="round" stroke-width="1"/>
      </g>
    </g>
  </g>
</svg>
