<svg xmlns="http://www.w3.org/2000/svg" width="32" height="32" viewBox="0 0 32 32"><g transform="translate(-1755 -2286)"><g transform="translate(1755 2286)" fill="#fc5774" stroke="#fc5774" stroke-width="1" opacity="0.2"><rect width="32" height="32" rx="4" stroke="none"/><rect x="0.5" y="0.5" width="31" height="31" rx="3.5" fill="none"/></g><path d="M2.35,14.65a1.2,1.2,0,0,0,1.692,0L8.5,10.192l4.458,4.458a1.2,1.2,0,1,0,1.692-1.692L10.192,8.5,14.65,4.042A1.2,1.2,0,1,0,12.958,2.35L8.5,6.808,4.042,2.35A1.2,1.2,0,0,0,2.35,4.042L6.808,8.5,2.35,12.958A1.2,1.2,0,0,0,2.35,14.65Z" transform="translate(1763 2293)" fill="#fc5774"/></g></svg>