<svg xmlns="http://www.w3.org/2000/svg" width="32" height="32" viewBox="0 0 32 32"><defs><style>.a,.b{fill:#7959f6;}.a{stroke:#7959f6;opacity:0.2;}.c{stroke:none;}.d{fill:none;}</style></defs><g transform="translate(-1456 -394)"><g class="a" transform="translate(1456 394)"><rect class="c" width="32" height="32" rx="4"/><rect class="d" x="0.5" y="0.5" width="31" height="31" rx="3.5"/></g><g transform="translate(1435.004 394.039)"><path class="b" d="M43.5,351.791a1.077,1.077,0,0,0-1.077,1.077v1.679H32.15v-1.679a1.077,1.077,0,0,0-2.154,0v2.756a1.077,1.077,0,0,0,1.077,1.077H43.5a1.077,1.077,0,0,0,1.077-1.077v-2.756A1.077,1.077,0,0,0,43.5,351.791Z" transform="translate(0 -332.74)"/><path class="b" d="M129.283,20.2a.46.46,0,0,0,.65,0l3.775-3.775a.385.385,0,0,0-.272-.656h-1.772V8.8a.84.84,0,0,0-.841-.841h-2.429a.84.84,0,0,0-.841.841v6.964H125.78a.385.385,0,0,0-.272.656Z" transform="translate(-92.322)"/></g></g></svg>