<svg xmlns="http://www.w3.org/2000/svg" width="14.579" height="16" viewBox="0 0 14.579 16"><defs><style>.a{fill:#7959f6;}</style></defs><g transform="translate(-29.996 -7.961)"><path class="a" d="M43.5,351.791a1.077,1.077,0,0,0-1.077,1.077v1.679H32.15v-1.679a1.077,1.077,0,0,0-2.154,0v2.756a1.077,1.077,0,0,0,1.077,1.077H43.5a1.077,1.077,0,0,0,1.077-1.077v-2.756A1.077,1.077,0,0,0,43.5,351.791Z" transform="translate(0 -332.74)"/><path class="a" d="M129.283,20.2a.46.46,0,0,0,.65,0l3.775-3.775a.385.385,0,0,0-.272-.656h-1.772V8.8a.84.84,0,0,0-.841-.841h-2.429a.84.84,0,0,0-.841.841v6.964H125.78a.385.385,0,0,0-.272.656Z" transform="translate(-92.322)"/></g></svg>