<svg xmlns="http://www.w3.org/2000/svg" width="480.785" height="353.278" viewBox="0 0 480.785 353.278">
  <g id="error_image" transform="translate(-628.941 -424.423)">
    <g id="Group_7" data-name="Group 7" transform="translate(-283.852 297.423)">
      <rect id="Rectangle_1" data-name="Rectangle 1" width="65.661" height="56.832" transform="translate(1135.157 147.416)" fill="#21396f"/>
      <rect id="Rectangle_2" data-name="Rectangle 2" width="188.154" height="156.151" transform="translate(912.793 163.417)" fill="#21396f"/>
      <rect id="Rectangle_3" data-name="Rectangle 3" width="75.041" height="9.38" transform="translate(969.35 189.35)" fill="#fff"/>
      <rect id="Rectangle_4" data-name="Rectangle 4" width="52.142" height="5.518" transform="translate(938.451 211.421)" fill="#fff"/>
      <rect id="Rectangle_5" data-name="Rectangle 5" width="52.142" height="5.518" transform="translate(980.385 247.838)" fill="#fff"/>
      <rect id="Rectangle_6" data-name="Rectangle 6" width="52.142" height="5.518" transform="translate(1022.32 211.421)" fill="#39a6ff"/>
      <rect id="Rectangle_7" data-name="Rectangle 7" width="47.452" height="2.554" transform="translate(1143.986 179.418)" fill="#fff"/>
      <rect id="Rectangle_8" data-name="Rectangle 8" width="47.452" height="2.554" transform="translate(1143.434 185.038)" fill="#fff"/>
      <rect id="Rectangle_9" data-name="Rectangle 9" width="47.452" height="2.554" transform="translate(1143.986 190.658)" fill="#fff"/>
      <rect id="Rectangle_10" data-name="Rectangle 10" width="47.452" height="2.554" transform="translate(1143.986 160.658)" fill="#fff"/>
      <rect id="Rectangle_11" data-name="Rectangle 11" width="47.452" height="2.554" transform="translate(1143.434 166.278)" fill="#fff"/>
      <rect id="Rectangle_12" data-name="Rectangle 12" width="47.452" height="2.554" transform="translate(1143.986 171.898)" fill="#fff"/>
      <rect id="Rectangle_13" data-name="Rectangle 13" width="65.661" height="56.832" transform="translate(1153.917 166.176)" fill="#21396f"/>
      <rect id="Rectangle_14" data-name="Rectangle 14" width="47.452" height="2.554" transform="translate(1162.746 198.179)" fill="#fff"/>
      <rect id="Rectangle_15" data-name="Rectangle 15" width="47.452" height="2.554" transform="translate(1162.194 203.798)" fill="#fff"/>
      <rect id="Rectangle_16" data-name="Rectangle 16" width="47.452" height="2.554" transform="translate(1162.746 209.418)" fill="#fff"/>
      <rect id="Rectangle_17" data-name="Rectangle 17" width="47.452" height="2.554" transform="translate(1162.746 179.418)" fill="#fff"/>
      <rect id="Rectangle_18" data-name="Rectangle 18" width="47.452" height="2.554" transform="translate(1162.194 185.038)" fill="#fff"/>
      <rect id="Rectangle_19" data-name="Rectangle 19" width="47.452" height="2.554" transform="translate(1162.746 190.658)" fill="#fff"/>
      <rect id="Rectangle_27" data-name="Rectangle 27" width="136.84" height="5.518" transform="translate(938.451 229.63)" fill="#fff"/>
      <rect id="Rectangle_28" data-name="Rectangle 28" width="30.623" height="5.518" transform="translate(938.451 247.838)" fill="#39a6ff"/>
      <rect id="Rectangle_29" data-name="Rectangle 29" width="30.623" height="5.518" transform="translate(938.451 284.255)" fill="#fff"/>
      <rect id="Rectangle_30" data-name="Rectangle 30" width="30.623" height="5.518" transform="translate(1043.839 247.838)" fill="#fff"/>
      <rect id="Rectangle_31" data-name="Rectangle 31" width="136.84" height="5.518" transform="translate(938.451 266.046)" fill="#fff"/>
      <rect id="Rectangle_32" data-name="Rectangle 32" width="80.283" height="5.518" transform="translate(995.007 284.255)" fill="#fff"/>
      <path id="Path_125" data-name="Path 125" d="M554.739,95.152l-.876-.671L613.62,16.465h59.313v1.1H614.165Z" transform="translate(507.471 119.363)" fill="#2f2e41"/>
      <circle id="Ellipse_21" data-name="Ellipse 21" cx="8.828" cy="8.828" r="8.828" transform="translate(1171.574 127)" fill="#39a6ff"/>
    </g>
    <g id="Group_6" data-name="Group 6" transform="translate(236.857 274.423)">
      <path id="Path_90" data-name="Path 90" d="M607.206,334.447c-.322,1.322-1.709,2.381-3.245,3.12-3.23,1.555-7.213,2.019-11.077,2.175a18.7,18.7,0,0,1-2.957-.055,8.5,8.5,0,0,1-5.071-2.331.7.7,0,0,1,.018-1.177c2.057-2.26,5.49-3.645,8.948-4.643,2.622-.757,7.2-2.716,10.055-2.452C606.647,329.342,607.613,332.778,607.206,334.447Z" transform="translate(62.036 3.229)" fill="#3f3d56"/>
      <path id="Path_91" data-name="Path 91" d="M607.206,334.447c-.322,1.322-1.709,2.381-3.245,3.12-3.23,1.555-7.213,2.019-11.077,2.175a18.7,18.7,0,0,1-2.957-.055,8.5,8.5,0,0,1-5.071-2.331.7.7,0,0,1,.018-1.177c2.057-2.26,5.49-3.645,8.948-4.643,2.622-.757,7.2-2.716,10.055-2.452C606.647,329.342,607.613,332.778,607.206,334.447Z" transform="translate(62.036 3.229)" opacity="0.1"/>
      <g id="Group_1" data-name="Group 1" transform="translate(436.142 326)">
        <ellipse id="Ellipse_9" data-name="Ellipse 9" cx="218.363" cy="14.456" rx="218.363" ry="14.456" transform="translate(0 148.365)" fill="#f2f2f2"/>
        <path id="Path_83" data-name="Path 83" d="M496.95,324.894c-35.577,0-61.121,22.825-61.121,76.085,0,60.361,25.544,76.339,61.121,76.339s62.643-17.5,62.643-76.339C559.594,338.082,532.528,324.894,496.95,324.894Zm.234,132.387c-24.642,0-37.515-14.457-37.515-56.264,0-36.889,13.4-56.342,38.042-56.342s38.042,12.778,38.042,56.342c0,40.753-13.928,56.264-38.569,56.264Z" transform="translate(-286.956 -320.329)" fill="#21396f"/>
        <path id="Path_84" data-name="Path 84" d="M228.181,443.7h-14.71V400.38A8.675,8.675,0,0,0,204.8,391.7H201.35a8.675,8.675,0,0,0-8.675,8.675V443.7H151.184a4.952,4.952,0,0,1-4.379-7.266l43.914-83.115a8.675,8.675,0,0,0-3.966-11.9l-2.592-1.224a8.675,8.675,0,0,0-11.355,3.755L119.247,444.141a11.763,11.763,0,0,0-1.389,5.545h0a11.763,11.763,0,0,0,11.763,11.763h63.054V488.84a10.4,10.4,0,0,0,10.4,10.4h0a10.4,10.4,0,0,0,10.4-10.4V461.449h14.71a8.877,8.877,0,0,0,8.877-8.877h0a8.877,8.877,0,0,0-8.877-8.876Z" transform="translate(-100.612 -328.808)" fill="#39a6ff"/>
        <path id="Path_85" data-name="Path 85" d="M886.177,443.7h-14.71V400.38a8.675,8.675,0,0,0-8.674-8.675h-3.447a8.675,8.675,0,0,0-8.675,8.675V443.7H809.18a4.952,4.952,0,0,1-4.379-7.266l43.914-83.115a8.675,8.675,0,0,0-3.966-11.9l-2.592-1.224a8.675,8.675,0,0,0-11.355,3.755L777.244,444.141a11.763,11.763,0,0,0-1.389,5.545h0a11.763,11.763,0,0,0,11.763,11.763h63.053V488.84a10.4,10.4,0,0,0,10.4,10.4h0a10.4,10.4,0,0,0,10.4-10.4V461.449h14.71a8.877,8.877,0,0,0,8.877-8.877h0a8.876,8.876,0,0,0-8.877-8.876Z" transform="translate(-486.225 -328.808)" fill="#39a6ff"/>
        <path id="Path_86" data-name="Path 86" d="M237.984,431.443h-14.71V388.127a8.675,8.675,0,0,0-8.675-8.675h-3.447a8.675,8.675,0,0,0-8.675,8.675v43.316H160.986a4.952,4.952,0,0,1-4.379-7.266l43.914-83.115a8.675,8.675,0,0,0-3.966-11.9l-2.592-1.224a8.675,8.675,0,0,0-11.355,3.755L129.05,431.888a11.763,11.763,0,0,0-1.389,5.545h0A11.763,11.763,0,0,0,139.424,449.2h63.053v27.39a10.4,10.4,0,0,0,10.4,10.4h0a10.4,10.4,0,0,0,10.4-10.4V449.2h14.71a8.877,8.877,0,0,0,8.877-8.877h0a8.877,8.877,0,0,0-8.876-8.876Z" transform="translate(-106.357 -321.627)" fill="none" stroke="#3f3d56" stroke-miterlimit="10" stroke-width="1"/>
        <path id="Path_87" data-name="Path 87" d="M904.557,431.443h-14.71V388.127a8.675,8.675,0,0,0-8.675-8.675h-3.446a8.675,8.675,0,0,0-8.675,8.675v43.316H827.56a4.952,4.952,0,0,1-4.379-7.266L867.1,341.063a8.675,8.675,0,0,0-3.966-11.9l-2.592-1.224a8.675,8.675,0,0,0-11.355,3.755L795.623,431.888a11.763,11.763,0,0,0-1.389,5.545h0A11.763,11.763,0,0,0,806,449.2h63.054v27.39a10.4,10.4,0,0,0,10.4,10.4h0a10.4,10.4,0,0,0,10.4-10.4V449.2h14.71a8.877,8.877,0,0,0,8.877-8.877h0a8.877,8.877,0,0,0-8.877-8.876Z" transform="translate(-496.996 -321.627)" fill="none" stroke="#3f3d56" stroke-miterlimit="10" stroke-width="1"/>
        <path id="Path_88" data-name="Path 88" d="M516.555,313.866c-35.577,0-61.121,22.825-61.121,76.085,0,60.361,25.544,76.339,61.121,76.339s62.643-17.5,62.643-76.339C579.2,327.054,552.133,313.866,516.555,313.866Zm.234,132.387c-24.642,0-37.515-14.457-37.515-56.264,0-36.889,13.4-56.342,38.042-56.342s38.042,12.778,38.042,56.342c0,40.753-13.928,56.264-38.569,56.264Z" transform="translate(-298.445 -313.866)" fill="none" stroke="#3f3d56" stroke-miterlimit="10" stroke-width="1"/>
        <ellipse id="Ellipse_14" data-name="Ellipse 14" cx="7.037" cy="9.107" rx="7.037" ry="9.107" transform="translate(186.614 58.424)" fill="#2f2e41"/>
        <ellipse id="Ellipse_15" data-name="Ellipse 15" cx="7.037" cy="9.107" rx="7.037" ry="9.107" transform="translate(224.905 58.631)" fill="#2f2e41"/>
        <path id="Path_122" data-name="Path 122" d="M587.165,531.951c0,4.115-5.746,7.451-12.833,7.451s-12.833-3.336-12.833-7.451c0-3.564,4.309-6.545,10.067-7.273a20.731,20.731,0,0,1,2.765-.178,20.979,20.979,0,0,1,4.607.5C583.75,526.069,587.165,528.78,587.165,531.951Z" transform="translate(-360.604 -437.306)" fill="#2f2e41"/>
        <ellipse id="Ellipse_16" data-name="Ellipse 16" cx="7.037" cy="9.107" rx="7.037" ry="9.107" transform="translate(188.27 56.354)" fill="none" stroke="#3f3d56" stroke-miterlimit="10" stroke-width="1"/>
        <ellipse id="Ellipse_17" data-name="Ellipse 17" cx="7.037" cy="9.107" rx="7.037" ry="9.107" transform="translate(226.561 56.561)" fill="none" stroke="#3f3d56" stroke-miterlimit="10" stroke-width="1"/>
        <ellipse id="Ellipse_18" data-name="Ellipse 18" cx="12.833" cy="7.451" rx="12.833" ry="7.451" transform="translate(202.551 85.124)" fill="none" stroke="#3f3d56" stroke-miterlimit="10" stroke-width="1"/>
        <circle id="Ellipse_19" data-name="Ellipse 19" cx="2.07" cy="2.07" r="2.07" transform="translate(193.237 60.908)" fill="#fff"/>
        <circle id="Ellipse_20" data-name="Ellipse 20" cx="2.07" cy="2.07" r="2.07" transform="translate(231.735 60.908)" fill="#fff"/>
      </g>
    </g>
  </g>
</svg>
