<svg xmlns="http://www.w3.org/2000/svg" width="31.999" height="30" viewBox="0 0 31.999 30"><defs><style>.a{fill:#256bd1;}</style></defs><path class="a" d="M31,19.991H18v-3a1,1,0,0,0-.362-.77.983.983,0,0,0-.822-.212l-16,3A1,1,0,0,0,0,19.991v22a1,1,0,0,0,.816.982l16,3a.941.941,0,0,0,.184.018,1,1,0,0,0,1-1v-3H31a1,1,0,0,0,1-1v-20A1,1,0,0,0,31,19.991ZM13.751,34.332a1,1,0,1,1-1.5,1.316L9.34,32.326l-2.55,3.28a1,1,0,0,1-1.58-1.23L8,30.792l-2.75-3.144a1,1,0,0,1,1.506-1.316l2.5,2.852,2.962-3.808a1,1,0,1,1,1.578,1.23l-3.2,4.112ZM30,39.99H18v-2h3a1,1,0,0,0,0-2H18v-2h3a1,1,0,0,0,0-2H18v-2h3a1,1,0,1,0,0-2H18v-2h3a1,1,0,0,0,0-2H18v-2H30Z" transform="translate(0 -15.989)"/><g transform="translate(23.999 8.001)"><g transform="translate(0 0)"><path class="a" d="M387,144.011h-2a1,1,0,1,0,0,2h2a1,1,0,1,0,0-2Z" transform="translate(-384 -144.011)"/></g></g><g transform="translate(23.999 12.001)"><g transform="translate(0 0)"><path class="a" d="M387,208.011h-2a1,1,0,0,0,0,2h2a1,1,0,1,0,0-2Z" transform="translate(-384 -208.011)"/></g></g><g transform="translate(23.999 16.001)"><g transform="translate(0 0)"><path class="a" d="M387,272.011h-2a1,1,0,0,0,0,2h2a1,1,0,1,0,0-2Z" transform="translate(-384 -272.011)"/></g></g><g transform="translate(23.999 20)"><g transform="translate(0 0)"><path class="a" d="M387,336.011h-2a1,1,0,0,0,0,2h2a1,1,0,1,0,0-2Z" transform="translate(-384 -336.011)"/></g></g></svg>