<svg xmlns="http://www.w3.org/2000/svg" width="82" height="82" viewBox="0 0 82 82">
  <g id="Group_404" data-name="Group 404" transform="translate(-165 -1003)">
    <circle id="Ellipse" cx="41" cy="41" r="41" transform="translate(165 1003)" fill="#3e559b"/>
    <path id="Forma_1" data-name="Forma 1" d="M208.315,991.83v-2.585a5.661,5.661,0,0,1,.054-.9,1.753,1.753,0,0,1,.246-.628,1,1,0,0,1,.62-.428,4.422,4.422,0,0,1,1.14-.119h2.588V982h-4.138q-3.592,0-5.159,1.7a7.163,7.163,0,0,0-1.567,5.015v3.113H199V997h3.1v15h6.216V997h4.138l.547-5.17Z" transform="translate(0 47)" fill="#fff"/>
  </g>
</svg>
