<svg xmlns="http://www.w3.org/2000/svg" width="300" height="300" viewBox="0 0 300 300">
  <g id="failed" transform="translate(-178 -175)">
    <path id="Path_275" data-name="Path 275" d="M422.475,136.314a7.7,7.7,0,0,1,10.821-.524l.2.179a7.56,7.56,0,0,1,.529,10.738l-45.7,50a7.7,7.7,0,0,1-10.821.525l-.2-.179a7.56,7.56,0,0,1-.529-10.737l21.716-23.762L390.774,171a7.7,7.7,0,0,1-10.821.525l-.2-.179a7.561,7.561,0,0,1-.529-10.738l45.7-50a7.7,7.7,0,0,1,10.822-.525l.2.179A7.561,7.561,0,0,1,436.472,121Zm2.84-49.621a4.8,4.8,0,1,1,4.837-4.8A4.818,4.818,0,0,1,425.315,86.693Zm-32.133,42.738a3.548,3.548,0,1,1,3.576-3.547A3.561,3.561,0,0,1,393.183,129.431ZM360.011,206.54a2.03,2.03,0,1,1,2.045-2.03A2.038,2.038,0,0,1,360.011,206.54Zm-4.092-115.4a2.03,2.03,0,1,1,2.046-2.029A2.037,2.037,0,0,1,355.918,91.137Zm.2,55.3a2.821,2.821,0,0,1,0,4.013,2.875,2.875,0,0,1-4.044,0,2.823,2.823,0,0,1,0-4.013A2.875,2.875,0,0,1,356.122,146.437Zm-14.379,14.268a2.823,2.823,0,0,1,0-4.013,2.877,2.877,0,0,1,4.045,0,2.823,2.823,0,0,1,0,4.013A2.875,2.875,0,0,1,341.742,160.705Zm0-20.51a2.823,2.823,0,0,1,0-4.013,2.875,2.875,0,0,1,4.045,0,2.823,2.823,0,0,1,0,4.013A2.877,2.877,0,0,1,341.742,140.2Zm-10.334-14.269a2.875,2.875,0,0,1,4.044,0,2.824,2.824,0,0,1,0,4.014,2.875,2.875,0,0,1-4.044,0A2.822,2.822,0,0,1,331.408,125.926Zm4.044,41.021a2.824,2.824,0,0,1,0,4.014,2.877,2.877,0,0,1-4.045,0,2.823,2.823,0,0,1,0-4.014A2.875,2.875,0,0,1,335.452,166.948Zm-4.045-20.51a2.877,2.877,0,0,1,4.045,0,2.823,2.823,0,0,1,0,4.013,2.875,2.875,0,0,1-4.044,0A2.822,2.822,0,0,1,331.407,146.437ZM273.1,130.822a10.285,10.285,0,0,1-14.449.7l-.266-.24a10.1,10.1,0,0,1-.707-14.337l-16.181,17.707a10.285,10.285,0,0,1-14.448.7l-.266-.24a10.1,10.1,0,0,1-.707-14.337l33.63-36.8a10.285,10.285,0,0,1-14.448.7l-.266-.24c-.1-.094-.2-.2-.295-.294l-2.561,2.881a23.074,23.074,0,0,1-4.728-.163l5.133-5.772a10.112,10.112,0,0,1-.884-4.485l-8.3,9.329a23.179,23.179,0,0,1-3.556-1.479l29.67-33.367c.32.457.615.93.9,1.409L305.3,3.332a10.284,10.284,0,0,1,14.448-.7l.266.24a10.1,10.1,0,0,1,.707,14.337L286.741,54.39l.349-.381a10.284,10.284,0,0,1,14.448-.7l.266.24a10.1,10.1,0,0,1,.707,14.337l16.181-17.706a10.285,10.285,0,0,1,14.449-.7l.266.24a10.1,10.1,0,0,1,.706,14.338ZM223.938,80.087l30.447-34.24a22.953,22.953,0,0,1,2.737,2.4l-30.447,34.24A22.863,22.863,0,0,1,223.938,80.087Zm-4.278-6.147L247.7,42.4a23.281,23.281,0,0,1,3.556,1.479l-29.67,33.367A22.938,22.938,0,0,1,219.66,73.939Zm-2.178-8.51,21.445-24.117a23.149,23.149,0,0,1,4.728.163l-25.43,28.6A22.6,22.6,0,0,1,217.482,65.43Zm.873-7.622a22.949,22.949,0,0,1,14.616-15.277L217.956,59.418C218.071,58.88,218.2,58.344,218.356,57.808ZM201.233,231.98a2.03,2.03,0,1,1,2.045-2.029A2.038,2.038,0,0,1,201.233,231.98ZM223.716,170.4l-.266-.24a10.1,10.1,0,0,1-.706-14.337,10.285,10.285,0,0,1,14.449-.7l.266.24a10.1,10.1,0,0,1,.706,14.337A10.285,10.285,0,0,1,223.716,170.4Zm39.193-.19a4.8,4.8,0,1,1,4.837-4.8A4.819,4.819,0,0,1,262.908,170.211Zm3.367,33.448.246.222a9.346,9.346,0,0,1,.654,13.272l-17.3,18.93a9.522,9.522,0,0,1,13.373-.647l.247.222c3.873,3.486-41.006,60.539-41.539,59.44-17.806,19.485-29.055-25.14-25.542-28.983L252.9,204.308A9.521,9.521,0,0,1,266.275,203.659ZM151.924,224.5c25.835-27.091,26.085-25.535,4.727.163A23.063,23.063,0,0,1,151.924,224.5Zm-13.466-6.773q47.14-50.262,2.736,2.4A22.862,22.862,0,0,1,138.458,217.722Zm9.419,5.845a23.224,23.224,0,0,1-3.556-1.479Zm14.731-.127ZM271.621,198.3l-.246-.221a9.345,9.345,0,0,1-.654-13.272l10.22-11.184a9.522,9.522,0,0,1,13.376-.649l.246.222a9.346,9.346,0,0,1,.653,13.272L285,197.653A9.521,9.521,0,0,1,271.621,198.3Zm43.161-51.864a2.821,2.821,0,0,1,0,4.013,2.875,2.875,0,0,1-4.044,0,2.822,2.822,0,0,1,0-4.013A2.875,2.875,0,0,1,314.782,146.437Zm6.291-6.242a2.821,2.821,0,0,1,0-4.013,2.873,2.873,0,0,1,4.044,0,2.821,2.821,0,0,1,0,4.013A2.875,2.875,0,0,1,321.073,140.2Zm4.044,20.51a2.873,2.873,0,0,1-4.044,0,2.821,2.821,0,0,1,0-4.013,2.875,2.875,0,0,1,4.044,0A2.821,2.821,0,0,1,325.117,160.705Z" transform="translate(39.542 174.999)" fill="#efefef" fill-rule="evenodd" opacity="0.6"/>
    <g id="circle" transform="translate(192 191)">
      <g id="Group_4" data-name="Group 4" transform="translate(0 0)">
        <g id="Group_1" data-name="Group 1" transform="translate(10.654 10.682)">
          <path id="Path_1" data-name="Path 1" d="M179.023,319.016A121.853,121.853,0,0,1,311.777,196.075l.887-.821c-2.309-.218-4.632-.379-6.968-.468A122.874,122.874,0,0,0,178.2,312.856c-.089,2.336-.106,4.663-.066,6.982Z" transform="translate(-178.115 -194.693)" fill="#e9364a"/>
          <path id="Path_2" data-name="Path 2" d="M791.549,289.667l.657-.608a124.149,124.149,0,0,0-45.233-44.624l-.686.636a122.148,122.148,0,0,1,45.263,44.6Z" transform="translate(-563.314 -228.416)" fill="#e9364a"/>
          <path id="Path_3" data-name="Path 3" d="M446.651,527.38A122.025,122.025,0,0,1,215.1,594.367l-.686.636a122.946,122.946,0,0,0,233.067-68.387Z" transform="translate(-202.722 -419.724)" fill="#e9364a"/>
        </g>
        <g id="Group_2" data-name="Group 2" transform="translate(31.576 31.6)">
          <path id="Path_4" data-name="Path 4" d="M282.239,312.976a101.175,101.175,0,0,1,154.039-28.587l.543-.6a101.971,101.971,0,0,0-141.451,9.372,102.64,102.64,0,0,0-14.084,19.814Z" transform="translate(-268.983 -259.649)" fill="#e9364a"/>
          <path id="Path_5" data-name="Path 5" d="M244.1,558.09h-.862a103.813,103.813,0,0,0-.036,10.871,101.206,101.206,0,0,0,30.907,68.18l.543-.6A101,101,0,0,1,244.1,558.09Z" transform="translate(-243.081 -461.98)" fill="#e9364a"/>
          <path id="Path_6" data-name="Path 6" d="M830.05,413.525q-1.539-2.831-3.26-5.566l-.593.655q1.509,2.421,2.867,4.911Z" transform="translate(-638.411 -360.197)" fill="#e9364a"/>
          <path id="Path_7" data-name="Path 7" d="M565.937,558.09h-.862a101.077,101.077,0,0,1-145.727,96.5l-.593.655a101.991,101.991,0,0,0,147.228-96.362C565.97,558.615,565.952,558.353,565.937,558.09Z" transform="translate(-362.181 -461.98)" fill="#e9364a"/>
        </g>
        <g id="Group_3" data-name="Group 3" transform="translate(25.92 24.116)">
          <path id="Path_8" data-name="Path 8" d="M690.511,885.911c1.488-.621,2.98-1.283,4.437-1.97l-.344-.73c-1.445.681-2.927,1.339-4.4,1.955Z" transform="translate(-540.555 -674.917)" fill="#e9364a"/>
          <path id="Path_9" data-name="Path 9" d="M286.764,779.1l-.647.482c.963,1.291,1.966,2.578,2.982,3.821l.626-.51C288.717,781.66,287.72,780.384,286.764,779.1Z" transform="translate(-266.603 -604.335)" fill="#e9364a"/>
          <path id="Path_10" data-name="Path 10" d="M269.908,754.4l-.688.424c.842,1.367,1.727,2.736,2.631,4.067l.668-.453C271.623,757.113,270.744,755.755,269.908,754.4Z" transform="translate(-255.147 -587.586)" fill="#e9364a"/>
          <path id="Path_11" data-name="Path 11" d="M233.369,672.646l-.774.227c.453,1.548.947,3.1,1.467,4.627l.764-.261C234.309,675.728,233.819,674.182,233.369,672.646Z" transform="translate(-230.316 -532.162)" fill="#e9364a"/>
          <path id="Path_12" data-name="Path 12" d="M326.744,823.643l-.553.588c1.173,1.1,2.388,2.192,3.61,3.242l.526-.612C329.113,825.819,327.907,824.735,326.744,823.643Z" transform="translate(-293.771 -634.532)" fill="#e9364a"/>
          <path id="Path_13" data-name="Path 13" d="M255.311,728.284l-.723.361c.72,1.441,1.482,2.886,2.265,4.293l.706-.392C256.781,731.149,256.025,729.714,255.311,728.284Z" transform="translate(-245.227 -569.882)" fill="#e9364a"/>
          <path id="Path_14" data-name="Path 14" d="M243.094,700.952l-.751.295c.589,1.5,1.218,3.007,1.872,4.477l.738-.327C244.3,703.938,243.679,702.442,243.094,700.952Z" transform="translate(-236.925 -551.352)" fill="#e9364a"/>
          <path id="Path_15" data-name="Path 15" d="M662.347,897.062c1.536-.486,3.082-1.013,4.594-1.567l-.278-.758c-1.5.55-3.036,1.074-4.56,1.556Z" transform="translate(-521.507 -682.731)" fill="#e9364a"/>
          <path id="Path_16" data-name="Path 16" d="M603.737,910.972l.1.8c1.6-.211,3.213-.458,4.8-.737l-.14-.8C606.926,910.516,605.323,910.763,603.737,910.972Z" transform="translate(-481.937 -693.241)" fill="#e9364a"/>
          <path id="Path_17" data-name="Path 17" d="M633.208,904.911l.174.789c1.574-.349,3.161-.738,4.715-1.155l-.208-.78C636.345,904.18,634.771,904.566,633.208,904.911Z" transform="translate(-501.917 -688.852)" fill="#e9364a"/>
          <path id="Path_18" data-name="Path 18" d="M349.548,843.135l-.5.635c1.268.995,2.574,1.975,3.883,2.914l.47-.656C352.1,845.1,350.807,844.124,349.548,843.135Z" transform="translate(-309.268 -647.747)" fill="#e9364a"/>
          <path id="Path_19" data-name="Path 19" d="M373.994,860.565l-.441.677c1.35.88,2.739,1.742,4.126,2.563l.41-.7C376.713,862.3,375.334,861.44,373.994,860.565Z" transform="translate(-325.881 -659.563)" fill="#e9364a"/>
          <path id="Path_20" data-name="Path 20" d="M430.082,889.925c-1.013-.395-2.024-.8-3.02-1.222l-.315.743c1.138.483,2.3.944,3.454,1.39Z" transform="translate(-361.944 -678.64)" fill="#e9364a"/>
          <path id="Path_21" data-name="Path 21" d="M399.9,875.8l-.38.713c1.423.758,2.882,1.495,4.338,2.19l.348-.728C402.757,877.283,401.309,876.551,399.9,875.8Z" transform="translate(-343.483 -669.891)" fill="#e9364a"/>
          <path id="Path_22" data-name="Path 22" d="M305.761,802.245l-.6.538c1.072,1.2,2.186,2.393,3.31,3.545l.578-.564C307.93,804.62,306.825,803.436,305.761,802.245Z" transform="translate(-279.512 -620.025)" fill="#e9364a"/>
          <path id="Path_23" data-name="Path 23" d="M290.531,361.453l-.624-.513c-1.025,1.247-2.033,2.532-3,3.818l.646.485C288.513,363.966,289.514,362.691,290.531,361.453Z" transform="translate(-267.14 -320.837)" fill="#e9364a"/>
          <path id="Path_24" data-name="Path 24" d="M330.734,317.961c-1.222,1.044-2.438,2.131-3.616,3.232l.551.59c1.169-1.092,2.377-2.171,3.589-3.208Z" transform="translate(-294.399 -291.699)" fill="#e9364a"/>
          <path id="Path_25" data-name="Path 25" d="M309.351,338.52c-1.125,1.148-2.242,2.338-3.319,3.539l.6.539c1.07-1.192,2.178-2.373,3.295-3.513Z" transform="translate(-280.104 -305.637)" fill="#e9364a"/>
          <path id="Path_26" data-name="Path 26" d="M353.2,301c-1.077.78-2.151,1.579-3.2,2.395l.5.636c.923-.72,1.868-1.426,2.817-2.119Z" transform="translate(-309.915 -280.198)" fill="#e9364a"/>
          <path id="Path_27" data-name="Path 27" d="M490.983,242.505l-.141-.795c-1.431.253-2.874.543-4.3.854l.1.8C488.085,243.052,489.54,242.761,490.983,242.505Z" transform="translate(-402.484 -240.004)" fill="#e9364a"/>
          <path id="Path_28" data-name="Path 28" d="M574.065,914.454l.1.8c1.573-.07,3.164-.174,4.731-.311l-.071-.8C577.25,914.28,575.648,914.384,574.065,914.454Z" transform="translate(-461.82 -695.886)" fill="#e9364a"/>
          <path id="Path_29" data-name="Path 29" d="M272.55,385.055c-.91,1.33-1.8,2.7-2.652,4.068l.686.426c.844-1.36,1.729-2.719,2.632-4.039Z" transform="translate(-255.607 -337.186)" fill="#e9364a"/>
          <path id="Path_30" data-name="Path 30" d="M257.424,410.674c-.788,1.4-1.557,2.846-2.283,4.288l.721.364c.722-1.431,1.485-2.863,2.266-4.256Z" transform="translate(-245.601 -354.555)" fill="#e9364a"/>
          <path id="Path_31" data-name="Path 31" d="M226.6,494.587c-.392,1.565-.753,3.162-1.075,4.745l.791.161c.319-1.572.679-3.157,1.067-4.71Z" transform="translate(-225.52 -411.444)" fill="#e9364a"/>
          <path id="Path_32" data-name="Path 32" d="M244.65,437.606c-.662,1.471-1.3,2.976-1.9,4.475l.75.3c.592-1.487,1.226-2.982,1.882-4.442Z" transform="translate(-237.204 -372.813)" fill="#e9364a"/>
          <path id="Path_33" data-name="Path 33" d="M234.341,465.648c-.529,1.524-1.032,3.082-1.493,4.628l.774.231c.458-1.535.956-3.081,1.482-4.594Z" transform="translate(-230.488 -391.825)" fill="#e9364a"/>
          <path id="Path_34" data-name="Path 34" d="M884.634,664.406c.464-1.549.9-3.126,1.291-4.69l-.783-.2c-.389,1.552-.822,3.118-1.281,4.655Z" transform="translate(-671.85 -523.262)" fill="#e9364a"/>
          <path id="Path_35" data-name="Path 35" d="M864.6,430l.738-.327c-.652-1.471-1.347-2.949-2.067-4.393l-.723.36C863.262,427.077,863.952,428.544,864.6,430Z" transform="translate(-657.401 -364.459)" fill="#e9364a"/>
          <path id="Path_36" data-name="Path 36" d="M815.557,354.92l.625-.51c-1.017-1.248-2.076-2.49-3.145-3.69l-.6.537C813.5,352.448,814.547,353.68,815.557,354.92Z" transform="translate(-623.426 -313.907)" fill="#e9364a"/>
          <path id="Path_37" data-name="Path 37" d="M717.645,872.338c1.421-.747,2.845-1.539,4.233-2.35l-.408-.7c-1.377.805-2.791,1.591-4.2,2.333Z" transform="translate(-558.906 -665.48)" fill="#e9364a"/>
          <path id="Path_38" data-name="Path 38" d="M834.1,378.458l.668-.453c-.9-1.332-1.845-2.66-2.8-3.951l-.648.482C832.264,375.817,833.2,377.136,834.1,378.458Z" transform="translate(-636.224 -329.728)" fill="#e9364a"/>
          <path id="Path_39" data-name="Path 39" d="M550.4,237.217l0-.807c-1.609,0-3.242.03-4.854.1l.035.806C547.185,237.248,548.806,237.215,550.4,237.217Z" transform="translate(-442.489 -236.41)" fill="#e9364a"/>
          <path id="Path_40" data-name="Path 40" d="M514.9,239.04l.236-.031c1.59-.207,3.2-.382,4.79-.519l-.068-.8c-1.6.138-3.224.314-4.828.523l-.233.031Z" transform="translate(-421.637 -237.275)" fill="#e9364a"/>
          <path id="Path_41" data-name="Path 41" d="M580.387,237.905l.073-.8c-1.6-.145-3.235-.257-4.844-.331l-.037.806C577.177,237.651,578.795,237.761,580.387,237.905Z" transform="translate(-462.847 -236.655)" fill="#e9364a"/>
          <path id="Path_42" data-name="Path 42" d="M668.323,255.273l.284-.756c-1.516-.567-3.06-1.106-4.592-1.6l-.248.768C665.285,254.175,666.818,254.71,668.323,255.273Z" transform="translate(-522.634 -247.6)" fill="#e9364a"/>
          <path id="Path_43" data-name="Path 43" d="M639.539,246.854l.215-.779c-1.553-.428-3.141-.828-4.719-1.188l-.179.787C636.422,246.032,638,246.428,639.539,246.854Z" transform="translate(-503.034 -242.157)" fill="#e9364a"/>
          <path id="Path_44" data-name="Path 44" d="M610.136,241.049l.145-.794c-1.588-.289-3.2-.545-4.8-.761l-.109.8C606.959,240.509,608.56,240.763,610.136,241.049Z" transform="translate(-483.048 -238.501)" fill="#e9364a"/>
          <path id="Path_45" data-name="Path 45" d="M850.48,403.533l.706-.392c-.781-1.407-1.6-2.814-2.442-4.181l-.689.423C848.889,400.74,849.7,402.136,850.48,403.533Z" transform="translate(-647.575 -346.613)" fill="#e9364a"/>
          <path id="Path_46" data-name="Path 46" d="M811.676,796.3c1.077-1.2,2.142-2.435,3.165-3.679l-.623-.512c-1.015,1.234-2.073,2.462-3.143,3.652Z" transform="translate(-622.504 -613.154)" fill="#e9364a"/>
          <path id="Path_47" data-name="Path 47" d="M830.729,772.592c.967-1.286,1.92-2.613,2.831-3.944l-.666-.456c-.905,1.321-1.851,2.638-2.811,3.915Z" transform="translate(-635.391 -596.938)" fill="#e9364a"/>
          <path id="Path_48" data-name="Path 48" d="M847.681,747.352c.852-1.369,1.684-2.775,2.475-4.179l-.7-.4c-.785,1.393-1.611,2.79-2.456,4.148Z" transform="translate(-646.857 -579.708)" fill="#e9364a"/>
          <path id="Path_49" data-name="Path 49" d="M743.472,856.468c1.348-.871,2.7-1.786,4.011-2.718l-.467-.659c-1.3.927-2.643,1.835-3.982,2.7Z" transform="translate(-576.375 -654.496)" fill="#e9364a"/>
          <path id="Path_50" data-name="Path 50" d="M862.4,720.773c.728-1.439,1.433-2.914,2.1-4.383l-.736-.332c-.659,1.459-1.359,2.923-2.081,4.351Z" transform="translate(-656.81 -561.593)" fill="#e9364a"/>
          <path id="Path_51" data-name="Path 51" d="M767.877,838.406c1.267-.987,2.531-2.018,3.758-3.065l-.524-.614c-1.218,1.038-2.473,2.062-3.731,3.041Z" transform="translate(-592.881 -642.046)" fill="#e9364a"/>
          <path id="Path_52" data-name="Path 52" d="M790.673,818.3c1.177-1.1,2.347-2.238,3.475-3.385l-.577-.566c-1.119,1.139-2.28,2.27-3.449,3.36Z" transform="translate(-608.299 -628.228)" fill="#e9364a"/>
          <path id="Path_53" data-name="Path 53" d="M892.254,515.537l.8-.122c-.245-1.6-.527-3.208-.838-4.78l-.793.157C891.731,512.352,892.012,513.949,892.254,515.537Z" transform="translate(-676.976 -422.324)" fill="#e9364a"/>
          <path id="Path_54" data-name="Path 54" d="M874.748,693.053c.6-1.5,1.171-3.029,1.7-4.554l-.763-.266c-.527,1.514-1.1,3.034-1.689,4.521Z" transform="translate(-665.164 -542.73)" fill="#e9364a"/>
          <path id="Path_55" data-name="Path 55" d="M876.33,457.654l.765-.26c-.52-1.525-1.081-3.059-1.667-4.558l-.752.293C875.259,454.618,875.815,456.14,876.33,457.654Z" transform="translate(-665.623 -383.139)" fill="#e9364a"/>
          <path id="Path_56" data-name="Path 56" d="M885.568,486.242l.785-.192c-.382-1.562-.8-3.139-1.256-4.688l-.776.226C884.769,483.125,885.188,484.69,885.568,486.242Z" transform="translate(-672.162 -402.478)" fill="#e9364a"/>
          <path id="Path_57" data-name="Path 57" d="M897.175,545.258c-.1-1.6-.245-3.226-.42-4.835l-.8.088c.174,1.6.314,3.211.417,4.8Z" transform="translate(-680.048 -442.52)" fill="#e9364a"/>
          <path id="Path_58" data-name="Path 58" d="M891.959,635.076c.322-1.578.614-3.185.865-4.776l-.8-.127c-.25,1.58-.539,3.175-.859,4.741Z" transform="translate(-676.804 -503.367)" fill="#e9364a"/>
          <path id="Path_59" data-name="Path 59" d="M896.645,605.338c.18-1.6.328-3.226.436-4.833l-.805-.055c-.108,1.6-.253,3.21-.433,4.8Z" transform="translate(-679.974 -483.215)" fill="#e9364a"/>
          <path id="Path_60" data-name="Path 60" d="M898.678,575.345c.038-1.612.039-3.244.006-4.853l-.807.017c.033,1.6.031,3.218-.006,4.818Z" transform="translate(-681.348 -462.905)" fill="#e9364a"/>
        </g>
        <circle id="Ellipse_1" data-name="Ellipse 1" cx="94.426" cy="94.426" r="94.426" transform="translate(0 133.539) rotate(-45)" fill="#e9364a"/>
        <ellipse id="Ellipse_2" data-name="Ellipse 2" cx="4.372" cy="4.371" rx="4.372" ry="4.371" transform="translate(262.527 140.465)" fill="#e9364a"/>
        <path id="Path_61" data-name="Path 61" d="M850.1,269.928a2.551,2.551,0,1,1-2.551-2.55A2.55,2.55,0,0,1,850.1,269.928Z" transform="translate(-619.58 -233.289)" fill="#e9364a"/>
        <path id="Path_62" data-name="Path 62" d="M172.875,655.819a4.742,4.742,0,1,1-4.743-4.741A4.742,4.742,0,0,1,172.875,655.819Z" transform="translate(-157.478 -493.423)" fill="#e9364a"/>
        <path id="Path_150" data-name="Path 150" d="M45.2,36.517l26.04-26.04a6.138,6.138,0,0,0-8.68-8.68l-26.04,26.04L10.478,1.8a6.138,6.138,0,0,0-8.68,8.68l26.04,26.04L1.8,62.557a6.138,6.138,0,0,0,8.68,8.68L36.517,45.2l26.04,26.04a6.138,6.138,0,0,0,8.68-8.68Z" transform="translate(97.031 97.032)" fill="#fff" fill-rule="evenodd"/>
      </g>
    </g>
  </g>
</svg>
