<svg xmlns="http://www.w3.org/2000/svg" width="25.25" height="22.249" viewBox="0 0 25.25 22.249"><defs><style>.a,.b{fill:#256bd1;}.a{stroke:#256bd1;stroke-width:0.5px;}.b{stroke:#fff;}.c{fill:#fff;}.d{stroke:none;}.e{fill:none;}</style></defs><g transform="translate(-312.75 -65.751)"><g transform="translate(313 66.001)"><path class="a" d="M15.625,0H4.375A4.375,4.375,0,0,0,0,4.375v11.25A4.375,4.375,0,0,0,4.375,20h11.25A4.375,4.375,0,0,0,20,15.625V4.375A4.375,4.375,0,0,0,15.625,0ZM18.75,15.625a3.125,3.125,0,0,1-3.125,3.125H4.375A3.125,3.125,0,0,1,1.25,15.625V4.375A3.125,3.125,0,0,1,4.375,1.25h11.25A3.125,3.125,0,0,1,18.75,4.375Z"/><path class="a" d="M113.875,112h-1.25a.625.625,0,0,0-.625.625v1.25a.625.625,0,0,0,.625.625h1.25a.625.625,0,0,0,.625-.625v-1.25A.625.625,0,0,0,113.875,112Z" transform="translate(-107.625 -107.625)"/><path class="a" d="M113.875,224h-1.25a.625.625,0,0,0-.625.625v1.25a.625.625,0,0,0,.625.625h1.25a.625.625,0,0,0,.625-.625v-1.25A.625.625,0,0,0,113.875,224Z" transform="translate(-107.625 -215.25)"/><path class="a" d="M113.875,336h-1.25a.625.625,0,0,0-.625.625v1.25a.625.625,0,0,0,.625.625h1.25a.625.625,0,0,0,.625-.625v-1.25A.625.625,0,0,0,113.875,336Z" transform="translate(-107.625 -322.875)"/><rect class="a" width="7.5" height="1.25" transform="translate(8.125 5)"/><rect class="a" width="7.5" height="1.25" transform="translate(8.125 9.375)"/><rect class="a" width="7.5" height="1.25" transform="translate(8.125 13.75)"/></g><g class="b" transform="translate(324 74)"><circle class="d" cx="7" cy="7" r="7"/><circle class="e" cx="7" cy="7" r="6.5"/></g><path class="c" d="M4.357-9.559H1.125v-1.435H4.357v-3.29H5.819v3.29H9.06v1.435H5.819v3.274H4.357Z" transform="translate(325.875 91.285)"/></g></svg>