<svg xmlns="http://www.w3.org/2000/svg" xmlns:xlink="http://www.w3.org/1999/xlink" viewBox="0,0,256,256" width="52px" height="52px"><g transform="translate(19.2,19.2) scale(0.85,0.85)"><g fill="#feeccc" fill-rule="nonzero" stroke="none" stroke-width="1" stroke-linecap="butt" stroke-linejoin="miter" stroke-miterlimit="10" stroke-dasharray="" stroke-dashoffset="0" font-family="none" font-weight="none" font-size="none" text-anchor="none" style="mix-blend-mode: normal"><path d="M-22.58824,278.58824v-301.17647h301.17647v301.17647z" id="bgRectangle"></path></g><g fill="none" fill-rule="nonzero" stroke="none" stroke-width="none" stroke-linecap="butt" stroke-linejoin="none" stroke-miterlimit="10" stroke-dasharray="" stroke-dashoffset="0" font-family="none" font-weight="none" font-size="none" text-anchor="none" style="mix-blend-mode: normal"><path transform="scale(9.84615,9.84615)" d="M13.6875,0.23828c0.20703,0.19531 0.32422,0.47266 0.3125,0.76172v3c0.00391,0.35938 -0.18359,0.69531 -0.49609,0.87891c-0.3125,0.17969 -0.69531,0.17969 -1.00781,0c-0.3125,-0.18359 -0.5,-0.51953 -0.49609,-0.87891v-3c-0.01172,-0.47656 0.31641,-0.89453 0.78125,-1c0.03906,-0.01172 0.08203,-0.02344 0.125,-0.03125c0.28516,-0.02734 0.57031,0.07031 0.78125,0.26953zM4.40625,3.5c0.30469,-0.02344 0.60547,0.08984 0.8125,0.3125l2.125,2.125c0.29688,0.24219 0.43359,0.62891 0.34766,1.00391c-0.08594,0.37109 -0.37891,0.66406 -0.75,0.75c-0.375,0.08594 -0.76172,-0.05078 -1.00391,-0.34766l-2.125,-2.125c-0.27734,-0.25781 -0.38672,-0.64844 -0.28125,-1.01562c0.10547,-0.36328 0.40625,-0.63672 0.78125,-0.70312c0.03125,0 0.0625,0 0.09375,0zM22.40625,4.06641c0.18359,0.39063 0.09375,0.85547 -0.21875,1.15234l-2.125,2.125c-0.24219,0.29688 -0.62891,0.43359 -1.00391,0.34766c-0.37109,-0.08594 -0.66406,-0.37891 -0.75,-0.75c-0.08594,-0.375 0.05078,-0.76172 0.34766,-1.00391l2.125,-2.125c0.15625,-0.16797 0.36719,-0.28125 0.59375,-0.3125c0.42969,-0.05469 0.84375,0.17188 1.03125,0.56641zM18.8125,12.9375c0,3.35156 -2.84375,5.21094 -2.84375,6.90625v0.40625c0,0.41016 -0.34375,0.75 -0.75,0.75h-4.4375c-0.40625,0 -0.75,-0.33984 -0.75,-0.75v-0.40625c0,-1.69141 -2.84375,-3.60937 -2.84375,-6.90625c0,-3.21094 2.60156,-5.8125 5.8125,-5.8125c3.21094,0 5.8125,2.60156 5.8125,5.8125zM0.8125,12c0.03125,0 0.0625,0 0.09375,0c0.03125,0 3.0625,0 3.09375,0c0.35938,-0.00391 0.69531,0.18359 0.87891,0.49609c0.17969,0.3125 0.17969,0.69531 0,1.00781c-0.18359,0.3125 -0.51953,0.5 -0.87891,0.49609h-3c-0.55078,0.07813 -1.0625,-0.30859 -1.14062,-0.85937c-0.07812,-0.55078 0.30859,-1.0625 0.85938,-1.14062c0.03125,0 0.0625,0 0.09375,0zM21.8125,12c0.03125,0 0.0625,0 0.09375,0c0.03125,0 3.0625,0 3.09375,0c0.35938,-0.00391 0.69531,0.18359 0.87891,0.49609c0.17969,0.3125 0.17969,0.69531 0,1.00781c-0.18359,0.3125 -0.51953,0.5 -0.87891,0.49609h-3c-0.55078,0.07813 -1.0625,-0.30859 -1.14062,-0.85937c-0.07812,-0.55078 0.30859,-1.0625 0.85938,-1.14062c0.03125,0 0.0625,0 0.09375,0zM6.625,18.34375c0.41016,-0.00781 0.78906,0.23438 0.94531,0.61328c0.16016,0.37891 0.07031,0.82031 -0.22656,1.10547l-2.125,2.125c-0.24219,0.29688 -0.62891,0.43359 -1.00391,0.34766c-0.37109,-0.08594 -0.66406,-0.37891 -0.75,-0.75c-0.08594,-0.375 0.05078,-0.76172 0.34766,-1.00391l2.125,-2.125c0.15625,-0.16797 0.36719,-0.28125 0.59375,-0.3125c0.03125,0 0.0625,0 0.09375,0zM19.25,18.34375c0.03125,0 0.0625,0 0.09375,0c0.27344,0.00391 0.53125,0.11328 0.71875,0.3125l2.125,2.125c0.29688,0.24219 0.43359,0.62891 0.34766,1.00391c-0.08594,0.37109 -0.37891,0.66406 -0.75,0.75c-0.375,0.08594 -0.76172,-0.05078 -1.00391,-0.34766l-2.125,-2.125c-0.27734,-0.25781 -0.38672,-0.64844 -0.28125,-1.01562c0.10547,-0.36328 0.40625,-0.63672 0.78125,-0.70312c0.03125,0 0.0625,0 0.09375,0zM15.25,22c0.41016,0 0.75,0.33594 0.75,0.75v1.5c0,0.41406 -0.33984,0.75 -0.75,0.75h-0.625c-0.32812,0.57422 -0.91797,0.96875 -1.625,0.96875c-0.70703,0 -1.29687,-0.39453 -1.625,-0.96875h-0.625c-0.41016,0 -0.75,-0.33594 -0.75,-0.75v-1.5c0,-0.41406 0.33984,-0.75 0.75,-0.75z" id="strokeMainSVG" fill-opacity="0.94118" fill="#ffd282" stroke-opacity="0.94118" stroke="#ffd282" stroke-width="3" stroke-linejoin="round"></path><g transform="scale(9.84615,9.84615)" fill="#fd8f00" stroke="none" stroke-width="1" stroke-linejoin="miter"><path d="M12.90625,-0.03125c-0.04297,0.00781 -0.08594,0.01953 -0.125,0.03125c-0.46484,0.10547 -0.79297,0.52344 -0.78125,1v3c-0.00391,0.35938 0.18359,0.69531 0.49609,0.87891c0.3125,0.17969 0.69531,0.17969 1.00781,0c0.3125,-0.18359 0.5,-0.51953 0.49609,-0.87891v-3c0.01172,-0.28906 -0.10547,-0.56641 -0.3125,-0.76172c-0.21094,-0.19922 -0.49609,-0.29687 -0.78125,-0.26953zM4.3125,3.5c-0.375,0.06641 -0.67578,0.33984 -0.78125,0.70313c-0.10547,0.36719 0.00391,0.75781 0.28125,1.01563l2.125,2.125c0.24219,0.29688 0.62891,0.43359 1.00391,0.34766c0.37109,-0.08594 0.66406,-0.37891 0.75,-0.75c0.08594,-0.375 -0.05078,-0.76172 -0.34766,-1.00391l-2.125,-2.125c-0.20703,-0.22266 -0.50781,-0.33594 -0.8125,-0.3125c-0.03125,0 -0.0625,0 -0.09375,0zM21.375,3.5c-0.22656,0.03125 -0.4375,0.14453 -0.59375,0.3125l-2.125,2.125c-0.29687,0.24219 -0.43359,0.62891 -0.34766,1.00391c0.08594,0.37109 0.37891,0.66406 0.75,0.75c0.375,0.08594 0.76172,-0.05078 1.00391,-0.34766l2.125,-2.125c0.3125,-0.29687 0.40234,-0.76172 0.21875,-1.15234c-0.1875,-0.39453 -0.60156,-0.62109 -1.03125,-0.56641zM13,7.125c-3.21094,0 -5.8125,2.60156 -5.8125,5.8125c0,3.29688 2.84375,5.21484 2.84375,6.90625v0.40625c0,0.41016 0.34375,0.75 0.75,0.75h4.4375c0.40625,0 0.75,-0.33984 0.75,-0.75v-0.40625c0,-1.69531 2.84375,-3.55469 2.84375,-6.90625c0,-3.21094 -2.60156,-5.8125 -5.8125,-5.8125zM13,9.0625c0.73438,0 1.41797,0.20703 2,0.5625c-0.07031,-0.00391 -0.14844,-0.03125 -0.21875,-0.03125c-2.73047,0 -4.9375,2.21094 -4.9375,4.90625c0,0.16797 0.01563,0.33594 0.03125,0.5c-0.4375,-0.61328 -0.71875,-1.38281 -0.71875,-2.1875c0,-2.08203 1.73047,-3.75 3.84375,-3.75zM0.71875,12c-0.55078,0.07813 -0.9375,0.58984 -0.85937,1.14063c0.07813,0.55078 0.58984,0.9375 1.14063,0.85938h3c0.35938,0.00391 0.69531,-0.18359 0.87891,-0.49609c0.17969,-0.3125 0.17969,-0.69531 0,-1.00781c-0.18359,-0.3125 -0.51953,-0.5 -0.87891,-0.49609h-3c-0.03125,0 -0.0625,0 -0.09375,0c-0.03125,0 -0.0625,0 -0.09375,0c-0.03125,0 -0.0625,0 -0.09375,0zM21.71875,12c-0.55078,0.07813 -0.9375,0.58984 -0.85937,1.14063c0.07813,0.55078 0.58984,0.9375 1.14063,0.85938h3c0.35938,0.00391 0.69531,-0.18359 0.87891,-0.49609c0.17969,-0.3125 0.17969,-0.69531 0,-1.00781c-0.18359,-0.3125 -0.51953,-0.5 -0.87891,-0.49609h-3c-0.03125,0 -0.0625,0 -0.09375,0c-0.03125,0 -0.0625,0 -0.09375,0c-0.03125,0 -0.0625,0 -0.09375,0zM6.53125,18.34375c-0.22656,0.03125 -0.4375,0.14453 -0.59375,0.3125l-2.125,2.125c-0.29687,0.24219 -0.43359,0.62891 -0.34766,1.00391c0.08594,0.37109 0.37891,0.66406 0.75,0.75c0.375,0.08594 0.76172,-0.05078 1.00391,-0.34766l2.125,-2.125c0.29688,-0.28516 0.38672,-0.72656 0.22656,-1.10547c-0.15625,-0.37891 -0.53516,-0.62109 -0.94531,-0.61328c-0.03125,0 -0.0625,0 -0.09375,0zM19.15625,18.34375c-0.375,0.06641 -0.67578,0.33984 -0.78125,0.70313c-0.10547,0.36719 0.00391,0.75781 0.28125,1.01563l2.125,2.125c0.24219,0.29688 0.62891,0.43359 1.00391,0.34766c0.37109,-0.08594 0.66406,-0.37891 0.75,-0.75c0.08594,-0.375 -0.05078,-0.76172 -0.34766,-1.00391l-2.125,-2.125c-0.1875,-0.19922 -0.44531,-0.30859 -0.71875,-0.3125c-0.03125,0 -0.0625,0 -0.09375,0c-0.03125,0 -0.0625,0 -0.09375,0zM10.75,22c-0.41016,0 -0.75,0.33594 -0.75,0.75v1.5c0,0.41406 0.33984,0.75 0.75,0.75h0.625c0.32813,0.57422 0.91797,0.96875 1.625,0.96875c0.70703,0 1.29688,-0.39453 1.625,-0.96875h0.625c0.41016,0 0.75,-0.33594 0.75,-0.75v-1.5c0,-0.41406 -0.33984,-0.75 -0.75,-0.75z"></path></g></g></g></svg>