<svg xmlns="http://www.w3.org/2000/svg" width="24.615" height="20" viewBox="0 0 24.615 20"><defs><style>.b{fill:#0cbeeb;}.a{stroke:#0cbeeb;opacity:0.2;}.c{stroke:none;}.d{fill:none;}</style></defs><g transform="translate(0 -48)"><g transform="translate(0 48)"><path class="a" d="M23.846,61.846H22.308V58a.77.77,0,0,0-.769-.769H13.077V54.154h1.538a.77.77,0,0,0,.769-.769V48.769A.77.77,0,0,0,14.615,48H10a.77.77,0,0,0-.769.769v4.615a.77.77,0,0,0,.769.769h1.538v3.077H3.077A.77.77,0,0,0,2.308,58v3.846H.769A.77.77,0,0,0,0,62.615v4.615A.77.77,0,0,0,.769,68H5.385a.77.77,0,0,0,.769-.769V62.615a.77.77,0,0,0-.769-.769H3.846V58.769h7.692v3.077H10a.77.77,0,0,0-.769.769v4.615A.77.77,0,0,0,10,68h4.615a.77.77,0,0,0,.769-.769V62.615a.77.77,0,0,0-.769-.769H13.077V58.769h7.692v3.077H19.231a.77.77,0,0,0-.769.769v4.615a.77.77,0,0,0,.769.769h4.615a.77.77,0,0,0,.769-.769V62.615A.77.77,0,0,0,23.846,61.846Z" transform="translate(0 -48)"/></g></g></svg>