<?xml version="1.0" standalone="no"?>
<!DOCTYPE svg PUBLIC "-//W3C//DTD SVG 20010904//EN"
 "http://www.w3.org/TR/2001/REC-SVG-20010904/DTD/svg10.dtd">
<svg version="1.0" xmlns="http://www.w3.org/2000/svg"
 width="24pt" height="24pt" viewBox="0 0 512.000000 512.000000"
 preserveAspectRatio="xMidYMid meet">
<metadata>
</metadata>
<g transform="translate(0.000000,512.000000) scale(0.100000,-0.100000)"
fill="#0cbeeb" stroke="none">
<path d="M894 4626 c-19 -14 -19 -45 -24 -1603 -5 -1463 -7 -1595 -23 -1678
-50 -251 -168 -495 -326 -666 -33 -37 -65 -77 -70 -90 -10 -29 3 -80 26 -96
13 -10 238 -13 1044 -13 993 0 1028 1 1050 19 18 14 24 29 24 60 0 82 80 75
-955 81 l-919 5 55 80 c146 211 234 468 254 744 5 70 10 775 10 1569 l0 1442
1385 0 1385 0 0 -779 0 -780 24 -27 c18 -21 32 -28 61 -28 29 0 43 7 61 28
l24 27 0 833 c0 828 0 833 -21 860 l-20 26 -1513 0 c-1290 0 -1515 -2 -1532
-14z"/>
<path d="M1449 3611 c-37 -38 -39 -82 -4 -116 l24 -25 954 0 954 0 21 23 c28
29 29 86 3 118 l-19 24 -952 3 -951 2 -30 -29z"/>
<path d="M1441 3064 c-12 -15 -21 -39 -21 -54 0 -15 9 -39 21 -54 l20 -26 960
0 c946 0 959 0 979 20 13 13 20 33 20 60 0 27 -7 47 -20 60 -20 20 -33 20
-979 20 l-960 0 -20 -26z"/>
<path d="M1445 2525 c-32 -31 -32 -75 -1 -112 l24 -28 544 -2 c587 -3 580 -4
606 51 16 32 9 69 -18 96 -19 19 -36 20 -575 20 l-556 0 -24 -25z"/>
<path d="M3419 2530 c-109 -23 -239 -75 -337 -137 -103 -63 -241 -198 -310
-301 -60 -91 -123 -233 -143 -324 -7 -32 -15 -58 -19 -58 -3 0 -21 16 -40 35
-25 26 -42 35 -66 35 -46 0 -63 -9 -80 -42 -26 -50 -11 -77 110 -197 154 -151
149 -151 303 2 103 104 113 117 113 151 0 26 -7 44 -26 63 -22 22 -32 25 -70
20 -42 -4 -44 -3 -39 17 16 56 92 193 144 258 231 291 624 403 972 276 142
-52 286 -155 379 -271 58 -72 142 -236 165 -322 26 -95 31 -296 10 -391 -39
-181 -129 -340 -262 -464 -95 -89 -195 -148 -321 -190 -86 -29 -113 -34 -232
-37 -97 -4 -155 -1 -206 10 -143 31 -291 105 -404 204 -51 44 -68 53 -99 53
-50 0 -81 -32 -81 -85 0 -33 7 -44 53 -87 112 -103 258 -185 422 -235 84 -25
103 -27 275 -27 222 -1 292 14 465 99 208 101 369 262 470 470 84 172 100 244
100 460 0 157 -3 191 -23 265 -106 389 -420 680 -812 754 -111 21 -301 20
-411 -4z"/>
<path d="M3579 2191 l-24 -19 0 -351 0 -351 166 -165 c154 -154 168 -165 203
-165 50 0 86 36 86 86 0 35 -11 48 -145 184 l-145 146 0 302 0 303 -25 24
c-30 31 -83 33 -116 6z"/>
<path d="M1445 1985 c-46 -45 -24 -125 38 -140 12 -3 179 -5 370 -3 l349 3 19
24 c27 33 25 86 -6 116 l-24 25 -361 0 -361 0 -24 -25z"/>
</g>
</svg>
