<svg xmlns="http://www.w3.org/2000/svg" width="21.576" height="20.56" viewBox="0 0 21.576 20.56">
  <g id="Group_12168" data-name="Group 12168" transform="translate(24144.268 14033.31)">
    <path id="Path_18268" data-name="Path 18268" d="M-24142.664-14023.73l9.164-8.27,3.379,2.964v-1.921h3.795v5.743l2.795,1.483-1.971,1.5-.824,7.945-4.506.875-.486-5.879h-4.152v5h-5.4v-8.519Z" fill="#d2e1f8"/>
    <path id="Path_18267" data-name="Path 18267" d="M20.689,21.561l-1.778-1.62V14.571a.619.619,0,0,0-.619-.619H14.013a.619.619,0,0,0-.619.619v.344l-2.147-1.956a1.074,1.074,0,0,0-1.453,0l-9.441,8.6a1.079,1.079,0,0,0,.727,1.877H2.588v8.619a.619.619,0,0,0,.619.619H8.382A.619.619,0,0,0,9,32.057V26.823h3.041v5.233a.619.619,0,0,0,.619.619h5.174a.619.619,0,0,0,.619-.619V23.438h1.508a1.079,1.079,0,0,0,.727-1.877Zm-2.854.639a.619.619,0,0,0-.619.619v8.619H13.279V26.2a.619.619,0,0,0-.619-.619H8.382a.619.619,0,0,0-.619.619v5.233H3.826V22.819a.619.619,0,0,0-.619-.619H1.49l9.031-8.229,3.076,2.8a.619.619,0,0,0,1.036-.457V15.189h3.041v5.025a.619.619,0,0,0,.2.457L19.552,22.2H17.835Z" transform="translate(-24144 -14045.676)" fill="#256bd1" stroke="#256bd1" stroke-width="0.5"/>
  </g>
</svg>
