<svg xmlns="http://www.w3.org/2000/svg" width="16.965" height="20.5" viewBox="0 0 16.965 20.5"><defs><style>.a{fill:#256bd1;stroke:#256bd1;stroke-width:0.5px;}</style></defs><g transform="translate(-44.999 0.25)"><g transform="translate(45.249)"><g transform="translate(0)"><path class="a" d="M61.487,5.768,55.6.2a.727.727,0,0,0-.5-.2H45.975a.726.726,0,0,0-.726.726V19.274a.726.726,0,0,0,.726.726H60.987a.726.726,0,0,0,.726-.726V6.3A.727.727,0,0,0,61.487,5.768ZM60.261,18.547H46.7V1.453h8.113l5.446,5.155V18.547Z" transform="translate(-45.249)"/></g></g><g transform="translate(-1 -1)"><path class="a" d="M304.844,258.788l-2.086-2.486a.857.857,0,0,0-1.313,1.1l1.623,1.935-1.623,1.935a.857.857,0,1,0,1.313,1.1l2.086-2.486A.856.856,0,0,0,304.844,258.788Z" transform="translate(-244.779 -245.744)"/><g transform="translate(48.493 10.253)"><g transform="translate(0)"><path class="a" d="M131.9,261.284l-1.624-1.935,1.623-1.934a.857.857,0,0,0-1.313-1.1l-2.086,2.486a.857.857,0,0,0,0,1.1l2.086,2.486a.857.857,0,0,0,1.314-1.1Z" transform="translate(-128.305 -256.007)"/></g></g><g transform="translate(52.893 8.596)"><g transform="translate(0)"><path class="a" d="M226.007,220.058a.86.86,0,0,0-.976.719l-1.257,8.286a.857.857,0,1,0,1.695.257l1.257-8.286A.857.857,0,0,0,226.007,220.058Z" transform="translate(-223.764 -220.048)"/></g></g></g><g transform="translate(54.377 0.726)"><g transform="translate(0)"><path class="a" d="M280.388,23.439V18.6h-1.453v5.569a.726.726,0,0,0,.726.726h5.884V23.439h-5.157Z" transform="translate(-278.935 -18.596)"/></g></g></g></svg>