<svg xmlns="http://www.w3.org/2000/svg" width="82" height="82" viewBox="0 0 82 82">
  <g id="Group_403" data-name="Group 403" transform="translate(-392 -1003)">
    <circle id="Ellipse" cx="41" cy="41" r="41" transform="translate(392 1003)" fill="#9c27b0"/>
    <path id="Forma_1" data-name="Forma 1" d="M439.563,1013.5H426.438a10.939,10.939,0,0,1-10.937-10.937V989.437A10.939,10.939,0,0,1,426.438,978.5h13.125A10.939,10.939,0,0,1,450.5,989.437v13.125A10.939,10.939,0,0,1,439.563,1013.5Zm7.656-24.063a7.665,7.665,0,0,0-7.656-7.656H426.438a7.665,7.665,0,0,0-7.656,7.656v13.125a7.665,7.665,0,0,0,7.656,7.656h13.125a7.665,7.665,0,0,0,7.656-7.656Zm-4.812-1.678a1.166,1.166,0,1,1,1.166-1.166A1.166,1.166,0,0,1,442.406,987.76ZM433,1004.75a8.75,8.75,0,1,1,8.75-8.75A8.75,8.75,0,0,1,433,1004.75Zm0-14.219A5.469,5.469,0,1,0,438.469,996,5.475,5.475,0,0,0,433,990.531Z" transform="translate(0 47)" fill="#fff"/>
  </g>
</svg>
