<svg xmlns="http://www.w3.org/2000/svg" width="111.345" height="116.492" viewBox="0 0 111.345 116.492">
  <g id="invitation" transform="translate(-9.668 0)">
    <g id="Group_175" data-name="Group 175" transform="translate(9.668 0)">
      <g id="Group_174" data-name="Group 174">
        <path id="Path_204" data-name="Path 204" d="M120.129,41.513l-14.32-11.951V12.607a2.679,2.679,0,0,0-2.768-2.582H82.2L73.842,3.051a13.3,13.3,0,0,0-16.982.027L48.5,10.025H27.4a2.678,2.678,0,0,0-2.768,2.582V29.828L10.574,41.513a2.632,2.632,0,0,0-.9,2.049h.053v59.595a13.285,13.285,0,0,0,13.229,13.335h84.774a13.285,13.285,0,0,0,13.229-13.335V43.562h.053A2.416,2.416,0,0,0,120.129,41.513Zm-14.32-5.031,8.384,6.974-8.384,6.228ZM60.268,7.15a7.992,7.992,0,0,1,10.194.027l3.38,2.848H56.834Zm-30.316,8.2h70.534v38.3L70.169,76.221a8.106,8.106,0,0,1-9.609,0L29.951,53.437V15.348ZM24.628,36.722V49.471L16.51,43.429Zm91.029,66.409a7.969,7.969,0,0,1-7.905,8.038h-84.8a7.963,7.963,0,0,1-7.905-8.012v-54.3L57.42,80.506a13.336,13.336,0,0,0,15.864,0l42.374-31.647Z" transform="translate(-9.668 0)"/>
      </g>
    </g>
    <g id="Group_177" data-name="Group 177" transform="translate(46.187 36.642)">
      <g id="Group_176" data-name="Group 176">
        <path id="Path_205" data-name="Path 205" d="M163.908,137.663H149.535a2.662,2.662,0,1,0,0,5.323h14.373a2.662,2.662,0,1,0,0-5.323Z" transform="translate(-146.873 -137.663)"/>
      </g>
    </g>
    <g id="Group_179" data-name="Group 179" transform="translate(46.187 49.95)">
      <g id="Group_178" data-name="Group 178">
        <path id="Path_206" data-name="Path 206" d="M182.539,187.663h-33a2.662,2.662,0,0,0,0,5.323h33a2.662,2.662,0,0,0,0-5.323Z" transform="translate(-146.873 -187.663)"/>
      </g>
    </g>
  </g>
</svg>
