<svg xmlns="http://www.w3.org/2000/svg" width="20.5" height="20.5" viewBox="0 0 20.5 20.5"><defs><style>.a{fill:#256bd1;stroke:#256bd1;stroke-width:0.5px;}</style></defs><g transform="translate(0.25 0.25)"><path class="a" d="M15.625,0H4.375A4.375,4.375,0,0,0,0,4.375v11.25A4.375,4.375,0,0,0,4.375,20h11.25A4.375,4.375,0,0,0,20,15.625V4.375A4.375,4.375,0,0,0,15.625,0ZM18.75,15.625a3.125,3.125,0,0,1-3.125,3.125H4.375A3.125,3.125,0,0,1,1.25,15.625V4.375A3.125,3.125,0,0,1,4.375,1.25h11.25A3.125,3.125,0,0,1,18.75,4.375Z"/><path class="a" d="M113.875,112h-1.25a.625.625,0,0,0-.625.625v1.25a.625.625,0,0,0,.625.625h1.25a.625.625,0,0,0,.625-.625v-1.25A.625.625,0,0,0,113.875,112Z" transform="translate(-107.625 -107.625)"/><path class="a" d="M113.875,224h-1.25a.625.625,0,0,0-.625.625v1.25a.625.625,0,0,0,.625.625h1.25a.625.625,0,0,0,.625-.625v-1.25A.625.625,0,0,0,113.875,224Z" transform="translate(-107.625 -215.25)"/><path class="a" d="M113.875,336h-1.25a.625.625,0,0,0-.625.625v1.25a.625.625,0,0,0,.625.625h1.25a.625.625,0,0,0,.625-.625v-1.25A.625.625,0,0,0,113.875,336Z" transform="translate(-107.625 -322.875)"/><rect class="a" width="7.5" height="1.25" transform="translate(8.125 5)"/><rect class="a" width="7.5" height="1.25" transform="translate(8.125 9.375)"/><rect class="a" width="7.5" height="1.25" transform="translate(8.125 13.75)"/></g></svg>