<svg xmlns="http://www.w3.org/2000/svg" width="20" height="20" viewBox="0 0 20 20"><defs><style>.a{fill:#256bd1;}</style></defs><g transform="translate(-24 -24)"><path class="a" d="M135.559,145.694l-3.9-3.9a1.035,1.035,0,0,0-1.463,1.463l2.135,2.135h-11.3a1.034,1.034,0,0,0,0,2.069h11.3l-2.135,2.135a1.034,1.034,0,1,0,1.463,1.463l3.9-3.9A1.034,1.034,0,0,0,135.559,145.694Z" transform="translate(-91.862 -112.426)"/><path class="a" d="M36.069,39.862A1.034,1.034,0,0,0,35.034,40.9v1.034H26.069V26.069h8.966V27.1a1.034,1.034,0,1,0,2.069,0V25.724A1.724,1.724,0,0,0,35.379,24H25.724A1.724,1.724,0,0,0,24,25.724V42.276A1.724,1.724,0,0,0,25.724,44h9.655A1.724,1.724,0,0,0,37.1,42.276V40.9A1.034,1.034,0,0,0,36.069,39.862Z"/></g></svg>