<svg xmlns="http://www.w3.org/2000/svg" width="24.12" height="20" viewBox="0 0 24.12 20"><defs><style>.a{fill:#d2e1f8;}</style></defs><g transform="translate(0 -43.729)"><g transform="translate(0 52.489)"><g transform="translate(0 0)"><path class="a" d="M20.587,231.492H18.226a3.524,3.524,0,0,0-.929.125,3.536,3.536,0,0,0-3.151-1.937H9.973a3.536,3.536,0,0,0-3.151,1.937,3.524,3.524,0,0,0-.929-.125H3.533A3.537,3.537,0,0,0,0,235.026V238.8a2.122,2.122,0,0,0,2.12,2.12H22a2.122,2.122,0,0,0,2.12-2.12v-3.774A3.537,3.537,0,0,0,20.587,231.492Z" transform="translate(0 -229.68)"/></g></g><g transform="translate(1.574 47.629)"><g transform="translate(0 0)"><path class="a" d="M36.554,126.5a3.14,3.14,0,1,0,3.14,3.14A3.143,3.143,0,0,0,36.554,126.5Z" transform="translate(-33.414 -126.504)"/></g></g><g transform="translate(7.866 43.729)"><g transform="translate(0 0)"><path class="a" d="M171.157,43.729a4.195,4.195,0,1,0,4.195,4.195A4.2,4.2,0,0,0,171.157,43.729Z" transform="translate(-166.962 -43.729)"/></g></g><g transform="translate(16.267 47.629)"><g transform="translate(0 0)"><path class="a" d="M348.434,126.5a3.14,3.14,0,1,0,3.14,3.14A3.143,3.143,0,0,0,348.434,126.5Z" transform="translate(-345.294 -126.504)"/></g></g></g></svg>