<svg xmlns="http://www.w3.org/2000/svg" width="24.62" height="20.5" viewBox="0 0 24.62 20.5"><defs><style>.a{fill:#246ad0;stroke:#256bd1;stroke-width:0.5px;}</style></defs><g transform="translate(0.25 -43.479)"><g transform="translate(0 52.489)"><g transform="translate(0 0)"><path class="a" d="M20.587,231.492H18.226a3.524,3.524,0,0,0-.929.125,3.536,3.536,0,0,0-3.151-1.937H9.973a3.536,3.536,0,0,0-3.151,1.937,3.524,3.524,0,0,0-.929-.125H3.533A3.537,3.537,0,0,0,0,235.026V238.8a2.122,2.122,0,0,0,2.12,2.12H22a2.122,2.122,0,0,0,2.12-2.12v-3.774A3.537,3.537,0,0,0,20.587,231.492ZM6.44,233.213v6.293H2.12a.707.707,0,0,1-.707-.707v-3.774a2.122,2.122,0,0,1,2.12-2.12H5.894a2.113,2.113,0,0,1,.554.074C6.444,233.057,6.44,233.135,6.44,233.213Zm9.827,6.293H7.853v-6.293a2.122,2.122,0,0,1,2.12-2.12h4.173a2.122,2.122,0,0,1,2.12,2.12Zm6.44-.707a.707.707,0,0,1-.707.707H17.68v-6.293c0-.079,0-.156-.009-.234a2.115,2.115,0,0,1,.554-.074h2.361a2.122,2.122,0,0,1,2.12,2.12Z" transform="translate(0 -229.68)"/></g></g><g transform="translate(1.574 47.629)"><g transform="translate(0 0)"><path class="a" d="M36.554,126.5a3.14,3.14,0,1,0,3.14,3.14A3.143,3.143,0,0,0,36.554,126.5Zm0,4.866a1.726,1.726,0,1,1,1.726-1.726A1.728,1.728,0,0,1,36.554,131.37Z" transform="translate(-33.414 -126.504)"/></g></g><g transform="translate(7.866 43.729)"><g transform="translate(0 0)"><path class="a" d="M171.157,43.729a4.195,4.195,0,1,0,4.195,4.195A4.2,4.2,0,0,0,171.157,43.729Zm0,6.976a2.781,2.781,0,1,1,2.781-2.781A2.784,2.784,0,0,1,171.157,50.7Z" transform="translate(-166.962 -43.729)"/></g></g><g transform="translate(16.267 47.629)"><g transform="translate(0 0)"><path class="a" d="M348.434,126.5a3.14,3.14,0,1,0,3.14,3.14A3.143,3.143,0,0,0,348.434,126.5Zm0,4.866a1.726,1.726,0,1,1,1.726-1.726A1.728,1.728,0,0,1,348.434,131.37Z" transform="translate(-345.294 -126.504)"/></g></g></g></svg>