<svg xmlns="http://www.w3.org/2000/svg" width="23.54" height="14" viewBox="0 0 23.54 14"><defs><style>.a{fill:#0cbeeb;}</style></defs><g transform="translate(-3353 1894)"><path class="a" d="M23.455,6.334S17.081,0,11.979,0,.5,6.334.5,6.334a.9.9,0,0,0,0,1.331S6.878,14,11.979,14,23.455,7.665,23.455,7.665A.9.9,0,0,0,23.455,6.334ZM12.028,12.1a5.08,5.08,0,1,1,5.081-5.08A5.081,5.081,0,0,1,12.028,12.1Z" transform="translate(3352.791 -1894)"/><path class="a" d="M191.779,82.451a3.237,3.237,0,1,0,3.227,3.237A3.234,3.234,0,0,0,191.779,82.451ZM193,85.7a1.008,1.008,0,1,1,1-1.008A1.006,1.006,0,0,1,193,85.7Z" transform="translate(3172.981 -1972.715)"/></g></svg>