<svg xmlns="http://www.w3.org/2000/svg" width="17.5" height="18" viewBox="0 0 17.5 18"><defs><style>.a{fill:#959cb6;}</style></defs><path class="a" d="M17.666,11.877A7.343,7.343,0,0,0,17.722,11a5.549,5.549,0,0,0-.068-.877l1.9-1.485a.465.465,0,0,0,.112-.574l-1.8-3.116a.457.457,0,0,0-.551-.2l-2.239.9a6.591,6.591,0,0,0-1.519-.877l-.337-2.385A.449.449,0,0,0,12.772,2h-3.6a.438.438,0,0,0-.439.383L8.4,4.768a6.767,6.767,0,0,0-1.519.877l-2.239-.9a.445.445,0,0,0-.551.2l-1.8,3.116a.436.436,0,0,0,.112.574l1.9,1.485a5.3,5.3,0,0,0-.011,1.755l-1.9,1.485a.465.465,0,0,0-.113.574l1.8,3.116a.457.457,0,0,0,.551.2l2.239-.9a6.591,6.591,0,0,0,1.519.877l.338,2.385a.458.458,0,0,0,.45.383h3.6a.43.43,0,0,0,.439-.383l.338-2.385a6.767,6.767,0,0,0,1.519-.878l2.239.9a.445.445,0,0,0,.551-.2l1.8-3.116a.436.436,0,0,0-.113-.574l-1.879-1.485Zm-6.694,2.5A3.375,3.375,0,1,1,14.347,11,3.385,3.385,0,0,1,10.972,14.375Z" transform="translate(-2.222 -2)"/></svg>