<?xml version="1.0" standalone="no"?>
<!DOCTYPE svg PUBLIC "-//W3C//DTD SVG 20010904//EN"
 "http://www.w3.org/TR/2001/REC-SVG-20010904/DTD/svg10.dtd">
<svg version="1.0" xmlns="http://www.w3.org/2000/svg"
 width="48pt" height="48pt" viewBox="0 0 304.000000 349.000000"
 preserveAspectRatio="xMidYMid meet">

<g transform="translate(0.000000,349.000000) scale(0.100000,-0.100000)"
fill="#fff" stroke="none">
<path d="M1297 3076 c-126 -47 -190 -152 -207 -341 -18 -188 37 -347 204 -587
l50 -70 -63 -192 c-80 -243 -160 -458 -174 -472 -7 -6 -131 -69 -277 -139
-315 -151 -427 -215 -498 -285 -64 -63 -92 -115 -99 -186 -20 -188 240 -330
439 -241 190 85 390 306 561 618 l36 65 123 42 c143 48 301 90 480 128 l127
27 68 -50 c112 -82 183 -128 270 -173 76 -40 89 -44 152 -42 90 1 138 15 197
55 60 40 95 106 102 192 11 142 -59 228 -216 265 -75 17 -288 15 -402 -4 -52
-9 -100 -16 -107 -16 -32 0 -304 250 -429 396 l-51 59 43 140 c83 265 97 335
91 465 -7 178 -51 275 -147 329 -35 20 -61 25 -139 28 -66 2 -108 -1 -134 -11z
m185 -226 c24 -33 35 -165 19 -240 -6 -30 -26 -104 -43 -163 -36 -123 -34
-123 -90 -12 -51 99 -68 161 -68 244 0 93 14 146 46 178 34 34 108 30 136 -7z
m162 -1104 l136 -133 -61 -12 c-34 -7 -123 -30 -198 -51 -75 -21 -137 -37
-138 -36 -3 3 118 366 122 366 2 0 64 -60 139 -134z m888 -266 c38 -11 51 -29
41 -57 -9 -26 -23 -33 -67 -33 -38 0 -123 38 -176 80 l-25 20 95 0 c52 0 111
-5 132 -10z m-1618 -412 c-24 -42 -115 -146 -178 -205 -113 -106 -182 -132
-262 -98 l-35 15 17 30 c10 16 38 44 63 62 43 31 378 207 394 208 5 0 5 -6 1
-12z"/>
</g>
</svg>
