<svg xmlns="http://www.w3.org/2000/svg" width="30" height="30" viewBox="0 0 30 30"><defs><style>.a{fill:#256bd1;}</style></defs><path class="a" d="M13.833,9.333h0a6.185,6.185,0,0,0,.333-1.5V7.5a2.6,2.6,0,0,0,0-1.667V5.667L14,5.5h0a.163.163,0,0,1-.167.167,6.779,6.779,0,0,0,0,3.667Zm-5,11.5a3.643,3.643,0,0,0-.833.5A8.212,8.212,0,0,0,5.833,24h0c1-.167,2-1.167,3-3.167Zm15.333-2.5c-.167-.167-.833-.667-3.167-.667h-.333v.167a8.945,8.945,0,0,0,3.167.833h.5V18.5h0A.163.163,0,0,1,24.167,18.333ZM26.667,0H3.333A3.343,3.343,0,0,0,0,3.333V26.667A3.343,3.343,0,0,0,3.333,30H26.667A3.343,3.343,0,0,0,30,26.667V3.333A3.343,3.343,0,0,0,26.667,0ZM24.833,19.667a3.328,3.328,0,0,1-1.5.333,12.014,12.014,0,0,1-5-1.167,27.443,27.443,0,0,0-6.667,1.333c-.167,0-.167,0-.333.167-2,3.5-3.667,5.167-5,5.167-.333,0-.5,0-.667-.167l-.833-.5v-.167a1.5,1.5,0,0,1-.167-.833,6.415,6.415,0,0,1,3.167-3.5c.333-.167.833-.5,1.5-.833.5-.833,1-1.833,1.667-3a35.261,35.261,0,0,0,1.833-4.833h0a7.736,7.736,0,0,1-.333-5.5c.167-.667.667-1.333,1.333-1.333h.333a2.369,2.369,0,0,1,1,.333c1.167,1.167.667,3.833,0,6v.167a12.037,12.037,0,0,0,2.667,4.333,11.7,11.7,0,0,0,1.5,1c.833,0,1.5-.167,2.167-.167,2,0,3.333.333,3.833,1.167a2.113,2.113,0,0,1,.167,1A10.208,10.208,0,0,1,24.833,19.667ZM14,13.167a34.709,34.709,0,0,1-1.667,4c-.333.667-.667,1.167-1,1.833h.333a25.214,25.214,0,0,1,5.5-1.5A2.3,2.3,0,0,1,16.5,17,16.944,16.944,0,0,1,14,13.167Z"/></svg>