<svg xmlns="http://www.w3.org/2000/svg" width="22" height="22" viewBox="0 0 22 22"><defs><style>.a{fill:#256bd1;}.b{fill:#fff;}</style></defs><g transform="translate(-1864 -534)"><circle class="a" cx="11" cy="11" r="11" transform="translate(1864 534)"/><path class="b" d="M.267,9.04a.915.915,0,0,0,1.293,0L4.654,5.946,7.748,9.04A.914.914,0,0,0,9.04,7.748L5.946,4.654,9.04,1.56A.914.914,0,1,0,7.748.267L4.654,3.361,1.56.267A.914.914,0,0,0,.267,1.56L3.361,4.654.267,7.748A.915.915,0,0,0,.267,9.04Z" transform="translate(1874.812 538.231) rotate(45)"/></g></svg>