<svg xmlns="http://www.w3.org/2000/svg" width="32" height="32" viewBox="0 0 32 32">
  <g id="Group_17310" data-name="Group 17310" transform="translate(-1421 -497)">
    <rect id="Rectangle_17729" data-name="Rectangle 17729" width="32" height="32" rx="3" transform="translate(1421 497)" fill="#256bd1"/>
    <g id="_Icons_Update_reset" data-name="_Icons / Update, reset" transform="translate(1429 505)">
      <path id="_29_Update_reset" data-name="29 Update, reset" d="M4.477,1.069a8.4,8.4,0,0,1,8.625.4L14.343.238a.806.806,0,0,1,1.378.568V5.313a.806.806,0,0,1-.806.806h-4.5a.806.806,0,0,1-.572-1.379l.919-.919a5.24,5.24,0,1,0,2.471,6.885.806.806,0,0,1,.979-.4l1.54.443a.806.806,0,0,1,.516,1.072A8.464,8.464,0,1,1,4.477,1.069Z" transform="translate(0 0)" fill="#fff"/>
    </g>
  </g>
</svg>
