<svg xmlns="http://www.w3.org/2000/svg" width="16.321" height="16.997" viewBox="0 0 16.321 16.997">
  <g id="refresh-icon" transform="translate(-0.005 0)">
    <path id="_29_Update_reset" data-name="29 Update, reset" d="M4.477,1.069a8.4,8.4,0,0,1,8.625.4L14.343.238a.806.806,0,0,1,1.378.568V5.313a.806.806,0,0,1-.806.806h-4.5A.806.806,0,0,1,9.843,4.74l.919-.919a5.24,5.24,0,1,0,2.471,6.885.806.806,0,0,1,.979-.4l1.54.443a.806.806,0,0,1,.516,1.072A8.464,8.464,0,1,1,4.477,1.069Z" fill="#fff"/>
  </g>
</svg>
