<svg xmlns="http://www.w3.org/2000/svg" width="30.5" height="30.5" viewBox="0 0 30.5 30.5">
  <g id="analytics" transform="translate(0.25 0.25)">
    <g id="Group_301" data-name="Group 301">
      <g id="Group_300" data-name="Group 300">
        <path id="Path_4559" data-name="Path 4559" d="M29.414,12.231h-3.75a.586.586,0,0,0-.586.586v2.959a.586.586,0,1,0,1.172,0V13.4h2.578V28.828H26.25V20.171a.586.586,0,0,0-1.172,0v8.657H23.906V16.7a.586.586,0,0,0-.586-.586H19.57a.586.586,0,0,0-.586.586V28.828H17.813V20.8a.586.586,0,0,0-.586-.586h-3.75a.586.586,0,0,0-.586.586v8.027H11.719V24.163a.586.586,0,0,0-.586-.586H7.383a.586.586,0,0,0-.586.586v4.666H1.758a.587.587,0,0,1-.586-.586V1.758a.587.587,0,0,1,.586-.586H16.874V5.039A1.76,1.76,0,0,0,18.631,6.8H22.5V14a.586.586,0,0,0,1.172,0V6.211A.586.586,0,0,0,23.5,5.8L17.874.172A.586.586,0,0,0,17.459,0H1.758A1.76,1.76,0,0,0,0,1.758V28.242A1.76,1.76,0,0,0,1.758,30H29.414A.586.586,0,0,0,30,29.414v-16.6A.586.586,0,0,0,29.414,12.231ZM18.045,2,21.67,5.625H18.631a.587.587,0,0,1-.586-.586Zm-7.5,26.828H7.969v-4.08h2.578Zm6.094,0H14.063V21.387h2.578Zm6.094,0H20.156V17.285h2.578Z" stroke="#040605" stroke-width="0.5"/>
      </g>
    </g>
    <g id="Group_303" data-name="Group 303" transform="translate(25.078 17.279)">
      <g id="Group_302" data-name="Group 302">
        <path id="Path_4560" data-name="Path 4560" d="M429,295.062a.586.586,0,1,0,.172.414A.588.588,0,0,0,429,295.062Z" transform="translate(-428 -294.89)" stroke="#040605" stroke-width="0.5"/>
      </g>
    </g>
    <g id="Group_305" data-name="Group 305" transform="translate(3.141 3.207)">
      <g id="Group_304" data-name="Group 304">
        <path id="Path_4561" data-name="Path 4561" d="M58.991,54.729a.586.586,0,0,0-.586.586v1.054a5.389,5.389,0,1,0,5.943,5.943H65.4a.586.586,0,0,0,.586-.586A7.005,7.005,0,0,0,58.991,54.729Zm0,11.215a4.217,4.217,0,0,1-.586-8.394v4.177a.586.586,0,0,0,.586.586h4.177A4.224,4.224,0,0,1,58.991,65.944Zm.586-4.8h0V55.93a5.837,5.837,0,0,1,5.21,5.21Z" transform="translate(-53.602 -54.729)" stroke="#040605" stroke-width="0.5"/>
      </g>
    </g>
    <g id="Group_307" data-name="Group 307" transform="translate(3.164 17.241)">
      <g id="Group_306" data-name="Group 306">
        <path id="Path_4562" data-name="Path 4562" d="M65.777,294.25H54.586a.586.586,0,0,0,0,1.172H65.777a.586.586,0,0,0,0-1.172Z" transform="translate(-54 -294.25)" stroke="#040605" stroke-width="0.5"/>
      </g>
    </g>
    <g id="Group_309" data-name="Group 309" transform="translate(3.164 20.068)">
      <g id="Group_308" data-name="Group 308">
        <path id="Path_4563" data-name="Path 4563" d="M58.336,342.5h-3.75a.586.586,0,0,0,0,1.172h3.75a.586.586,0,0,0,0-1.172Z" transform="translate(-54 -342.5)" stroke="#040605" stroke-width="0.5"/>
      </g>
    </g>
    <g id="Group_311" data-name="Group 311" transform="translate(9.848 20.068)">
      <g id="Group_310" data-name="Group 310">
        <path id="Path_4564" data-name="Path 4564" d="M169.08,342.672a.586.586,0,1,0,.172.414A.59.59,0,0,0,169.08,342.672Z" transform="translate(-168.08 -342.5)" stroke="#040605" stroke-width="0.5"/>
      </g>
    </g>
  </g>
</svg>
