<?xml version="1.0" standalone="no"?>
<!DOCTYPE svg PUBLIC "-//W3C//DTD SVG 20010904//EN"
 "http://www.w3.org/TR/2001/REC-SVG-20010904/DTD/svg10.dtd">
<svg version="1.0" xmlns="http://www.w3.org/2000/svg"
 width="24" height="24" viewBox="0 0 512.000000 512.000000"
 preserveAspectRatio="xMidYMid meet">

<g transform="translate(0.000000,512.000000) scale(0.100000,-0.100000)"
fill="#0cbeeb" stroke="none">
<path d="M2072 4246 c-82 -16 -161 -45 -239 -88 -28 -16 -267 -201 -530 -412
l-478 -382 -47 50 c-58 64 -135 111 -215 131 -50 13 -105 16 -265 13 -191 -3
-205 -4 -234 -25 -68 -49 -64 40 -64 -1319 0 -1219 0 -1228 21 -1270 15 -32
32 -48 65 -64 42 -21 55 -22 252 -18 185 4 213 7 264 27 99 39 189 115 243
205 9 15 21 13 130 -25 237 -81 562 -152 845 -185 179 -21 996 -32 1097 -15
195 33 343 181 375 375 10 62 4 140 -17 211 -5 17 4 24 59 49 176 76 290 285
258 469 -6 34 -14 71 -17 82 -5 17 4 24 59 49 82 35 169 118 213 201 50 96 62
199 36 326 l-5 29 398 0 c227 0 427 5 464 11 269 42 438 315 357 574 -49 156
-190 279 -353 305 -34 6 -370 10 -794 10 l-735 0 -255 256 c-266 266 -335 325
-442 373 -135 62 -306 83 -446 57z m279 -315 c91 -31 136 -65 288 -220 l145
-146 -290 -5 c-252 -4 -293 -7 -321 -23 -38 -20 -73 -82 -73 -128 0 -49 38
-106 85 -129 41 -20 62 -20 1279 -20 1366 0 1280 4 1327 -62 50 -70 26 -174
-50 -216 l-39 -22 -938 0 c-926 0 -938 0 -980 -21 -32 -15 -48 -32 -65 -65
-34 -71 -15 -136 55 -188 26 -20 44 -21 379 -26 396 -6 388 -4 429 -83 34 -68
14 -139 -56 -191 -26 -20 -44 -21 -379 -26 -344 -5 -353 -6 -383 -27 -91 -65
-80 -204 21 -253 37 -18 62 -20 221 -20 205 0 232 -7 272 -76 40 -68 19 -145
-52 -198 -25 -19 -45 -21 -229 -26 -189 -5 -204 -6 -233 -27 -62 -45 -80 -126
-43 -193 26 -46 63 -69 133 -80 69 -11 102 -32 128 -83 34 -68 14 -140 -56
-191 -27 -20 -39 -21 -469 -21 -294 0 -482 4 -562 13 -329 36 -589 94 -892
199 l-103 36 0 813 0 814 530 424 c292 233 547 432 568 442 117 56 238 65 353
25z m-1815 -698 c67 -48 64 7 64 -1019 0 -916 0 -928 -21 -970 -30 -62 -80
-84 -192 -84 l-87 0 0 1051 0 1051 103 -4 c86 -2 107 -6 133 -25z"/>
</g>
</svg>
