<?xml version="1.0" encoding="utf-8"?>
<!-- Generator: Adobe Illustrator 25.0.1, SVG Export Plug-In . SVG Version: 6.00 Build 0)  -->
<svg version="1.1" id="Layer" xmlns="http://www.w3.org/2000/svg" xmlns:xlink="http://www.w3.org/1999/xlink" x="0px" y="0px"
	 viewBox="0 0 69.3 69.3" style="enable-background:new 0 0 69.3 69.3;" xml:space="preserve">
<style type="text/css">
	.st0{fill:#C2CBE8;}
</style>
<path class="st0" d="M42.1,7.6c-1.1-1.1-2.9-1-3.9,0.1c-1.1,1.1-1,2.9,0.1,3.9l21.3,20.2H4.1c-1.5,0-2.8,1.2-2.8,2.8
	s1.2,2.8,2.8,2.8h55.5L38.3,57.7c-1.1,1.1-1.2,2.8-0.1,3.9c0.5,0.6,1.3,0.9,2,0.9c0.7,0,1.4-0.3,1.9-0.8l24.3-23.1
	c1.1-1,1.6-2.4,1.6-3.9c0-1.5-0.6-2.9-1.7-4L42.1,7.6z"/>
</svg>
