<?xml version="1.0" encoding="utf-8"?>
<!-- Generator: Adobe Illustrator 16.0.0, SVG Export Plug-In . SVG Version: 6.00 Build 0)  -->
<!DOCTYPE svg PUBLIC "-//W3C//DTD SVG 1.1//EN" "http://www.w3.org/Graphics/SVG/1.1/DTD/svg11.dtd">
<svg version="1.1" id="Layer_1" xmlns="http://www.w3.org/2000/svg" xmlns:xlink="http://www.w3.org/1999/xlink" x="0px" y="0px"
	 width="32px" height="32px" viewBox="0 0 32 32" enable-background="new 0 0 32 32" xml:space="preserve">
<g id="Run" transform="translate(-279 -74)">
	<g id="Group_11072" transform="translate(-1432 -124)">
		<path id="Subtraction_9" fill="#177AC8" d="M1728.73,223h-3.455c-0.401,0-0.74-0.297-0.794-0.693l-0.3-2.068
			c-0.411-0.188-0.803-0.416-1.168-0.682l-1.957,0.781c-0.096,0.035-0.197,0.055-0.3,0.057c-0.29,0-0.556-0.16-0.694-0.414
			l-1.717-2.975c-0.196-0.348-0.111-0.785,0.2-1.033l1.655-1.293c-0.052-0.453-0.052-0.91,0-1.363l-1.655-1.291
			c-0.318-0.248-0.403-0.693-0.2-1.041l1.722-2.98c0.147-0.25,0.417-0.404,0.708-0.4c0.097,0,0.192,0.018,0.282,0.053l1.957,0.789
			c0.366-0.266,0.758-0.494,1.168-0.684l0.3-2.074c0.056-0.395,0.395-0.688,0.794-0.688h3.449c0.403-0.004,0.746,0.293,0.8,0.693
			l0.3,2.068c0.411,0.189,0.802,0.418,1.169,0.684l1.957-0.783c0.096-0.037,0.197-0.059,0.3-0.059
			c0.289,0.004,0.555,0.162,0.693,0.416l1.716,2.975c0.194,0.348,0.11,0.785-0.2,1.035l-1.655,1.291c0.052,0.453,0.052,0.91,0,1.363
			l1.655,1.293c0.309,0.248,0.394,0.682,0.2,1.027l-1.728,2.992c-0.141,0.25-0.406,0.404-0.693,0.4c-0.103,0-0.203-0.018-0.3-0.051
			l-1.957-0.787c-0.367,0.264-0.758,0.492-1.169,0.682l-0.3,2.074C1729.457,222.705,1729.125,222.996,1728.73,223z M1727.237,209
			c-2.762,0-5,2.238-5,5s2.238,5,5,5s5-2.238,5-5S1729.999,209,1727.237,209L1727.237,209L1727.237,209z"/>
		<path id="Polygon_1" fill="#177AC8" d="M1730.236,214l-5,3v-6L1730.236,214z"/>
	</g>
</g>
</svg>
