<svg xmlns="http://www.w3.org/2000/svg" width="32" height="32" viewBox="0 0 32 32">
  <g id="Run" transform="translate(-279 -74)">
    <g id="Group_11071" data-name="Group 11071" transform="translate(-1217 -320.41)">
      <rect id="Rectangle_2012" data-name="Rectangle 2012" width="32" height="32" rx="4" transform="translate(1496 394.41)" fill="#b6d7ff"/>
    </g>
    <g id="Group_11072" data-name="Group 11072" transform="translate(-1432 -124)">
      <path id="Subtraction_9" data-name="Subtraction 9" d="M11800.494,22278h-3.455a.8.8,0,0,1-.794-.693l-.3-2.068a6.7,6.7,0,0,1-1.168-.682l-1.957.781a.888.888,0,0,1-.3.057.792.792,0,0,1-.694-.414l-1.717-2.975a.81.81,0,0,1,.2-1.033l1.655-1.293a5.967,5.967,0,0,1,0-1.363l-1.655-1.291a.805.805,0,0,1-.2-1.041l1.722-2.98a.811.811,0,0,1,.708-.4.778.778,0,0,1,.282.053l1.957.789a6.982,6.982,0,0,1,1.168-.684l.3-2.074a.8.8,0,0,1,.794-.687h3.449a.8.8,0,0,1,.8.693l.3,2.068a7.029,7.029,0,0,1,1.169.684l1.957-.783a.832.832,0,0,1,.3-.059.8.8,0,0,1,.693.416l1.716,2.975a.817.817,0,0,1-.2,1.035l-1.655,1.291a5.967,5.967,0,0,1,0,1.363l1.655,1.293a.81.81,0,0,1,.2,1.027l-1.728,2.992a.784.784,0,0,1-.693.4.885.885,0,0,1-.3-.051l-1.957-.787a7.011,7.011,0,0,1-1.169.682l-.3,2.074A.8.8,0,0,1,11800.494,22278Zm-1.493-14a5,5,0,1,0,5,5A5,5,0,0,0,11799,22264Z" transform="translate(-10072 -22055)" fill="#177ac8"/>
      <path id="Polygon_1" data-name="Polygon 1" d="M3,0,6,5H0Z" transform="translate(1730 211) rotate(90)" fill="#177ac8"/>
    </g>
  </g>
</svg>
