<svg xmlns="http://www.w3.org/2000/svg" width="32" height="32" viewBox="0 0 32 32">
  <g id="Save" transform="translate(-331 -74)">
    <rect id="Rectangle_2084" data-name="Rectangle 2084" width="32" height="32" rx="4" transform="translate(331 74)" fill="#c3ebec"/>
    <g id="Group_11073" data-name="Group 11073" transform="translate(-1510 -124)">
      <path id="Subtraction_10" data-name="Subtraction 10" d="M11808.214,22271.408h-15.349a1.578,1.578,0,0,1-1.554-1.357l-1.3-9.34a.6.6,0,0,1,.146-.492.617.617,0,0,1,.476-.219h19.792a.641.641,0,0,1,.475.213.614.614,0,0,1,.146.5l-1.274,9.334A1.58,1.58,0,0,1,11808.214,22271.408Zm-11.753-7.432a.908.908,0,0,0-.694,1.5l3.175,3.18a.922.922,0,0,0,1.279,0l5.444-5.443a.915.915,0,0,0-.045-1.234.9.9,0,0,0-.64-.264.924.924,0,0,0-.6.219l-4.8,4.795-2.538-2.531A.888.888,0,0,0,11796.461,22263.977Z" transform="translate(-9943.999 -22048.408)" fill="#10afb2"/>
      <g id="surface1" transform="translate(1846 205)">
        <path id="Path_16428" data-name="Path 16428" d="M38.23,5.756H55.953V4.432A1.544,1.544,0,0,0,54.4,2.878H47.853A2.42,2.42,0,0,1,45.791,1.7L45.247.769A1.579,1.579,0,0,0,43.9,0H39.617a1.561,1.561,0,0,0-1.135.5,1.578,1.578,0,0,0-.434,1.167Zm0,0" transform="translate(-36.481 -0.5)" fill="#10afb2"/>
      </g>
    </g>
  </g>
</svg>
