<svg xmlns="http://www.w3.org/2000/svg" width="16.19" height="20" viewBox="0 0 16.19 20"><defs><style>.a{fill:#fff;}</style></defs><path class="a" d="M30.524.673,33.66,3.81H31a.476.476,0,0,1-.476-.476Zm3.81,18.85a.476.476,0,0,1-.476.476H21.476A.476.476,0,0,1,21,19.524V.476A.476.476,0,0,1,21.476,0h8.1V3.333A1.429,1.429,0,0,0,31,4.762h3.333V7.494l-1.3-1.018a.952.952,0,0,0-1.562.731V8.1H24.333a.952.952,0,0,0-.952.952v5.81a.952.952,0,0,0,.952.952h7.143V16.7a.944.944,0,0,0,.548.862.965.965,0,0,0,.41.092.924.924,0,0,0,.594-.214l1.306-1.027Zm-1.9-3.826V14.81a.952.952,0,0,0-.952-.952H24.333v-3.81h7.143a.952.952,0,0,0,.952-.952l.01-.88,4.751,3.737Z" transform="translate(-21)"/></svg>