<svg xmlns="http://www.w3.org/2000/svg" xmlns:xlink="http://www.w3.org/1999/xlink" viewBox="0,0,256,256" width="50px" height="50px" fill-rule="nonzero"><defs><clipPath id="clip-1"><path d="M-38.23377,294.23377v-332.46753h332.46753v332.46753zM253.3972,117.68685l-31.49622,-23.62217c-1.57481,-1.25985 -3.77955,-1.88977 -5.66932,-1.88977c-1.57481,0 -2.83466,0.31496 -4.09451,0.94489c-3.46458,1.57481 -5.35436,5.0394 -5.35436,8.50398v6.61421c-12.28353,1.57481 -22.36232,6.61421 -29.92141,14.48826c-15.43315,16.693 -14.1733,40.0002 -14.1733,42.5199c0.31496,5.0394 4.40947,8.81894 9.44887,8.81894h0.31496c5.0394,0 9.1339,-4.09451 9.1339,-9.1339c0,-1.88977 1.25985,-18.26781 25.19698,-21.73239v5.35436c0,3.46458 1.88977,6.92917 5.0394,8.50398c1.25985,0.62992 2.83466,0.94489 4.40947,0.94489c1.88977,0 4.09451,-0.62992 5.66932,-1.88977l31.49622,-22.99224c2.5197,-1.88977 3.77955,-4.72443 3.77955,-7.55909c0,-3.46458 -1.25985,-6.29924 -3.77955,-7.87406zM217.17654,98.78912c0,-0.31496 0,-0.31496 0,0c0,-0.31496 0,-0.31496 0,0zM216.86158,151.07285c0.31496,0 0.31496,0 0,0c0.31496,0 0.31496,0 0,0z" id="overlayBgMask" fill="none"></path></clipPath></defs><g transform="translate(29.44,29.44) scale(0.77,0.77)"><g fill-opacity="0" fill="#fdfdff" fill-rule="nonzero" stroke="none" stroke-width="1" stroke-linecap="butt" stroke-linejoin="miter" stroke-miterlimit="10" stroke-dasharray="" stroke-dashoffset="0" font-family="none" font-weight="none" font-size="none" text-anchor="none" style="mix-blend-mode: normal"><path d="M-38.23377,294.23377v-332.46753h332.46753v332.46753z" id="bgRectangle"></path></g><g clip-path="url(#clip-1)" fill="none" fill-rule="nonzero" stroke="none" stroke-width="1" stroke-linecap="butt" stroke-linejoin="miter" stroke-miterlimit="10" stroke-dasharray="" stroke-dashoffset="0" font-family="none" font-weight="none" font-size="none" text-anchor="none" style="mix-blend-mode: normal"><g transform="translate(-10.24,0) scale(5.12,5.12)" fill="#ffffff"><path d="M30.39844,2h-23.39844v46h36v-33.39844zM30,15v-10.60156l10.60156,10.60156z"></path></g></g><g fill="#ffffff" fill-rule="nonzero" stroke="none" stroke-width="1" stroke-linecap="butt" stroke-linejoin="miter" stroke-miterlimit="10" stroke-dasharray="" stroke-dashoffset="0" font-family="none" font-weight="none" font-size="none" text-anchor="none" style="mix-blend-mode: normal"><g transform="translate(168.98982,98.33087) scale(3.14962,3.14962)" id="overlay"><path d="M26,8.7c0,-0.1 0,-0.1 0,-0.2c0,-0.1 0,-0.1 0,-0.2c0,-0.1 0,-0.1 -0.1,-0.2c0,-0.1 0,-0.1 -0.1,-0.2v0l-0.1,-0.1l-0.1,-0.1l-10,-7.5c-0.3,-0.2 -0.7,-0.3 -1,-0.1c-0.4,0.2 -0.6,0.5 -0.6,0.9v3.9c-4.2,0.2 -7.6,1.6 -10,4.2c-4.4,4.7 -4,11.7 -4,12c0,0.1 0,0.1 0,0.2c0,0.1 0,0.1 0,0.2c0,0.1 0.1,0.1 0.1,0.2l0.1,0.1c0.1,0.1 0.1,0.1 0.2,0.1l0.1,0.1c0.1,0 0.2,0 0.3,0.1h0.1v0v0c0,0 0,0 0.1,0c0.1,0 0.1,0 0.2,0c0.1,0 0.1,0 0.2,-0.1c0.1,0 0.1,-0.1 0.2,-0.1c0.1,0 0.1,-0.1 0.2,-0.1c0,0 0.1,-0.1 0.1,-0.2c0,-0.1 0.1,-0.1 0.1,-0.2c0,-0.1 0,-0.1 0,-0.2c0,-0.1 0,-0.1 0,-0.2c0,-0.4 0.3,-8.6 12,-9.1v3.8c0,0.4 0.2,0.7 0.5,0.9c0.3,0.2 0.7,0.1 1,-0.1l10,-7.3l0.1,-0.1l0.1,-0.1v0c0,-0.1 0.1,-0.1 0.1,-0.2c0.1,0 0.2,-0.1 0.2,-0.1z"></path></g></g></g></svg>