<svg xmlns="http://www.w3.org/2000/svg" xmlns:xlink="http://www.w3.org/1999/xlink" width="120.779" height="26" viewBox="0 0 120.779 26"><defs><style>.a{fill:none;}.b{fill:#535453;}.c{fill:#262626;}.d{clip-path:url(#a);}.e{fill:#039;}.f{clip-path:url(#b);}.g{fill:#909;}.h{fill:#841079;}</style><clipPath id="a"><path class="a" d="M722.689,236.143l-6.445-10.95a12.04,12.04,0,0,1,2.116-.218,3.018,3.018,0,0,1,1.249.218l4.648,7.949m-.16-.314,4.969,8.456a10.1,10.1,0,0,1-1.835.2,5.007,5.007,0,0,1-1.531-.2l-3.152-5.341" transform="translate(-716.244 -224.976)"/></clipPath><clipPath id="b"><path class="a" d="M708.416,240.823c4.276,0,7.742-2.978,7.742-6.652l-.015.122c0-3.674,3.467-6.653,7.742-6.653l.15-3.952c-4.276,0-7.741,2.978-7.741,6.652l-.014-.006c0,3.674-3.467,6.652-7.742,6.652Z" transform="translate(-708.416 -223.688)"/></clipPath></defs><g transform="translate(-44.037 -223.688)"><path class="b" d="M-262.4-23.446v-4.429h1.223q2.341,0,2.341,2.159a2.176,2.176,0,0,1-.65,1.648,2.412,2.412,0,0,1-1.741.622Zm.519-3.96v3.49h.661a1.876,1.876,0,0,0,1.356-.466,1.748,1.748,0,0,0,.485-1.322q0-1.7-1.81-1.7Zm4.741-.006a.321.321,0,0,1-.232-.093.313.313,0,0,1-.1-.235.318.318,0,0,1,.1-.236.318.318,0,0,1,.232-.094.327.327,0,0,1,.236.094.315.315,0,0,1,.1.236.313.313,0,0,1-.1.232A.324.324,0,0,1-257.139-27.412Zm.247,3.966h-.507v-3.163h.507Zm4.358-.253q0,1.742-1.668,1.742a2.239,2.239,0,0,1-1.025-.222v-.507a2.106,2.106,0,0,0,1.019.3q1.168,0,1.168-1.242v-.346h-.012a1.185,1.185,0,0,1-1.087.605,1.187,1.187,0,0,1-.95-.422,1.685,1.685,0,0,1-.36-1.132,1.969,1.969,0,0,1,.388-1.282A1.3,1.3,0,0,1-254-26.683a1.031,1.031,0,0,1,.948.513h.012v-.439h.507Zm-.507-1.177v-.466a.9.9,0,0,0-.255-.646.839.839,0,0,0-.635-.269.88.88,0,0,0-.735.341,1.524,1.524,0,0,0-.266.956,1.308,1.308,0,0,0,.255.845A.823.823,0,0,0-254-23.8a.882.882,0,0,0,.693-.3A1.128,1.128,0,0,0-253.04-24.876Zm2.424-2.536a.321.321,0,0,1-.232-.093.313.313,0,0,1-.1-.235.318.318,0,0,1,.1-.236.318.318,0,0,1,.232-.094.327.327,0,0,1,.236.094.315.315,0,0,1,.1.236.313.313,0,0,1-.1.232A.324.324,0,0,1-250.616-27.412Zm.247,3.966h-.507v-3.163h.507Zm3.125-.031a.977.977,0,0,1-.473.1q-.831,0-.831-.927v-1.872h-.544v-.432h.544v-.772l.507-.164v.936h.8v.432h-.8v1.782a.739.739,0,0,0,.108.454.431.431,0,0,0,.358.136.533.533,0,0,0,.331-.105Zm3.573.031h-.507v-.494h-.012a1.061,1.061,0,0,1-.973.568,1.04,1.04,0,0,1-.74-.25.867.867,0,0,1-.267-.664q0-.887,1.044-1.032l.948-.133q0-.806-.652-.806a1.557,1.557,0,0,0-1.032.389v-.519a1.96,1.96,0,0,1,1.075-.3q1.115,0,1.115,1.18Zm-.507-1.6-.763.105a1.239,1.239,0,0,0-.531.175.5.5,0,0,0-.179.443.483.483,0,0,0,.165.378.639.639,0,0,0,.44.147.813.813,0,0,0,.622-.264.944.944,0,0,0,.246-.669Zm2.6,1.6h-.507v-4.683h.507Zm4.462-4.429v1.381h-.448v-1.381Zm4.775,4.429h-.633l-1.019-1.7a1.523,1.523,0,0,1-.1-.219h-.012q-.031.071-.105.219l-1.05,1.7h-.636l1.483-2.227-1.365-2.2h.636l.905,1.557a3.122,3.122,0,0,1,.158.309h.012a3.408,3.408,0,0,1,.173-.321l.942-1.544h.6l-1.393,2.2Zm1.677-4.429v1.381h-.448v-1.381ZM-228.5-23.9h-.012v1.912h-.507v-4.618h.507v.556h.012a1.2,1.2,0,0,1,1.093-.63,1.158,1.158,0,0,1,.954.425,1.759,1.759,0,0,1,.343,1.138,1.961,1.961,0,0,1-.386,1.271,1.286,1.286,0,0,1-1.056.477A1.058,1.058,0,0,1-228.5-23.9Zm-.012-1.276v.442a.941.941,0,0,0,.255.666.846.846,0,0,0,.647.273.848.848,0,0,0,.721-.352,1.615,1.615,0,0,0,.261-.979,1.275,1.275,0,0,0-.244-.828.808.808,0,0,0-.661-.3.9.9,0,0,0-.71.307A1.129,1.129,0,0,0-228.508-25.179Zm6.387.278h-2.233a1.183,1.183,0,0,0,.284.815.98.98,0,0,0,.747.287,1.554,1.554,0,0,0,.982-.352v.476a1.836,1.836,0,0,1-1.1.3A1.337,1.337,0,0,1-224.5-23.8a1.764,1.764,0,0,1-.383-1.212,1.73,1.73,0,0,1,.419-1.2,1.342,1.342,0,0,1,1.039-.465,1.189,1.189,0,0,1,.961.4,1.674,1.674,0,0,1,.34,1.115Zm-.519-.429a1.031,1.031,0,0,0-.212-.683.721.721,0,0,0-.579-.244.818.818,0,0,0-.609.256,1.164,1.164,0,0,0-.309.67Zm3.567-.766a.619.619,0,0,0-.383-.1.646.646,0,0,0-.542.306,1.414,1.414,0,0,0-.218.834v1.612h-.507v-3.163h.507v.652h.012a1.1,1.1,0,0,1,.331-.52.754.754,0,0,1,.5-.187.827.827,0,0,1,.3.043Zm1.442-1.316a.321.321,0,0,1-.232-.093.313.313,0,0,1-.1-.235.318.318,0,0,1,.1-.236.318.318,0,0,1,.232-.094.327.327,0,0,1,.236.094.315.315,0,0,1,.1.236.313.313,0,0,1-.1.232A.324.324,0,0,1-217.631-27.412Zm.247,3.966h-.507v-3.163h.507Zm4.2-1.455h-2.233a1.183,1.183,0,0,0,.284.815.98.98,0,0,0,.748.287,1.554,1.554,0,0,0,.982-.352v.476a1.836,1.836,0,0,1-1.1.3,1.337,1.337,0,0,1-1.053-.431,1.764,1.764,0,0,1-.383-1.212,1.73,1.73,0,0,1,.419-1.2,1.342,1.342,0,0,1,1.039-.465,1.189,1.189,0,0,1,.961.4,1.674,1.674,0,0,1,.34,1.115Zm-.519-.429a1.031,1.031,0,0,0-.212-.683.721.721,0,0,0-.579-.244A.818.818,0,0,0-215.1-26a1.163,1.163,0,0,0-.309.67Zm4.543,1.884h-.507v-1.8q0-1.007-.735-1.007a.8.8,0,0,0-.629.286,1.059,1.059,0,0,0-.249.721v1.8h-.507v-3.163h.507v.525h.012a1.142,1.142,0,0,1,1.038-.6.968.968,0,0,1,.794.335,1.493,1.493,0,0,1,.275.968Zm3.743-.145a1.646,1.646,0,0,1-.865.219,1.432,1.432,0,0,1-1.092-.44,1.6,1.6,0,0,1-.415-1.141,1.754,1.754,0,0,1,.448-1.256,1.567,1.567,0,0,1,1.2-.474,1.664,1.664,0,0,1,.735.154v.519a1.288,1.288,0,0,0-.754-.247,1.019,1.019,0,0,0-.8.347,1.319,1.319,0,0,0-.31.913,1.256,1.256,0,0,0,.292.877,1.006,1.006,0,0,0,.783.321,1.27,1.27,0,0,0,.778-.275Zm3.941-1.31h-2.233a1.183,1.183,0,0,0,.284.815.98.98,0,0,0,.747.287,1.554,1.554,0,0,0,.982-.352v.476a1.836,1.836,0,0,1-1.1.3,1.337,1.337,0,0,1-1.053-.431,1.764,1.764,0,0,1-.383-1.212,1.73,1.73,0,0,1,.419-1.2,1.342,1.342,0,0,1,1.039-.465,1.189,1.189,0,0,1,.961.4,1.674,1.674,0,0,1,.34,1.115Zm-.519-.429a1.031,1.031,0,0,0-.212-.683.721.721,0,0,0-.579-.244.818.818,0,0,0-.609.256,1.164,1.164,0,0,0-.309.67Zm4.87.21v1.674h-.519v-4.429h1.217a1.606,1.606,0,0,1,1.1.346,1.235,1.235,0,0,1,.391.976,1.342,1.342,0,0,1-.434,1.032,1.658,1.658,0,0,1-1.172.4Zm0-2.286v1.816h.544a1.215,1.215,0,0,0,.82-.246.869.869,0,0,0,.283-.693q0-.877-1.038-.877Zm5.637,3.96h-.507v-.494h-.012a1.061,1.061,0,0,1-.973.568,1.04,1.04,0,0,1-.74-.25.867.867,0,0,1-.267-.664q0-.887,1.044-1.032l.948-.133q0-.806-.652-.806a1.557,1.557,0,0,0-1.032.389v-.519a1.96,1.96,0,0,1,1.075-.3q1.115,0,1.115,1.18Zm-.507-1.6-.763.105a1.239,1.239,0,0,0-.531.175.5.5,0,0,0-.179.443.483.483,0,0,0,.165.378.639.639,0,0,0,.44.147.813.813,0,0,0,.622-.264.944.944,0,0,0,.246-.669Zm3.743-1.05a.619.619,0,0,0-.383-.1.646.646,0,0,0-.542.306,1.414,1.414,0,0,0-.218.834v1.612h-.507v-3.163h.507v.652h.012a1.1,1.1,0,0,1,.331-.52.754.754,0,0,1,.5-.187.827.827,0,0,1,.3.043Zm2.65,2.619a.977.977,0,0,1-.473.1q-.831,0-.831-.927v-1.872h-.544v-.432h.544v-.772l.507-.164v.936h.8v.432h-.8v1.782a.739.739,0,0,0,.108.454.431.431,0,0,0,.358.136.533.533,0,0,0,.331-.105Zm3.935.031h-.507v-1.8q0-1.007-.735-1.007a.8.8,0,0,0-.629.286,1.059,1.059,0,0,0-.249.721v1.8h-.507v-3.163h.507v.525h.012a1.142,1.142,0,0,1,1.038-.6.968.968,0,0,1,.794.335,1.493,1.493,0,0,1,.275.968Zm4.129-1.455h-2.233a1.183,1.183,0,0,0,.284.815.98.98,0,0,0,.748.287,1.554,1.554,0,0,0,.982-.352v.476a1.836,1.836,0,0,1-1.1.3,1.337,1.337,0,0,1-1.053-.431,1.764,1.764,0,0,1-.383-1.212,1.73,1.73,0,0,1,.419-1.2,1.342,1.342,0,0,1,1.039-.465,1.189,1.189,0,0,1,.961.4,1.674,1.674,0,0,1,.34,1.115Zm-.519-.429a1.031,1.031,0,0,0-.212-.683.721.721,0,0,0-.579-.244.818.818,0,0,0-.609.256,1.163,1.163,0,0,0-.309.67Zm3.567-.766a.619.619,0,0,0-.383-.1.646.646,0,0,0-.542.306,1.414,1.414,0,0,0-.218.834v1.612h-.507v-3.163h.507v.652h.012a1.1,1.1,0,0,1,.331-.52.754.754,0,0,1,.5-.187.827.827,0,0,1,.3.043Z" transform="translate(328.504 271.645)"/><path class="c" d="M10.558-93.8a7.034,7.034,0,0,1,2.049.711,4.767,4.767,0,0,1,2.133,2.161,2.562,2.562,0,0,1,.265,1.032v.251A3.273,3.273,0,0,1,13.458-86.9a5.287,5.287,0,0,1-1.631.822,7.055,7.055,0,0,1-1.952.293H9.861q-.112,0-.335-.014A5.338,5.338,0,0,1,5.08-87.985a2,2,0,0,1-.39-.711,4.93,4.93,0,0,1,.432-.293,4.54,4.54,0,0,1,2.147-.739,1.43,1.43,0,0,0,.1.237.04.04,0,0,0,.014.028.162.162,0,0,0,.028.042,2.564,2.564,0,0,0,2.37.976h.181a2.216,2.216,0,0,0,1.533-.544,1.27,1.27,0,0,0,.349-.795q0-.753-1.338-1.283a6.106,6.106,0,0,0-1.324-.39,6.743,6.743,0,0,1-2.049-.725A4.767,4.767,0,0,1,5-94.342a2.541,2.541,0,0,1-.265-1.018v-.251a3.314,3.314,0,0,1,1.533-2.76,5.012,5.012,0,0,1,1.645-.809,6.759,6.759,0,0,1,1.952-.307q.125,0,.335.014A5.288,5.288,0,0,1,14.629-97.3a3.559,3.559,0,0,1,.321.516q.112.237.1.209a5.143,5.143,0,0,1-.432.293,4.555,4.555,0,0,1-2.161.739.668.668,0,0,0-.084-.223.683.683,0,0,0-.042-.07,2.584,2.584,0,0,0-2.37-.976H9.806a2.2,2.2,0,0,0-1.561.544,1.259,1.259,0,0,0-.349.781q0,.753,1.324,1.3A7.276,7.276,0,0,0,10.558-93.8ZM20.213-80.22a3.3,3.3,0,0,1-1.046.153,5.434,5.434,0,0,1-.836-.07,3.6,3.6,0,0,1-1.087-.265l1.91-5.381L14.6-99.151l-.125-.321,3.039.014,3.151,9.424,3.388-9.438h3.025l-.1.321ZM32.378-93.8a7.034,7.034,0,0,1,2.049.711,4.767,4.767,0,0,1,2.133,2.161,2.562,2.562,0,0,1,.265,1.032v.251A3.273,3.273,0,0,1,35.277-86.9a5.287,5.287,0,0,1-1.631.822,7.055,7.055,0,0,1-1.952.293h-.014q-.112,0-.335-.014A5.338,5.338,0,0,1,26.9-87.985a2,2,0,0,1-.39-.711,4.93,4.93,0,0,1,.432-.293,4.54,4.54,0,0,1,2.147-.739,1.43,1.43,0,0,0,.1.237.04.04,0,0,0,.014.028.162.162,0,0,0,.028.042,2.564,2.564,0,0,0,2.37.976h.181a2.216,2.216,0,0,0,1.533-.544,1.27,1.27,0,0,0,.349-.795q0-.753-1.338-1.283A6.106,6.106,0,0,0,31-91.456a6.743,6.743,0,0,1-2.049-.725,4.767,4.767,0,0,1-2.133-2.161,2.541,2.541,0,0,1-.265-1.018v-.251a3.314,3.314,0,0,1,1.533-2.76,5.012,5.012,0,0,1,1.645-.809,6.759,6.759,0,0,1,1.952-.307q.125,0,.335.014A5.288,5.288,0,0,1,36.448-97.3a3.559,3.559,0,0,1,.321.516q.112.237.1.209a5.142,5.142,0,0,1-.432.293,4.555,4.555,0,0,1-2.161.739.668.668,0,0,0-.084-.223.684.684,0,0,0-.042-.07,2.584,2.584,0,0,0-2.37-.976h-.153a2.2,2.2,0,0,0-1.561.544,1.259,1.259,0,0,0-.349.781q0,.753,1.324,1.3A7.276,7.276,0,0,0,32.378-93.8ZM43.566-88.64a4.212,4.212,0,0,1,.711,1.743,4.887,4.887,0,0,1,.125.934,1.1,1.1,0,0,1-.014.181l-.864-.014a5.909,5.909,0,0,1-2.565-.627,6.166,6.166,0,0,1-.725-.474A5.147,5.147,0,0,1,38.1-91.191v-10.9a4.471,4.471,0,0,1,2.774-.822h.084v3.861H43.8v.07a3.134,3.134,0,0,1-.822,2.23H40.96v5.562a2.493,2.493,0,0,0,.669,1.729q.139.112.279.209l.2.139q.112.056.181.1a.975.975,0,0,1,.139.07,3.5,3.5,0,0,0,.544.2,1.769,1.769,0,0,0,.265.056,1.88,1.88,0,0,0,.223.042h.028A.381.381,0,0,1,43.566-88.64Zm11.091-5.13a3.56,3.56,0,0,0-2.523-2.718,3.113,3.113,0,0,0-.934-.139,3.272,3.272,0,0,0-2.161.809,3.92,3.92,0,0,0-1.283,2.049Zm3,1.143a8.078,8.078,0,0,1-.084,1.143H47.757a3.879,3.879,0,0,0,1.269,2.021,3.415,3.415,0,0,0,2.175.822q.293.028.558.028a3.916,3.916,0,0,0,1.1-.139,5.789,5.789,0,0,0,.864-.349,4.035,4.035,0,0,1,2.23,1.952l-.153.112-.042.028-.446.279a.911.911,0,0,1-.1.056,3.036,3.036,0,0,1-.321.181,1.243,1.243,0,0,0-.125.07q-.028.014-.2.084-.125.056-.39.153a1.951,1.951,0,0,1-.279.1q-.125.042-.349.1l-.153.042-.056.014q-.07.014-.125.028a.419.419,0,0,1-.07.014q-.056.014-.139.028a1.153,1.153,0,0,1-.153.014,3.263,3.263,0,0,1-.349.042q-.181.014-.293.028H51.2a6,6,0,0,1-5.228-2.858,6.91,6.91,0,0,1-1.129-2.844,8.078,8.078,0,0,1-.084-1.143,8.079,8.079,0,0,1,.084-1.143,6.813,6.813,0,0,1,2.175-4.071A6.065,6.065,0,0,1,51.2-99.472a6.469,6.469,0,0,1,1.185.112A6.178,6.178,0,0,1,55.8-97.436a6.838,6.838,0,0,1,1.77,3.666A8.079,8.079,0,0,1,57.655-92.627ZM75.7-99.486a6.03,6.03,0,0,1,3.6,1.171,6.586,6.586,0,0,1,2.858,5.688v6.845H79.3v-6.845a4.069,4.069,0,0,0-1.059-2.83A3.279,3.279,0,0,0,75.7-96.628a3.308,3.308,0,0,0-2.481,1.1,4.033,4.033,0,0,0-1.115,2.691v7.054H69.248v-7a4.094,4.094,0,0,0-1.087-2.732,3.319,3.319,0,0,0-2.509-1.115,3.308,3.308,0,0,0-2.481,1.1,4.064,4.064,0,0,0-1.1,2.691v7.054H59.21V-98.649a4.01,4.01,0,0,1,1.743-.711,5.075,5.075,0,0,1,.934-.125.956.956,0,0,1,.181.014v1.157a5.969,5.969,0,0,1,3.583-1.171,5.99,5.99,0,0,1,3.6,1.171,6.335,6.335,0,0,1,1.436,1.38,6.085,6.085,0,0,1,1.422-1.38v-.014A6.079,6.079,0,0,1,75.7-99.486Zm11.913,9.675a3.32,3.32,0,0,0,2.551,1.171A3.306,3.306,0,0,0,92.7-89.811a4.051,4.051,0,0,0,1.059-2.816,4.069,4.069,0,0,0-1.059-2.83,3.306,3.306,0,0,0-2.537-1.171,3.32,3.32,0,0,0-2.551,1.171,4.1,4.1,0,0,0-1.046,2.83A4.082,4.082,0,0,0,87.615-89.811Zm6.148-9.661a1.1,1.1,0,0,1,.181-.014,4.864,4.864,0,0,1,.92.125,4.248,4.248,0,0,1,1.743.711v12.867H93.763v-1.171a6.03,6.03,0,0,1-3.6,1.171,6.063,6.063,0,0,1-4.572-2.007,6.82,6.82,0,0,1-1.882-4.837,6.838,6.838,0,0,1,1.882-4.851,6.082,6.082,0,0,1,4.572-1.993,6.079,6.079,0,0,1,3.6,1.157ZM104.241-88.64a4.212,4.212,0,0,1,.711,1.743,4.886,4.886,0,0,1,.125.934,1.1,1.1,0,0,1-.014.181L104.2-85.8a5.909,5.909,0,0,1-2.565-.627,6.165,6.165,0,0,1-.725-.474,5.147,5.147,0,0,1-2.133-4.294v-10.9a4.471,4.471,0,0,1,2.774-.822h.084v3.861h2.844v.07a3.134,3.134,0,0,1-.822,2.23h-2.021v5.562a2.493,2.493,0,0,0,.669,1.729q.139.112.279.209l.2.139q.112.056.181.1a.976.976,0,0,1,.139.07,3.5,3.5,0,0,0,.544.2,1.769,1.769,0,0,0,.265.056,1.879,1.879,0,0,0,.223.042h.028A.381.381,0,0,1,104.241-88.64Zm1.444-10.009a4.248,4.248,0,0,1,1.743-.711,5.059,5.059,0,0,1,.92-.125.956.956,0,0,1,.181.014v13.69h-2.844Zm0-3.429a4.248,4.248,0,0,1,1.743-.711,5.5,5.5,0,0,1,.948-.125.662.662,0,0,1,.153.014v2.718a.662.662,0,0,0-.153-.014,5.5,5.5,0,0,0-.948.125,4.248,4.248,0,0,0-1.743.711Z" transform="translate(39.348 326.663)"/><g transform="translate(149.146 223.688)"><g transform="translate(1.303 0.214)"><g class="d"><path class="e" d="M661.634,212.9a7.971,7.971,0,0,1-10.567-5.882,10.239,10.239,0,0,1,6.181-11.908,7.973,7.973,0,0,1,10.569,5.885A10.237,10.237,0,0,1,661.634,212.9Z" transform="translate(-661.68 -199.665)"/><path class="e" d="M768.387,253.575a7.972,7.972,0,0,1-10.567-5.882A10.239,10.239,0,0,1,764,235.784a7.972,7.972,0,0,1,10.568,5.885A10.238,10.238,0,0,1,768.387,253.575Z" transform="translate(-750.661 -233.569)"/></g></g><g transform="translate(0 0)"><g class="f"><path class="g" d="M706.389,217.634c3.066-6.012,1.875-12.03-2.66-13.438s-10.7,2.322-13.765,8.334-1.875,12.029,2.661,13.439S703.323,223.647,706.389,217.634Z" transform="translate(-691.618 -207.192)"/><path class="h" d="M768.435,254.623c6.76,2.153,22.226.868,23.274-3.627s-12.716-10.505-19.473-12.658-13.089-.252-14.139,4.246S761.676,252.471,768.435,254.623Z" transform="translate(-749.702 -235.16)"/><path class="h" d="M650.544,221.028c6.76,2.153,13.09.252,14.139-4.244s-3.58-9.889-10.338-12.041-3.953.365-5,4.862S643.785,218.876,650.544,221.028Z" transform="translate(-657.139 -207.246)"/></g></g><g transform="translate(9.57 16.25)"><path class="e" d="M772.005,321.893c0,.153-.164.277-.368.277h-5.366a.331.331,0,0,1-.366-.277v-.318a.331.331,0,0,1,.366-.277h5.366c.2,0,.368.124.368.277Z" transform="translate(-765.905 -321.298)"/></g><g transform="translate(0.075 0.004)"><path class="e" d="M714.971,224.309c0,.152-.165.276-.368.276h-5.366c-.2,0-.368-.124-.368-.276v-.32c0-.152.165-.276.368-.276H714.6c.2,0,.368.124.368.276Z" transform="translate(-708.869 -223.713)"/></g></g></g></svg>