<svg xmlns="http://www.w3.org/2000/svg" width="82" height="82" viewBox="0 0 82 82">
  <g id="Group_406" data-name="Group 406" transform="translate(-435 -1701)">
    <circle id="Ellipse" cx="41" cy="41" r="41" transform="translate(435 1701)" fill="#ffeb3b"/>
    <path id="snapchat" d="M38.691,43.617c-5.276-.868-7.654-6.273-7.75-6.5a.372.372,0,0,0-.022-.044,1.631,1.631,0,0,1-.185-1.342c.289-.676,1.394-1.026,2.124-1.258.212-.067.412-.131.577-.195a4.467,4.467,0,0,0,1.574-.94,1.5,1.5,0,0,0,.479-1.075,1.692,1.692,0,0,0-1.268-1.468,2.292,2.292,0,0,0-.858-.163,1.911,1.911,0,0,0-.8.163,4.485,4.485,0,0,1-1.645.469,1.51,1.51,0,0,1-.545-.118c.015-.247.03-.5.047-.762l.007-.113c.17-2.671.38-5.994-.5-7.967a10.718,10.718,0,0,0-2.415-3.456,10.1,10.1,0,0,0-2.888-1.9,11.413,11.413,0,0,0-4.507-.952h-.1L19.335,16a11.456,11.456,0,0,0-4.512.952,10.042,10.042,0,0,0-2.879,1.9A10.752,10.752,0,0,0,9.54,22.3c-.883,1.971-.673,5.293-.506,7.962v0c.017.286.037.585.054.876a1.581,1.581,0,0,1-.646.121,4.28,4.28,0,0,1-1.759-.471,1.58,1.58,0,0,0-.668-.138,2.363,2.363,0,0,0-1.182.331A1.635,1.635,0,0,0,4,32.051a1.474,1.474,0,0,0,.562,1.384,4.85,4.85,0,0,0,1.47.841c.168.067.368.128.577.195.73.232,1.838.582,2.126,1.258a1.643,1.643,0,0,1-.187,1.342.349.349,0,0,0-.02.044,13.062,13.062,0,0,1-1.988,3.073,11.156,11.156,0,0,1-2.4,2.116,8.823,8.823,0,0,1-3.367,1.31A.921.921,0,0,0,0,44.577a1.169,1.169,0,0,0,.1.4v0a2.465,2.465,0,0,0,1.337,1.142,15.267,15.267,0,0,0,3.86,1,4.683,4.683,0,0,1,.237.849c.064.3.131.6.227.925a1.011,1.011,0,0,0,1.058.77,5.152,5.152,0,0,0,.908-.126,10.323,10.323,0,0,1,2.07-.234,8.994,8.994,0,0,1,1.48.126,7.03,7.03,0,0,1,2.765,1.428,8.953,8.953,0,0,0,5.451,2.124q.1,0,.2-.007c.079,0,.18.007.284.007a8.966,8.966,0,0,0,5.451-2.121l0,0a7.055,7.055,0,0,1,2.765-1.426,8.993,8.993,0,0,1,1.48-.126,10.371,10.371,0,0,1,2.07.22,5,5,0,0,0,.908.111h.044a1,1,0,0,0,1.014-.757c.094-.318.16-.614.227-.918a4.844,4.844,0,0,1,.234-.844,15.374,15.374,0,0,0,3.86-1,2.475,2.475,0,0,0,1.334-1.14,1.173,1.173,0,0,0,.1-.407A.918.918,0,0,0,38.691,43.617Z" transform="translate(456.256 1707.512)" fill="#fff"/>
  </g>
</svg>
