<svg xmlns="http://www.w3.org/2000/svg" xmlns:xlink="http://www.w3.org/1999/xlink" width="249.247" height="249.247" viewBox="0 0 249.247 249.247">
  <defs>
    <clipPath id="clip-path">
      <circle id="Ellipse_345" data-name="Ellipse 345" cx="119.623" cy="119.623" r="119.623" fill="none"/>
    </clipPath>
  </defs>
  <g id="Group_445" data-name="Group 445" transform="translate(5 5)">
    <circle id="Ellipse_342" data-name="Ellipse 342" cx="119.623" cy="119.623" r="119.623" fill="#ae1015" stroke="#231f20" stroke-miterlimit="10" stroke-width="10"/>
    <circle id="Ellipse_343" data-name="Ellipse 343" cx="83.736" cy="83.736" r="83.736" transform="translate(35.887 35.887)" fill="#c7252c"/>
    <circle id="Ellipse_344" data-name="Ellipse 344" cx="58.615" cy="58.615" r="58.615" transform="translate(61.008 61.008)" fill="#ee2324"/>
    <g id="Group_727" data-name="Group 727" transform="translate(35.887 61.871)">
      <g id="Group_726" data-name="Group 726">
        <path id="Path_940" data-name="Path 940" d="M389.456,494c.108.374.216.749.324,1.122l-.933.8-2.521,1.782c-1.407.753-2.866,1.43-4.184,2.316a1.883,1.883,0,0,0-.257,1.691,44.33,44.33,0,0,0,2.258,5.172,2.325,2.325,0,0,0,1.6,1.141c1.865.069,3.738-.109,5.608-.191a27.04,27.04,0,0,0,1.4,2.838c.994,1.559.7,2.663-.95,3.443a5.029,5.029,0,0,0-1.093.389c-2.184,1.395-4.349,2.82-6.52,4.236q-2.094-4.75-4.186-9.5c-.959-2.188-1.9-4.383-2.839-6.548l-2.611.483-3.2,1.715c-3.277.456-3.969,1.712-2.636,4.425,2.057,4.191,4,8.437,5.989,12.66l-5,2.783c-.426-.985-.649-1.6-.952-2.18-2.178-4.134-4.332-8.28-6.611-12.357a2.215,2.215,0,0,0-1.9-.78c-2.151.435-4.256,1.1-6.377,1.683l-1.838-.417.738-.486c2.368-.947,4.711-1.965,7.11-2.825,2.572-.922,5.2-1.677,7.8-2.544a8.193,8.193,0,0,0,2.647-1.123,14.55,14.55,0,0,1,5.877-3.1c.7-.175,1.171-1.265,1.748-1.936l3.792-2.59-.3-.463c-1.478.724-2.93,1.515-4.448,2.143a12.506,12.506,0,0,1-2.486.5,1.773,1.773,0,0,0-.022-.388l4.046-2.673,1.871-.693,2.565.012a3.78,3.78,0,0,0-.28.279c-.024.029,0,.1,0,.147,1.011-.118,2.241-.653,2.982-.261,1.3.686,2.089.07,3.044-.428Z" transform="translate(-317.175 -387.07)" fill="#ffc20e"/>
        <path id="Path_941" data-name="Path 941" d="M353.751,535.269l-.5-1.17,2.009-.819a6.223,6.223,0,0,0,2,.126c2.881-.793,5.732-1.7,8.594-2.563l4.873-1.678-.154-.571a14.4,14.4,0,0,1-1.48-.541c-.868-.425-1.155-1.1-.157-1.58,2.092-1.014,4.258-1.878,6.458-2.831l1.07,2.467L374,527.455c4.456-.027,7.912-2.492,12.4-4.23-2.932-.358-2.2-2.207-2.65-3.537l8.613-4.832.2.334-2.495,2.209,4.537.8,6.544-3.808-.189-.283-4.581.554-.3-2.631,2.062-1.16c.335-.057.67-.114,1.005-.174,1.39.026,2.781.019,4.168.1a16.054,16.054,0,0,1,2.2.493l.9-.7q.256.59.513,1.182l-1.618,2.083-10.083,6.527.183.33,2.182-.945.425.645-3.743,1.622c2-.85,2.934.061,3.46,1.833.095.316.218.624.326.936l-5.982,3.354c-.683-1.7-2.212-3.415.319-4.989a24.362,24.362,0,0,0-3.237.149,4.737,4.737,0,0,0-2.527.955,4.889,4.889,0,0,1-4.158,1.776c-.635-.034-1.312.68-1.968,1.054l-4.337,1.954q-1.084.752-2.168,1.5c-3.15,1.039-6.244,2.316-9.462,3.054C361,534.424,357.349,534.738,353.751,535.269Z" transform="translate(-317.155 -386.794)" fill="#ffc20e"/>
        <path id="Path_942" data-name="Path 942" d="M325.5,405.81q-.273-.729-.547-1.457l.473-.68,2.428,4.661.781-.493-.481-4.29,1.465-.559-.018.062a3.135,3.135,0,0,0,3.215,2.254,13.237,13.237,0,0,1-.062,2.815c-.353,1.519-.869,2.626-3.049,2.108a4.774,4.774,0,0,0-4.968,1.949l5.766,5.076.4-.218-.679-3.3c1.025-.068,2.059.141,2.736-.256.745-.438,1.163-1.434,1.724-2.186,3.181.765,4.085.205,5.726-2.774a20.235,20.235,0,0,1,2.967-3.378l1.492.383q-.145.5-.289,1c-1.1.326-2.376.534-1.461,2.2-.483.668-1.022,1.3-1.434,2.012-.462.793-.808,1.653-1.2,2.485-.518.365-2.179-.571-1.421,1.246l-1.2.573-1.59-.867-1.4,3.1c-1.519,1.9-.159,3.381.883,4.714.467.6,1.61.663,2.447.97l1.3-.3.265.326.346.347-.166.507-1.417.833-3.7-.749-2.055-1.773-1.877,3c-.117-.445-.267-.885-.344-1.339-.22-1.307-.72-.788-1.242-.207-1.115-2.312-3.464-2.42-5.494-3.448l.089,2.282c-2.188-1.737-1.07-4.163-1.141-7.031-1.3,2.892-2.129,1.415-3,.492.6-.394,1.17-1.039,1.817-1.132,1.35-.2,1.284-.858.931-1.817a11.015,11.015,0,0,1-.294-1.3l5.175-2.244-.178-.467-1.507-.325Z" transform="translate(-317.712 -388.584)" fill="#ffc20e"/>
        <path id="Path_943" data-name="Path 943" d="M353.126,439.3c.462.524,1.173.975,1.349,1.582,1.518,5.243,2.946,10.513,4.374,15.782a2.527,2.527,0,0,1-.139.951c-.427-1.044-.8-2.118-1.314-3.116-.167-.322-.715-.449-1.088-.665a7.708,7.708,0,0,0-.633,6.727l1.846-.676c1.486-.028.805-1.353,1.213-2.027,1.8,3.419,3.569,6.854,5.406,10.253a25.277,25.277,0,0,1,2.692,11.56c-.817-.263-1.2-.043-.955.863-.458-.263-1.2-.43-1.329-.807-.711-2.064-1.271-4.179-1.884-6.276a5.821,5.821,0,0,0-.262-2.2c-.48-.842-1.455-1.4-1.969-2.227-1.04-1.683-1.894-1.466-2.8.045a14.316,14.316,0,0,0-.643-2.265c-2.4-5.153-4.853-10.287-7.288-15.426l.928-.385,2.479,5.72.762-.223a14.966,14.966,0,0,1,.215-2.046c.217-.907.56-1.782.85-2.671l.821-1.382a3.723,3.723,0,0,0,.077-1.376c-.51-1.453-1.237-2.837-1.66-4.312a7.179,7.179,0,0,1,.144-2.374Zm6.185,24.1c-.362,1.407.586,3.839,1.555,4.163a.954.954,0,0,0,.832-.228.873.873,0,0,0,.094-.832C361.026,465.469,360.192,464.486,359.311,463.4Z" transform="translate(-317.214 -387.98)" fill="#ffc20e"/>
        <path id="Path_944" data-name="Path 944" d="M339.708,423.626l.166-.507c.036-.1.07-.192.106-.288l-.451-.059-.265-.326a.254.254,0,0,0-.106-.293c.02-.093.043-.185.064-.277l-.143.246-1.116.628c-.837-.307-1.98-.373-2.447-.97-1.041-1.333-2.4-2.818-.882-4.714l1.051.387,1.393,1.208a3.741,3.741,0,0,0,.673.958c.566.422,1.413,1.177,1.788,1.007a1.677,1.677,0,0,0,.846-2.594l.385-.141-.023.026c.725,1.1.869,3.287,2.639,2l.936-3.934,1.071,1.557.386,1.708.527,1.042c.85,2.4,1.7,2.75,3.163,1.305,1.4.949,1.662,2.3,1.333,4.091l-7.368-.156-.14.707c1.367.376,2.742.729,4.1,1.137,1.026.309,2.564-.448,2.9,1.349l-1.11,1.415-.748.752,1.152,2.657L348,434.957l-.935.41-.712-1.344-1.108-2.556-1.967.364-1.04.46-1.652.16-1.389-1.07c.467-1.019.864-1.978,2.206-2.309a1.172,1.172,0,0,0,.643-2.038l-.748-1.9Z" transform="translate(-317.476 -388.368)" fill="#ffc20e"/>
        <path id="Path_945" data-name="Path 945" d="M360.054,496.45c1.886-.709,1.4-2.621,1.152-3.625a30.339,30.339,0,0,0-3-7.758c-1.064-1.872-3.225-3.118-4.3-4.987a54.241,54.241,0,0,1-4.67-10.013,26.781,26.781,0,0,0-4.924-9.583c-4.71-5.383-6.639-12.017-8.851-18.546-.733-2.162-1.449-4.317-3.665-5.479l2.129-.807c.732,1.69,1.45,3.167,2.016,4.7s.987,3.147,1.471,4.724q1.636,3.446,3.275,6.894l.335.736c.911,1.743,1.784,3.507,2.755,5.216a8.682,8.682,0,0,0,1.346,1.467l.933,1.677,1.7,1.948,1.823,2.232.841,1.486.372,1.511a21.852,21.852,0,0,0,.313,3.959c1.189,4.543,3.789,8.326,6.939,11.882.17-.714.235-1.571-.158-1.938-2.322-2.171-3.24-5.1-4.369-7.893a10.414,10.414,0,0,1-.219-3.231l.709-.16a26.672,26.672,0,0,1,1.95,2.225c.61.863,1.07,1.832,1.6,2.754l-.512.24-1.309-1.058-.514.176c.1.848-.061,1.87.359,2.508a51.415,51.415,0,0,0,3.437,4.273l2.373,2.425,2.325,2.777-.325.271-.738-.654.2,4q.192,2.794.383,5.588-.518,1.043-1.034,2.085l-1.041.476a.64.64,0,0,0-.162-.29C359.692,498.348,358.992,497.777,360.054,496.45Z" transform="translate(-317.512 -388.04)" fill="#ffc20e"/>
        <path id="Path_946" data-name="Path 946" d="M343.3,405.16a20.239,20.239,0,0,0-2.967,3.378c-1.641,2.98-2.545,3.539-5.726,2.774-.561.752-.979,1.748-1.724,2.186-.677.4-1.711.188-2.736.256l.679,3.3-.4.218-5.766-5.076a4.774,4.774,0,0,1,4.968-1.949c2.18.518,2.7-.589,3.049-2.108a13.243,13.243,0,0,0,.062-2.815c1.276-1.318-.423-2.15-.528-3.242,2.385.779,4.754,1.612,7.16,2.315C340.642,404.768,341.984,404.913,343.3,405.16Z" transform="translate(-317.63 -388.599)" fill="#ffc20e"/>
        <path id="Path_947" data-name="Path 947" d="M362.936,495.487l-.384-5.588.013.005,1.78,1.223-.679.457,3.584,3.407c1.63-.611,1.63-.611,2.667.578l2.6,3.534,2.02-.747a12.511,12.511,0,0,0,2.486-.5c1.518-.628,2.97-1.419,4.448-2.143l.3.463-3.793,2.59c-4.351,1.741-8.739,3.394-13.041,5.246-3.69,1.588-7.29,3.386-10.906,5.141a5.744,5.744,0,0,0-1.23,1.144l-.739.485c-.065.057-.132.112-.2.166a11.125,11.125,0,0,1-1.983-1.147,29.632,29.632,0,0,1,1.709-3.6l2.818.427,3.928-1.208a9.013,9.013,0,0,0,1.874-.361c3.26-1.38,6.5-2.816,9.74-4.233l2.081-.345-.141-.525-1.932.837-.2-.408-1.281-2.032-.523-1.067c-.534-.938-1.087-1.65-2.428-1.41A8.09,8.09,0,0,1,362.936,495.487Z" transform="translate(-317.211 -387.138)" fill="#ffc20e"/>
        <path id="Path_948" data-name="Path 948" d="M362.508,472.926c.613,2.1,1.173,4.213,1.884,6.277.13.377.87.544,1.329.807q.213,1.054.425,2.106l-.323.162.255.205c.328.711.652,1.423,1,2.125.021.042.24-.015.366-.026l-.052-.384-.36-2.229-.174-1.641c.271.265.726.494.786.8a13.052,13.052,0,0,0,5.323,8.078q0,.415.008.831.078.755.156,1.515l1.305.072-1.873,1.587c-1.257-1.506-2.472-3.047-3.791-4.5a6.448,6.448,0,0,0-1.664-.973c-.523-.826-1-1.69-1.587-2.461a7.837,7.837,0,0,0-1.334-1.12l.031.013-1.061-1.328c-.716-2.014-1.452-4.021-2.142-6.044-.64-1.876-1.23-3.769-1.841-5.654l1.071-.322Z" transform="translate(-317.056 -387.455)" fill="#ffc20e"/>
        <path id="Path_949" data-name="Path 949" d="M380.158,526.9c.657-.374,1.333-1.089,1.968-1.054a4.889,4.889,0,0,0,4.158-1.776,4.736,4.736,0,0,1,2.527-.955,24.4,24.4,0,0,1,3.237-.149c-2.531,1.574-1,3.286-.319,4.989l-.792.358c-1.583-3.895-2.225-4.152-4.823-1.789l1.636,3.326-4.807,2.229c-1.843-4.067-1.843-4.069-5.912-2.092a5.776,5.776,0,0,0-.571.348l1.6,3.7-1.581.592-2.282-3.238-.548-1.028q1.086-.75,2.169-1.5c1.069.639,4.395-.493,4.8-1.654C380.632,527.156,380.318,527,380.158,526.9Z" transform="translate(-316.815 -386.588)" fill="#ffc20e"/>
        <path id="Path_950" data-name="Path 950" d="M337.454,445.168c-.485-1.577-.9-3.179-1.472-4.724s-1.284-3.011-2.016-4.7l-2.129.807-.506-.187c-2.45-1.806-2.962-4.182-1.317-6.1.758.622,1.429,1.564,2.293,1.8a20.569,20.569,0,0,0,5.611.839c1.712-.02,1.572.878,1.774,2.575-1.464-1.278-2.655-1.482-2.733.354a6.818,6.818,0,0,0,.858,2.819c.532,1.191,1.207,2.317,1.949,3.714l-2.039.082Z" transform="translate(-317.557 -388.13)" fill="#ffc20e"/>
        <path id="Path_951" data-name="Path 951" d="M397.379,524.752c-.109-.312-.232-.62-.326-.936-.526-1.772-1.456-2.683-3.46-1.833q1.873-.81,3.743-1.621l10.2-6.682c1.775,1.831,1.939,2.536.007,4.016C404.272,520.2,400.779,522.415,397.379,524.752Z" transform="translate(-316.483 -386.742)" fill="#ffc20e"/>
        <path id="Path_952" data-name="Path 952" d="M368.108,537.52c-3.271.8-6.546,1.59-9.812,2.416-2.314.584-3.667-.315-4.193-2.588q3.681-.891,7.363-1.784c1.854-.453,3.708-.914,5.562-1.372Z" transform="translate(-317.14 -386.401)" fill="#ffc20e"/>
        <path id="Path_953" data-name="Path 953" d="M319.782,415.7c.874.923,1.7,2.4,3-.492.07,2.868-1.047,5.294,1.141,7.031l.36.716.509.247a1.116,1.116,0,0,1,.139.319l.191.393.011.006.653.582,1.1,2.611-.05.76-.825,2.614-1.537-.263q-.619-.977-1.239-1.955c-.054-.4-.108-.8-.161-1.207a7.94,7.94,0,0,0-.322-2.494c-1.25-2.571-2.66-5.064-4.009-7.586l-.36-.7c.054-.169.109-.338.163-.506Z" transform="translate(-317.735 -388.381)" fill="#ffc20e"/>
        <path id="Path_954" data-name="Path 954" d="M321.6,398.972q-.259-.5-.515-1.01c-.15-1.125-.38-2.247-.419-3.375-.021-.638.429-1.3.387-1.928a13.817,13.817,0,0,0-.6-2.459q.3-.188.6-.374a5.357,5.357,0,0,1,.975,1.2c.361.876.571,1.814.845,2.726l.4-.171.428-2.615,1.73,3.639.251,2.583.718,1.538,1.757,1.781-1.331,1.346c-.528-1.105-.371-2.717-2.145-2.9l-1.641-3.191c-.427,3.31-.263,3.535,1.642,3.188l.428,4.241Z" transform="translate(-317.7 -388.803)" fill="#ffc20e"/>
        <path id="Path_955" data-name="Path 955" d="M328.095,400.525l-1.757-1.781q-.358-.77-.718-1.538-.127-1.292-.251-2.583l3.052-1.618a4.826,4.826,0,0,1-4.144-4.037l2.757.106c.626,1.3,1.26,2.606,1.876,3.915a7.667,7.667,0,0,1,.766,1.808c.351,1.972.6,3.963.883,5.946l-.72,1.349-.427-.175.174-1.025-.955.191Z" transform="translate(-317.637 -388.817)" fill="#ffc20e"/>
        <path id="Path_956" data-name="Path 956" d="M324.375,430.1l1.537.263c.287-.907.555-1.76.824-2.613q.352.793.7,1.584l-.076.223.1-.212,1.767-6.065h0c.523-.581,1.023-1.1,1.242.207.076.453.227.894.344,1.339-.191,1.055-.415,2.107-.56,3.168-.108.79-.113,1.593-.164,2.39-1.646,1.92-1.134,4.3,1.317,6.1-1.846.676-2.858-.711-3.792-1.772A47.973,47.973,0,0,1,324.375,430.1Z" transform="translate(-317.635 -388.256)" fill="#ffc20e"/>
        <path id="Path_957" data-name="Path 957" d="M367.9,537.569l-1.08-3.329,7.5-3,2.282,3.238Z" transform="translate(-316.929 -386.45)" fill="#ffc20e"/>
        <path id="Path_958" data-name="Path 958" d="M374.53,531.261l-7.5,3c-1.854.457-3.708.919-5.562,1.372q-3.68.9-7.362,1.784-.185-1.237-.367-2.471c3.6-.53,7.245-.844,10.778-1.655,3.218-.738,6.312-2.015,9.462-3.054Q374.256,530.748,374.53,531.261Z" transform="translate(-317.146 -386.467)" fill="#ffc20e"/>
        <path id="Path_959" data-name="Path 959" d="M351.821,510.607c.068-.054.135-.109.2-.166l1.839.418c1.95,4.558,3.992,9.08,5.81,13.69.8,2.029,1.926,2.747,3.962,2.035l.231.614-2.172.705-2.653-.682Z" transform="translate(-317.178 -386.796)" fill="#ffc20e"/>
        <path id="Path_960" data-name="Path 960" d="M350.139,428.8c-.335-1.8-1.874-1.04-2.9-1.349-1.358-.408-2.733-.76-4.1-1.137l.14-.707,7.367.156c.329-1.8.064-3.142-1.333-4.091q0-1.51,0-3.019l-2.06-7.431,1.132.278c.407,1.62.884,3.225,1.206,4.861.664,3.387,1.334,6.779,1.782,10.2C351.461,427.236,350.575,428.047,350.139,428.8Z" transform="translate(-317.323 -388.447)" fill="#ffc20e"/>
        <path id="Path_961" data-name="Path 961" d="M359.036,526.947l2.652.682.222.746c-.832.635-1.641,1.3-2.5,1.9-1.358.937-2.751,1.824-4.13,2.732q-1,.412-2.01.821l-1.333-1.619Z" transform="translate(-317.176 -386.521)" fill="#ffc20e"/>
        <path id="Path_962" data-name="Path 962" d="M397.554,511.125l-2.063,1.161-.092-.128-7.155-16.246.933-.8c1.721,3.849,3.451,7.693,5.161,11.546C395.1,508.373,395.625,510.251,397.554,511.125Z" transform="translate(-316.572 -387.051)" fill="#ffc20e"/>
        <path id="Path_963" data-name="Path 963" d="M378.016,533.934l-1.6-3.7a5.774,5.774,0,0,1,.571-.347c4.069-1.977,4.069-1.974,5.912,2.092Z" transform="translate(-316.769 -386.494)" fill="#ffc20e"/>
        <path id="Path_964" data-name="Path 964" d="M328.626,400.92l.955-.191-.174,1.025.427.175.719-1.348.48-.175.938,1.415c-.446.006-.987-.144-1.315.055a5.722,5.722,0,0,0-1.137,1.248l.018-.062c-.731-1.888-1.45.485-2.237.109l.772.45q.241,2.146.482,4.291l-.782.492q-1.214-2.332-2.427-4.661c-.1-.232-.2-.465-.3-.7l-.428-4.241v0c1.774.183,1.618,1.794,2.145,2.9Z" transform="translate(-317.631 -388.654)" fill="#ffc20e"/>
        <path id="Path_965" data-name="Path 965" d="M319.78,415.859l-1.235.079c0-.252-.111-.6.013-.743,2.541-2.983,5.2-5.878,6.964-9.431.063.877.126,1.756.2,2.809l1.507.325.178.467-5.175,2.244a11,11,0,0,0,.294,1.3c.353.959.419,1.621-.931,1.817C320.95,414.82,320.383,415.465,319.78,415.859Z" transform="translate(-317.733 -388.538)" fill="#ffc20e"/>
        <path id="Path_966" data-name="Path 966" d="M348.367,411.592l-1.132-.278,2.06,7.431a7.311,7.311,0,0,1-1.1-1.525c-1.376-3.562-2.687-7.15-4.02-10.73q.145-.5.289-1C346.875,406.812,347.307,409.4,348.367,411.592Z" transform="translate(-317.306 -388.542)" fill="#ffc20e"/>
        <path id="Path_967" data-name="Path 967" d="M372.748,489.778q0-.416-.008-.831c2.875-.895,5.743-1.816,8.635-2.651.364-.1.857.239,1.291.374l-1.268-.219c.1.453.186.8.268,1.153-.2.1-.4.206-.6.31l-3.993,1.779-2.074.42Z" transform="translate(-316.83 -387.198)" fill="#ffc20e"/>
        <path id="Path_968" data-name="Path 968" d="M359.754,495.455c-1.061,1.327-.362,1.9.945,2.21l-.247.489-1.09.492-4.384,1.071.909-.688,2.363-1.169-.242-.521-2.406,1.042-.987.494-3.515,1.091-.932.729.215.3.878-.458-.385.969-.536,1.368c-.182-.881-.79-2.32-.481-2.555C352.823,498.066,355.927,495.989,359.754,495.455Z" transform="translate(-317.212 -387.046)" fill="#ffc20e"/>
        <path id="Path_969" data-name="Path 969" d="M353.149,439.375q.6,1.514,1.19,3.03l-1.382.6-1.237-2.486c-.592-1.148-.922-2.591-2.7-2.4l-.574-1.758-.086.012.309-.2.708-1.4,1.288.01.347.7,1.441,2.494Z" transform="translate(-317.236 -388.055)" fill="#ffc20e"/>
        <path id="Path_970" data-name="Path 970" d="M381.524,487.6l-.266-1.153,1.268.219.648,1.025-.638.719c.444-.132.649-.138.766-.243a1.6,1.6,0,0,0,.264-.487q1.331,1.562,2.661,3.124a.642.642,0,0,0,.11.295l-3.469,2.229.509-.972-1.838-3.031.188-.838.108-.058Z" transform="translate(-316.689 -387.195)" fill="#ffc20e"/>
        <path id="Path_971" data-name="Path 971" d="M387.546,529.813l-1.636-3.327c2.6-2.363,3.24-2.105,4.823,1.789Z" transform="translate(-316.611 -386.554)" fill="#ffc20e"/>
        <path id="Path_972" data-name="Path 972" d="M350.331,502.773l.537-1.368.714.556a9.717,9.717,0,0,0,.986,2.118,1.8,1.8,0,0,0,1.458.494c.338-.048.6-.656.89-1.015,1.356,1.1,2.576.2,3.827-.259l.393.926-.679.371c-1.884-.551-2.8,1.033-4.067,1.844l-2.817-.427Z" transform="translate(-317.203 -386.946)" fill="#ffc20e"/>
        <path id="Path_973" data-name="Path 973" d="M407.482,513.711l-10.2,6.682-.425-.645c1.334-.873,2.726-1.671,3.986-2.639,1.309-1.006,2.494-2.175,3.732-3.273l1.618-2.083C407.31,511.954,408.56,512.068,407.482,513.711Z" transform="translate(-316.429 -386.774)" fill="#ffc20e"/>
        <path id="Path_974" data-name="Path 974" d="M330.993,400.567l-.48.175c-.286-1.984-.532-3.975-.882-5.947a7.661,7.661,0,0,0-.766-1.808c-.616-1.309-1.249-2.611-1.876-3.915a18.371,18.371,0,0,1,2.616,3.681C330.584,395.225,332.065,397.7,330.993,400.567Z" transform="translate(-317.591 -388.815)" fill="#ffc20e"/>
        <path id="Path_975" data-name="Path 975" d="M405.655,510.617l-.9.7a16.057,16.057,0,0,0-2.2-.493c-1.387-.081-2.778-.074-4.168-.1,2.171-.613,4.335-1.255,6.529-1.765A8.907,8.907,0,0,1,405.655,510.617Z" transform="translate(-316.403 -386.821)" fill="#ffc20e"/>
        <path id="Path_976" data-name="Path 976" d="M388.2,494.338c-.955.5-1.745,1.114-3.044.428-.741-.391-1.971.143-2.982.261,0-.05-.021-.118,0-.147a3.834,3.834,0,0,1,.28-.279,17.632,17.632,0,0,0,2.671-1.279,14.266,14.266,0,0,0,1.929-1.942l.024-.6.864-.118Q388.071,492.5,388.2,494.338Z" transform="translate(-316.673 -387.125)" fill="#ffc20e"/>
        <path id="Path_977" data-name="Path 977" d="M323.085,427.047q.079.6.161,1.207a23.22,23.22,0,0,1-5.478-9.88c-.141-.622.4-1.4.626-2.1.12.233.24.465.359.7a9.251,9.251,0,0,0,.366,3.021C320.312,422.405,321.747,424.7,323.085,427.047Z" transform="translate(-317.745 -388.363)" fill="#ffc20e"/>
        <path id="Path_978" data-name="Path 978" d="M320.478,390.192a13.835,13.835,0,0,1,.6,2.459c.042.63-.409,1.29-.387,1.929.039,1.129.268,2.25.419,3.375-.246-.07-.62-.064-.716-.225a8.063,8.063,0,0,1-.869-7.23C319.594,390.306,320.148,390.291,320.478,390.192Z" transform="translate(-317.724 -388.797)" fill="#ffc20e"/>
        <path id="Path_979" data-name="Path 979" d="M324.3,388.968a4.826,4.826,0,0,0,4.144,4.037l-3.052,1.618-1.73-3.64-.534-1.883Z" transform="translate(-317.656 -388.817)" fill="#ffc20e"/>
        <path id="Path_980" data-name="Path 980" d="M329.439,403.075a5.726,5.726,0,0,1,1.137-1.248c.327-.2.868-.049,1.315-.055a1.232,1.232,0,0,0,.236.315c.1,1.092,1.8,1.925.528,3.242A3.135,3.135,0,0,1,329.439,403.075Z" transform="translate(-317.551 -388.605)" fill="#ffc20e"/>
        <path id="Path_981" data-name="Path 981" d="M356.2,453.6c.373.215.921.343,1.088.665.516,1,.887,2.072,1.314,3.116a.221.221,0,0,0,.024.243c-.408.674.273,2-1.213,2.027Q356.806,456.622,356.2,453.6Z" transform="translate(-317.105 -387.742)" fill="#ffc20e"/>
        <path id="Path_982" data-name="Path 982" d="M323.159,389.1l.534,1.883q-.215,1.307-.428,2.615l-.4.171c-.274-.912-.484-1.849-.845-2.726a5.358,5.358,0,0,0-.975-1.2C321.267,388.212,322.33,388.993,323.159,389.1Z" transform="translate(-317.69 -388.82)" fill="#ffc20e"/>
        <path id="Path_983" data-name="Path 983" d="M388.105,494.338q-.128-1.836-.255-3.672l2.128.985q-.56,1.2-1.118,2.408Z" transform="translate(-316.579 -387.125)" fill="#ffc20e"/>
        <path id="Path_984" data-name="Path 984" d="M325.093,403.046c.1.232.2.465.3.7l-.474.68-3.343-5.6Z" transform="translate(-317.681 -388.653)" fill="#ffc20e"/>
        <path id="Path_985" data-name="Path 985" d="M350.671,434.857l-1.288-.01-1.609-.122,1.582-1.414-1.152-2.658.748-.752Q349.812,432.379,350.671,434.857Z" transform="translate(-317.246 -388.136)" fill="#ffc20e"/>
        <path id="Path_986" data-name="Path 986" d="M367.285,484.061l.052.384c-.126.011-.345.068-.366.026-.348-.7-.671-1.414-1-2.125a.378.378,0,0,0,.068-.367q-.212-1.052-.425-2.105c-.241-.906.137-1.126.955-.863q.091.59.182,1.18l.174,1.64Q367.106,482.947,367.285,484.061Z" transform="translate(-316.95 -387.321)" fill="#ffc20e"/>
        <path id="Path_987" data-name="Path 987" d="M352.4,437.954l-1.441-2.494Q351.684,436.708,352.4,437.954Z" transform="translate(-317.193 -388.044)" fill="#ffc20e"/>
        <path id="Path_988" data-name="Path 988" d="M387.014,490.783c-.008.2-.016.4-.025.6l-.736-.351a.652.652,0,0,1-.109-.295Z" transform="translate(-316.607 -387.124)" fill="#ffc20e"/>
        <path id="Path_989" data-name="Path 989" d="M383.544,487.661a1.6,1.6,0,0,1-.264.487c-.118.1-.322.111-.767.243l.638-.719C383.282,487.674,383.414,487.671,383.544,487.661Z" transform="translate(-316.668 -387.175)" fill="#ffc20e"/>
        <path id="Path_990" data-name="Path 990" d="M361.88,528.773l-.223-.746,2.173-.706,4.468-1.936-.122-.356-4.577,1.678c-2.036.712-3.162-.006-3.962-2.035-1.818-4.61-3.86-9.132-5.81-13.69,2.122-.58,4.226-1.247,6.377-1.682a2.214,2.214,0,0,1,1.9.78c2.279,4.077,4.434,8.224,6.611,12.357.3.576.526,1.195.952,2.18,1.815-1.009,3.41-1.9,5.006-2.784,1.5,1.12,2.031-.464,3.145-1.041-1.983-4.577-3.946-9.054-5.854-13.554a16.843,16.843,0,0,1-.645-2.491l3.2-1.715c1.745,4.706,3.413,9.443,5.265,14.106,1.093,2.751,2.035,2.965,4.371,1.459,2.171-1.416,4.336-2.842,6.52-4.236a5.1,5.1,0,0,1,1.092-.39c.66-.015,1.437.184,1.955-.095a13.944,13.944,0,0,0,2.25-1.849l.094.128c.09.771.179,1.541.3,2.63l4.581-.554.189.283-6.544,3.808-4.537-.8,2.495-2.209-.2-.333-8.613,4.832c.446,1.33-.282,3.179,2.65,3.537-4.493,1.739-7.948,4.2-12.4,4.23l2.466-1.347-1.07-2.467c-2.2.954-4.366,1.818-6.458,2.831-1,.484-.712,1.155.157,1.58a14.4,14.4,0,0,0,1.48.541l.154.571-4.873,1.679Zm19.171-3.89c1.7-1.29,1.077-2.294.512-3.2-.116-.185-.764-.038-1.167-.044Z" transform="translate(-317.145 -386.919)" fill="#ffc20e"/>
        <path id="Path_991" data-name="Path 991" d="M390.861,507.779c-1.87.082-3.743.26-5.608.191a2.325,2.325,0,0,1-1.6-1.141,44.33,44.33,0,0,1-2.258-5.172,1.883,1.883,0,0,1,.257-1.691c1.318-.885,2.776-1.563,4.182-2.316Q388.349,502.716,390.861,507.779Z" transform="translate(-316.688 -387.009)" fill="#ffc20e"/>
        <path id="Path_992" data-name="Path 992" d="M371.082,504.719a16.845,16.845,0,0,0,.646,2.491c1.908,4.5,3.87,8.977,5.854,13.554-1.114.577-1.642,2.161-3.145,1.041-1.992-4.223-3.933-8.47-5.99-12.66C367.113,506.431,367.805,505.174,371.082,504.719Z" transform="translate(-316.912 -386.891)" fill="#ffc20e"/>
        <path id="Path_993" data-name="Path 993" d="M383.816,518.6c-2.335,1.506-3.278,1.292-4.37-1.459-1.852-4.663-3.52-9.4-5.265-14.106l2.611-.483c.938,2.165,1.881,4.36,2.839,6.548Q381.713,513.859,383.816,518.6Z" transform="translate(-316.806 -386.927)" fill="#ffc20e"/>
        <path id="Path_994" data-name="Path 994" d="M390.787,507.808q-2.513-5.064-5.024-10.128,1.263-.891,2.522-1.782l7.155,16.247a13.994,13.994,0,0,1-2.251,1.849c-.518.279-1.3.079-1.955.095,1.648-.78,1.945-1.884.951-3.442A27.041,27.041,0,0,1,390.787,507.808Z" transform="translate(-316.614 -387.038)" fill="#ffc20e"/>
        <path id="Path_995" data-name="Path 995" d="M381.9,488.456c-.063.28-.126.558-.188.838l-.985.844-4.153,2.783-1.342-.148a8.753,8.753,0,0,0,.693,2.139c.115.189.991-.085,1.518-.147l.768.556-4.046,2.673c-.365-.832-.768-1.65-1.087-2.5-.421-1.125-1.072-1.587-2.219-.948q.755-.814,1.511-1.63l1.873-1.587Z" transform="translate(-316.862 -387.162)" fill="#ffc20e"/>
        <path id="Path_996" data-name="Path 996" d="M352.745,510.153a5.75,5.75,0,0,1,1.23-1.144c3.616-1.755,7.216-3.553,10.907-5.141,4.3-1.852,8.69-3.505,13.041-5.246-.575.671-1.047,1.761-1.747,1.936a14.553,14.553,0,0,0-5.877,3.1,8.193,8.193,0,0,1-2.647,1.123c-2.592.866-5.224,1.622-7.8,2.544C357.456,508.188,355.113,509.205,352.745,510.153Z" transform="translate(-317.163 -386.993)" fill="#ffc20e"/>
        <path id="Path_997" data-name="Path 997" d="M378.116,495.292l-.767-.556-.869-1.843,4.153-2.782q.056,2.008.11,4.016l-.755.472Z" transform="translate(-316.768 -387.134)" fill="#ffc20e"/>
        <path id="Path_998" data-name="Path 998" d="M370.878,494.451c1.148-.64,1.8-.178,2.219.947.319.849.722,1.667,1.087,2.5a1.776,1.776,0,0,1,.022.388l-2.02.747c-.991-1.349-1.8-2.441-2.6-3.534Z" transform="translate(-316.883 -387.067)" fill="#ffc20e"/>
        <path id="Path_999" data-name="Path 999" d="M379.929,494.583l.755-.471,2.2-.859,3.469-2.229.735.351a14.212,14.212,0,0,1-1.928,1.942,17.647,17.647,0,0,1-2.671,1.279Z" transform="translate(-316.711 -387.119)" fill="#ffc20e"/>
        <path id="Path_1000" data-name="Path 1000" d="M361.857,528.352l3.966,2.195c-2.862.865-5.712,1.77-8.594,2.563a6.216,6.216,0,0,1-2-.126c1.38-.91,2.772-1.8,4.131-2.734C360.216,529.656,361.024,528.988,361.857,528.352Z" transform="translate(-317.122 -386.498)" fill="#ffc20e"/>
        <path id="Path_1001" data-name="Path 1001" d="M404.614,513.8c-1.238,1.1-2.423,2.267-3.732,3.273-1.261.968-2.652,1.766-3.986,2.639l-2.182.945-.183-.33Z" transform="translate(-316.468 -386.74)" fill="#ffc20e"/>
        <path id="Path_1002" data-name="Path 1002" d="M380.122,526.833c.161.1.475.258.461.3-.4,1.161-3.728,2.293-4.8,1.654Z" transform="translate(-316.78 -386.523)" fill="#ffc20e"/>
        <path id="Path_1003" data-name="Path 1003" d="M330,430.4c.051-.8.056-1.6.164-2.39.145-1.061.369-2.113.56-3.168l1.877-3c.659.568,1.357,1.17,2.055,1.773a6.529,6.529,0,0,0,1.248,1.865,4.054,4.054,0,0,1,1.975,3.981c-.051.561.9,1.214,1.388,1.824l1.389,1.069.583,1.568,4.837,14.073.708-.264c-.847-1.955-1.738-3.892-2.511-5.876a5.4,5.4,0,0,1-.048-1.8l.571,1.168,4.008,9.287q.134.2.267.409a.458.458,0,0,1,.079.288,6.4,6.4,0,0,0,.125,2.2c3.018,6.772,6.106,13.514,9.194,20.255a4.026,4.026,0,0,0,.748.86c.668,1.537,1.286,3.1,2.017,4.606.745,1.538,1.6,3.023,2.408,4.531l1.06,1.328-.117.22c.029-.023.077-.041.084-.069a.64.64,0,0,0,0-.165,7.837,7.837,0,0,1,1.334,1.12c.592.772,1.064,1.636,1.587,2.461l-1.555,2.642-3.141-.162-.013-.005c-.066-1.307-.133-2.613-.2-4l.738.654.325-.272-2.325-2.777c.1-.378.4-.864.266-1.119-1.325-2.5-2.723-4.967-4.1-7.443-.526-.922-.986-1.891-1.6-2.754a26.65,26.65,0,0,0-1.95-2.225l-.709.16a10.413,10.413,0,0,0,.219,3.231c1.128,2.791,2.046,5.723,4.368,7.893.392.367.327,1.224.158,1.938-3.149-3.556-5.749-7.339-6.938-11.882a21.839,21.839,0,0,1-.313-3.959l2.139-.251-.192-1.545-1.506-.074-.649-2.866q-.043-.633-.085-1.266a.717.717,0,0,0,.125.085c.025.011.063-.008.094-.013l-.227-.05-.726-4.466-2.825-6.517-.546.265,2.64,5.182-3.293.472a23.062,23.062,0,0,1-4.047-10.386l.512-.253,2.053,1.428c-.4-.913-.47-1.609-.823-1.806-1.455-.81-3.633-2.448-4.365-1.971-1.395.909-.143,2.8.584,4.119,1.837,3.342,3.767,6.631,5.66,9.941l-.2,1.117a8.688,8.688,0,0,1-1.346-1.467c-.971-1.709-1.844-3.474-2.755-5.216l-.336-.736q-1.638-3.448-3.274-6.894c.087-.864.174-1.728.273-2.723l2.039-.082c-.742-1.4-1.417-2.523-1.949-3.714a6.819,6.819,0,0,1-.858-2.819c.077-1.836,1.269-1.632,2.733-.354-.2-1.7-.062-2.6-1.774-2.575a20.57,20.57,0,0,1-5.611-.839C331.428,431.965,330.757,431.023,330,430.4Zm2.67-3.692c.088,1.609.728,2.748,2.356,2.956.3.039,1.093-.935,1.013-1.079C335.341,427.347,334.617,425.973,332.669,426.709Z" transform="translate(-317.541 -388.27)" fill="#ffc20e"/>
        <path id="Path_1004" data-name="Path 1004" d="M344.2,406.474c1.333,3.58,2.643,7.167,4.02,10.73a7.306,7.306,0,0,0,1.1,1.525q0,1.51,0,3.019c-1.464,1.445-2.313,1.094-3.163-1.305l1.483.191c.865-2.933-.6-5.173-3.263-5.068l-.357-2.667.042.052.3-.5c.559-1.732-.717-2.675-1.624-3.776C341.827,407.008,343.1,406.8,344.2,406.474Z" transform="translate(-317.335 -388.526)" fill="#ffc20e"/>
        <path id="Path_1005" data-name="Path 1005" d="M339.19,431.255c-.491-.61-1.439-1.263-1.388-1.824a4.053,4.053,0,0,0-1.975-3.981,6.526,6.526,0,0,1-1.248-1.866l3.7.749,1.417-.833,1.592,1.512c-.2.807-.928,1.828.748,1.895a1.172,1.172,0,0,1-.643,2.038C340.054,429.277,339.656,430.236,339.19,431.255Zm1.249-5.609c-1.7-.876-1.7-.876-2.27.984Z" transform="translate(-317.465 -388.243)" fill="#ffc20e"/>
        <path id="Path_1006" data-name="Path 1006" d="M326.8,427.038q-.549-1.305-1.1-2.612l-.653-.581-.011-.006q-.095-.2-.191-.393a1.115,1.115,0,0,0-.139-.319l-.509-.247-.36-.716c-.025-.638-.05-1.276-.089-2.282,2.03,1.029,4.379,1.137,5.494,3.448h0c-.513.7-1.049,1.389-1.532,2.11C327.368,425.947,327.1,426.5,326.8,427.038Z" transform="translate(-317.645 -388.303)" fill="#ffc20e"/>
        <path id="Path_1007" data-name="Path 1007" d="M342.78,408.636c.907,1.1,2.183,2.043,1.624,3.776l-.3.5-.04-.051-3.128,1.58-.8-1.311c.4-.832.743-1.692,1.2-2.485C341.759,409.939,342.3,409.3,342.78,408.636Z" transform="translate(-317.373 -388.49)" fill="#ffc20e"/>
        <path id="Path_1008" data-name="Path 1008" d="M340.74,417.919l-.385.141c-.865,1.456-2.251.181-3.307.629l-1.393-1.208c1.728-.074,2.62-.768,1.936-2.623l1.2-.572c.281.333.561.665.843,1l.424.795Z" transform="translate(-317.447 -388.396)" fill="#ffc20e"/>
        <path id="Path_1009" data-name="Path 1009" d="M339.589,415.3q-.422-.5-.843-1c-.757-1.819.9-.882,1.421-1.247l.8,1.311c1.389,1.2,1.268,2.667-.3,3.595l.023-.026-.68-1.84c.093-.256.189-.512.285-.768Z" transform="translate(-317.399 -388.416)" fill="#ffc20e"/>
        <path id="Path_1010" data-name="Path 1010" d="M337.608,414.863c.684,1.855-.207,2.549-1.936,2.623l-1.051-.387,1.4-3.1Z" transform="translate(-317.465 -388.401)" fill="#ffc20e"/>
        <path id="Path_1011" data-name="Path 1011" d="M328.029,403.563l-.772-.45c.787.376,1.506-2,2.237-.109Z" transform="translate(-317.587 -388.596)" fill="#ffc20e"/>
        <path id="Path_1012" data-name="Path 1012" d="M339.093,422.054a.253.253,0,0,1,.1.292l-1.3.3,1.116-.628Z" transform="translate(-317.41 -388.267)" fill="#ffc20e"/>
        <path id="Path_1013" data-name="Path 1013" d="M339.437,422.661l.451.059c-.036.1-.07.192-.106.288Z" transform="translate(-317.384 -388.257)" fill="#ffc20e"/>
        <path id="Path_1014" data-name="Path 1014" d="M327.721,408.255l.782-.492Q328.111,408.007,327.721,408.255Z" transform="translate(-317.579 -388.504)" fill="#ffc20e"/>
        <path id="Path_1015" data-name="Path 1015" d="M355.027,451.828c-.29.888-.633,1.764-.85,2.671a14.965,14.965,0,0,0-.216,2.045l-.762.223q-1.24-2.859-2.479-5.72c-.012-.545-.024-1.09-.047-2.068l2.591,2.264c-.852-3.243-1.165-6.516-3.563-9.342l-1.219,2.515c-1.037-1.092-.965-3.236-3.119-2.874l-1.27-3.458.254-2.161c2.519,1.041,3.016,3,2.971,5.342a8.285,8.285,0,0,0,1.485-.449c1.2-.659,1.9-.159,2.337.957C352.446,445.122,353.733,448.475,355.027,451.828Z" transform="translate(-317.307 -388.036)" fill="#ffc20e"/>
        <path id="Path_1016" data-name="Path 1016" d="M355.06,451.9c-1.294-3.353-2.581-6.707-3.886-10.055-.435-1.115-1.133-1.615-2.337-.957a8.291,8.291,0,0,1-1.485.449c.046-2.344-.451-4.3-2.971-5.342-.1.834-.176,1.5-.254,2.161l-2.022-6.127,1.04-.46,3.075,2.192q.355.672.712,1.344l.794,1.894q.22.54.441,1.081l-.076,2.228c1.966-2.215,2.574.033,3.733.261l1.237,2.486c.448,2.674.908,5.342,2.82,7.462Z" transform="translate(-317.34 -388.108)" fill="#ffc20e"/>
        <path id="Path_1017" data-name="Path 1017" d="M345.343,441.452c2.154-.362,2.082,1.782,3.119,2.874l1.219-2.515c2.4,2.826,2.711,6.1,3.563,9.342l-2.591-2.264c.022.978.034,1.523.047,2.068l-.928.385q-.343-.6-.687-1.2l-.029,0-.269-5.059-.632.017-.135,1.221-.993-.791-.545-1.179Z" transform="translate(-317.286 -387.945)" fill="#ffc20e"/>
        <path id="Path_1018" data-name="Path 1018" d="M349.027,449.994q.345.6.687,1.2c2.435,5.139,4.884,10.273,7.288,15.426a14.3,14.3,0,0,1,.642,2.265,15.194,15.194,0,0,0,.787,1.584,6.023,6.023,0,0,0,.878.91l.034.11c.612,1.885,1.2,3.778,1.842,5.654.69,2.023,1.426,4.03,2.142,6.044-.807-1.509-1.662-2.993-2.407-4.531-.731-1.508-1.349-3.069-2.017-4.606L348.836,450.74a.458.458,0,0,0-.079-.288Z" transform="translate(-317.229 -387.802)" fill="#ffc20e"/>
        <path id="Path_1019" data-name="Path 1019" d="M359.165,471.095a6.038,6.038,0,0,1-.878-.91,15.212,15.212,0,0,1-.787-1.584c.91-1.511,1.764-1.727,2.8-.045.514.831,1.489,1.386,1.969,2.228a5.823,5.823,0,0,1,.262,2.2q-1.132-1.052-2.265-2.1Z" transform="translate(-317.084 -387.513)" fill="#ffc20e"/>
        <path id="Path_1020" data-name="Path 1020" d="M356.218,453.6q.605,3.025,1.213,6.051l-1.846.676A7.707,7.707,0,0,1,356.218,453.6Z" transform="translate(-317.124 -387.742)" fill="#ffc20e"/>
        <path id="Path_1021" data-name="Path 1021" d="M355.7,450.341c-1.912-2.12-2.372-4.788-2.82-7.462l1.382-.6a7.179,7.179,0,0,0-.144,2.374c.423,1.474,1.15,2.859,1.66,4.312A3.723,3.723,0,0,1,355.7,450.341Z" transform="translate(-317.161 -387.93)" fill="#ffc20e"/>
        <path id="Path_1022" data-name="Path 1022" d="M359.155,463.005c.88,1.087,1.715,2.07,2.481,3.1a.873.873,0,0,1-.095.832.953.953,0,0,1-.832.228C359.741,466.844,358.793,464.412,359.155,463.005Z" transform="translate(-317.058 -387.585)" fill="#ffc20e"/>
        <path id="Path_1023" data-name="Path 1023" d="M340.634,417.97c1.564-.928,1.685-2.391.3-3.595l3.128-1.58q.175,1.331.355,2.665l-.2.571-.936,3.934C341.5,421.257,341.359,419.07,340.634,417.97Z" transform="translate(-317.364 -388.421)" fill="#ffc20e"/>
        <path id="Path_1024" data-name="Path 1024" d="M345.424,441.608q.569,1.446,1.137,2.889l-1.941-3.441q-.285-.584-.571-1.168l-2.986-6.137-.583-1.568,1.652-.16,2.022,6.127Q344.789,439.88,345.424,441.608Z" transform="translate(-317.367 -388.101)" fill="#ffc20e"/>
        <path id="Path_1025" data-name="Path 1025" d="M344.151,415.988l.2-.571c2.665-.1,4.129,2.136,3.263,5.069l-1.483-.191-.527-1.043-.386-1.707Z" transform="translate(-317.306 -388.377)" fill="#ffc20e"/>
        <path id="Path_1026" data-name="Path 1026" d="M337.025,418.627c1.056-.448,2.442.827,3.307-.629a1.677,1.677,0,0,1-.846,2.594c-.375.17-1.222-.586-1.788-1.007A3.738,3.738,0,0,1,337.025,418.627Z" transform="translate(-317.424 -388.334)" fill="#ffc20e"/>
        <path id="Path_1027" data-name="Path 1027" d="M346.2,433.769l-3.075-2.192,1.967-.364Z" transform="translate(-317.323 -388.114)" fill="#ffc20e"/>
        <path id="Path_1028" data-name="Path 1028" d="M347.647,436.949q-.4-.946-.794-1.893l.935-.41,1.609.122-.708,1.4-.349-.156.04.358.083-.014C348.19,436.555,347.918,436.753,347.647,436.949Z" transform="translate(-317.261 -388.057)" fill="#ffc20e"/>
        <path id="Path_1029" data-name="Path 1029" d="M341.934,426.883c-1.676-.067-.943-1.088-.748-1.9Z" transform="translate(-317.361 -388.218)" fill="#ffc20e"/>
        <path id="Path_1030" data-name="Path 1030" d="M345.2,417.509l.386,1.707Z" transform="translate(-317.288 -388.342)" fill="#ffc20e"/>
        <path id="Path_1031" data-name="Path 1031" d="M338.994,422.025l.143-.246c-.021.093-.044.185-.064.277Z" transform="translate(-317.392 -388.271)" fill="#ffc20e"/>
        <path id="Path_1032" data-name="Path 1032" d="M359.217,498.619l1.09-.492.409-.2,1.042-.476a5.017,5.017,0,0,1,1.5-.364c.281.015.535.492.8.761.01.154.019.308.029.463l.5,2.458L359.77,502.8C359.564,501.411,357.528,500.261,359.217,498.619Z" transform="translate(-317.066 -387.018)" fill="#ffc20e"/>
        <path id="Path_1033" data-name="Path 1033" d="M350.367,463.139l.65,2.866-.773-.552-.883-.574-1.823-2.232-1.7-1.948-.933-1.677q.1-.558.2-1.116c.528.554,1.042,1.122,1.587,1.659C347.9,460.764,349.138,461.948,350.367,463.139Z" transform="translate(-317.293 -387.67)" fill="#ffc20e"/>
        <path id="Path_1034" data-name="Path 1034" d="M358.631,481.339a51.424,51.424,0,0,1-3.437-4.273c-.42-.639-.256-1.66-.359-2.508l.514-.176,1.308,1.059Z" transform="translate(-317.128 -387.396)" fill="#ffc20e"/>
        <path id="Path_1035" data-name="Path 1035" d="M358.6,481.326l-1.973-5.9.513-.241c1.377,2.476,2.774,4.94,4.1,7.443.135.255-.167.741-.266,1.119Z" transform="translate(-317.098 -387.383)" fill="#ffc20e"/>
        <path id="Path_1036" data-name="Path 1036" d="M364,497.878c-.266-.269-.521-.746-.8-.761a5.014,5.014,0,0,0-1.5.364q.516-1.043,1.033-2.085a8.1,8.1,0,0,0,2.587.393c1.341-.24,1.894.472,2.428,1.41-1.016.037-2.269-.721-2.826.847-.119.009-.239.015-.358.018Z" transform="translate(-317.014 -387.047)" fill="#ffc20e"/>
        <path id="Path_1037" data-name="Path 1037" d="M350.157,465.329l.773.552,1.5.074.192,1.545-2.139.251q-.186-.755-.371-1.511C350.129,465.936,350.142,465.633,350.157,465.329Z" transform="translate(-317.207 -387.547)" fill="#ffc20e"/>
        <path id="Path_1038" data-name="Path 1038" d="M345.819,460.653l1.7,1.948Q346.672,461.627,345.819,460.653Z" transform="translate(-317.278 -387.624)" fill="#ffc20e"/>
        <path id="Path_1039" data-name="Path 1039" d="M350.171,465.339c-.014.3-.027.607-.041.912l-.842-1.486Z" transform="translate(-317.22 -387.556)" fill="#ffc20e"/>
        <path id="Path_1040" data-name="Path 1040" d="M340.537,451.705l.336.736Z" transform="translate(-317.366 -387.773)" fill="#ffc20e"/>
        <path id="Path_1041" data-name="Path 1041" d="M360.687,497.919l-.409.2.247-.489A.641.641,0,0,1,360.687,497.919Z" transform="translate(-317.038 -387.009)" fill="#ffc20e"/>
        <path id="Path_1042" data-name="Path 1042" d="M362.357,489.945l3.141.162,1.555-2.642a6.451,6.451,0,0,1,1.664.973c1.319,1.449,2.534,2.99,3.791,4.5q-.756.814-1.511,1.63l-1.291,1.048c-1.036-1.189-1.036-1.189-2.666-.578l-3.584-3.407.679-.457Zm6.049,1.061-.86,2.651,2.283-.083Z" transform="translate(-317.003 -387.178)" fill="#ffc20e"/>
        <path id="Path_1043" data-name="Path 1043" d="M359.769,502.784l4.813-2.032,1-.507c1.482.1,2.851.035,2.743-2.025l1.281,2.032a18.02,18.02,0,0,0-2.078.557c-2.854,1.133-5.69,2.31-8.533,3.47l-.393-.926Z" transform="translate(-317.065 -386.999)" fill="#ffc20e"/>
        <path id="Path_1044" data-name="Path 1044" d="M359,504.245c2.842-1.16,5.679-2.337,8.533-3.47a18.01,18.01,0,0,1,2.078-.557l.2.408-.008.033c-3.244,1.417-6.48,2.854-9.74,4.233a9.023,9.023,0,0,1-1.874.361l.137-.636Z" transform="translate(-317.072 -386.966)" fill="#ffc20e"/>
        <path id="Path_1045" data-name="Path 1045" d="M368.223,498.239c.108,2.06-1.261,2.121-2.743,2.025q-.3-1.122-.606-2.246c.557-1.568,1.811-.81,2.826-.847Z" transform="translate(-316.961 -387.019)" fill="#ffc20e"/>
        <path id="Path_1046" data-name="Path 1046" d="M358.39,504.546l-.137.636-3.928,1.208C355.59,505.579,356.506,503.995,358.39,504.546Z" transform="translate(-317.137 -386.896)" fill="#ffc20e"/>
        <path id="Path_1047" data-name="Path 1047" d="M369.62,500.633l1.932-.837.141.525-2.081.345Z" transform="translate(-316.882 -386.973)" fill="#ffc20e"/>
        <path id="Path_1048" data-name="Path 1048" d="M381.867,488.466l-7.658,2.873-1.305-.072q-.078-.759-.156-1.515l2.253.336-.411.371.093.246,2.392-1.037,3.993-1.779.907.52Z" transform="translate(-316.83 -387.171)" fill="#ffc20e"/>
        <path id="Path_1049" data-name="Path 1049" d="M367.262,484.014q-.18-1.115-.36-2.229Z" transform="translate(-316.927 -387.273)" fill="#ffc20e"/>
        <path id="Path_1050" data-name="Path 1050" d="M359.138,471.038l1.105-.212-1.07.321Z" transform="translate(-317.057 -387.455)" fill="#ffc20e"/>
        <path id="Path_1051" data-name="Path 1051" d="M366.036,481.93a.379.379,0,0,1-.068.367l-.255-.205Z" transform="translate(-316.947 -387.27)" fill="#ffc20e"/>
        <path id="Path_1052" data-name="Path 1052" d="M323.069,427.036c-1.339-2.344-2.773-4.642-3.966-7.058a9.251,9.251,0,0,1-.366-3.022c1.35,2.522,2.759,5.015,4.01,7.586A7.943,7.943,0,0,1,323.069,427.036Z" transform="translate(-317.729 -388.352)" fill="#ffc20e"/>
        <path id="Path_1053" data-name="Path 1053" d="M326.748,426.982c.3-.535.571-1.091.912-1.6.483-.722,1.019-1.408,1.532-2.11l-1.767,6.065-.025-.01q-.351-.791-.7-1.584C326.714,427.489,326.732,427.235,326.748,426.982Z" transform="translate(-317.596 -388.247)" fill="#ffc20e"/>
        <path id="Path_1054" data-name="Path 1054" d="M325.026,423.78l.653.582Z" transform="translate(-317.624 -388.238)" fill="#ffc20e"/>
        <path id="Path_1055" data-name="Path 1055" d="M324.189,422.83l.509.247Z" transform="translate(-317.638 -388.254)" fill="#ffc20e"/>
        <path id="Path_1056" data-name="Path 1056" d="M324.827,423.387q.1.2.191.393Z" transform="translate(-317.627 -388.245)" fill="#ffc20e"/>
        <path id="Path_1057" data-name="Path 1057" d="M324.644,398.857c-1.905.347-2.069.122-1.642-3.188l1.641,3.191Z" transform="translate(-317.661 -388.706)" fill="#ffc20e"/>
        <path id="Path_1058" data-name="Path 1058" d="M328.591,400.894l-1.868.789,1.331-1.347Z" transform="translate(-317.596 -388.628)" fill="#ffc20e"/>
        <path id="Path_1059" data-name="Path 1059" d="M325.6,397.071q.358.769.718,1.538Z" transform="translate(-317.615 -388.682)" fill="#ffc20e"/>
        <path id="Path_1060" data-name="Path 1060" d="M327.415,429.238l-.1.212.076-.223Z" transform="translate(-317.586 -388.147)" fill="#ffc20e"/>
        <path id="Path_1061" data-name="Path 1061" d="M363.439,526.348l4.577-1.678.122.356-4.468,1.936C363.593,526.757,363.516,526.552,363.439,526.348Z" transform="translate(-316.985 -386.559)" fill="#ffc20e"/>
        <path id="Path_1062" data-name="Path 1062" d="M377.045,489.638l-2.392,1.037-.092-.246.411-.371Z" transform="translate(-316.8 -387.142)" fill="#ffc20e"/>
        <path id="Path_1063" data-name="Path 1063" d="M381.839,488.413l-.907-.52c.2-.1.4-.206.6-.31Q381.683,488,381.839,488.413Z" transform="translate(-316.694 -387.176)" fill="#ffc20e"/>
        <path id="Path_1064" data-name="Path 1064" d="M359.9,502.778l-1.165.568c-1.25.461-2.47,1.363-3.827.259-.416-1.982-1.745-2.063-3.334-1.6l-.714-.556.384-.969-.014-.149,1.25-.282,1.565-.387h.917l4.384-1.071C357.656,500.236,359.692,501.386,359.9,502.778Z" transform="translate(-317.194 -386.993)" fill="#ffc20e"/>
        <path id="Path_1065" data-name="Path 1065" d="M352.476,500.048l-1.25.282-.146-.42,3.515-1.091-1.314.98Z" transform="translate(-317.191 -386.99)" fill="#ffc20e"/>
        <path id="Path_1066" data-name="Path 1066" d="M355.507,498.35l2.406-1.042.242.52L355.793,499Z" transform="translate(-317.117 -387.015)" fill="#ffc20e"/>
        <path id="Path_1067" data-name="Path 1067" d="M355.545,498.333l.286.649-.909.687H354l-.762.138,1.315-.98Z" transform="translate(-317.155 -386.998)" fill="#ffc20e"/>
        <path id="Path_1068" data-name="Path 1068" d="M351.094,499.892l.146.42.014.149-.878.458-.215-.3Z" transform="translate(-317.206 -386.972)" fill="#ffc20e"/>
        <path id="Path_1069" data-name="Path 1069" d="M351.726,440.465c-1.159-.229-1.767-2.477-3.733-.261.041-1.189.058-1.709.076-2.227l.954.088C350.8,437.873,351.134,439.317,351.726,440.465Z" transform="translate(-317.242 -388.002)" fill="#ffc20e"/>
        <path id="Path_1070" data-name="Path 1070" d="M349.029,438.092l-.954-.088-.441-1.082c.271-.2.543-.394.817-.59Q348.743,437.214,349.029,438.092Z" transform="translate(-317.248 -388.029)" fill="#ffc20e"/>
        <path id="Path_1071" data-name="Path 1071" d="M348.357,436.352l-.04-.358.349.156Z" transform="translate(-317.237 -388.035)" fill="#ffc20e"/>
        <path id="Path_1072" data-name="Path 1072" d="M382.878,493.283l-2.2.859q-.055-2.008-.11-4.017l.985-.845c.549.906,1.1,1.811,1.838,3.031Z" transform="translate(-316.7 -387.148)" fill="#ffc20e"/>
        <path id="Path_1073" data-name="Path 1073" d="M351.561,501.956c1.589-.466,2.918-.385,3.334,1.6-.294.359-.552.967-.89,1.015a1.8,1.8,0,0,1-1.458-.494A9.708,9.708,0,0,1,351.561,501.956Z" transform="translate(-317.183 -386.941)" fill="#ffc20e"/>
        <path id="Path_1074" data-name="Path 1074" d="M380.616,524.58l-.655-3.242c.4.006,1.051-.141,1.167.044C381.692,522.285,382.321,523.29,380.616,524.58Z" transform="translate(-316.71 -386.616)" fill="#ffc20e"/>
        <path id="Path_1075" data-name="Path 1075" d="M376.5,492.849l.869,1.843c-.527.062-1.4.336-1.518.147a8.76,8.76,0,0,1-.693-2.139Z" transform="translate(-316.79 -387.091)" fill="#ffc20e"/>
        <path id="Path_1076" data-name="Path 1076" d="M350.476,463.37c-1.228-1.191-2.463-2.375-3.682-3.575-.545-.537-1.059-1.105-1.587-1.659-1.893-3.311-3.823-6.6-5.66-9.942-.727-1.323-1.978-3.211-.584-4.119.732-.477,2.911,1.161,4.366,1.971.353.2.427.893.822,1.806l-2.053-1.428-.512.253a23.071,23.071,0,0,0,4.046,10.386q.546.733,1.093,1.464l.125-.607,2.807-.259.726,4.466.007-.022Z" transform="translate(-317.403 -387.902)" fill="#ffc20e"/>
        <path id="Path_1077" data-name="Path 1077" d="M348.836,450.728,358.9,474.042a4.022,4.022,0,0,1-.748-.86c-3.089-6.741-6.176-13.484-9.195-20.256A6.4,6.4,0,0,1,348.836,450.728Z" transform="translate(-317.228 -387.79)" fill="#ffc20e"/>
        <path id="Path_1078" data-name="Path 1078" d="M341.053,433.722l2.986,6.138a5.4,5.4,0,0,0,.048,1.8c.773,1.984,1.664,3.921,2.511,5.876l-.708.264Z" transform="translate(-317.357 -388.073)" fill="#ffc20e"/>
        <path id="Path_1079" data-name="Path 1079" d="M332.625,426.632c1.948-.736,2.673.639,3.368,1.878.08.143-.708,1.117-1.013,1.079C333.353,429.38,332.714,428.242,332.625,426.632Z" transform="translate(-317.498 -388.194)" fill="#ffc20e"/>
        <path id="Path_1080" data-name="Path 1080" d="M349.538,457.544l-2.807.259-.125.607q-.546-.73-1.093-1.464l3.294-.472-2.64-5.182.546-.265Z" transform="translate(-317.283 -387.785)" fill="#ffc20e"/>
        <path id="Path_1081" data-name="Path 1081" d="M344.552,440.908l1.941,3.441.545,1.179,1.568,4.567-.046.1Z" transform="translate(-317.299 -387.953)" fill="#ffc20e"/>
        <path id="Path_1082" data-name="Path 1082" d="M364.106,483.941a.641.641,0,0,1,0,.165c-.007.028-.055.046-.084.069l.117-.221Z" transform="translate(-316.975 -387.237)" fill="#ffc20e"/>
        <path id="Path_1083" data-name="Path 1083" d="M350.186,461.83l.227.05c-.031.005-.069.025-.095.013a.715.715,0,0,1-.125-.085Z" transform="translate(-317.206 -387.605)" fill="#ffc20e"/>
        <path id="Path_1084" data-name="Path 1084" d="M349.032,449.995l-.27.459q-.133-.206-.267-.409l.046-.1.463.045Z" transform="translate(-317.234 -387.803)" fill="#ffc20e"/>
        <path id="Path_1085" data-name="Path 1085" d="M344.041,412.853l.3-.5Z" transform="translate(-317.308 -388.428)" fill="#ffc20e"/>
        <path id="Path_1086" data-name="Path 1086" d="M340.379,425.62l-2.27.984C338.675,424.744,338.675,424.744,340.379,425.62Z" transform="translate(-317.406 -388.217)" fill="#ffc20e"/>
        <path id="Path_1087" data-name="Path 1087" d="M339.572,415.267l.708.026c-.1.256-.191.512-.285.769Z" transform="translate(-317.382 -388.38)" fill="#ffc20e"/>
        <path id="Path_1088" data-name="Path 1088" d="M349.027,450.072l-.463-.045L347,445.46l.993.791.135-1.221.632-.017Z" transform="translate(-317.259 -387.885)" fill="#ffc20e"/>
        <path id="Path_1089" data-name="Path 1089" d="M364.889,498q.3,1.122.606,2.246l-1,.507q-.247-1.229-.5-2.459l.535-.276C364.65,498.017,364.77,498.011,364.889,498Z" transform="translate(-316.976 -387.003)" fill="#ffc20e"/>
        <path id="Path_1090" data-name="Path 1090" d="M364.531,498.023,364,498.3c-.01-.153-.019-.308-.03-.462Z" transform="translate(-316.976 -387.006)" fill="#ffc20e"/>
        <path id="Path_1091" data-name="Path 1091" d="M368.321,490.948l1.423,2.568-2.283.083Z" transform="translate(-316.918 -387.12)" fill="#ffc20e"/>
        <path id="Path_1092" data-name="Path 1092" d="M353.256,499.785l.762-.138-1.565.387Z" transform="translate(-317.168 -386.976)" fill="#ffc20e"/>
      </g>
    </g>
    <g id="Group_730" data-name="Group 730" transform="translate(0.753)">
      <g id="Group_729" data-name="Group 729" clip-path="url(#clip-path)">
        <g id="Group_728" data-name="Group 728" transform="translate(101.556 79.027)">
          <path id="Path_1093" data-name="Path 1093" d="M425.389,554.984l7.911-1.307s3.745-.943,4.744,1.167-1.274,6.062-.063,7.488,6.538.22,7.281-3.155,1.436-9.015-.988-9.914-6.381.73-14.08,1.352-19.3,3.189-24.675-1.774-11.417-17.944-13.3-25.434a72.217,72.217,0,0,0-6.726-17.093c-.241-.457-.466-.883-.687-1.3l4.613,37.853,2.14,16.933a54.033,54.033,0,0,0,8.15-.894C404.768,558.067,425.389,554.984,425.389,554.984Z" transform="translate(-383.052 -404.042)" fill="none"/>
          <path id="Path_1094" data-name="Path 1094" d="M385.517,507.966a72.218,72.218,0,0,1,6.726,17.093c1.888,7.491,7.934,20.47,13.3,25.434s16.976,2.4,24.675,1.774,11.656-2.252,14.08-1.352,1.731,6.541.988,9.914-6.07,4.58-7.281,3.155,1.062-5.377.063-7.488-4.744-1.167-4.744-1.167l-7.911,1.307s-20.621,3.082-25.684,3.919a54.044,54.044,0,0,1-8.15.894l1.394,11.033c8.336,6.508,19.086,15.042,21.006,17.251,3.212,3.7,8.276,2.859,8.276,2.859s22.528-9.248,29.227-11.981,9.706-2.254,12.71-1.776,8.272,4.811,11.745,10.088.2,7.118.2,7.118-12.873,4.727-26.221,10.51-32.387,8.6-40.453,7.01c-4.015-.793-8.624-4.226-12.244-7.474l3.308,26.181-.3-15.556c1.693-3.531,7.7,1.329,14.34,2.182s16.348-1.4,26.9-4.445,29.751-8.818,39.038-13.6,7.394-8.374,7.394-8.374l-3.008,1.472-2.477-1.216a27.669,27.669,0,0,0-6.472-9.658,47.584,47.584,0,0,0-10.641-7.344s.055-1.635,5.542-3.842.85-4.692.85-4.692l-17.252,7.728S422.263,588.691,421,588.9s-9.483-6.235-11.643-7.5-2.315-4.168-2.315-4.168,8.555-9.216,8.294-10.8-2.215.367-2.215.367-8.765,7.949-9.925,8.792-5.638-2.644-9.114-5.972.85-4.691.85-4.691l13.608-2.249s21.837-5.559,25.368-3.867-1.7,7.433.672,9.967,6.433-.414,11.446-3.518,20.8-15.789,23.7-17.895a3.109,3.109,0,0,1,4.692.85s.941,5.7,3.892,7.81,7.223.431,10.756.173,9.695,5.55,12.429,10.3,6.057,5.176.714,18.087-23.552,24.7-29.358,28.907c-3.563,2.584-15.846,10.891-24.81,16.927l10.509-.41c3.625-2.332,7.924-5.133,13.025-8.5,27.549-18.206,34.109-33.594,36.965-39.917s-.353-11.97-1.456-14.714,2.375-1.367,2.375-1.367a42.122,42.122,0,0,0,15.664-3.564c7.862-3.574,10.727-15.751,10.366-21.868s-7.785-13.668-8.519-16.146-1.308-7.911-3.2-9.549.269-4.27,1.59-6.114,5.7-6.794,7.875-13.329.124-13.024-6.3-18.464-14.281-5.767-17.971-6.458.638-4.007,2.066-7.168,2.067-7.168,1.819-18.5S504.325,424.29,504.7,422.6s5.225-3.789,5.225-3.789,5.913-5.529-1.462-10.812-10.5,3.36-13.136,5.1-3.9-.005-6.907-.484-7.531-6.232-13.12-6.609-20.2,1.712-27.79,1.017-24.515-2.777-27.577.33,3.154,7.281,3.154,7.281-7.86,1.624-18.794,16.109-9.9,28.618-10.222,32.573-.063,7.487-5.082,14.493c-3.31,4.622-5.08,10.812-5.9,14.5l1.749,14.353C385.051,507.082,385.276,507.508,385.517,507.966Zm75.375-94.7c.055-1.635,4.482-.416,4.482-.416s16.979.445,22.353,3.459,9.224,2.7,16.164,17.159,2.126,26.631,1.383,30.005-4.375-.9-5.534-2.012-2.947-4.063-5.688-4.911-3.371-2.694-7-10.872-9.891-16.57-17.211-23.488S460.837,414.9,460.892,413.263ZM456.143,416c15.278,9.828,20.908,18.325,22.271,24.6.946,1.794-15.38-12.412-22.6-16.746s-23.132-12.107-23.132-12.107S440.865,406.17,456.143,416Zm-69.4,79.735c-.045-6.169,4.605-13.439,4.605-13.439s3.96-3.581,5.388-6.742,1.386-11.282,1.386-11.282a58.3,58.3,0,0,1,5.358-22.666c5.34-10.96,14.313-17.645,20.964-22.645s11.076-1.83,11.076-1.83,8.852,4.388,15.965,8.089,19.648,14.633,25.6,19.176,10.952,11.193,14.219,13.254,4.581,4.119,6.843,7.972,8.426,7.709,8.426,7.709,11.283,1.387,13.495,2.972,7.108,7.6,8,12.983-2.548,12.124-6.879,17.392-17.509,2.243-17.509,2.243,5.074,2.469,5.329,3.164c2.785.335,7.46.987,9.376,1.233,3.321.426-.214,2.636-.214,2.636s-1.48,2.846-7.284,5.1-13.181-1.072-13.181-1.072a40.559,40.559,0,0,0,3.95,4.223c1.106.793,6.324,2.857,12.391.229s6.441-6.267,7.968-4.893,2.1,6.805-.329,9.808-4.018,7.165-13.984,7.837-11.957-9.4-13.54-9.142-.586,4.324-.586,4.324,1.362,6.276,11.167,8.557,13.555-2.565,16.986-5.407,5.644-1.258,6.433-.413,2.1,4.853.832,8.965-8.343,8.531-12.038,11.742-12.663,5.993-18.88,1.819-10.643-5.392-14.493-5.081-4.793-3.434-5.476-5.6a9.346,9.346,0,0,0-4.74-5.068c-1.738-.688-.258-3.533,1.489-8.7s3.169-4.424,7.4-10.325,4.7-3.052,9.658-6.472,5.495-8.06,7.088-16.125-6.472-9.659-6.472-9.659l1.788,2.955s2.1,6.805,1.25,11.5-5.864,7.8-10.611,8.579-7.217-4.333-8.536-4.441,1.47,4.959,1.836,7.173-.958,6.01-.958,6.01-7.182,7.689-9.355,16.175-3.7,9.064-3.7,9.064-10.875,8.948-14.461,8.891-1.945-3.9-1.361-6.277a3.465,3.465,0,0,1,3.167-2.475,35.944,35.944,0,0,1,9.129-5.735c5.171-2.154.482-4.956.482-4.956l-6.648,3.05s-10.608,6.629-27.7,9.453-19.768-3.56-23.456-6.2-7.249-20.258-10.506-28.172S386.791,501.9,386.747,495.734Z" transform="translate(-383.081 -405.694)"/>
          <path id="Path_1095" data-name="Path 1095" d="M502.048,582.278c5.343-12.911,2.022-13.338-.714-18.087s-8.9-10.559-12.429-10.3-7.807,1.94-10.756-.173-3.892-7.81-3.892-7.81a3.109,3.109,0,0,0-4.692-.85c-2.9,2.105-18.686,14.791-23.7,17.895s-9.078,6.051-11.446,3.518,2.858-8.274-.672-9.967-25.368,3.867-25.368,3.867l-13.608,2.249s-4.325,1.364-.85,4.691,7.953,6.813,9.114,5.972,9.925-8.792,9.925-8.792,1.953-1.949,2.215-.367-8.294,10.8-8.294,10.8.155,2.9,2.315,4.168,10.377,7.713,11.643,7.5,33.449-13.98,33.449-13.98l17.252-7.727s4.637,2.485-.85,4.692-5.542,3.842-5.542,3.842a47.58,47.58,0,0,1,10.641,7.344,27.669,27.669,0,0,1,6.472,9.658l2.477,1.216,3.008-1.472s1.893,3.589-7.394,8.374-28.488,10.559-39.038,13.6-20.255,5.3-26.9,4.445-12.647-5.713-14.34-2.182l.3,15.556,47.507-1.85c8.964-6.036,21.247-14.343,24.81-16.927C478.5,606.975,496.7,595.189,502.048,582.278Z" transform="translate(-382.923 -403.388)" fill="#c62127"/>
          <path id="Path_1096" data-name="Path 1096" d="M409.306,610.832c8.066,1.593,27.1-1.228,40.453-7.01s26.221-10.51,26.221-10.51,3.272-1.841-.2-7.119-8.74-9.609-11.745-10.088-6.009-.957-12.71,1.776S422.1,589.863,422.1,589.863s-5.064.837-8.275-2.859c-1.919-2.209-12.669-10.744-21.006-17.251l4.247,33.6C400.682,606.606,405.291,610.039,409.306,610.832Z" transform="translate(-382.919 -402.965)" fill="#fff"/>
          <path id="Path_1097" data-name="Path 1097" d="M403.336,543.2c3.687,2.641,6.368,9.025,23.456,6.2s27.7-9.453,27.7-9.453l6.648-3.05s4.689,2.8-.482,4.956a35.939,35.939,0,0,0-9.129,5.735,3.465,3.465,0,0,0-3.167,2.474c-.584,2.372-2.223,6.219,1.361,6.277s14.461-8.892,14.461-8.892,1.53-.578,3.7-9.064,9.355-16.175,9.355-16.175,1.324-3.8.958-6.01-3.154-7.28-1.836-7.174,3.789,5.225,8.536,4.441,9.761-3.888,10.611-8.579-1.249-11.5-1.249-11.5l-1.788-2.955s8.065,1.593,6.472,9.659-2.127,12.7-7.088,16.125-5.432.572-9.658,6.472-5.65,5.16-7.4,10.325-3.228,8.01-1.489,8.7a9.346,9.346,0,0,1,4.74,5.068c.682,2.163,1.626,5.909,5.476,5.6s8.277.908,14.493,5.081,15.185,1.393,18.88-1.819,10.767-7.631,12.038-11.742-.042-8.12-.832-8.965-3-2.43-6.433.413-7.182,7.689-16.986,5.408-11.167-8.557-11.167-8.557-1-4.062.586-4.324,3.573,9.813,13.54,9.142,11.554-4.835,13.984-7.837,1.856-8.434.329-9.808-1.9,2.265-7.968,4.893-11.285.564-12.391-.229a40.556,40.556,0,0,1-3.95-4.223s7.378,3.331,13.181,1.072,7.284-5.1,7.284-5.1,3.536-2.21.214-2.636c-1.916-.246-6.592-.9-9.376-1.233.074.2-.236.261-1.221.058-1.85-.381-.82-.3,1.221-.058-.255-.694-5.329-3.164-5.329-3.164s13.179,3.023,17.51-2.243,7.768-12.011,6.879-17.392-5.785-11.4-8-12.982-13.495-2.972-13.495-2.972-6.164-3.857-8.426-7.709-3.577-5.911-6.843-7.972-8.267-8.712-14.219-13.254-18.487-15.475-25.6-19.176-15.965-8.089-15.965-8.089-4.425-3.17-11.076,1.83-15.624,11.684-20.964,22.645a58.305,58.305,0,0,0-5.358,22.666s.042,8.12-1.386,11.282-5.388,6.742-5.388,6.742-4.65,7.27-4.605,13.439,2.883,11.552,6.142,19.466S399.648,540.559,403.336,543.2Zm63.554-87.548s3.285-.358,2.741.847a60.488,60.488,0,0,1-4.65,7.271c-3.7,5.162-1.018,11.546,1.665,15.978s11.017,1.756,17.452,1.343,9.066,1.753,10.962,3.389-1.059,3.426-4.433,2.683-4.535.1-4.535.1-17.676,9.1-25.831-4.834S466.89,455.653,466.89,455.653Zm-42.438-6.966,9.182-5.419s5.272.429,7.273,2.7-1.111,3.11-1.111,3.11-1.844-1.321-5.325-.746-6.6,3.366-9.074,4.1S424.452,448.687,424.452,448.687Zm2.989,18.229c3.2-2.222,7.147-2.078,8.814.322s.423,6.15-2.778,8.372-7.147,2.078-8.814-.323S424.24,469.138,427.441,466.916Zm-27.626,29.4c2.8-.787,3.057.8,6.854.168s3.379-3.159,9.07-.2,7.746,3.6,9.058,7.605,3.371,2.694,1.195,13.131S415.586,530.773,411,530.555s-8.324-5.126-9.211-12.456-4.51-17.46-4.51-17.46S397.019,497.106,399.815,496.319Z" transform="translate(-383.021 -405.523)" fill="#fff"/>
          <path id="Path_1098" data-name="Path 1098" d="M505.764,510.4c.985.2,1.3.143,1.221-.058C504.943,510.1,503.914,510.022,505.764,510.4Z" transform="translate(-381.056 -403.956)" fill="#fff"/>
          <path id="Path_1099" data-name="Path 1099" d="M477.6,440.527c-1.362-6.277-6.992-14.774-22.271-24.6s-23.459-4.252-23.459-4.252,15.913,7.773,23.132,12.107S478.548,442.321,477.6,440.527Z" transform="translate(-382.269 -405.621)" fill="#c62127"/>
          <path id="Path_1100" data-name="Path 1100" d="M485.78,445.564c3.626,8.178,4.257,10.024,7,10.872s4.529,3.8,5.688,4.911,4.791,5.385,5.534,2.012,5.558-15.547-1.383-30.005-10.789-14.146-16.164-17.159-22.353-3.458-22.353-3.458-4.427-1.219-4.482.416,1.632,2.006,8.952,8.923S482.153,437.387,485.78,445.564Z" transform="translate(-381.808 -405.584)" fill="#c62127"/>
          <path id="Path_1101" data-name="Path 1101" d="M424.786,451.985c2.479-.735,5.594-3.526,9.075-4.1s5.325.746,5.325.746,3.112-.84,1.111-3.11-7.273-2.7-7.273-2.7l-9.182,5.419S422.307,452.719,424.786,451.985Z" transform="translate(-382.411 -405.076)"/>
          <path id="Path_1102" data-name="Path 1102" d="M484.928,486.615s1.161-.843,4.535-.1,6.329-1.046,4.433-2.683-4.529-3.8-10.962-3.39-14.769,3.091-17.452-1.343-5.364-10.816-1.665-15.979a60.491,60.491,0,0,0,4.65-7.271c.544-1.2-2.741-.847-2.741-.847s-14.782,12.845-6.628,26.777S484.928,486.615,484.928,486.615Z" transform="translate(-381.857 -404.875)"/>
          <path id="Path_1103" data-name="Path 1103" d="M401.615,516.808c.887,7.33,4.624,12.239,9.211,12.456s12.818-3.093,14.993-13.531.118-9.121-1.195-13.131-3.368-4.645-9.058-7.605-5.272-.429-9.07.2-4.058-.955-6.854-.168-2.537,4.321-2.537,4.321S400.73,509.477,401.615,516.808Zm.124-13.024c-.05-2.268,6.912-3.418,6.912-3.418,5.641.693,10.542,2.809,13.28,5.608s-2.851,2.422-2.851,2.422a58.017,58.017,0,0,1-10.441-.226C402.684,507.529,401.789,506.051,401.739,503.784Z" transform="translate(-382.848 -404.232)"/>
          <path id="Path_1104" data-name="Path 1104" d="M408.564,508.059a58.023,58.023,0,0,0,10.441.226s5.588.376,2.851-2.422-7.639-4.914-13.28-5.608c0,0-6.962,1.15-6.912,3.418S402.607,507.418,408.564,508.059Z" transform="translate(-382.772 -404.121)" fill="#fff"/>
          <path id="Path_1105" data-name="Path 1105" d="M432.867,474.8c3.2-2.222,4.445-5.971,2.779-8.372s-5.614-2.545-8.814-.322-4.446,5.97-2.778,8.371S429.666,477.025,432.867,474.8Z" transform="translate(-382.412 -404.715)"/>
        </g>
      </g>
    </g>
  </g>
</svg>
