<svg xmlns="http://www.w3.org/2000/svg" width="21.576" height="20.56" viewBox="0 0 21.576 20.56"><defs><style>.a{fill:#256bd1;stroke:#256bd1;stroke-width:0.5px;}</style></defs><g transform="translate(0.267 -12.366)"><g transform="translate(0 12.676)"><path class="a" d="M20.689,21.561l-1.778-1.62V14.571a.619.619,0,0,0-.619-.619H14.013a.619.619,0,0,0-.619.619v.344l-2.147-1.956a1.074,1.074,0,0,0-1.453,0l-9.441,8.6a1.079,1.079,0,0,0,.727,1.877H2.588v8.619a.619.619,0,0,0,.619.619H8.382A.619.619,0,0,0,9,32.057V26.823h3.041v5.233a.619.619,0,0,0,.619.619h5.174a.619.619,0,0,0,.619-.619V23.438h1.508a1.079,1.079,0,0,0,.727-1.877Zm-2.854.639a.619.619,0,0,0-.619.619v8.619H13.279V26.2a.619.619,0,0,0-.619-.619H8.382a.619.619,0,0,0-.619.619v5.233H3.826V22.819a.619.619,0,0,0-.619-.619H1.49l9.031-8.229,3.076,2.8a.619.619,0,0,0,1.036-.457V15.189h3.041v5.025a.619.619,0,0,0,.2.457L19.552,22.2H17.835Z" transform="translate(0 -12.676)"/></g></g></svg>