<svg xmlns="http://www.w3.org/2000/svg" width="16.964" height="20.5" viewBox="0 0 16.964 20.5">
  <g id="Group_12182" data-name="Group 12182" transform="translate(4505.249 7671.25)">
    <path id="Path_18273" data-name="Path 18273" d="M-4504.291-7669.692v17.979h15.188v-13.419l-6.3-5.131Z" fill="#d2e1f8" stroke="#256bd1" stroke-width="0.5"/>
    <g id="html" transform="translate(-4550.248 -7671)">
      <g id="Group_12174" data-name="Group 12174" transform="translate(45.249)">
        <g id="Group_12173" data-name="Group 12173">
          <path id="Path_18268" data-name="Path 18268" d="M61.487,5.768,55.6.2a.727.727,0,0,0-.5-.2H45.975a.726.726,0,0,0-.726.726V19.274a.726.726,0,0,0,.726.726H60.987a.726.726,0,0,0,.726-.726V6.3a.727.727,0,0,0-.226-.532ZM60.261,18.547H46.7V1.453h8.113l5.446,5.155V18.547Z" transform="translate(-45.249)" fill="#256bd1" stroke="#256bd1" stroke-width="0.5"/>
        </g>
      </g>
      <g id="Group_12179" data-name="Group 12179" transform="translate(-1 -1)">
        <path id="Path_18269" data-name="Path 18269" d="M304.844,258.788l-2.086-2.486a.857.857,0,0,0-1.313,1.1l1.623,1.935-1.623,1.935a.857.857,0,1,0,1.313,1.1l2.086-2.486a.856.856,0,0,0,0-1.1Z" transform="translate(-244.779 -245.744)" fill="#256bd1" stroke="#256bd1" stroke-width="0.5"/>
        <g id="Group_12176" data-name="Group 12176" transform="translate(48.493 10.253)">
          <g id="Group_12175" data-name="Group 12175">
            <path id="Path_18270" data-name="Path 18270" d="M131.9,261.284l-1.624-1.935,1.623-1.934a.857.857,0,0,0-1.313-1.1L128.5,258.8a.857.857,0,0,0,0,1.1l2.086,2.486a.857.857,0,1,0,1.314-1.1Z" transform="translate(-128.305 -256.007)" fill="#256bd1" stroke="#256bd1" stroke-width="0.5"/>
          </g>
        </g>
        <g id="Group_12178" data-name="Group 12178" transform="translate(52.893 8.596)">
          <g id="Group_12177" data-name="Group 12177">
            <path id="Path_18271" data-name="Path 18271" d="M226.007,220.058a.86.86,0,0,0-.976.719l-1.257,8.286a.857.857,0,1,0,1.7.257l1.257-8.286a.857.857,0,0,0-.719-.976Z" transform="translate(-223.764 -220.048)" fill="#256bd1" stroke="#256bd1" stroke-width="0.5"/>
          </g>
        </g>
      </g>
      <g id="Group_12181" data-name="Group 12181" transform="translate(54.377 0.726)">
        <g id="Group_12180" data-name="Group 12180">
          <path id="Path_18272" data-name="Path 18272" d="M280.388,23.439V18.6h-1.453v5.569a.726.726,0,0,0,.726.726h5.884V23.439Z" transform="translate(-278.935 -18.596)" fill="#256bd1" stroke="#256bd1" stroke-width="0.5"/>
        </g>
      </g>
    </g>
  </g>
</svg>
