<svg xmlns="http://www.w3.org/2000/svg" width="82" height="82" viewBox="0 0 82 82">
  <g id="Group_408" data-name="Group 408" transform="translate(-124 -1701)">
    <circle id="Ellipse" cx="41" cy="41" r="41" transform="translate(124 1701)" fill="#03a9f4"/>
    <path id="Path_162" data-name="Path 162" d="M35.849,60.886a14.686,14.686,0,0,1-4.223,1.158,7.384,7.384,0,0,0,3.232-4.066,14.825,14.825,0,0,1-4.673,1.785,7.36,7.36,0,0,0-12.531,6.7A20.878,20.878,0,0,1,2.5,58.785,7.362,7.362,0,0,0,4.775,68.6a7.354,7.354,0,0,1-3.331-.923v.092a7.361,7.361,0,0,0,5.9,7.211,7.449,7.449,0,0,1-1.938.258A7.058,7.058,0,0,1,4.02,75.1a7.358,7.358,0,0,0,6.868,5.107,14.754,14.754,0,0,1-9.133,3.143A15.629,15.629,0,0,1,0,83.251,20.787,20.787,0,0,0,11.273,86.56C24.8,86.56,32.2,75.355,32.2,65.637l-.025-.952A14.685,14.685,0,0,0,35.849,60.886Z" transform="translate(148.075 1671.559)" fill="#fff"/>
  </g>
</svg>
