<svg xmlns="http://www.w3.org/2000/svg" width="32" height="32" viewBox="0 0 32 32"><g transform="translate(-1767 -315.59)"><g transform="translate(1767 315.59)" fill="#256bd1" stroke="#256bd1" stroke-width="1" opacity="0.2"><rect width="32" height="32" rx="4" stroke="none"/><rect x="0.5" y="0.5" width="31" height="31" rx="3.5" fill="none"/></g><g transform="translate(1760 324.5)"><g transform="translate(19.169)"><path d="M136.11,3.777,132.505.155a.562.562,0,0,0-.775,0l-3.605,3.622a.41.41,0,0,0-.081.485.524.524,0,0,0,.469.265h2.06v5.886a.487.487,0,0,0,.515.453h2.06a.487.487,0,0,0,.515-.453V4.527h2.06a.522.522,0,0,0,.469-.265A.409.409,0,0,0,136.11,3.777Z" transform="translate(-127.998 0)" fill="#256bd1"/></g><g transform="translate(16 9.96)"><path d="M28.787,352v2.716H17.967V352H16v3.622a.947.947,0,0,0,.984.905H29.771a.946.946,0,0,0,.984-.905V352Z" transform="translate(-16 -352)" fill="#256bd1"/></g></g></g></svg>