<svg xmlns="http://www.w3.org/2000/svg" width="13.125" height="14" viewBox="0 0 13.125 14"><defs><style>.a{fill:#fff;}</style></defs><g transform="translate(-16)"><g transform="translate(19.062)"><path class="a" d="M134.89,3.65,131.827.15a.437.437,0,0,0-.658,0l-3.062,3.5a.437.437,0,0,0,.329.725h1.75v5.688a.438.438,0,0,0,.438.438h1.75a.438.438,0,0,0,.438-.437V4.375h1.75a.437.437,0,0,0,.329-.725Z" transform="translate(-127.998 0)"/></g><g transform="translate(16 9.625)"><path class="a" d="M27.375,352v2.625H17.75V352H16v3.5a.875.875,0,0,0,.875.875H28.25a.874.874,0,0,0,.875-.875V352Z" transform="translate(-16 -352)"/></g></g></svg>