<svg xmlns="http://www.w3.org/2000/svg" width="82" height="82" viewBox="0 0 82 82">
  <g id="Group_409" data-name="Group 409" transform="translate(-331 -1701)">
    <path id="Path_163" data-name="Path 163" d="M32.659,0A32.659,32.659,0,1,1,0,32.66,32.66,32.66,0,0,1,32.659,0Z" transform="translate(340 1710)" fill="#c4302b"/>
    <g id="Group_407" data-name="Group 407">
      <circle id="Ellipse" cx="41" cy="41" r="41" transform="translate(331 1701)" fill="#c4302b"/>
      <path id="Path_164" data-name="Path 164" d="M81.33,68.948a3.845,3.845,0,0,0,2.433-.8,2.329,2.329,0,0,0,.882-1.929V61.271a2.175,2.175,0,0,0-.9-1.794,3.682,3.682,0,0,0-2.315-.694,4.149,4.149,0,0,0-2.466.657,2.074,2.074,0,0,0-.919,1.774v4.968a2.372,2.372,0,0,0,.894,1.945A3.718,3.718,0,0,0,81.33,68.948Zm-1.08-7.493A.529.529,0,0,1,80.542,61a1.473,1.473,0,0,1,.759-.174A1.664,1.664,0,0,1,82.12,61a.524.524,0,0,1,.31.459v4.707a.623.623,0,0,1-.306.549,1.508,1.508,0,0,1-.823.2,1.311,1.311,0,0,1-.78-.2.639.639,0,0,1-.272-.551Zm7.914,7.487a2.548,2.548,0,0,0,1.117-.416,4.178,4.178,0,0,0,1.113-.927v1.1h1.929V58.769H90.393v7.538a2.736,2.736,0,0,1-.594.533,1.1,1.1,0,0,1-.539.21.451.451,0,0,1-.392-.159.825.825,0,0,1-.126-.506V58.771H86.817v8.3a2.189,2.189,0,0,0,.339,1.329A1.266,1.266,0,0,0,88.164,68.942Zm5.609,4.1H70.463a6.583,6.583,0,0,0-6.709,6.446v5.45a6.583,6.583,0,0,0,6.709,6.448H93.773a6.584,6.584,0,0,0,6.709-6.448v-5.45A6.583,6.583,0,0,0,93.773,73.047ZM73.93,78.579H71.869v8.536H69.875V78.579H67.813V77.123h6.118S73.93,78.579,73.93,78.579Zm6.152,8.655H77.933v-.886a4.59,4.59,0,0,1-1.243.745,3.261,3.261,0,0,1-1.247.259,1.558,1.558,0,0,1-1.123-.363,1.429,1.429,0,0,1-.378-1.078v-6.74h2.149v6.183a.56.56,0,0,0,.131.412.635.635,0,0,0,.443.126,1.482,1.482,0,0,0,.6-.17,2.755,2.755,0,0,0,.667-.433V79.169h2.149S80.083,87.234,80.083,87.234ZM88.219,85.7a1.506,1.506,0,0,1-.5,1.215,2.157,2.157,0,0,1-1.441.422,3.5,3.5,0,0,1-1.113-.161,2.8,2.8,0,0,1-.908-.506v.572H82.112V77.123h2.145v3.26a3.494,3.494,0,0,1,.91-.518,2.794,2.794,0,0,1,.98-.178,2.231,2.231,0,0,1,1.537.474,1.775,1.775,0,0,1,.535,1.4ZM96.4,83.423h-3.96V84.88a1.323,1.323,0,0,0,.2.847.9.9,0,0,0,.7.235,1.03,1.03,0,0,0,.723-.2,1.31,1.31,0,0,0,.208-.884v-.351H96.4v.4a2.106,2.106,0,0,1-.782,1.79,3.772,3.772,0,0,1-2.325.6,3.427,3.427,0,0,1-2.192-.637,2.118,2.118,0,0,1-.8-1.751V81.451a1.943,1.943,0,0,1,.882-1.641,3.786,3.786,0,0,1,2.266-.631,3.541,3.541,0,0,1,2.186.586,2,2,0,0,1,.761,1.684S96.4,83.423,96.4,83.423ZM72.775,68.971h2.435V63.037l2.835-8.369H75.57l-1.507,5.72h-.155l-1.58-5.72H69.873l2.9,8.636S72.775,68.971,72.775,68.971Zm12.37,11.9-.451.074-.439.227v4.65a1.869,1.869,0,0,0,.5.263l.512.08A.849.849,0,0,0,85.845,86a.645.645,0,0,0,.184-.51V81.638a.708.708,0,0,0-.222-.574A1.007,1.007,0,0,0,85.145,80.871Z" transform="translate(290.542 1667.59)" fill="#fff"/>
    </g>
    <path id="Path_165" data-name="Path 165" d="M193.03,170.021a.982.982,0,0,0-.71.212.936.936,0,0,0-.212.694v.78h1.831v-.78a.779.779,0,0,0-.908-.906Z" transform="translate(190.967 1578.101)" fill="#fff"/>
  </g>
</svg>
